<svg id="Layer_1" data-name="Layer 1" xmlns="http://www.w3.org/2000/svg" width="934.09" height="525.67" viewBox="0 0 934.09 525.67">
  <defs>
    <style>
      .cls-1 {
        fill: #7ccfed;
      }

      .cls-2 {
        fill: #8ed9ed;
      }

      .cls-3 {
        fill: #dba967;
      }

      .cls-4 {
        fill: #e8e8e8;
      }

      .cls-5 {
        fill: #fff;
      }

      .cls-6 {
        fill: #212121;
      }

      .cls-7 {
        fill: #337242;
      }

      .cls-8 {
        fill: #3fa554;
      }

      .cls-9 {
        fill: #4d4d4d;
        opacity: 0.39;
      }

      .cls-10 {
        fill: #ea8744;
      }

      .cls-11 {
        fill: #d67f43;
      }

      .cls-12 {
        fill: #141211;
        opacity: 0.08;
      }

      .cls-13 {
        fill: #ffe688;
      }

      .cls-14 {
        fill: #f7d574;
      }

      .cls-15 {
        fill: #d38548;
        opacity: 0.58;
      }

      .cls-16 {
        fill: #adea68;
      }

      .cls-17 {
        opacity: 0.71;
      }
    </style>
  </defs>
  <g>
    <g>
      <polyline class="cls-1" points="0 276.72 109.36 276.72 109.36 0 0 0"/>
      <rect class="cls-1" x="231.12" width="121.76" height="276.72"/>
      <rect class="cls-2" x="109.36" width="121.76" height="276.72"/>
      <rect class="cls-2" x="352.88" width="121.76" height="276.72"/>
      <rect class="cls-1" x="474.64" width="121.76" height="276.72"/>
      <rect class="cls-2" x="596.4" width="121.76" height="276.72"/>
      <rect class="cls-1" x="718.16" width="121.76" height="276.72"/>
      <polyline class="cls-2" points="933.85 0 839.92 0 839.92 276.72 933.85 276.72"/>
    </g>
    <g>
      <rect class="cls-3" y="342.74" width="934.09" height="182.93"/>
      <rect class="cls-4" y="276.92" width="933.85" height="65.87"/>
      <rect class="cls-5" y="276.92" width="933.85" height="7.23"/>
      <path class="cls-6" d="M608.91,245.31v98H461.11v-98a74.35,74.35,0,0,1,1.17-13.18,74,74,0,0,1,104-53.79,74.22,74.22,0,0,1,25,19.1c1.58,1.86,3.06,3.79,4.46,5.8A73.32,73.32,0,0,1,607,228.39c.36,1.53.67,3.07.93,4.63A74.21,74.21,0,0,1,608.91,245.31Z"/>
      <g>
        <path class="cls-6" d="M674.4,128.55c-3.68,23.47-7.74,47.14-16.41,69.37C650.53,217,639.27,235,623.4,248.22a80.51,80.51,0,0,1-28.64,15.65c-1.85.55-1.06,3.44.79,2.89,19.36-5.73,35.43-19,47.38-35,13.65-18.26,21.58-40,26.83-62,3.17-13.32,5.42-26.84,7.54-40.37.29-1.89-2.6-2.7-2.9-.79Z"/>
        <path class="cls-6" d="M599.34,234.21c7.17-3.8,14.4-7.6,21.31-11.88A70.76,70.76,0,0,0,630.73,215a55.93,55.93,0,0,0,8.38-9.72,232.42,232.42,0,0,0,13.81-23q6.42-11.91,11.8-24.35,6.18-14.33,10.94-29.19c.58-1.84-2.31-2.63-2.9-.8A308.1,308.1,0,0,1,652,177.62c-4.07,7.75-8.44,15.35-13.18,22.7A66.23,66.23,0,0,1,631,210.58a56.32,56.32,0,0,1-9.63,7.77c-7.5,4.92-15.58,9.07-23.5,13.27-1.71.9-.2,3.49,1.51,2.59Z"/>
        <path class="cls-6" d="M670.7,128q-13.38,18.31-28.12,35.6c-4.34,5.08-8.67,10.53-14.22,14.35a40.28,40.28,0,0,1-9.11,4.33,53.74,53.74,0,0,0-9.72,4.77,98,98,0,0,1-10.31,5.77,67.58,67.58,0,0,1-11.59,4.09,1.51,1.51,0,0,0,.8,2.9,74.11,74.11,0,0,0,20.3-8.73,61.83,61.83,0,0,1,9.61-5.27c3.31-1.3,6.71-2.33,9.79-4.16,5.83-3.46,10.33-8.68,14.71-13.76q7.47-8.66,14.6-17.6,8.14-10.22,15.85-20.78c1.14-1.56-1.46-3.06-2.59-1.51Z"/>
        <path class="cls-6" d="M670.5,127.57c-14.85,4.12-28.19,12-42.43,17.69-7.43,3-15.13,5.16-22.54,8.2a164,164,0,0,0-20.21,10,166.15,166.15,0,0,0-20.73,14.38c-1.5,1.22.63,3.33,2.12,2.12a159.72,159.72,0,0,1,37.76-22.78c7.29-3.13,14.89-5.37,22.29-8.18,7-2.66,13.81-5.91,20.61-9.08,7.78-3.62,15.64-7.11,23.92-9.41a1.5,1.5,0,0,0-.79-2.9Z"/>
        <path class="cls-6" d="M671.26,154.54c-.51,0-1-.07-1.51-.13l-.75-.08h.11l-.23,0-.35-.05c-1-.16-2-.36-3-.6a1.5,1.5,0,1,0-.8,2.89,36.48,36.48,0,0,0,6.49,1,1.5,1.5,0,0,0,0-3Z"/>
        <path class="cls-6" d="M665.67,153.55a48.79,48.79,0,0,1-6.72-6.76,1.51,1.51,0,0,0-2.12,0,1.53,1.53,0,0,0,0,2.12,48.79,48.79,0,0,0,6.72,6.76,1.55,1.55,0,0,0,2.12,0,1.51,1.51,0,0,0,0-2.12Z"/>
        <path class="cls-6" d="M649.7,137.73a14.16,14.16,0,0,1,1.49,2.25l1.61,2.6,3.22,5.2a1.5,1.5,0,0,0,2.59-1.51l-3.33-5.38-1.61-2.6a15.91,15.91,0,0,0-1.84-2.68,1.5,1.5,0,0,0-2.13,2.12Z"/>
        <path class="cls-6" d="M666.57,175.61l-6-1a15.3,15.3,0,0,0-6.14-.06,1.5,1.5,0,0,0,.79,2.89,12.43,12.43,0,0,1,5,.13l5.53.93a1.55,1.55,0,0,0,1.85-1,1.53,1.53,0,0,0-1-1.85Z"/>
        <path class="cls-6" d="M656.2,174a36.48,36.48,0,0,0-4.29-6.49,15.22,15.22,0,0,0-6.52-4.36,1.5,1.5,0,1,0-.8,2.89,12.35,12.35,0,0,1,5.31,3.72,20.61,20.61,0,0,1,1.9,2.65c.64,1,1.22,2.06,1.81,3.11a1.52,1.52,0,0,0,2,.54,1.54,1.54,0,0,0,.54-2.06Z"/>
        <path class="cls-6" d="M632.14,145.79c2.77,2.34,5.31,4.72,7,8a55,55,0,0,1,4,10.26,1.5,1.5,0,0,0,2.9-.79,59.93,59.93,0,0,0-4.32-11,28.91,28.91,0,0,0-7.47-8.6c-1.47-1.23-3.6.88-2.12,2.13Z"/>
        <path class="cls-6" d="M659.15,199.56a63.82,63.82,0,0,0-7-3.57c-2.48-1.07-5-2.23-7.78-1.75a1.51,1.51,0,0,0-1.05,1.84,1.53,1.53,0,0,0,1.85,1,6.27,6.27,0,0,1,3,.48c1.07.37,2.12.82,3.15,1.28a66.69,66.69,0,0,1,6.35,3.26,1.5,1.5,0,0,0,1.51-2.59Z"/>
        <path class="cls-6" d="M645.63,194.83c-1.31-3.86-2.65-7.82-4.91-11.25a22.06,22.06,0,0,0-8.68-7.69c-1.73-.85-3.25,1.74-1.51,2.59a19.06,19.06,0,0,1,7.77,6.88,46.56,46.56,0,0,1,4.44,10.27c.62,1.82,3.52,1,2.89-.8Z"/>
        <path class="cls-6" d="M633.51,176.22a53.84,53.84,0,0,0-15.12-26.62c-1.4-1.33-3.52.78-2.12,2.12A51,51,0,0,1,630.62,177c.44,1.88,3.33,1.08,2.89-.8Z"/>
        <path class="cls-6" d="M651,216.44c-5.79-3.36-11.61-6.94-18.38-7.84a1.51,1.51,0,0,0-1.5,1.5,1.53,1.53,0,0,0,1.5,1.5c6.16.82,11.61,4.38,16.87,7.43a1.5,1.5,0,0,0,1.51-2.59Z"/>
        <path class="cls-6" d="M634.28,209.08c-4-9.57-8.48-19.62-17.58-25.38-1.64-1-3.15,1.56-1.52,2.59,8.38,5.3,12.54,14.8,16.21,23.59a1.56,1.56,0,0,0,1.85,1.05,1.52,1.52,0,0,0,1-1.85Z"/>
        <path class="cls-6" d="M617.22,183.68c-4.84-9.36-9.52-20.1-19-25.65a1.5,1.5,0,0,0-1.51,2.59c9,5.26,13.37,15.72,18,24.58.88,1.71,3.47.2,2.59-1.52Z"/>
        <path class="cls-6" d="M635.71,238.3c-3.05-3-6.82-5-10.57-7.06q-6.3-3.39-12.6-6.8c-1.7-.92-3.22,1.67-1.52,2.59q6.11,3.32,12.21,6.59c3.65,2,7.39,3.86,10.36,6.8a1.5,1.5,0,0,0,2.12-2.12Z"/>
        <path class="cls-6" d="M612.79,225.74a61.45,61.45,0,0,0-14.25-32.06c-1.24-1.48-3.36.65-2.12,2.12a57.8,57.8,0,0,1,13.37,29.94c.24,1.89,3.24,1.91,3,0Z"/>
        <path class="cls-6" d="M583,167c3.3,3.74,6.61,7.63,8.45,12.32,2,5.05,3.14,10.5,4.58,15.72a1.5,1.5,0,0,0,2.89-.8c-1.52-5.51-2.7-11.29-4.92-16.57-2-4.84-5.43-8.89-8.87-12.79-1.29-1.45-3.4.68-2.13,2.12Z"/>
      </g>
      <g>
        <g>
          <ellipse class="cls-7" cx="779.42" cy="135.36" rx="41.27" ry="119.81"/>
          <path class="cls-8" d="M820.69,135.36c0,48.15-16.05,91.2-41.27,119.81V15.55C804.64,44.16,820.69,87.2,820.69,135.36Z"/>
        </g>
        <g>
          <ellipse class="cls-7" cx="712.78" cy="183.52" rx="41.27" ry="97.21" transform="translate(-22.51 216.37) rotate(-17)"/>
          <path class="cls-8" d="M752.25,171.46c11.42,37.37,6.28,75.46-11,105L684.37,90.55C715.27,105.38,740.83,134.09,752.25,171.46Z"/>
        </g>
        <g>
          <ellipse class="cls-7" cx="842.79" cy="183.73" rx="97.21" ry="41.27" transform="translate(369.25 904.71) rotate(-69)"/>
          <path class="cls-8" d="M881.31,198.52c-14,36.48-41.5,63.34-73.36,76L877.62,93C892.85,123.68,895.32,162,881.31,198.52Z"/>
        </g>
      </g>
      <g>
        <ellipse class="cls-9" cx="779.38" cy="404.71" rx="104.36" ry="25.23"/>
        <g>
          <path class="cls-10" d="M868.94,235.34a7.21,7.21,0,0,1,0,.93l-.15,2.83,0,.39-.17,3.37-.26,5.27h0l-.16,3.18v0l-.22,4.22,0,.47L867,274.54l-6.4,127.53c-.31,6.14-6,11-12.86,11H710.14c-6.88,0-12.55-4.83-12.86-11l-6.4-127.53L690,256l0-.47-.22-4.22v0l-.16-3.18h0l-.26-5.27-.17-3.37,0-.39-.14-2.83a7.21,7.21,0,0,1,0-.93c.22-6.13,5.87-11.08,12.85-11.08H856.08C863.06,224.26,868.71,229.21,868.94,235.34Z"/>
          <g>
            <path class="cls-10" d="M868.94,252.24l-.17,3.31H689.12l-.16-3.31a10.8,10.8,0,0,1,.59-4.1h0a11.3,11.3,0,0,1,2.73-4.34l.42-.42a13.46,13.46,0,0,1,9.11-3.46H856.08a13.46,13.46,0,0,1,9.11,3.46l.43.42a11.4,11.4,0,0,1,2.72,4.34h0A11,11,0,0,1,868.94,252.24Z"/>
            <path class="cls-10" d="M890.41,227.56v24.69a3.45,3.45,0,0,1-3.6,3.3h-18l.17-3.31a11,11,0,0,0-.6-4.1h0a11.4,11.4,0,0,0-2.72-4.34l-.43-.42a13.46,13.46,0,0,0-9.11-3.46H701.81a13.46,13.46,0,0,0-9.11,3.46l-.42.42a11.3,11.3,0,0,0-2.73,4.34h0a10.8,10.8,0,0,0-.59,4.1l.16,3.31h-18a3.45,3.45,0,0,1-3.6-3.3V227.56a3.46,3.46,0,0,1,3.6-3.3H886.81A3.46,3.46,0,0,1,890.41,227.56Z"/>
          </g>
          <polygon class="cls-11" points="867.96 255.56 867.94 256.03 867.01 274.54 690.88 274.54 689.95 256.03 689.93 255.56 867.96 255.56"/>
          <path class="cls-12" d="M890.41,227.56v24.69a3.45,3.45,0,0,1-3.6,3.3H868l0,.47L867,274.54l-6.4,127.53c-.31,6.14-6,11-12.86,11H778.47V224.26H886.81A3.46,3.46,0,0,1,890.41,227.56Z"/>
        </g>
      </g>
      <ellipse class="cls-9" cx="601.58" cy="363.08" rx="19.4" ry="83.43" transform="translate(153.99 904.74) rotate(-81.54)"/>
      <g>
        <polygon class="cls-13" points="669.31 337.81 534.11 310.87 566.87 284.58 669.31 337.81"/>
        <path class="cls-14" d="M538.1,321.37a5,5,0,0,1-4,5.05v25.95l23,4.58c0-.17,0-.34,0-.51,0-4.16,3-7.53,6.78-7.53s6.78,3.37,6.78,7.53a8.06,8.06,0,0,1-.6,3.09l99.26,19.78V368.22c-3.88-.73-6.84-4.49-6.84-9s3-8.27,6.84-9V337.81l-135.2-26.94v5.45A5,5,0,0,1,538.1,321.37Z"/>
        <ellipse class="cls-15" cx="626.37" cy="357.01" rx="5.84" ry="6.48"/>
        <ellipse class="cls-15" cx="593.52" cy="338.13" rx="3.42" ry="3.8"/>
        <ellipse class="cls-15" cx="541.75" cy="340.7" rx="4.9" ry="5.44"/>
        <ellipse class="cls-15" cx="596.95" cy="307.08" rx="5.3" ry="4.01"/>
        <ellipse class="cls-15" cx="555" cy="307.08" rx="5.32" ry="4.17"/>
      </g>
      <ellipse class="cls-9" cx="429.89" cy="490.06" rx="83.43" ry="19.4" transform="translate(-87.48 93.46) rotate(-11.27)"/>
      <g>
        <polygon class="cls-13" points="370.55 467.33 490.18 443.5 461.2 420.23 370.55 467.33"/>
        <path class="cls-14" d="M486.65,452.79a4.36,4.36,0,0,0,3.53,4.46v23l-20.34,4c0-.15,0-.3,0-.45,0-3.68-2.69-6.66-6-6.66s-6,3-6,6.66a7.31,7.31,0,0,0,.53,2.74l-87.83,17.5v-9.81a8.28,8.28,0,0,0,0-15.95v-11L490.18,443.5v4.82A4.38,4.38,0,0,0,486.65,452.79Z"/>
        <ellipse class="cls-15" cx="408.55" cy="484.33" rx="5.17" ry="5.73"/>
        <ellipse class="cls-15" cx="437.61" cy="467.62" rx="3.03" ry="3.36"/>
        <ellipse class="cls-15" cx="483.42" cy="469.89" rx="4.34" ry="4.81"/>
        <ellipse class="cls-15" cx="434.58" cy="440.14" rx="4.69" ry="3.55"/>
        <ellipse class="cls-15" cx="471.7" cy="440.14" rx="4.71" ry="3.69"/>
      </g>
      <g>
        <g>
          <path class="cls-16" d="M524.47,221a37.76,37.76,0,0,1-62.19,11.16,73.45,73.45,0,0,1,12.23-29.27q8.49,4.23,18.07,8l1.35.49,6.37,2.33,1.44.53Q512.48,217.88,524.47,221Z"/>
          <path d="M500.79,219.29c0,6.5-1.77,11.76-4,11.76s-4-5.26-4-11.76a27.87,27.87,0,0,1,1.05-8l6.38,2.33A32.45,32.45,0,0,1,500.79,219.29Z"/>
        </g>
        <g>
          <path class="cls-16" d="M607,228.39c.36,1.53.67,3.07.93,4.63A37.75,37.75,0,0,1,546.57,221q12-3.1,22.73-6.8l1.44-.53,6.38-2.33,1.35-.49q9.16-3.56,17.31-7.58A73.32,73.32,0,0,1,607,228.39Z"/>
          <path d="M570.26,219.29c0,6.5,1.77,11.76,4,11.76s3.95-5.26,3.95-11.76a28.25,28.25,0,0,0-1-8l-6.38,2.33A31.5,31.5,0,0,0,570.26,219.29Z"/>
        </g>
      </g>
      <g class="cls-17">
        <g>
          <path d="M524.47,221a37.76,37.76,0,0,1-62.19,11.16,73.45,73.45,0,0,1,12.23-29.27q8.49,4.23,18.07,8l1.35.49,6.37,2.33,1.44.53Q512.48,217.88,524.47,221Z"/>
          <path d="M500.79,219.29c0,6.5-1.77,11.76-4,11.76s-4-5.26-4-11.76a27.87,27.87,0,0,1,1.05-8l6.38,2.33A32.45,32.45,0,0,1,500.79,219.29Z"/>
        </g>
        <g>
          <path d="M607,228.39c.36,1.53.67,3.07.93,4.63A37.75,37.75,0,0,1,546.57,221q12-3.1,22.73-6.8l1.44-.53,6.38-2.33,1.35-.49q9.16-3.56,17.31-7.58A73.32,73.32,0,0,1,607,228.39Z"/>
          <path d="M570.26,219.29c0,6.5,1.77,11.76,4,11.76s3.95-5.26,3.95-11.76a28.25,28.25,0,0,0-1-8l-6.38,2.33A31.5,31.5,0,0,0,570.26,219.29Z"/>
        </g>
      </g>
    </g>
  </g>
</svg>
