<svg id="Layer_1" data-name="Layer 1" xmlns="http://www.w3.org/2000/svg" width="168.58" height="168.58" viewBox="0 0 168.58 168.58">
  <defs>
    <style>
      .cls-1 {
        fill: #f7d574;
      }

      .cls-2 {
        fill: #d38548;
      }
    </style>
  </defs>
  <g>
    <circle class="cls-1" cx="84.29" cy="84.29" r="84.29"/>
    <g>
      <path class="cls-2" d="M70.78,57.53a19,19,0,0,1,1.34-4.85l-1.21,2.87a22,22,0,0,1,2.75-4.62l-1.87,2.43A25.7,25.7,0,0,1,76.18,49l-2.42,1.88a28.94,28.94,0,0,1,6.06-3.54L77,48.58a29.42,29.42,0,0,1,7.21-2L81,47a27.16,27.16,0,0,1,6.86,0l-3.19-.43a24.91,24.91,0,0,1,6.24,1.72L88,47.09a25.85,25.85,0,0,1,5.37,3.16L91,48.38a27.09,27.09,0,0,1,4.77,4.8l-1.88-2.43A26.87,26.87,0,0,1,97.2,56.5L96,53.63a24.66,24.66,0,0,1,1.62,6l-.42-3.19a21.61,21.61,0,0,1,0,5.45l.43-3.19a19.5,19.5,0,0,1-1.27,4.69l1.21-2.87a25.18,25.18,0,0,1-3.23,5.39l1.87-2.43c-4.77,6.08-11.45,10.27-16.33,16.23-3.6,4.41-6.71,9.13-8.2,14.71a25.63,25.63,0,0,0-1,8,27.56,27.56,0,0,0,2.89,10.82c1.2,2.58,4.53,4.79,7.17,5.52A12.3,12.3,0,0,0,90,117.55a12.17,12.17,0,0,0,5.51-7.18l.43-3.19a11.92,11.92,0,0,0-1.64-6.05c-.11-.24-.22-.48-.32-.72l1.21,2.86a13.55,13.55,0,0,1-.81-2.93l.43,3.19a14.94,14.94,0,0,1,0-3.72L94.37,103a19.56,19.56,0,0,1,1.33-4.8l-1.21,2.87a28.9,28.9,0,0,1,3.72-6.2l-1.88,2.42A75.77,75.77,0,0,1,105.75,88a62.12,62.12,0,0,0,10.53-11.73,31.86,31.86,0,0,0,3.08-28.44,41,41,0,0,0-8.31-13.6,34.06,34.06,0,0,0-10.91-7.88A37.66,37.66,0,0,0,83.72,22.8a42.58,42.58,0,0,0-16.32,4,34.34,34.34,0,0,0-12.08,9c-3.7,4.4-6.87,9.57-7.69,15.38a9,9,0,0,0-.21,4.78,8.93,8.93,0,0,0,1.42,4.46A12,12,0,0,0,65.26,64.7c2.43-1.57,5.1-4.17,5.52-7.17Z"/>
      <path class="cls-2" d="M85.87,145.79a12.42,12.42,0,0,0,8.49-3.51,12.19,12.19,0,0,0,3.51-8.49c-.29-6.5-5.27-12-12-12a12.41,12.41,0,0,0-8.48,3.51,12.25,12.25,0,0,0-3.52,8.49c.3,6.5,5.28,12,12,12Z"/>
    </g>
  </g>
</svg>
