<svg id="Layer_1" data-name="Layer 1" xmlns="http://www.w3.org/2000/svg" width="168.58" height="168.58" viewBox="0 0 168.58 168.58">
  <defs>
    <style>
      .cls-1 {
        fill: #f7d574;
      }

      .cls-2 {
        fill: #d38548;
      }
    </style>
  </defs>
  <g>
    <circle class="cls-1" cx="84.29" cy="84.29" r="84.29"/>
    <g>
      <rect class="cls-2" x="39.21" y="66.01" width="20" height="64.79" rx="5.67"/>
      <rect class="cls-2" x="109.36" y="66.01" width="20" height="64.79" rx="5.67"/>
      <path class="cls-2" d="M30.28,95.86l-6.91-6.94a5.67,5.67,0,0,1,0-8L80.15,24a5.64,5.64,0,0,1,8,0l6.91,6.93a5.68,5.68,0,0,1,0,8l-56.79,57A5.64,5.64,0,0,1,30.28,95.86Z"/>
      <path class="cls-2" d="M138.71,95.4l6.49-6.48a5.65,5.65,0,0,0,0-8L88.06,24a5.69,5.69,0,0,0-8,0l-6.49,6.47a5.66,5.66,0,0,0,0,8l57.13,57A5.72,5.72,0,0,0,138.71,95.4Z"/>
    </g>
  </g>
</svg>
