<svg id="Layer_1" data-name="Layer 1" xmlns="http://www.w3.org/2000/svg" width="1173.36" height="891.71" viewBox="0 0 1173.36 891.71">
  <defs>
    <style>
      .cls-1 {
        fill: #939393;
      }

      .cls-2 {
        fill: #777;
      }

      .cls-3 {
        fill: gray;
      }

      .cls-4 {
        fill: #ffc5f4;
      }

      .cls-5 {
        fill: #adea68;
      }

      .cls-6 {
        fill: #a0a0a0;
      }

      .cls-7 {
        fill: #fff;
      }

      .cls-8 {
        fill: none;
        stroke: #000;
        stroke-miterlimit: 10;
      }

      .cls-9 {
        fill: #db7d7d;
      }

      .cls-10 {
        fill: #999898;
      }

      .cls-11 {
        fill: #b5b5b5;
      }
    </style>
  </defs>
  <g>
    <g>
      <g>
        <g>
          <path class="cls-1" d="M739,606.11V657h13.61c32.87,0,59.52,24.73,59.52,55.23V891.71H885.3V606.11Z"/>
          <path class="cls-2" d="M623.37,640.58v44.77H637c32.88,0,59.53,21.74,59.53,48.56v157.8h73.14V640.58Z"/>
          <path class="cls-2" d="M383.64,615v48.84H370c-32.88,0-59.53,23.71-59.53,53V888.88H237.37V615Z"/>
          <path class="cls-1" d="M550.23,661.67v40.5h-13.6c-32.88,0-59.53,19.67-59.53,43.94V888.88H404V661.67Z"/>
          <path class="cls-1" d="M951.06,491.41c0,43.63-24.17,84.24-65.76,118.23-26.74,21.87-60.68,41-100,56.41q-7.68,3-15.64,5.84a603.65,603.65,0,0,1-94.48,24.77,735.46,735.46,0,0,1-130,11.34q-18.24,0-36.08-.85A714.51,714.51,0,0,1,404,694.53a603.31,603.31,0,0,1-71.72-18.71c-35.66-11.74-67.66-26.36-94.87-43.24A288.3,288.3,0,0,1,192.88,599a215,215,0,0,1-16.65-17.25h0a179.06,179.06,0,0,1-13-17q-2.6-3.84-4.92-7.75a133.09,133.09,0,0,1-17.06-44.58,117.6,117.6,0,0,1,1-46.92,122.59,122.59,0,0,1,4.42-15.22,131.62,131.62,0,0,1,5.08-12.17A157.94,157.94,0,0,1,167.45,412l0,0a191.36,191.36,0,0,1,12.36-15l0,0c29.09-32,72.49-59.56,125.76-80.39q14.52-5.67,30-10.66,12.75-4.12,26.09-7.73l3.79-1q12.45-3.28,25.38-6.12,17.11-3.76,35-6.69a723.18,723.18,0,0,1,78-8.41q18.24-1,36.91-1.09c1.48,0,3,0,4.43,0,25,0,49.53,1.21,73.3,3.53q22.65,2.19,44.38,5.72a637.3,637.3,0,0,1,72.73,16A536.3,536.3,0,0,1,788.44,318a414.14,414.14,0,0,1,64.34,32.1c27.61,17.09,50.3,36.52,66.88,57.65C939.89,433.49,951.06,461.75,951.06,491.41Z"/>
          <path class="cls-1" d="M460.15,888.88c-10.86-26-31.95-43.63-56.18-43.63s-45.33,17.64-56.19,43.63Z"/>
          <path class="cls-1" d="M880.25,891.71c-10.86-26-31.94-43.64-56.18-43.64s-45.32,17.64-56.19,43.64Z"/>
          <path class="cls-2" d="M295.61,888.88c-10.86-26-31.95-43.63-56.18-43.63s-45.33,17.64-56.19,43.63Z"/>
          <path class="cls-2" d="M752.69,891.71c-10.87-26-32-43.64-56.19-43.64s-45.32,17.64-56.18,43.64Z"/>
          <g>
            <g>
              <g>
                <g>
                  <path class="cls-3" d="M187,293l-10.78,3.82-1.84.65L41.93,344.39c-2.41.86-4.71-.3-4.46-2.25q-.39-6-.73-12c-3.46-61.39-2-118.73,22.42-157.44.33-2.61,4.62-4.12,6.51-2.31l75.13,71.88,7.6,7.26,27.86,26.66,12.84,12.29C190.51,289.84,189.46,292.19,187,293Z"/>
                  <path class="cls-4" d="M73.41,222.17c-14.08,22.36-14.09,56.18-11.76,91.9-.14,1.06,1.11,1.68,2.42,1.22l78.71-27.85c1.31-.47,1.88-1.74,1.11-2.47L76.94,220.91A2.32,2.32,0,0,0,73.41,222.17Z"/>
                </g>
                <g>
                  <path class="cls-3" d="M389.5,330.15q-.33,6-.73,12c.25,1.95-2,3.11-4.46,2.25l-132.5-46.88-1.83-.65L239.2,293c-2.42-.85-3.47-3.2-2.06-4.55L250,276.2l27.87-26.66,7.59-7.26,75.13-71.88c1.89-1.81,6.19-.3,6.52,2.31C391.45,211.42,393,268.76,389.5,330.15Z"/>
                  <path class="cls-4" d="M352.83,222.17c14.08,22.36,14.09,56.18,11.76,91.9.14,1.06-1.11,1.68-2.42,1.22l-78.71-27.85c-1.31-.47-1.88-1.74-1.11-2.47l66.95-64.06A2.32,2.32,0,0,1,352.83,222.17Z"/>
                </g>
                <path class="cls-3" d="M426.24,445.71c0,113.68-95.42,153.71-213.12,153.71S0,559.39,0,445.71A200,200,0,0,1,36.74,330.15,207.24,207.24,0,0,1,61,301.6a214.43,214.43,0,0,1,85.36-51.4c.69-.23,1.39-.45,2.09-.66a215.62,215.62,0,0,1,27.86-6.6q8.07-1.37,16.35-2.12c6.74-.63,13.59-.95,20.51-.95s13.76.32,20.52.95q8.27.75,16.34,2.12a215.77,215.77,0,0,1,27.87,6.6l2.08.65h0a214.73,214.73,0,0,1,85.35,51.42,207.15,207.15,0,0,1,24.21,28.54A200,200,0,0,1,426.24,445.71Z"/>
                <g>
                  <path class="cls-5" d="M183.78,389.17A64.39,64.39,0,0,1,65.23,338.89q27.39,18.66,64.12,33l2.3.84,10.88,4,2.46.9Q163.3,383.89,183.78,389.17Z"/>
                  <path d="M143.36,386.3c0,11.09-3,20.08-6.75,20.08s-6.75-9-6.75-20.08a47.88,47.88,0,0,1,1.79-13.61l10.88,4A53.58,53.58,0,0,1,143.36,386.3Z"/>
                </g>
                <g>
                  <path class="cls-5" d="M242.46,389.17A64.39,64.39,0,0,0,361,338.89q-27.39,18.66-64.12,33l-2.3.84-10.88,4-2.46.9Q262.94,383.89,242.46,389.17Z"/>
                  <path d="M282.89,386.3c0,11.09,3,20.08,6.74,20.08s6.75-9,6.75-20.08a47.52,47.52,0,0,0-1.79-13.61l-10.88,4A53.62,53.62,0,0,0,282.89,386.3Z"/>
                </g>
                <path class="cls-4" d="M206.83,453.6l-9.91-9.41a9.13,9.13,0,0,1,6.28-15.76H223a9.13,9.13,0,0,1,6.28,15.76l-9.91,9.41A9.15,9.15,0,0,1,206.83,453.6Z"/>
              </g>
              <path class="cls-6" d="M310.51,539.06c-7.84,13.22-20.28,24.56-35.77,32.85-.65.36-1.32.71-2,1.05-1.26.64-2.54,1.26-3.84,1.87l-1.62.74c-.77.34-1.55.68-2.33,1l-1.92.79a2,2,0,0,1-.22.09l-1.92.74c-.34.13-.68.27-1,.39l-1,.37-2.1.74c-.69.24-1.4.47-2.11.69l-2.14.67-2.09.6-.07,0c-.68.2-1.37.38-2.06.56l-2.88.73-1.68.39-1.8.39c-.91.19-1.81.37-2.72.54s-2.09.39-3.14.56c-.42.08-.83.14-1.25.2s-1,.16-1.48.22l-2,.28c-3.3.42-6.64.74-10,.94l-2,.1c-2,.09-4.1.13-6.17.13s-4.13,0-6.17-.13l-1.91-.1-2.16-.14-2-.15-.2,0-1.81-.18c-1.32-.13-2.65-.28-4-.45-1-.13-2-.27-3-.43-.17,0-.33-.05-.5-.07-.41-.06-.83-.12-1.24-.2-1.07-.17-2.11-.36-3.15-.56s-1.82-.35-2.71-.54l-1.81-.39c-1.53-.35-3.05-.72-4.55-1.12l-2.07-.56-.08,0-2.08-.6-2.13-.67c-.72-.22-1.42-.45-2.12-.69l-2.09-.74q-2-.72-4-1.5l-.21-.09-1.93-.79c-.66-.28-1.33-.56-2-.85l-1.76-.79c-.72-.33-1.43-.67-2.15-1l-1.9-.95c-.67-.34-1.33-.69-2-1.05-15.49-8.29-27.92-19.63-35.76-32.85,8.31-14,21.79-25.95,38.62-34.35a124.93,124.93,0,0,1,28.79-10.09,141.13,141.13,0,0,1,59.95,0,125,125,0,0,1,28.78,10.09C288.71,513.11,302.2,525,310.51,539.06Z"/>
              <g>
                <path class="cls-7" d="M183.15,494.62l-16.69,36.66-12.1-26.57A124.93,124.93,0,0,1,183.15,494.62Z"/>
                <path class="cls-7" d="M271.88,504.71l-12.1,26.57L243.1,494.62A125,125,0,0,1,271.88,504.71Z"/>
              </g>
              <g>
                <path class="cls-7" d="M187.05,584.28c-.91-.17-1.82-.35-2.71-.54l-1.81-.39c-1.53-.35-3.05-.72-4.55-1.12l-2.07-.56-.08,0-2.08-.6-2.13-.67c-.72-.22-1.42-.45-2.12-.69l-2.09-.74c-1.35-.47-2.68-1-4-1.5l-.21-.09-1.93-.79c-.66-.28-1.33-.56-2-.85l-1.76-.79c-.72-.33-1.43-.67-2.15-1l-1.9-.95c-.67-.34-1.33-.69-2-1.05l15-32.85,9.73,21.37Z"/>
                <path class="cls-7" d="M274.74,571.91c-.65.36-1.32.71-2,1.05-1.26.64-2.54,1.26-3.84,1.87l-1.62.74c-.77.34-1.55.68-2.33,1l-1.92.79a2,2,0,0,1-.22.09l-1.92.74c-.34.13-.68.27-1,.39l-1,.37-2.1.74c-.69.24-1.4.47-2.11.69l-2.14.67-2.09.6-.07,0c-.68.2-1.37.38-2.06.56l-2.88.73-1.68.39-1.8.39c-.91.19-1.81.37-2.72.54l10.86-23.85,9.73-21.37Z"/>
              </g>
              <g>
                <path class="cls-8" d="M181.78,445.15c-2.93-12.51-68.33-7.9-146.22,10.3"/>
                <path class="cls-8" d="M186.81,451c-4.76-11.93-68.73,2.44-143,32.12"/>
                <path class="cls-8" d="M189.54,455.81c-6.82-10.89-67.2,14.65-135,57.09"/>
              </g>
              <g>
                <path class="cls-8" d="M244.47,445.15c2.92-12.51,68.32-7.9,146.21,10.3"/>
                <path class="cls-8" d="M239.43,451c4.76-11.93,68.73,2.44,143,32.12"/>
                <path class="cls-8" d="M236.7,455.81c6.82-10.89,67.2,14.65,135,57.09"/>
              </g>
              <path class="cls-9" d="M272.75,573c-1.26.64-2.54,1.26-3.84,1.87l-1.62.74c-.77.34-1.55.68-2.33,1l-1.92.79a2,2,0,0,1-.22.09l-1.92.74c-.34.13-.68.27-1,.39l-1,.37-2.1.74c-.69.24-1.4.47-2.11.69l-2.14.67-2.09.6-.07,0c-.68.2-1.37.38-2.06.56l-2.88.73-1.68.39-1.8.39c-.91.19-1.81.37-2.72.54s-2.09.39-3.14.56c-.42.08-.83.14-1.25.2s-1,.16-1.48.22l-2,.28c-3.3.42-6.64.74-10,.94l-2,.1c-2,.09-4.1.13-6.17.13s-4.13,0-6.17-.13l-1.91-.1-2.16-.14-2-.15-.2,0-1.81-.18c-1.32-.13-2.65-.28-4-.45-1-.13-2-.27-3-.43-.17,0-.33-.05-.5-.07-.41-.06-.83-.12-1.24-.2-1.07-.17-2.11-.36-3.15-.56s-1.82-.35-2.71-.54l-1.81-.39c-1.53-.35-3.05-.72-4.55-1.12l-2.07-.56-.08,0-2.08-.6-2.13-.67c-.72-.22-1.42-.45-2.12-.69l-2.09-.74c-1.35-.47-2.68-1-4-1.5l-.21-.09-1.93-.79c-.66-.28-1.33-.56-2-.85l-1.76-.79c-.72-.33-1.43-.67-2.15-1l-1.9-.95c1.89-5.08,10.36-9.54,22.7-12.53a160.92,160.92,0,0,1,36.93-3.94,161.42,161.42,0,0,1,36.93,3.94C262.39,563.42,270.86,567.88,272.75,573Z"/>
            </g>
            <path class="cls-10" d="M213.12,239.87q10.38,0,20.52.95l-20.52,63.86-20.51-63.86C199.35,240.19,206.2,239.87,213.12,239.87Z"/>
            <path class="cls-10" d="M148.4,249.54a215.62,215.62,0,0,1,27.86-6.6v58c-.61-1.15-1.21-2.3-1.84-3.46a500.81,500.81,0,0,0-28.11-47.31q-2.67-3.93-5.51-7.92Z"/>
            <path class="cls-10" d="M285.44,242.28q-2.83,4-5.5,7.91h0a505.4,505.4,0,0,0-28.12,47.32c-.62,1.16-1.22,2.31-1.83,3.46v-58a215.77,215.77,0,0,1,27.87,6.6Z"/>
          </g>
        </g>
        <path class="cls-1" d="M880.25,441c25.85-3.19,51.53-7.44,76.76-14a442.56,442.56,0,0,0,72.18-25.57,319.17,319.17,0,0,0,30.88-16.05,316.75,316.75,0,0,0,33-22.9,237.2,237.2,0,0,0,48.9-52.29,174.51,174.51,0,0,0,15.38-26.93c5-11,9.46-22.32,12.14-34.16,5.33-23.52,5.41-48-1.13-71.32a124.28,124.28,0,0,0-4.94-14.12,194,194,0,0,0-8.92-19.25c-6-10.86-13.44-20.88-21.35-30.38-15-18-33.49-33.11-52.92-46-21.81-14.5-45.5-25.57-69.59-35.69-22.83-9.59-46.25-17.71-69.74-25.51C935,4.83,929.17,2.91,923.31,1A20.51,20.51,0,0,0,912.55.5a20.09,20.09,0,0,0-10,3.21c-5.6,3.27-10.94,9.7-12.41,16.13-1.57,6.91-1.23,14.67,2.72,20.81A29.41,29.41,0,0,0,909,53.06C932,60.62,955,68.21,977.68,76.9q9.66,3.72,19.22,7.73l-6.45-2.72c21.47,9.08,42.51,19.47,62,32.36q7.63,5.06,14.89,10.64l-5.46-4.22a207.08,207.08,0,0,1,37,36.34l-4.22-5.46a148.56,148.56,0,0,1,19.34,32.63l-2.73-6.45a119.38,119.38,0,0,1,8.26,29.84l-1-7.18a115.75,115.75,0,0,1,0,30.27l1-7.17a138.8,138.8,0,0,1-9.83,35.23l2.73-6.45A178.57,178.57,0,0,1,1089.41,291l4.22-5.47a221.24,221.24,0,0,1-39.78,39.54l5.47-4.22c-20.21,15.54-42.74,27.89-66.19,37.79l6.45-2.72c-29.73,12.48-61,21.05-92.69,26.85q-13.5,2.46-27.11,4.28l7.18-1-6.71.86a26.06,26.06,0,0,0-24.67,16.6,20.31,20.31,0,0,0-2.33,10.4c.32,7,2.61,14.22,7.91,19.09l5.47,4.22A26.93,26.93,0,0,0,880.25,441Z"/>
      </g>
      <path class="cls-11" d="M503.85,275.92,486.05,431,425.86,284.33A723.18,723.18,0,0,1,503.85,275.92Z"/>
      <path class="cls-11" d="M618.49,278.34l-38.42,152L540.76,274.83c1.48,0,3,0,4.43,0C570.22,274.81,594.72,276,618.49,278.34Z"/>
      <path class="cls-11" d="M735.6,300.08,670,428.59l-7.16-144.53A637.3,637.3,0,0,1,735.6,300.08Z"/>
      <path class="cls-11" d="M852.78,350.1,752.83,450.27,788.44,318A414.14,414.14,0,0,1,852.78,350.1Z"/>
    </g>
    <polyline class="cls-11" points="960.45 369.94 965.95 408.95 939.99 375.58"/>
    <polyline class="cls-11" points="1007.46 352.16 1013.37 389.53 989.5 359.9"/>
    <polyline class="cls-11" points="1044.53 331.38 1059.92 366.52 1026.92 342.12"/>
    <polyline class="cls-11" points="1074.69 306.86 1092.79 335.76 1060.72 319.54"/>
    <polyline class="cls-11" points="1097.62 279.48 1122.07 304.51 1086.36 294.4"/>
    <polyline class="cls-11" points="1113.17 249.38 1142.15 267.23 1105.6 266.1"/>
    <polyline class="cls-11" points="1119.45 216.84 1147.91 225.34 1117.88 232.41"/>
    <polyline class="cls-11" points="1113.44 183.47 1142.26 184 1117.62 197.56"/>
    <polyline class="cls-11" points="1094.31 151.48 1127.59 142.2 1104.4 165.77"/>
    <polyline class="cls-11" points="1065.84 123.83 1096.53 104.47 1079.8 136.09"/>
    <polyline class="cls-11" points="1030.61 101.15 1054.68 73.11 1047.46 111.06"/>
    <polyline class="cls-11" points="997.03 84.75 1017.05 53.44 1015.16 93.13"/>
    <polyline class="cls-11" points="960.34 70.48 978.24 36.4 979.8 77.74"/>
    <polyline class="cls-11" points="917.86 55.98 936.3 21.62 937.47 62.56"/>
  </g>
</svg>
