<svg id="Layer_1" data-name="Layer 1" xmlns="http://www.w3.org/2000/svg" width="290.4" height="203.48" viewBox="0 0 290.4 203.48">
  <defs>
    <style>
      .cls-1 {
        fill: #ffe688;
      }

      .cls-2 {
        fill: #f7d574;
      }

      .cls-3 {
        fill: #d38548;
        opacity: 0.58;
      }
    </style>
  </defs>
  <g>
    <polygon class="cls-1" points="290.4 114.34 0 56.47 70.36 0 290.4 114.34"/>
    <path class="cls-2" d="M8.57,79c0,5.55-3.73,10.14-8.57,10.84v55.75l49.39,9.84q0-.56,0-1.11c0-8.93,6.52-16.16,14.56-16.16s14.57,7.23,14.57,16.16A17.55,17.55,0,0,1,77.2,161l213.2,42.48V179.67c-8.34-1.58-14.69-9.65-14.69-19.36s6.35-17.77,14.69-19.35V114.34L0,56.47V68.18C4.84,68.89,8.57,73.47,8.57,79Z"/>
    <ellipse class="cls-3" cx="198.16" cy="155.59" rx="12.55" ry="13.92"/>
    <ellipse class="cls-3" cx="127.61" cy="115.03" rx="7.36" ry="8.16"/>
    <ellipse class="cls-3" cx="16.41" cy="120.54" rx="10.53" ry="11.68"/>
    <ellipse class="cls-3" cx="134.97" cy="48.33" rx="11.39" ry="8.61"/>
    <ellipse class="cls-3" cx="44.87" cy="48.33" rx="11.43" ry="8.95"/>
  </g>
</svg>
