<svg id="Layer_1" data-name="Layer 1" xmlns="http://www.w3.org/2000/svg" width="616.74" height="898.83" viewBox="0 0 616.74 898.83">
  <defs>
    <style>
      .cls-1 {
        fill: #bf8d6b;
      }

      .cls-2 {
        fill: #ffc69f;
      }

      .cls-3, .cls-5 {
        fill: #f7d574;
      }

      .cls-3, .cls-4, .cls-5 {
        stroke: #f7d574;
      }

      .cls-3, .cls-4, .cls-5, .cls-8 {
        stroke-miterlimit: 10;
      }

      .cls-3 {
        stroke-width: 8px;
      }

      .cls-4, .cls-8 {
        fill: none;
      }

      .cls-6 {
        fill: #ccc;
      }

      .cls-7 {
        fill: #ff7bac;
        opacity: 0.44;
      }

      .cls-8 {
        stroke: #000;
        stroke-width: 0.5px;
      }

      .cls-9 {
        fill: #fff;
      }

      .cls-10 {
        fill: gray;
      }

      .cls-11 {
        fill: #4ab1bc;
      }
    </style>
  </defs>
  <g>
    <rect class="cls-1" width="616.74" height="898.83"/>
    <g>
      <g>
        <path class="cls-2" d="M189,53.8q0,3.48-5.92,13.51-11.11,18.9-25.51,31.2l.08.09v5.81c0,2.69,0,6,0,9.82s0,6.33,0,7.45q0,9.28-.74,12.39-1,4-4.07,4-3.78,0-3.78-7.25c0-.24,0-2.43.16-6.54s.17-8.11.17-12V100.41q-6.55-6.82-14.07-21.77Q127,62,127,53.89c0-3.34,1.37-5,4.13-5a3.28,3.28,0,0,1,3.39,2A35.49,35.49,0,0,1,136,56.26a67.21,67.21,0,0,0,1.85,7,85.84,85.84,0,0,0,15.56,28.13q14.26-13.1,24.84-33.85,1.56-3.15,3.17-6.31c.92-1.55,2-2.32,3.18-2.32a4,4,0,0,1,3.07,1.46A5.11,5.11,0,0,1,189,53.8Z"/>
        <path class="cls-2" d="M234.37,91.17q0,13.65-7.08,21.76T208.41,121q-9.79,0-15.34-7.55t-5.56-21q0-14.11,6.71-21.91T212.48,63a19.13,19.13,0,0,1,15.84,7.75Q234.37,78.46,234.37,91.17Zm-8.19.1q0-9.33-4-14.6a13,13,0,0,0-11-5.27q-15.51,0-15.51,21,0,9.7,3.37,14.93a10.84,10.84,0,0,0,9.67,5.22q8.14,0,12.79-5.62T226.18,91.27Z"/>
        <path class="cls-2" d="M286.08,120.38a5.91,5.91,0,0,1-1.19,3.76,3.59,3.59,0,0,1-2.92,1.53q-3.25,0-5.47-11.28-7,10.73-16.87,10.72-16.41,0-16.41-29.57A172.19,172.19,0,0,1,245,69.12q1.08-7,5.23-7a3.34,3.34,0,0,1,2.59,1.25,4.28,4.28,0,0,1,1.11,2.93q0,1.48-1.19,11.51a157.68,157.68,0,0,0-1.19,18.66q0,19.88,9.7,19.88a11.43,11.43,0,0,0,10-5.51q3.69-5.49,3.68-15.53V92.61q0-15.54.7-20,1-6.32,4.61-6.31c2.3,0,3.46,1.81,3.46,5.43q0,1-.35,7c-.24,4.06-.35,7.76-.35,11.1a142.27,142.27,0,0,0,1.56,21.85Q286.08,121.78,286.08,120.38Z"/>
        <path class="cls-2" d="M332.7,124.37a16.88,16.88,0,0,1-.37,4.32,2.93,2.93,0,0,1-3.08,2q-3.88,0-4.58-7.15-1.19-12.08-1.19-33.06,0-23.44.57-28.83.66-5.89,4.14-5.89,4.1,0,4.09,5.61,0,1.4-.45,11.08t-.45,17.85q0,7.16.66,18.5T332.7,124.37Z"/>
        <path class="cls-2" d="M388.28,91.17q0,13.65-7.08,21.76T362.32,121q-9.79,0-15.35-7.55t-5.55-21q0-14.11,6.7-21.91T366.39,63a19.13,19.13,0,0,1,15.84,7.75Q388.28,78.46,388.28,91.17Zm-8.19.1q0-9.33-4-14.6a13,13,0,0,0-11-5.27q-15.51,0-15.51,21,0,9.7,3.38,14.93a10.84,10.84,0,0,0,9.67,5.22q8.14,0,12.79-5.62T380.09,91.27Z"/>
        <path class="cls-2" d="M427.19,74.65q0,4.63-4.15,4.64a2.62,2.62,0,0,1-2.26-1.16L419.58,76a7.85,7.85,0,0,0-6.78-3.72q-7.29,0-7.29,9.33a11.13,11.13,0,0,0,1.32,5.58,18.16,18.16,0,0,0,4,4.5q6.49,5.61,8.11,7.75a16,16,0,0,1,3.37,10q0,7.42-4.28,12.1a14.42,14.42,0,0,1-11.15,4.66,15.26,15.26,0,0,1-10.74-3.85,12.17,12.17,0,0,1-4.07-9.38q0-5.72,4.38-5.71c2.46,0,3.72,2.12,3.81,6.36q3,4,6.64,4a6.53,6.53,0,0,0,5-2.11,7.47,7.47,0,0,0,1.95-5.27,7.87,7.87,0,0,0-2.39-5.43c0-.06-2-1.87-6.05-5.43q-8.31-7.44-8.31-17.41,0-8.13,4.42-13.14a14.69,14.69,0,0,1,11.58-5,15.25,15.25,0,0,1,10.08,3.48Q427.19,70.56,427.19,74.65Z"/>
        <path class="cls-2" d="M468.05,81.66a4.32,4.32,0,0,1-.91,2.76A2.67,2.67,0,0,1,465,85.56a25.16,25.16,0,0,1-4.71-1.81,18.62,18.62,0,0,0-10.59-1.63A70.44,70.44,0,0,0,448.18,96q0,8.13,2.42,12.49t6.75,4.37a9.31,9.31,0,0,0,3.48-1,9.05,9.05,0,0,1,3.1-1c2.2,0,3.29,1.46,3.29,4.37a5.27,5.27,0,0,1-2.71,4.59,13.45,13.45,0,0,1-7.41,1.77q-17.44,0-17.44-26.23a69.74,69.74,0,0,1,1.19-12.17c-.77.13-2.42.48-5,1.07a19.19,19.19,0,0,1-3.7.56q-4.4,0-4.4-3.81,0-5.2,15.18-6.78,3.12-11.19,7.65-11.19A3.06,3.06,0,0,1,453,64.27,4.07,4.07,0,0,1,454,67a10,10,0,0,1-.62,3c-.41,1.23-.82,2.46-1.24,3.69Q468.05,74.38,468.05,81.66Z"/>
        <path class="cls-2" d="M487.22,61.23a77.77,77.77,0,0,1-1.85,9.42A138.61,138.61,0,0,0,482,97q-.28,6.36-.49,7.38a2.79,2.79,0,0,1-2.88,2.51q-2.34,0-3.29-3.07-.87-2.88-.87-9.79,0-12.26,4.24-28.23,2.1-8,5.8-8Q487.22,57.79,487.22,61.23Zm-2.88,58.36a6.06,6.06,0,0,1-1.28,4,4,4,0,0,1-3.21,1.55,4.13,4.13,0,0,1-3.27-1.57,5.92,5.92,0,0,1-1.33-4,5.4,5.4,0,0,1,1.31-3.72,4.22,4.22,0,0,1,3.29-1.48,4.07,4.07,0,0,1,3.23,1.44A5.5,5.5,0,0,1,484.34,119.59Z"/>
      </g>
      <g>
        <path class="cls-3" d="M189,53.8q0,3.48-5.92,13.51-11.11,18.9-25.51,31.2l.08.09v5.81c0,2.69,0,6,0,9.82s0,6.33,0,7.45q0,9.28-.74,12.39-1,4-4.07,4-3.78,0-3.78-7.25c0-.24,0-2.43.16-6.54s.17-8.11.17-12V100.41q-6.55-6.82-14.07-21.77Q127,62,127,53.89c0-3.34,1.37-5,4.13-5a3.28,3.28,0,0,1,3.39,2A35.49,35.49,0,0,1,136,56.26a67.21,67.21,0,0,0,1.85,7,85.84,85.84,0,0,0,15.56,28.13q14.26-13.1,24.84-33.85,1.56-3.15,3.17-6.31c.92-1.55,2-2.32,3.18-2.32a4,4,0,0,1,3.07,1.46A5.11,5.11,0,0,1,189,53.8Z"/>
        <path class="cls-3" d="M234.37,91.17q0,13.65-7.08,21.76T208.41,121q-9.79,0-15.34-7.55t-5.56-21q0-14.11,6.71-21.91T212.48,63a19.13,19.13,0,0,1,15.84,7.75Q234.37,78.46,234.37,91.17Zm-8.19.1q0-9.33-4-14.6a13,13,0,0,0-11-5.27q-15.51,0-15.51,21,0,9.7,3.37,14.93a10.84,10.84,0,0,0,9.67,5.22q8.14,0,12.79-5.62T226.18,91.27Z"/>
        <path class="cls-3" d="M286.08,120.38a5.91,5.91,0,0,1-1.19,3.76,3.59,3.59,0,0,1-2.92,1.53q-3.25,0-5.47-11.28-7,10.73-16.87,10.72-16.41,0-16.41-29.57A172.19,172.19,0,0,1,245,69.12q1.08-7,5.23-7a3.34,3.34,0,0,1,2.59,1.25,4.28,4.28,0,0,1,1.11,2.93q0,1.48-1.19,11.51a157.68,157.68,0,0,0-1.19,18.66q0,19.88,9.7,19.88a11.43,11.43,0,0,0,10-5.51q3.69-5.49,3.68-15.53V92.61q0-15.54.7-20,1-6.32,4.61-6.31c2.3,0,3.46,1.81,3.46,5.43q0,1-.35,7c-.24,4.06-.35,7.76-.35,11.1a142.27,142.27,0,0,0,1.56,21.85Q286.08,121.78,286.08,120.38Z"/>
        <path class="cls-3" d="M332.7,124.37a16.88,16.88,0,0,1-.37,4.32,2.93,2.93,0,0,1-3.08,2q-3.88,0-4.58-7.15-1.19-12.08-1.19-33.06,0-23.44.57-28.83.66-5.89,4.14-5.89,4.1,0,4.09,5.61,0,1.4-.45,11.08t-.45,17.85q0,7.16.66,18.5T332.7,124.37Z"/>
        <path class="cls-3" d="M388.28,91.17q0,13.65-7.08,21.76T362.32,121q-9.79,0-15.35-7.55t-5.55-21q0-14.11,6.7-21.91T366.39,63a19.13,19.13,0,0,1,15.84,7.75Q388.28,78.46,388.28,91.17Zm-8.19.1q0-9.33-4-14.6a13,13,0,0,0-11-5.27q-15.51,0-15.51,21,0,9.7,3.38,14.93a10.84,10.84,0,0,0,9.67,5.22q8.14,0,12.79-5.62T380.09,91.27Z"/>
        <path class="cls-3" d="M427.19,74.65q0,4.63-4.15,4.64a2.62,2.62,0,0,1-2.26-1.16L419.58,76a7.85,7.85,0,0,0-6.78-3.72q-7.29,0-7.29,9.33a11.13,11.13,0,0,0,1.32,5.58,18.16,18.16,0,0,0,4,4.5q6.49,5.61,8.11,7.75a16,16,0,0,1,3.37,10q0,7.42-4.28,12.1a14.42,14.42,0,0,1-11.15,4.66,15.26,15.26,0,0,1-10.74-3.85,12.17,12.17,0,0,1-4.07-9.38q0-5.72,4.38-5.71c2.46,0,3.72,2.12,3.81,6.36q3,4,6.64,4a6.53,6.53,0,0,0,5-2.11,7.47,7.47,0,0,0,1.95-5.27,7.87,7.87,0,0,0-2.39-5.43c0-.06-2-1.87-6.05-5.43q-8.31-7.44-8.31-17.41,0-8.13,4.42-13.14a14.69,14.69,0,0,1,11.58-5,15.25,15.25,0,0,1,10.08,3.48Q427.19,70.56,427.19,74.65Z"/>
        <path class="cls-3" d="M468.05,81.66a4.32,4.32,0,0,1-.91,2.76A2.67,2.67,0,0,1,465,85.56a25.16,25.16,0,0,1-4.71-1.81,18.62,18.62,0,0,0-10.59-1.63A70.44,70.44,0,0,0,448.18,96q0,8.13,2.42,12.49t6.75,4.37a9.31,9.31,0,0,0,3.48-1,9.05,9.05,0,0,1,3.1-1c2.2,0,3.29,1.46,3.29,4.37a5.27,5.27,0,0,1-2.71,4.59,13.45,13.45,0,0,1-7.41,1.77q-17.44,0-17.44-26.23a69.74,69.74,0,0,1,1.19-12.17c-.77.13-2.42.48-5,1.07a19.19,19.19,0,0,1-3.7.56q-4.4,0-4.4-3.81,0-5.2,15.18-6.78,3.12-11.19,7.65-11.19A3.06,3.06,0,0,1,453,64.27,4.07,4.07,0,0,1,454,67a10,10,0,0,1-.62,3c-.41,1.23-.82,2.46-1.24,3.69Q468.05,74.38,468.05,81.66Z"/>
        <path class="cls-3" d="M487.22,61.23a77.77,77.77,0,0,1-1.85,9.42A138.61,138.61,0,0,0,482,97q-.28,6.36-.49,7.38a2.79,2.79,0,0,1-2.88,2.51q-2.34,0-3.29-3.07-.87-2.88-.87-9.79,0-12.26,4.24-28.23,2.1-8,5.8-8Q487.22,57.79,487.22,61.23Zm-2.88,58.36a6.06,6.06,0,0,1-1.28,4,4,4,0,0,1-3.21,1.55,4.13,4.13,0,0,1-3.27-1.57,5.92,5.92,0,0,1-1.33-4,5.4,5.4,0,0,1,1.31-3.72,4.22,4.22,0,0,1,3.29-1.48,4.07,4.07,0,0,1,3.23,1.44A5.5,5.5,0,0,1,484.34,119.59Z"/>
      </g>
      <g>
        <path class="cls-4" d="M189,53.8q0,3.48-5.92,13.51-11.11,18.9-25.51,31.2l.08.09v5.81c0,2.69,0,6,0,9.82s0,6.33,0,7.45q0,9.28-.74,12.39-1,4-4.07,4-3.78,0-3.78-7.25c0-.24,0-2.43.16-6.54s.17-8.11.17-12V100.41q-6.55-6.82-14.07-21.77Q127,62,127,53.89c0-3.34,1.37-5,4.13-5a3.28,3.28,0,0,1,3.39,2A35.49,35.49,0,0,1,136,56.26a67.21,67.21,0,0,0,1.85,7,85.84,85.84,0,0,0,15.56,28.13q14.26-13.1,24.84-33.85,1.56-3.15,3.17-6.31c.92-1.55,2-2.32,3.18-2.32a4,4,0,0,1,3.07,1.46A5.11,5.11,0,0,1,189,53.8Z"/>
        <path class="cls-4" d="M234.37,91.17q0,13.65-7.08,21.76T208.41,121q-9.79,0-15.34-7.55t-5.56-21q0-14.11,6.71-21.91T212.48,63a19.13,19.13,0,0,1,15.84,7.75Q234.37,78.46,234.37,91.17Zm-8.19.1q0-9.33-4-14.6a13,13,0,0,0-11-5.27q-15.51,0-15.51,21,0,9.7,3.37,14.93a10.84,10.84,0,0,0,9.67,5.22q8.14,0,12.79-5.62T226.18,91.27Z"/>
        <path class="cls-4" d="M286.08,120.38a5.91,5.91,0,0,1-1.19,3.76,3.59,3.59,0,0,1-2.92,1.53q-3.25,0-5.47-11.28-7,10.73-16.87,10.72-16.41,0-16.41-29.57A172.19,172.19,0,0,1,245,69.12q1.08-7,5.23-7a3.34,3.34,0,0,1,2.59,1.25,4.28,4.28,0,0,1,1.11,2.93q0,1.48-1.19,11.51a157.68,157.68,0,0,0-1.19,18.66q0,19.88,9.7,19.88a11.43,11.43,0,0,0,10-5.51q3.69-5.49,3.68-15.53V92.61q0-15.54.7-20,1-6.32,4.61-6.31c2.3,0,3.46,1.81,3.46,5.43q0,1-.35,7c-.24,4.06-.35,7.76-.35,11.1a142.27,142.27,0,0,0,1.56,21.85Q286.08,121.78,286.08,120.38Z"/>
        <path class="cls-4" d="M332.7,124.37a16.88,16.88,0,0,1-.37,4.32,2.93,2.93,0,0,1-3.08,2q-3.88,0-4.58-7.15-1.19-12.08-1.19-33.06,0-23.44.57-28.83.66-5.89,4.14-5.89,4.1,0,4.09,5.61,0,1.4-.45,11.08t-.45,17.85q0,7.16.66,18.5T332.7,124.37Z"/>
        <path class="cls-4" d="M388.28,91.17q0,13.65-7.08,21.76T362.32,121q-9.79,0-15.35-7.55t-5.55-21q0-14.11,6.7-21.91T366.39,63a19.13,19.13,0,0,1,15.84,7.75Q388.28,78.46,388.28,91.17Zm-8.19.1q0-9.33-4-14.6a13,13,0,0,0-11-5.27q-15.51,0-15.51,21,0,9.7,3.38,14.93a10.84,10.84,0,0,0,9.67,5.22q8.14,0,12.79-5.62T380.09,91.27Z"/>
        <path class="cls-4" d="M427.19,74.65q0,4.63-4.15,4.64a2.62,2.62,0,0,1-2.26-1.16L419.58,76a7.85,7.85,0,0,0-6.78-3.72q-7.29,0-7.29,9.33a11.13,11.13,0,0,0,1.32,5.58,18.16,18.16,0,0,0,4,4.5q6.49,5.61,8.11,7.75a16,16,0,0,1,3.37,10q0,7.42-4.28,12.1a14.42,14.42,0,0,1-11.15,4.66,15.26,15.26,0,0,1-10.74-3.85,12.17,12.17,0,0,1-4.07-9.38q0-5.72,4.38-5.71c2.46,0,3.72,2.12,3.81,6.36q3,4,6.64,4a6.53,6.53,0,0,0,5-2.11,7.47,7.47,0,0,0,1.95-5.27,7.87,7.87,0,0,0-2.39-5.43c0-.06-2-1.87-6.05-5.43q-8.31-7.44-8.31-17.41,0-8.13,4.42-13.14a14.69,14.69,0,0,1,11.58-5,15.25,15.25,0,0,1,10.08,3.48Q427.19,70.56,427.19,74.65Z"/>
        <path class="cls-4" d="M468.05,81.66a4.32,4.32,0,0,1-.91,2.76A2.67,2.67,0,0,1,465,85.56a25.16,25.16,0,0,1-4.71-1.81,18.62,18.62,0,0,0-10.59-1.63A70.44,70.44,0,0,0,448.18,96q0,8.13,2.42,12.49t6.75,4.37a9.31,9.31,0,0,0,3.48-1,9.05,9.05,0,0,1,3.1-1c2.2,0,3.29,1.46,3.29,4.37a5.27,5.27,0,0,1-2.71,4.59,13.45,13.45,0,0,1-7.41,1.77q-17.44,0-17.44-26.23a69.74,69.74,0,0,1,1.19-12.17c-.77.13-2.42.48-5,1.07a19.19,19.19,0,0,1-3.7.56q-4.4,0-4.4-3.81,0-5.2,15.18-6.78,3.12-11.19,7.65-11.19A3.06,3.06,0,0,1,453,64.27,4.07,4.07,0,0,1,454,67a10,10,0,0,1-.62,3c-.41,1.23-.82,2.46-1.24,3.69Q468.05,74.38,468.05,81.66Z"/>
        <path class="cls-4" d="M487.22,61.23a77.77,77.77,0,0,1-1.85,9.42A138.61,138.61,0,0,0,482,97q-.28,6.36-.49,7.38a2.79,2.79,0,0,1-2.88,2.51q-2.34,0-3.29-3.07-.87-2.88-.87-9.79,0-12.26,4.24-28.23,2.1-8,5.8-8Q487.22,57.79,487.22,61.23Zm-2.88,58.36a6.06,6.06,0,0,1-1.28,4,4,4,0,0,1-3.21,1.55,4.13,4.13,0,0,1-3.27-1.57,5.92,5.92,0,0,1-1.33-4,5.4,5.4,0,0,1,1.31-3.72,4.22,4.22,0,0,1,3.29-1.48,4.07,4.07,0,0,1,3.23,1.44A5.5,5.5,0,0,1,484.34,119.59Z"/>
      </g>
    </g>
    <g>
      <path class="cls-5" d="M106.23,236.79q0,8-3.83,12.41c-2.54,3-6.05,4.45-10.5,4.45a11.89,11.89,0,0,1-9.66-4.59q-3.69-4.49-3.69-12.05,0-8,3.24-12.9A11.46,11.46,0,0,1,92,218.81a12.69,12.69,0,0,1,10.48,4.72C105,226.68,106.23,231.09,106.23,236.79Zm-3.52.11q0-6.94-2.77-10.62A9.32,9.32,0,0,0,92,222.61a8.5,8.5,0,0,0-7.4,3.59q-2.52,3.59-2.53,10.47,0,6,2.82,9.66A8.83,8.83,0,0,0,92.23,250a9.36,9.36,0,0,0,7.62-3.42Q102.72,243,102.71,236.9Z"/>
      <path class="cls-5" d="M126.77,238.1a32.65,32.65,0,0,1-.91,8.61q-.87,3.09-2.19,3.09a1.68,1.68,0,0,1-1.26-.52,1.6,1.6,0,0,1-.52-1.17,47.83,47.83,0,0,0,1.57-10q0-5.1-1-7.41a3.58,3.58,0,0,0-3.46-2.38,5.49,5.49,0,0,0-2.58.69,5.89,5.89,0,0,0-2,1.69,6.7,6.7,0,0,0-.88,3.82v1.2q0,4.8.32,9.3c.22,3,.33,4.41.33,4.2,0,1.25-.51,1.87-1.53,1.87a1.33,1.33,0,0,1-1.25-.62,6.52,6.52,0,0,1-.54-2.13,98.67,98.67,0,0,1,.69-26.25,10.84,10.84,0,0,1,.53-2.33,1.28,1.28,0,0,1,1.25-.79,1.35,1.35,0,0,1,1.07.53,2.1,2.1,0,0,1,.43,1.35s-.28,2.08-.85,6.32a7.12,7.12,0,0,1,5.35-2.31Q126.78,224.85,126.77,238.1Z"/>
      <path class="cls-5" d="M157.71,236.05a31.62,31.62,0,0,1-1.29,8.9c-.53,1.83-1.19,2.74-2,2.74a1.5,1.5,0,0,1-1.08-.44,1.43,1.43,0,0,1-.45-1.06c0-.12.27-1.26.8-3.43a26.86,26.86,0,0,0,.8-6.48q0-7.32-4-7.32a4.55,4.55,0,0,0-3.79,1.94,8.48,8.48,0,0,0-1.52,5.27,38.26,38.26,0,0,0,.46,5.08,39.89,39.89,0,0,1,.46,4.66c0,2.15-.55,3.23-1.64,3.23a1.39,1.39,0,0,1-1.15-.41,3.44,3.44,0,0,1-.41-1.32q0-1.17-.42-6.73-.67-7.78-.68-11.06,0-5.7,1.95-5.7a1.47,1.47,0,0,1,1.08.45,1.37,1.37,0,0,1,.45,1,11.49,11.49,0,0,1-.2,1.56,12,12,0,0,0-.2,1.94v.43q2.46-3.78,6-3.78a5.76,5.76,0,0,1,5.06,2.72Q157.71,231,157.71,236.05Z"/>
      <path class="cls-5" d="M179.69,235.17a12.94,12.94,0,0,1-2.87,8.81,9.63,9.63,0,0,1-7.64,3.28A7.29,7.29,0,0,1,163,244.2q-2.25-3-2.25-8.49,0-5.72,2.72-8.87a9.21,9.21,0,0,1,7.4-3.1,7.72,7.72,0,0,1,6.41,3.14A13.1,13.1,0,0,1,179.69,235.17Zm-3.32,0a9.62,9.62,0,0,0-1.62-5.92,5.27,5.27,0,0,0-4.44-2.13q-6.28,0-6.28,8.52a11.14,11.14,0,0,0,1.36,6,4.4,4.4,0,0,0,3.92,2.12,6.35,6.35,0,0,0,5.18-2.28A9.64,9.64,0,0,0,176.37,235.21Z"/>
      <path class="cls-5" d="M188.69,245.13a9.5,9.5,0,0,1-1.14,4.74c-.66,1.19-1.32,1.79-2,1.79s-1.11-.4-1.11-1.2a6.36,6.36,0,0,1,.79-2,6.25,6.25,0,0,0,.79-2.91,2.3,2.3,0,0,0,0-.23c0-.11,0-.2,0-.27a3.13,3.13,0,0,1-1.23.28c-1.29,0-1.93-.85-1.93-2.54a2.28,2.28,0,0,1,2.59-2.56,2.72,2.72,0,0,1,2.34,1.32A6.18,6.18,0,0,1,188.69,245.13Z"/>
      <path class="cls-5" d="M234.21,239.29a96.61,96.61,0,0,1-.59,11.82c-.23,1.8-.85,2.69-1.85,2.69s-1.66-.69-1.66-2.07c0-.06.06-.75.2-2.08.15-1.57.28-3.16.38-4.76.13-2.38.2-4.88.2-7.48a113.43,113.43,0,0,0-1-14.44q-4,4.49-7.1,14l-1.23,4c-.4,1-1,1.47-1.67,1.47a1.63,1.63,0,0,1-1.51-1.15c-.12-.28-.45-1.4-1-3.37a38.55,38.55,0,0,0-7.71-14.66q-1.86,6.76-1.85,18.48,0,1.69.12,4.17c.09,1.66.13,2.76.13,3.29,0,1.91-.56,2.86-1.69,2.86q-1.31,0-1.68-1.8a44.12,44.12,0,0,1-.25-6,111.14,111.14,0,0,1,1.64-21,16.25,16.25,0,0,1,1.15-4,1.88,1.88,0,0,1,1.65-1.21c.72,0,1.55.57,2.48,1.7a57.39,57.39,0,0,1,4.52,6.07,42.48,42.48,0,0,1,4.2,9,62.76,62.76,0,0,1,6.52-13.29c1.91-3,3.44-4.47,4.57-4.47a1.16,1.16,0,0,1,1.08.71,9.62,9.62,0,0,1,.65,2.26Q234.2,226.14,234.21,239.29Z"/>
      <path class="cls-5" d="M243.89,227.5a140,140,0,0,1-.72,16.75,11.92,11.92,0,0,1-.63,2.93,1.51,1.51,0,0,1-1.45,1,1.52,1.52,0,0,1-1.14-.5,1.68,1.68,0,0,1-.46-1.19c0,.06.09-.37.27-1.3s.38-2.25.51-3.59q.27-2.86.27-6.39c0-1,0-2.12,0-3.26s0-1.76,0-1.86a11.26,11.26,0,0,1,.38-3.53,1.49,1.49,0,0,1,1.5-1.09C243.38,225.47,243.89,226.14,243.89,227.5Zm.71-7.17q0,2.67-2.31,2.67a2,2,0,0,1-1.58-.73,2.64,2.64,0,0,1-.64-1.77,2.79,2.79,0,0,1,.7-1.92,2.24,2.24,0,0,1,1.72-.79,1.92,1.92,0,0,1,1.53.7A2.76,2.76,0,0,1,244.6,220.33Z"/>
      <path class="cls-5" d="M263.43,237.44a46.64,46.64,0,0,1-1.33,10.78q-.68,2.82-2,2.82c-.9,0-1.35-.58-1.35-1.73a4,4,0,0,1,0-.58,6.67,6.67,0,0,1-3.52,1,6.34,6.34,0,0,1-5-2,8.36,8.36,0,0,1-1.81-5.73,8.61,8.61,0,0,1,2-5.94,6.6,6.6,0,0,1,5.18-2.19,6.16,6.16,0,0,1,4.75,2.13q-.31-7.42-4.88-7.43a4.26,4.26,0,0,0-2.17.69,4.52,4.52,0,0,1-1.51.68,1.32,1.32,0,0,1-1-.52,1.82,1.82,0,0,1-.45-1.21,2.6,2.6,0,0,1,1.45-2.08,6.51,6.51,0,0,1,3.7-1Q263.43,225.07,263.43,237.44Zm-3.38,4.42q0-4.77-4-4.77-4.37,0-4.37,4.73c0,3.19,1.45,4.78,4.33,4.78a3.67,3.67,0,0,0,3-1.25A5.22,5.22,0,0,0,260.05,241.86Z"/>
      <path class="cls-5" d="M301.64,236.64c0,3.89-.62,6.92-1.85,9.06a5.48,5.48,0,0,1-4.93,3.1q-3.87,0-5.54-4.47-2,3.43-4.36,3.44c-2.12,0-3.9-1.31-5.33-3.91q-2.29-4.16-2.29-11,0-9.36,2.45-9.36a1.49,1.49,0,0,1,1.15.55,1.87,1.87,0,0,1,.5,1.31c0-.09-.12.73-.36,2.45a40.37,40.37,0,0,0-.35,5.37,18.33,18.33,0,0,0,1.33,7.56c.82,1.81,1.81,2.71,3,2.71a2.5,2.5,0,0,0,2.09-1.55,8.22,8.22,0,0,0,.87-4c0-.89-.07-2.11-.22-3.65s-.23-2.64-.23-3.27c0-1.7.62-2.54,1.85-2.54s1.88.91,1.88,2.72c0,.28,0,.76,0,1.43s0,1.21,0,1.58a61.85,61.85,0,0,0,.22,6.75c.43,2.84,1.5,4.25,3.2,4.25a3,3,0,0,0,2.66-1.94,12.35,12.35,0,0,0,1-5.49,43.43,43.43,0,0,0-.75-8c-.5-2.68-.75-4.08-.75-4.19,0-1,.46-1.5,1.4-1.5s1.89,1.07,2.5,3.21A36.21,36.21,0,0,1,301.64,236.64Z"/>
      <path class="cls-5" d="M309.35,227.5a140,140,0,0,1-.72,16.75,11.46,11.46,0,0,1-.63,2.93,1.54,1.54,0,0,1-2.58.5,1.69,1.69,0,0,1-.47-1.19c0,.06.09-.37.27-1.3s.38-2.25.52-3.59q.25-2.86.26-6.39c0-1,0-2.12,0-3.26s0-1.76,0-1.86a11,11,0,0,1,.38-3.53,1.48,1.48,0,0,1,1.5-1.09C308.84,225.47,309.35,226.14,309.35,227.5Zm.72-7.17c0,1.78-.77,2.67-2.32,2.67a2,2,0,0,1-1.57-.73,2.59,2.59,0,0,1-.64-1.77,2.79,2.79,0,0,1,.7-1.92,2.2,2.2,0,0,1,1.71-.79,1.9,1.9,0,0,1,1.53.7A2.76,2.76,0,0,1,310.07,220.33Z"/>
      <path class="cls-5" d="M319.05,248.61a6.67,6.67,0,0,1-.15,1.75,1.19,1.19,0,0,1-1.25.83c-1,0-1.67-1-1.85-2.9q-.48-4.89-.48-13.38c0-6.33.07-10.23.23-11.68s.73-2.39,1.67-2.39c1.11,0,1.66.76,1.66,2.28,0,.37-.06,1.87-.18,4.48s-.19,5-.19,7.23q0,2.89.27,7.49C319,245.39,319.05,247.48,319.05,248.61Z"/>
      <path class="cls-5" d="M328.2,248.61a6.67,6.67,0,0,1-.15,1.75,1.19,1.19,0,0,1-1.25.83c-1.05,0-1.67-1-1.86-2.9q-.48-4.89-.48-13.38c0-6.33.08-10.23.24-11.68s.73-2.39,1.67-2.39c1.11,0,1.66.76,1.66,2.28,0,.37-.06,1.87-.18,4.48s-.19,5-.19,7.23q0,2.89.27,7.49C328.11,245.39,328.2,247.48,328.2,248.61Z"/>
      <path class="cls-5" d="M360.12,238.1a32.59,32.59,0,0,1-.92,8.61c-.57,2.06-1.3,3.09-2.18,3.09a1.72,1.72,0,0,1-1.27-.52,1.63,1.63,0,0,1-.51-1.17,47.66,47.66,0,0,0,1.56-10q0-5.1-1-7.41a3.59,3.59,0,0,0-3.47-2.38,5.55,5.55,0,0,0-2.58.69,5.85,5.85,0,0,0-2,1.69,6.7,6.7,0,0,0-.88,3.82v1.2c0,3.2.1,6.3.32,9.3s.33,4.41.33,4.2c0,1.25-.51,1.87-1.54,1.87a1.34,1.34,0,0,1-1.25-.62,6.33,6.33,0,0,1-.53-2.13,94.53,94.53,0,0,1-.57-11.66,98.7,98.7,0,0,1,1.25-14.59,10.65,10.65,0,0,1,.54-2.33,1.28,1.28,0,0,1,1.25-.79,1.33,1.33,0,0,1,1.06.53,2,2,0,0,1,.44,1.35s-.29,2.08-.85,6.32a7.09,7.09,0,0,1,5.34-2.31Q360.12,224.85,360.12,238.1Z"/>
      <path class="cls-5" d="M378.91,237.44a46.64,46.64,0,0,1-1.33,10.78q-.66,2.82-2,2.82c-.9,0-1.35-.58-1.35-1.73a4,4,0,0,1,0-.58,6.64,6.64,0,0,1-3.51,1,6.35,6.35,0,0,1-5-2,8.41,8.41,0,0,1-1.81-5.73,8.61,8.61,0,0,1,1.95-5.94,6.61,6.61,0,0,1,5.19-2.19,6.14,6.14,0,0,1,4.74,2.13q-.31-7.42-4.88-7.43a4.29,4.29,0,0,0-2.17.69,4.43,4.43,0,0,1-1.51.68,1.32,1.32,0,0,1-1-.52,1.82,1.82,0,0,1-.45-1.21,2.62,2.62,0,0,1,1.45-2.08,6.53,6.53,0,0,1,3.7-1Q378.91,225.07,378.91,237.44Zm-3.38,4.42q0-4.77-4-4.77-4.37,0-4.37,4.73t4.34,4.78a3.7,3.7,0,0,0,3-1.25A5.22,5.22,0,0,0,375.53,241.86Z"/>
      <path class="cls-5" d="M398.26,225.24a25.06,25.06,0,0,1-.72,4.81c-.52,2.39-.91,4-1.18,5a66.91,66.91,0,0,1-3.08,8.53q-2.11,4.88-3.62,4.87-.95,0-1.47-2.1c-.45-2-.91-3.89-1.36-5.83a83.44,83.44,0,0,0-5-13.92l-.69-1.31a2.54,2.54,0,0,1-.34-1.15c0-1.13.5-1.69,1.5-1.69s2.36,1.65,3.72,4.94a123.17,123.17,0,0,1,4.51,14.82,61.28,61.28,0,0,0,4.26-15.8c.27-1.69.44-2.65.52-2.89a1.3,1.3,0,0,1,1.3-1C397.7,222.53,398.26,223.44,398.26,225.24Z"/>
      <path class="cls-5" d="M417.79,232.78a3.47,3.47,0,0,1-1.2,2.9,12.61,12.61,0,0,1-3.39,1.07,29,29,0,0,1-6.44.88,26.5,26.5,0,0,1-2.94-.19c0,4.73,1.6,7.09,4.78,7.09a3.77,3.77,0,0,0,2.39-.84,18.7,18.7,0,0,0,1.91-2,1.45,1.45,0,0,1,1.05-.58,1.56,1.56,0,0,1,1.21.59,2.17,2.17,0,0,1,.51,1.46,2.07,2.07,0,0,1-.48,1.32,8.47,8.47,0,0,1-6.72,3.53q-8,0-8-10.4a16.58,16.58,0,0,1,2.53-9.25c1.92-2.94,4.3-4.42,7.13-4.42a6.91,6.91,0,0,1,5.47,2.51A9.39,9.39,0,0,1,417.79,232.78Zm-3.32.23a7.42,7.42,0,0,0-1.21-4.14,3.3,3.3,0,0,0-2.77-1.52,5.09,5.09,0,0,0-3.82,1.75,11,11,0,0,0-2.53,5,20.09,20.09,0,0,0,2.52.15A31.07,31.07,0,0,0,414.47,233Z"/>
      <path class="cls-5" d="M444.56,231.31a1.7,1.7,0,0,1-.37,1.12,1.06,1.06,0,0,1-.86.46,9.74,9.74,0,0,1-1.91-.73,8,8,0,0,0-3.24-.73,7.82,7.82,0,0,0-1.05.07,28.86,28.86,0,0,0-.62,5.62,10.5,10.5,0,0,0,1,5.06,3,3,0,0,0,2.73,1.77,3.77,3.77,0,0,0,1.41-.39,3.81,3.81,0,0,1,1.25-.38c.89,0,1.34.59,1.34,1.77a2.16,2.16,0,0,1-1.1,1.86,5.55,5.55,0,0,1-3,.71q-7.06,0-7.07-10.62a27.46,27.46,0,0,1,.49-4.93c-.31.05-1,.2-2,.43a7.17,7.17,0,0,1-1.5.23c-1.19,0-1.78-.51-1.78-1.54,0-1.41,2.05-2.32,6.15-2.75q1.26-4.53,3.1-4.53a1.25,1.25,0,0,1,1,.46,1.64,1.64,0,0,1,.4,1.12,3.87,3.87,0,0,1-.25,1.23c-.16.5-.33,1-.5,1.5C442.41,228.28,444.56,229.35,444.56,231.31Z"/>
      <path class="cls-5" d="M464.77,235.17q0,5.52-2.86,8.81a9.65,9.65,0,0,1-7.65,3.28A7.29,7.29,0,0,1,448,244.2q-2.25-3-2.25-8.49,0-5.72,2.72-8.87a9.23,9.23,0,0,1,7.4-3.1,7.72,7.72,0,0,1,6.41,3.14A13,13,0,0,1,464.77,235.17Zm-3.31,0a9.62,9.62,0,0,0-1.63-5.92,5.27,5.27,0,0,0-4.44-2.13q-6.28,0-6.28,8.52a11,11,0,0,0,1.37,6,4.38,4.38,0,0,0,3.91,2.12,6.35,6.35,0,0,0,5.18-2.28A9.64,9.64,0,0,0,461.46,235.21Z"/>
      <path class="cls-5" d="M494.21,223.85a1.3,1.3,0,0,1-1.46,1.47c-.14,0-.42,0-.85-.08s-1-.11-1.39-.13a9.15,9.15,0,0,1,2,5.94,7.58,7.58,0,0,1-2.09,5.5A7.24,7.24,0,0,1,485,238.7q-.75,0-2.4-.18a9.17,9.17,0,0,0-2.25,2.85c2.17-.28,3.6-.43,4.3-.43q6.83,0,6.83,5.32a5.86,5.86,0,0,1-2.57,5.05,12.27,12.27,0,0,1-7.19,1.84,7.8,7.8,0,0,1-4.64-1.26,3.58,3.58,0,0,1-1.61-3,1.52,1.52,0,0,1,.48-1.11,1.58,1.58,0,0,1,1.13-.47,1.26,1.26,0,0,1,.87.44l.83,1a4.05,4.05,0,0,0,3.1.93,9.85,9.85,0,0,0,4.57-.87,2.54,2.54,0,0,0,1.58-2.29q0-2.13-4.36-2.13a21.59,21.59,0,0,0-2.73.22,22.52,22.52,0,0,1-2.36.21c-1.07,0-1.61-.42-1.61-1.27,0-1.2,1-3.22,3.11-6.08a7.11,7.11,0,0,1-2.56-5.9,8.85,8.85,0,0,1,2.26-6.11,7.13,7.13,0,0,1,5.55-2.54,7.59,7.59,0,0,1,1.6.19c.37-.62,1.55-.93,3.55-.93C493,222.19,494.21,222.75,494.21,223.85Zm-4.85,6.84a4.91,4.91,0,0,0-1.1-3.34,3.72,3.72,0,0,0-2.93-1.26,4,4,0,0,0-3.26,1.51,5.9,5.9,0,0,0-1.27,3.94q0,3.93,4.17,3.93a4.17,4.17,0,0,0,3.24-1.25A5,5,0,0,0,489.36,230.69Z"/>
      <path class="cls-5" d="M513.92,235.17q0,5.52-2.86,8.81a9.64,9.64,0,0,1-7.65,3.28,7.27,7.27,0,0,1-6.21-3.06q-2.25-3-2.25-8.49,0-5.72,2.71-8.87a9.23,9.23,0,0,1,7.4-3.1,7.72,7.72,0,0,1,6.41,3.14A13,13,0,0,1,513.92,235.17Zm-3.31,0a9.55,9.55,0,0,0-1.63-5.92,5.27,5.27,0,0,0-4.44-2.13q-6.27,0-6.28,8.52a11.14,11.14,0,0,0,1.37,6,4.38,4.38,0,0,0,3.91,2.12,6.35,6.35,0,0,0,5.18-2.28A9.64,9.64,0,0,0,510.61,235.21Z"/>
      <path class="cls-5" d="M96.33,284.31a32.31,32.31,0,0,1-.92,8.62c-.57,2.05-1.3,3.08-2.18,3.08a1.68,1.68,0,0,1-1.26-.52,1.58,1.58,0,0,1-.52-1.17,47.83,47.83,0,0,0,1.57-10q0-5.08-1-7.41a3.58,3.58,0,0,0-3.46-2.38,5.56,5.56,0,0,0-2.59.69,5.94,5.94,0,0,0-2,1.69,6.7,6.7,0,0,0-.88,3.82v1.21q0,4.79.32,9.29c.22,3,.33,4.41.33,4.21q0,1.86-1.53,1.86a1.33,1.33,0,0,1-1.25-.62,6.27,6.27,0,0,1-.54-2.13,94.74,94.74,0,0,1-.56-11.66A97.36,97.36,0,0,1,81,268.29a10.25,10.25,0,0,1,.53-2.33,1.3,1.3,0,0,1,1.25-.79,1.35,1.35,0,0,1,1.07.53,2.1,2.1,0,0,1,.43,1.35s-.29,2.08-.85,6.32a7.1,7.1,0,0,1,5.35-2.31Q96.34,271.06,96.33,284.31Z"/>
      <path class="cls-5" d="M118.64,293.21a2.4,2.4,0,0,1-.48,1.52,1.47,1.47,0,0,1-1.19.62q-1.31,0-2.21-4.57-2.82,4.35-6.83,4.35-6.65,0-6.65-12a69.35,69.35,0,0,1,.72-10.7c.28-1.88,1-2.82,2.11-2.82a1.36,1.36,0,0,1,1,.51,1.71,1.71,0,0,1,.45,1.18c0,.4-.16,2-.48,4.66a64.73,64.73,0,0,0-.48,7.56q0,8.06,3.93,8a4.63,4.63,0,0,0,4-2.23,11.27,11.27,0,0,0,1.49-6.29V282a68.4,68.4,0,0,1,.28-8.08c.27-1.71.89-2.56,1.87-2.56s1.4.73,1.4,2.2c0,.26,0,1.22-.14,2.86s-.15,3.14-.15,4.49a57.68,57.68,0,0,0,.64,8.85C118.43,292.42,118.64,293.58,118.64,293.21Z"/>
      <path class="cls-5" d="M139.05,282.26a31.62,31.62,0,0,1-1.29,8.9c-.53,1.83-1.19,2.74-2,2.74a1.46,1.46,0,0,1-1.08-.44,1.43,1.43,0,0,1-.45-1.06c0-.11.27-1.26.8-3.43a26.86,26.86,0,0,0,.8-6.48c0-4.88-1.35-7.31-4-7.31a4.55,4.55,0,0,0-3.79,1.93,8.44,8.44,0,0,0-1.52,5.27,38.26,38.26,0,0,0,.46,5.08,39.89,39.89,0,0,1,.46,4.66c0,2.15-.55,3.23-1.64,3.23a1.39,1.39,0,0,1-1.15-.41,3.37,3.37,0,0,1-.41-1.32q0-1.17-.42-6.73c-.46-5.19-.68-8.88-.68-11.06,0-3.8.65-5.69,2-5.69a1.46,1.46,0,0,1,1.08.44,1.37,1.37,0,0,1,.45,1,11.49,11.49,0,0,1-.2,1.56,12,12,0,0,0-.2,1.94v.43q2.46-3.78,6-3.78a5.74,5.74,0,0,1,5.05,2.72Q139.05,277.18,139.05,282.26Z"/>
      <path class="cls-5" d="M159.3,270.06a1.3,1.3,0,0,1-1.47,1.47c-.13,0-.42,0-.85-.08l-1.38-.13a9.2,9.2,0,0,1,2,5.94,7.54,7.54,0,0,1-2.09,5.5,7.22,7.22,0,0,1-5.44,2.15q-.75,0-2.4-.18a9.09,9.09,0,0,0-2.25,2.86,41.88,41.88,0,0,1,4.3-.44q6.84,0,6.83,5.32a5.86,5.86,0,0,1-2.57,5,12.25,12.25,0,0,1-7.19,1.84,7.7,7.7,0,0,1-4.63-1.26,3.56,3.56,0,0,1-1.62-3A1.49,1.49,0,0,1,141,294a1.56,1.56,0,0,1,1.14-.47,1.23,1.23,0,0,1,.86.43l.84,1a4.07,4.07,0,0,0,3.1.92,9.83,9.83,0,0,0,4.56-.87,2.51,2.51,0,0,0,1.58-2.29q0-2.13-4.36-2.13a23.65,23.65,0,0,0-2.73.22,22.4,22.4,0,0,1-2.35.21c-1.08,0-1.62-.42-1.62-1.27q0-1.78,3.12-6.08a7.1,7.1,0,0,1-2.57-5.9,8.86,8.86,0,0,1,2.27-6.11,7.13,7.13,0,0,1,5.54-2.54,7.59,7.59,0,0,1,1.6.19c.37-.62,1.55-.92,3.55-.92C158.05,268.41,159.3,269,159.3,270.06Zm-4.85,6.84a4.86,4.86,0,0,0-1.11-3.34,3.71,3.71,0,0,0-2.93-1.26,4,4,0,0,0-3.26,1.51,5.9,5.9,0,0,0-1.27,3.94q0,3.93,4.17,3.93a4.21,4.21,0,0,0,3.25-1.25A5,5,0,0,0,154.45,276.9Z"/>
      <path class="cls-5" d="M173.76,276.3a1.89,1.89,0,0,1-.39,1.21,1.14,1.14,0,0,1-.91.49,2.25,2.25,0,0,1-1.18-.66,2.34,2.34,0,0,0-1.42-.66,2.94,2.94,0,0,0-2.57,1.57,8,8,0,0,0-1,4.24V285a22.5,22.5,0,0,1-.77,6.55c-.47,1.51-1.09,2.27-1.85,2.27-1,0-1.51-.56-1.51-1.69a21.33,21.33,0,0,1,.46-2.49,18.68,18.68,0,0,0,.47-4,22.07,22.07,0,0,0-1.33-8.43c0-.06-.33-.69-.92-1.9a3.6,3.6,0,0,1-.45-1.46,1.58,1.58,0,0,1,.52-1.13,1.54,1.54,0,0,1,1.11-.53q1.77,0,2.94,4.89c1.15-2.51,2.84-3.76,5.05-3.76a4,4,0,0,1,2.69.87A2.79,2.79,0,0,1,173.76,276.3Z"/>
      <path class="cls-5" d="M188.72,271.13a35,35,0,0,1-1.7,8.2A87.85,87.85,0,0,1,181.39,293c-.54,1.24-1.09,2.48-1.65,3.73-.48,1-1,1.44-1.7,1.44a1.36,1.36,0,0,1-1.06-.56,1.92,1.92,0,0,1-.47-1.24,10.78,10.78,0,0,1,1.47-4.08q3.35-6.62,3.47-6.84a65.24,65.24,0,0,1-5.16-9.24,14.67,14.67,0,0,1-1.52-4.61c0-1.12.48-1.69,1.44-1.69q.9,0,1.8,1.77l1.62,3.95a44.32,44.32,0,0,0,3.28,6.41,52.59,52.59,0,0,0,2-7.48c.52-2.7.79-4.07.8-4.12.32-1,.82-1.54,1.5-1.54C188.21,268.86,188.72,269.62,188.72,271.13Z"/>
      <path class="cls-5" d="M218.09,270.29a1.8,1.8,0,0,1-.45,1.19,1.28,1.28,0,0,1-1,.54,13.88,13.88,0,0,1-1.82-.87,7.46,7.46,0,0,0-3.48-.86,4,4,0,0,0-4,2.61,11.49,11.49,0,0,0-.65,3.72l-.13,5.27a39.06,39.06,0,0,1,6,.83c1.29.37,1.93,1,1.93,1.86a2,2,0,0,1-.34,1.21,1,1,0,0,1-.79.48c-.18,0-.94-.13-2.3-.4-1.58-.3-3.08-.51-4.52-.64-.16,5.65-.33,9.12-.51,10.44q-.45,3.39-2,3.39c-1.07,0-1.6-.7-1.6-2.09l.35-3.86c.24-2.67.39-5.36.43-8.06a8.88,8.88,0,0,1-2.68-.32,1.46,1.46,0,0,1-.83-1.51c0-1.07.51-1.61,1.53-1.61h.07l1.95.07c0-1.67.08-3.33.11-5a16.67,16.67,0,0,1,.44-3.56q1.73-6.31,7.29-6.31a10.47,10.47,0,0,1,5.1,1.11C217.48,268.61,218.09,269.4,218.09,270.29Z"/>
      <path class="cls-5" d="M236.36,281.38a12.92,12.92,0,0,1-2.87,8.81,9.64,9.64,0,0,1-7.65,3.28,7.28,7.28,0,0,1-6.21-3.06q-2.25-3-2.25-8.48c0-3.82.9-6.77,2.71-8.88a9.24,9.24,0,0,1,7.4-3.1,7.74,7.74,0,0,1,6.42,3.14A13.12,13.12,0,0,1,236.36,281.38Zm-3.32,0a9.62,9.62,0,0,0-1.62-5.92,5.3,5.3,0,0,0-4.44-2.13q-6.28,0-6.29,8.52a11.14,11.14,0,0,0,1.37,6,4.4,4.4,0,0,0,3.92,2.12,6.36,6.36,0,0,0,5.18-2.28A9.7,9.7,0,0,0,233,281.42Z"/>
      <path class="cls-5" d="M252.05,276.3a1.94,1.94,0,0,1-.38,1.21,1.16,1.16,0,0,1-.92.49,2.28,2.28,0,0,1-1.18-.66,2.32,2.32,0,0,0-1.42-.66,2.92,2.92,0,0,0-2.56,1.57,7.9,7.9,0,0,0-1,4.24V285a22.55,22.55,0,0,1-.76,6.55c-.48,1.51-1.1,2.27-1.85,2.27-1,0-1.52-.56-1.52-1.69a22.61,22.61,0,0,1,.47-2.49,19.27,19.27,0,0,0,.46-4,22.07,22.07,0,0,0-1.33-8.43c0-.06-.33-.69-.91-1.9a3.6,3.6,0,0,1-.45-1.46,1.61,1.61,0,0,1,.51-1.13,1.57,1.57,0,0,1,1.12-.53c1.18,0,2.15,1.63,2.93,4.89q1.74-3.76,5-3.76a4.05,4.05,0,0,1,2.7.87A2.78,2.78,0,0,1,252.05,276.3Z"/>
      <path class="cls-5" d="M278.61,277.52a1.7,1.7,0,0,1-.37,1.12,1.07,1.07,0,0,1-.86.47,9.91,9.91,0,0,1-1.91-.74,8,8,0,0,0-3.24-.73,7.82,7.82,0,0,0-1.05.07,28.87,28.87,0,0,0-.62,5.63,10.45,10.45,0,0,0,1,5.05,3,3,0,0,0,2.73,1.77,3.92,3.92,0,0,0,1.41-.38,3.65,3.65,0,0,1,1.25-.39c.89,0,1.34.59,1.34,1.77a2.16,2.16,0,0,1-1.1,1.86,5.46,5.46,0,0,1-3,.71q-7.06,0-7.07-10.62a27.46,27.46,0,0,1,.49-4.93c-.31.05-1,.2-2,.44a7.71,7.71,0,0,1-1.5.22c-1.19,0-1.78-.51-1.78-1.54q0-2.1,6.15-2.75,1.26-4.53,3.1-4.53a1.25,1.25,0,0,1,1,.46,1.64,1.64,0,0,1,.4,1.12,3.87,3.87,0,0,1-.25,1.23c-.16.5-.33,1-.5,1.5C276.46,274.49,278.61,275.56,278.61,277.52Z"/>
      <path class="cls-5" d="M298,284.31a32.78,32.78,0,0,1-.91,8.62c-.58,2.05-1.31,3.08-2.18,3.08a1.7,1.7,0,0,1-1.27-.52,1.58,1.58,0,0,1-.52-1.17,47.16,47.16,0,0,0,1.57-10,19.71,19.71,0,0,0-1-7.41,3.6,3.6,0,0,0-3.47-2.38,5.52,5.52,0,0,0-2.58.69,5.76,5.76,0,0,0-2,1.69,6.69,6.69,0,0,0-.89,3.82v1.21q0,4.79.33,9.29c.21,3,.32,4.41.32,4.21q0,1.86-1.53,1.86a1.33,1.33,0,0,1-1.25-.62,6.33,6.33,0,0,1-.53-2.13,94.42,94.42,0,0,1-.57-11.66,98.7,98.7,0,0,1,1.25-14.59,11.52,11.52,0,0,1,.53-2.33,1.31,1.31,0,0,1,1.25-.79,1.35,1.35,0,0,1,1.07.53,2,2,0,0,1,.43,1.35s-.28,2.08-.85,6.32a7.12,7.12,0,0,1,5.35-2.31Q298,271.06,298,284.31Z"/>
      <path class="cls-5" d="M318.68,279a3.46,3.46,0,0,1-1.2,2.9A12.34,12.34,0,0,1,314.1,283a29,29,0,0,1-6.45.88,26.34,26.34,0,0,1-2.93-.19q0,7.1,4.78,7.09a3.74,3.74,0,0,0,2.38-.84,18,18,0,0,0,1.92-2,1.4,1.4,0,0,1,1.05-.59,1.54,1.54,0,0,1,1.21.6,2.14,2.14,0,0,1,.51,1.45,2.08,2.08,0,0,1-.49,1.32,8.44,8.44,0,0,1-6.71,3.53q-8,0-8-10.39a16.6,16.6,0,0,1,2.54-9.26c1.92-2.94,4.29-4.41,7.13-4.41a6.87,6.87,0,0,1,5.46,2.5A9.34,9.34,0,0,1,318.68,279Zm-3.31.23a7.44,7.44,0,0,0-1.21-4.14,3.32,3.32,0,0,0-2.78-1.52,5.08,5.08,0,0,0-3.81,1.75,11,11,0,0,0-2.53,5,19.81,19.81,0,0,0,2.51.15A31.08,31.08,0,0,0,315.37,279.22Z"/>
      <path class="cls-5" d="M349.42,266.6c0-.08-.06.87-.2,2.82q-.21,3.4-.36,7.24-.19,5.54-.19,11.77c0,.85,0,1.73,0,2.62s0,1.37,0,1.42c0,1.87-.53,2.81-1.58,2.81s-1.72-1.06-1.72-3.16c0-.49,0-.87,0-1.15a9.57,9.57,0,0,1-7.29,3.5,6.65,6.65,0,0,1-5.48-2.53,10.83,10.83,0,0,1-2-6.95q0-6,2.94-9.72a9.37,9.37,0,0,1,7.7-3.71,10.54,10.54,0,0,1,4.58,1.15,58.51,58.51,0,0,1,.31-6.24c.25-1.28.86-1.92,1.85-1.92S349.42,265.23,349.42,266.6Zm-3.73,9.78a7.51,7.51,0,0,0-4.38-1.54,6.31,6.31,0,0,0-5.35,2.64,11.76,11.76,0,0,0-2,7.17,7.73,7.73,0,0,0,1.33,4.83A4.37,4.37,0,0,0,339,291.2a5.11,5.11,0,0,0,4.46-2.2c.29-.49.57-1,.85-1.49a1.85,1.85,0,0,1,1.19-.94C345.47,283.05,345.55,279.65,345.69,276.38Z"/>
      <path class="cls-5" d="M368.12,283.65a46.67,46.67,0,0,1-1.34,10.78q-.66,2.82-2,2.82c-.9,0-1.35-.58-1.35-1.73a4,4,0,0,1,0-.58,6.64,6.64,0,0,1-3.51,1,6.33,6.33,0,0,1-5-2.05,8.35,8.35,0,0,1-1.81-5.73,8.61,8.61,0,0,1,1.95-5.94,6.59,6.59,0,0,1,5.18-2.19,6.16,6.16,0,0,1,4.75,2.13q-.31-7.43-4.88-7.43a4.29,4.29,0,0,0-2.18.69,4.35,4.35,0,0,1-1.51.68,1.31,1.31,0,0,1-1-.52,1.8,1.8,0,0,1-.45-1.21,2.62,2.62,0,0,1,1.45-2.08,6.49,6.49,0,0,1,3.7-1Q368.12,271.28,368.12,283.65Zm-3.39,4.42c0-3.18-1.32-4.77-4-4.77q-4.37,0-4.36,4.74t4.33,4.77a3.66,3.66,0,0,0,2.95-1.25A5.2,5.2,0,0,0,364.73,288.07Z"/>
      <path class="cls-5" d="M384.86,271.13a34.45,34.45,0,0,1-1.7,8.2A87.85,87.85,0,0,1,377.53,293c-.54,1.24-1.09,2.48-1.65,3.73-.48,1-1,1.44-1.7,1.44a1.36,1.36,0,0,1-1.06-.56,1.92,1.92,0,0,1-.47-1.24,10.78,10.78,0,0,1,1.47-4.08l3.47-6.84a65.24,65.24,0,0,1-5.16-9.24,14.56,14.56,0,0,1-1.51-4.61c0-1.12.47-1.69,1.43-1.69q.9,0,1.8,1.77c.55,1.32,1.09,2.63,1.62,3.95a43.37,43.37,0,0,0,3.29,6.41,53.94,53.94,0,0,0,2-7.48c.52-2.7.79-4.07.8-4.12.32-1,.83-1.54,1.51-1.54C384.35,268.86,384.86,269.62,384.86,271.13Z"/>
      <path class="cls-5" d="M393.23,290.2a3.26,3.26,0,0,1-.75,2.24,2.46,2.46,0,0,1-2,.84,2.19,2.19,0,0,1-1.76-.82,3.08,3.08,0,0,1-.69-2.07,2.89,2.89,0,0,1,.76-2,2.4,2.4,0,0,1,1.85-.82C392.38,287.55,393.23,288.43,393.23,290.2Z"/>
      <path class="cls-5" d="M440.26,265.83a1.91,1.91,0,0,1-.46,1.24,1.34,1.34,0,0,1-1,.56,1.82,1.82,0,0,1-.63-.11,3.23,3.23,0,0,1-.53-.21l-.4-.18q-1.09,21.27-5.15,31c-.71,1.69-1.56,2.54-2.53,2.54q-4.14,0-6.15-18.37a96.9,96.9,0,0,1-4.37,12.5c-1.29,2.74-2.56,4.1-3.81,4.1-.87,0-1.68-.59-2.44-1.76a26.69,26.69,0,0,1-2.35-5.55q-2.5-7.71-2.51-23.15v-1.35a6.26,6.26,0,0,0-.88.17,3.83,3.83,0,0,1-.67.11c-1.11,0-1.67-.65-1.67-1.94q0-2.27,5.33-2.27a9.49,9.49,0,0,1,4,.7c1,.47,1.5,1.06,1.5,1.76,0,1.34-.54,2-1.6,2a4.58,4.58,0,0,1-1.22-.26,7.34,7.34,0,0,0-1.45-.36l-.07,4.7q0,14,4.14,22.83,2.56-4,5.83-16.06.58-2.14,1.16-5.28a23.85,23.85,0,0,1,.77-3.31c.3-.77.74-1.15,1.32-1.15a1.54,1.54,0,0,1,1.58,1.3,18,18,0,0,1,.25,3.83c0,.32,0,.69,0,1.12s0,.7,0,.8a54.83,54.83,0,0,0,3.31,19.95q3.5-10.08,4.43-29a5.8,5.8,0,0,0-.85.17,3.12,3.12,0,0,1-.78.13c-1.09,0-1.63-.64-1.63-1.92,0-1.46,1.49-2.2,4.46-2.2a7.14,7.14,0,0,1,3.77.91A2.37,2.37,0,0,1,440.26,265.83Z"/>
      <path class="cls-5" d="M457.71,284.31a32.72,32.72,0,0,1-.92,8.62c-.58,2.05-1.31,3.08-2.18,3.08a1.72,1.72,0,0,1-1.27-.52,1.62,1.62,0,0,1-.52-1.17,47.16,47.16,0,0,0,1.57-10q0-5.08-1-7.41a3.59,3.59,0,0,0-3.47-2.38,5.55,5.55,0,0,0-2.58.69,5.76,5.76,0,0,0-2,1.69,6.69,6.69,0,0,0-.89,3.82v1.21q0,4.79.33,9.29c.22,3,.32,4.41.32,4.21q0,1.86-1.53,1.86a1.34,1.34,0,0,1-1.25-.62,6.33,6.33,0,0,1-.53-2.13,94.42,94.42,0,0,1-.57-11.66,98.7,98.7,0,0,1,1.25-14.59,11.52,11.52,0,0,1,.53-2.33,1.32,1.32,0,0,1,1.25-.79,1.33,1.33,0,0,1,1.07.53,2,2,0,0,1,.43,1.35s-.28,2.08-.85,6.32a7.12,7.12,0,0,1,5.35-2.31Q457.71,271.06,457.71,284.31Z"/>
      <path class="cls-5" d="M474.49,271.13a35,35,0,0,1-1.7,8.2A89.07,89.07,0,0,1,467.15,293c-.54,1.24-1.09,2.48-1.65,3.73-.47,1-1,1.44-1.7,1.44a1.34,1.34,0,0,1-1.05-.56,1.88,1.88,0,0,1-.48-1.24,10.78,10.78,0,0,1,1.47-4.08q3.36-6.62,3.47-6.84a64.13,64.13,0,0,1-5.15-9.24,14.4,14.4,0,0,1-1.52-4.61c0-1.12.48-1.69,1.43-1.69q.9,0,1.8,1.77c.55,1.32,1.09,2.63,1.62,3.95a43.37,43.37,0,0,0,3.29,6.41,52.57,52.57,0,0,0,2-7.48c.53-2.7.79-4.07.8-4.12.33-1,.83-1.54,1.51-1.54C474,268.86,474.49,269.62,474.49,271.13Z"/>
      <path class="cls-5" d="M503.79,282.26a31.62,31.62,0,0,1-1.29,8.9c-.53,1.83-1.19,2.74-2,2.74a1.46,1.46,0,0,1-1.08-.44,1.43,1.43,0,0,1-.45-1.06c0-.11.27-1.26.8-3.43a26.86,26.86,0,0,0,.8-6.48c0-4.88-1.35-7.31-4-7.31a4.55,4.55,0,0,0-3.79,1.93,8.5,8.5,0,0,0-1.52,5.27,38.26,38.26,0,0,0,.46,5.08,39.89,39.89,0,0,1,.46,4.66c0,2.15-.55,3.23-1.64,3.23a1.41,1.41,0,0,1-1.15-.41,3.37,3.37,0,0,1-.41-1.32q0-1.17-.42-6.73-.67-7.78-.68-11.06c0-3.8.65-5.69,1.95-5.69a1.46,1.46,0,0,1,1.08.44,1.37,1.37,0,0,1,.45,1,11.49,11.49,0,0,1-.2,1.56,12,12,0,0,0-.2,1.94v.43q2.46-3.78,6-3.78a5.76,5.76,0,0,1,5.06,2.72Q503.79,277.18,503.79,282.26Z"/>
      <path class="cls-5" d="M525.77,281.38a12.92,12.92,0,0,1-2.87,8.81,9.63,9.63,0,0,1-7.64,3.28,7.29,7.29,0,0,1-6.22-3.06q-2.25-3-2.25-8.48c0-3.82.91-6.77,2.72-8.88a9.23,9.23,0,0,1,7.4-3.1,7.72,7.72,0,0,1,6.41,3.14A13.12,13.12,0,0,1,525.77,281.38Zm-3.32,0a9.62,9.62,0,0,0-1.62-5.92,5.27,5.27,0,0,0-4.44-2.13q-6.28,0-6.28,8.52a11.14,11.14,0,0,0,1.36,6,4.41,4.41,0,0,0,3.92,2.12,6.35,6.35,0,0,0,5.18-2.28A9.64,9.64,0,0,0,522.45,281.42Z"/>
      <path class="cls-5" d="M542.55,277.52a1.7,1.7,0,0,1-.37,1.12,1.07,1.07,0,0,1-.86.47,9.91,9.91,0,0,1-1.91-.74,8,8,0,0,0-3.24-.73,7.61,7.61,0,0,0-1,.07,28.87,28.87,0,0,0-.62,5.63,10.58,10.58,0,0,0,1,5.05,3,3,0,0,0,2.74,1.77,3.82,3.82,0,0,0,1.4-.38,3.75,3.75,0,0,1,1.26-.39c.89,0,1.33.59,1.33,1.77a2.15,2.15,0,0,1-1.09,1.86,5.46,5.46,0,0,1-3,.71q-7.07,0-7.07-10.62a28.33,28.33,0,0,1,.48-4.93c-.31.05-1,.2-2,.44a7.71,7.71,0,0,1-1.5.22c-1.19,0-1.78-.51-1.78-1.54q0-2.1,6.14-2.75,1.27-4.53,3.1-4.53a1.27,1.27,0,0,1,1,.46,1.64,1.64,0,0,1,.4,1.12,3.87,3.87,0,0,1-.25,1.23c-.17.5-.33,1-.5,1.5C540.4,274.49,542.55,275.56,542.55,277.52Z"/>
      <path class="cls-5" d="M93,323.74a1.77,1.77,0,0,1-.36,1.12,1.12,1.12,0,0,1-.87.46,10.18,10.18,0,0,1-1.91-.74,7.92,7.92,0,0,0-3.24-.73,7.82,7.82,0,0,0-1,.07,28.87,28.87,0,0,0-.62,5.63,10.52,10.52,0,0,0,1,5.06,3,3,0,0,0,2.73,1.76,3.87,3.87,0,0,0,1.41-.38,3.62,3.62,0,0,1,1.26-.39c.88,0,1.33.59,1.33,1.77a2.16,2.16,0,0,1-1.1,1.86,5.41,5.41,0,0,1-3,.71q-7.06,0-7.06-10.62a28.33,28.33,0,0,1,.48-4.93c-.31.05-1,.2-2,.44a7.51,7.51,0,0,1-1.5.22c-1.19,0-1.78-.51-1.78-1.54,0-1.4,2-2.32,6.15-2.74.84-3,1.88-4.54,3.1-4.54a1.23,1.23,0,0,1,1,.46,1.64,1.64,0,0,1,.4,1.12A3.87,3.87,0,0,1,87,319c-.16.5-.33,1-.5,1.5Q93,320.78,93,323.74Z"/>
      <path class="cls-5" d="M107.94,322.51a1.88,1.88,0,0,1-.38,1.21,1.15,1.15,0,0,1-.92.49,2.28,2.28,0,0,1-1.18-.66,2.3,2.3,0,0,0-1.41-.66,2.94,2.94,0,0,0-2.57,1.57,7.9,7.9,0,0,0-1,4.24v2.46a22.5,22.5,0,0,1-.77,6.55c-.48,1.51-1.09,2.27-1.85,2.27-1,0-1.52-.56-1.52-1.69a22.61,22.61,0,0,1,.47-2.49,19.32,19.32,0,0,0,.47-4.05A22.05,22.05,0,0,0,96,323.32c0-.06-.32-.69-.91-1.9A3.6,3.6,0,0,1,94.6,320a1.58,1.58,0,0,1,.52-1.13,1.54,1.54,0,0,1,1.11-.53q1.77,0,2.93,4.89,1.74-3.76,5-3.76a4.05,4.05,0,0,1,2.7.87A2.78,2.78,0,0,1,107.94,322.51Z"/>
      <path class="cls-5" d="M122.91,317.34a34.88,34.88,0,0,1-1.7,8.2,88.86,88.86,0,0,1-5.63,13.63l-1.65,3.73c-.48,1-1.05,1.45-1.7,1.45a1.36,1.36,0,0,1-1.06-.57,1.88,1.88,0,0,1-.48-1.24,10.78,10.78,0,0,1,1.47-4.08l3.48-6.84a63.31,63.31,0,0,1-5.16-9.24,14.72,14.72,0,0,1-1.52-4.6c0-1.13.48-1.7,1.43-1.7.61,0,1.21.59,1.81,1.77s1.08,2.63,1.61,3.95a44.36,44.36,0,0,0,3.29,6.41,54,54,0,0,0,2-7.48c.52-2.7.78-4.07.8-4.12.32-1,.82-1.54,1.5-1.54C122.39,315.07,122.91,315.83,122.91,317.34Z"/>
      <path class="cls-5" d="M150.3,329.87A47.17,47.17,0,0,1,149,340.64c-.45,1.88-1.11,2.82-2,2.82s-1.35-.58-1.35-1.73a2.77,2.77,0,0,1,0-.58,6.7,6.7,0,0,1-3.52,1,6.33,6.33,0,0,1-5-2.05,8.33,8.33,0,0,1-1.81-5.73,8.58,8.58,0,0,1,2-5.93,6.61,6.61,0,0,1,5.18-2.2,6.16,6.16,0,0,1,4.75,2.13q-.31-7.42-4.88-7.43a4.29,4.29,0,0,0-2.18.69,4.32,4.32,0,0,1-1.5.69,1.33,1.33,0,0,1-1-.53,1.8,1.8,0,0,1-.45-1.21,2.62,2.62,0,0,1,1.45-2.08,6.49,6.49,0,0,1,3.7-1Q150.3,317.49,150.3,329.87Zm-3.38,4.41q0-4.77-4-4.77-4.37,0-4.36,4.74T142.9,339a3.64,3.64,0,0,0,2.95-1.25A5.2,5.2,0,0,0,146.92,334.28Z"/>
      <path class="cls-5" d="M170.84,316.27a1.3,1.3,0,0,1-1.46,1.47c-.14,0-.42,0-.85-.08l-1.39-.13a9.15,9.15,0,0,1,2,5.94,7.58,7.58,0,0,1-2.09,5.5,7.25,7.25,0,0,1-5.44,2.16c-.5,0-1.3-.07-2.4-.19A9,9,0,0,0,157,333.8a41.88,41.88,0,0,1,4.3-.44q6.83,0,6.83,5.33a5.86,5.86,0,0,1-2.57,5,12.2,12.2,0,0,1-7.19,1.84,7.73,7.73,0,0,1-4.64-1.26,3.57,3.57,0,0,1-1.61-3,1.49,1.49,0,0,1,.48-1.11,1.54,1.54,0,0,1,1.13-.47,1.25,1.25,0,0,1,.87.43l.83,1a4.1,4.1,0,0,0,3.1.92,9.85,9.85,0,0,0,4.57-.87,2.53,2.53,0,0,0,1.58-2.29q0-2.13-4.36-2.13a23.65,23.65,0,0,0-2.73.22,23.4,23.4,0,0,1-2.36.22c-1.07,0-1.61-.43-1.61-1.28q0-1.78,3.11-6.08a7.09,7.09,0,0,1-2.56-5.9,8.85,8.85,0,0,1,2.26-6.11,7.16,7.16,0,0,1,5.55-2.54,7.59,7.59,0,0,1,1.6.19c.37-.62,1.55-.92,3.55-.92C169.6,314.62,170.84,315.17,170.84,316.27ZM166,323.12a4.92,4.92,0,0,0-1.1-3.35,3.72,3.72,0,0,0-2.93-1.26A4,4,0,0,0,158.7,320a5.92,5.92,0,0,0-1.27,3.94q0,3.93,4.17,3.93a4.15,4.15,0,0,0,3.24-1.25A5,5,0,0,0,166,323.12Z"/>
      <path class="cls-5" d="M187,329.87a46.66,46.66,0,0,1-1.34,10.77q-.66,2.82-2,2.82c-.9,0-1.35-.58-1.35-1.73a2.77,2.77,0,0,1,0-.58,6.7,6.7,0,0,1-3.52,1,6.33,6.33,0,0,1-5-2.05,8.33,8.33,0,0,1-1.81-5.73,8.58,8.58,0,0,1,1.95-5.93,6.59,6.59,0,0,1,5.18-2.2,6.16,6.16,0,0,1,4.75,2.13q-.31-7.42-4.88-7.43a4.29,4.29,0,0,0-2.18.69,4.25,4.25,0,0,1-1.51.69,1.33,1.33,0,0,1-1-.53,1.8,1.8,0,0,1-.45-1.21,2.62,2.62,0,0,1,1.45-2.08,6.49,6.49,0,0,1,3.7-1Q187,317.49,187,329.87Zm-3.38,4.41q0-4.77-4-4.77-4.36,0-4.36,4.74t4.33,4.77a3.66,3.66,0,0,0,3-1.25A5.2,5.2,0,0,0,183.66,334.28Z"/>
      <path class="cls-5" d="M195.73,319.92a140.5,140.5,0,0,1-.71,16.75,11.92,11.92,0,0,1-.63,2.94,1.56,1.56,0,0,1-2.59.5,1.72,1.72,0,0,1-.46-1.2c0,.06.08-.37.26-1.3a36.23,36.23,0,0,0,.52-3.59q.27-2.85.27-6.39c0-1,0-2.11,0-3.25s0-1.77,0-1.87a11.26,11.26,0,0,1,.38-3.53,1.49,1.49,0,0,1,1.5-1.09C195.22,317.89,195.73,318.56,195.73,319.92Zm.72-7.16c0,1.77-.77,2.67-2.31,2.67a2,2,0,0,1-1.58-.74,2.59,2.59,0,0,1-.64-1.77,2.75,2.75,0,0,1,.7-1.91,2.2,2.2,0,0,1,1.72-.79,1.91,1.91,0,0,1,1.53.69A2.79,2.79,0,0,1,196.45,312.76Z"/>
      <path class="cls-5" d="M217.2,328.48a31.62,31.62,0,0,1-1.3,8.89c-.53,1.83-1.19,2.74-2,2.74a1.5,1.5,0,0,1-1.52-1.5c0-.11.26-1.26.8-3.43a27.36,27.36,0,0,0,.8-6.48c0-4.88-1.36-7.31-4.06-7.31a4.55,4.55,0,0,0-3.79,1.93,8.5,8.5,0,0,0-1.52,5.27,38.26,38.26,0,0,0,.46,5.08,37.76,37.76,0,0,1,.46,4.66c0,2.15-.55,3.23-1.63,3.23a1.38,1.38,0,0,1-1.15-.41,3.13,3.13,0,0,1-.42-1.32c0-.77-.15-3-.42-6.73-.45-5.19-.68-8.87-.68-11.06q0-5.69,1.95-5.69a1.46,1.46,0,0,1,1.08.44,1.37,1.37,0,0,1,.45,1,10,10,0,0,1-.2,1.56,12,12,0,0,0-.2,1.94v.43q2.47-3.78,6-3.78a5.75,5.75,0,0,1,5.06,2.72C216.59,322.49,217.2,325.09,217.2,328.48Z"/>
      <path class="cls-5" d="M231.81,321.31a7.27,7.27,0,0,1-2.34,5.17L228,327.85a9.38,9.38,0,0,0-1.6,2.24,15,15,0,0,0-.68,3c-.22,1.38-.79,2.07-1.7,2.07s-1.53-.75-1.53-2.26a9.44,9.44,0,0,1,.87-3.83,9.19,9.19,0,0,1,2.23-3.18,17.79,17.79,0,0,0,2.16-2.13,3.89,3.89,0,0,0,.82-2.42,3.07,3.07,0,0,0-1-2.34,3.67,3.67,0,0,0-2.6-.93,3.79,3.79,0,0,0-2.29,1,3.77,3.77,0,0,1-1.67,1,1.15,1.15,0,0,1-.92-.49,2,2,0,0,1-.38-1.22,2.72,2.72,0,0,1,1.52-2.2,7.1,7.1,0,0,1,4-1.07,6.61,6.61,0,0,1,4.79,1.71A6,6,0,0,1,231.81,321.31Zm-5.08,18a2.53,2.53,0,0,1-.65,1.77,2.19,2.19,0,0,1-1.69.69,2.15,2.15,0,0,1-1.65-.68,2.45,2.45,0,0,1-.63-1.74,2.59,2.59,0,0,1,.67-1.84,2.18,2.18,0,0,1,1.68-.72,2.08,2.08,0,0,1,1.63.7A2.64,2.64,0,0,1,226.73,339.27Z"/>
    </g>
    <g>
      <ellipse class="cls-6" cx="308.29" cy="582.18" rx="128.59" ry="113.1"/>
      <g>
        <ellipse class="cls-6" cx="179.34" cy="469.1" rx="75.02" ry="79.08" transform="translate(-312.64 368.22) rotate(-57.49)"/>
        <ellipse class="cls-7" cx="178.79" cy="469.58" rx="45.06" ry="50.94" transform="translate(-239.43 191.07) rotate(-35.49)"/>
      </g>
      <g>
        <ellipse class="cls-6" cx="437.4" cy="469.98" rx="79.08" ry="75.02" transform="translate(-184.05 308.74) rotate(-32.51)"/>
        <ellipse class="cls-7" cx="438.44" cy="468.95" rx="50.94" ry="45.06" transform="translate(-197.94 553.63) rotate(-54.51)"/>
      </g>
      <path d="M316.41,604.28l6.22-6.86a11,11,0,0,0-8.11-18.33H302.07A11,11,0,0,0,294,597.42l6.23,6.86A11,11,0,0,0,316.41,604.28Z"/>
      <g>
        <path class="cls-8" d="M292.61,588.16c-1.88-10.25-51.93-10.44-106.64-.42"/>
        <path class="cls-8" d="M296.38,593.48c-2.82-10-52.67-5.59-106.21,9.46"/>
        <path class="cls-8" d="M300,599.61c-3.6-9.77-53-1.39-105.13,17.86"/>
      </g>
      <g>
        <path class="cls-8" d="M324,588.58c1.88-10.25,51.93-10.44,106.64-.42"/>
        <path class="cls-8" d="M320.19,593.9c2.82-10,52.67-5.59,106.21,9.46"/>
        <path class="cls-8" d="M316.6,600c3.6-9.77,52.95-1.39,105.13,17.86"/>
      </g>
      <g>
        <ellipse class="cls-9" cx="256.04" cy="541.96" rx="2.76" ry="3.86"/>
        <path d="M259.35,552.44a19.17,19.17,0,0,1,12.52,4.41,20.28,20.28,0,0,0,1.71-8.25c0-9.45-6.17-17.1-13.79-17.1S246,539.15,246,548.6a20.52,20.52,0,0,0,1.49,7.71A19.37,19.37,0,0,1,259.35,552.44Zm-3.42-14.32c1.22,0,2.21,1.72,2.21,3.86s-1,3.86-2.21,3.86-2.21-1.73-2.21-3.86S254.71,538.12,255.93,538.12Z"/>
      </g>
      <path class="cls-10" d="M308.55,649.22a166.22,166.22,0,0,1,32.12,3,33.14,33.14,0,0,0-65.05.16A165.76,165.76,0,0,1,308.55,649.22Z"/>
      <g>
        <g>
          <ellipse class="cls-9" cx="349.55" cy="541.96" rx="2.76" ry="3.86"/>
          <path d="M352.86,552.44a19.14,19.14,0,0,1,12.51,4.41,20.28,20.28,0,0,0,1.72-8.25c0-9.45-6.18-17.1-13.79-17.1s-13.8,7.65-13.8,17.1a20.33,20.33,0,0,0,1.5,7.71A19.35,19.35,0,0,1,352.86,552.44Zm-3.43-14.32c1.22,0,2.21,1.72,2.21,3.86s-1,3.86-2.21,3.86-2.2-1.73-2.2-3.86S348.22,538.12,349.43,538.12Z"/>
        </g>
        <path class="cls-11" d="M365.55,556.44l4.25,11.18a7.4,7.4,0,1,1-13.68-.4l5.71-12.72"/>
      </g>
    </g>
  </g>
</svg>
