<svg id="Layer_1" data-name="Layer 1" xmlns="http://www.w3.org/2000/svg" width="507.37" height="792.57" viewBox="0 0 507.37 792.57">
  <defs>
    <style>
      .cls-1 {
        fill: #ccc;
      }

      .cls-2 {
        fill: #ff7bac;
        opacity: 0.44;
      }

      .cls-3, .cls-5, .cls-7 {
        fill: none;
        stroke: #000;
        stroke-miterlimit: 10;
      }

      .cls-3 {
        stroke-width: 0.5px;
      }

      .cls-4 {
        fill: #e6e6e6;
      }

      .cls-5 {
        stroke-width: 2px;
      }

      .cls-6 {
        fill: gray;
      }

      .cls-8 {
        fill: #4d4d4d;
        opacity: 0.39;
      }
    </style>
  </defs>
  <g>
    <ellipse class="cls-1" cx="253.57" cy="232.26" rx="157.62" ry="138.63"/>
    <g>
      <ellipse class="cls-1" cx="95.53" cy="93.43" rx="91.95" ry="96.93" transform="translate(-34.6 123.78) rotate(-57.49)"/>
      <ellipse class="cls-2" cx="94.86" cy="94.02" rx="55.23" ry="62.44" transform="translate(-36.96 72.55) rotate(-35.49)"/>
    </g>
    <g>
      <ellipse class="cls-1" cx="411.84" cy="94.51" rx="96.93" ry="91.95" transform="translate(13.75 236.16) rotate(-32.51)"/>
      <ellipse class="cls-2" cx="413.1" cy="93.24" rx="62.44" ry="55.23" transform="translate(97.33 375.44) rotate(-54.51)"/>
    </g>
    <path d="M261.71,261.13l13.22-14.56a11,11,0,0,0-8.12-18.34H240.37a11,11,0,0,0-8.12,18.34l13.22,14.56A11,11,0,0,0,261.71,261.13Z"/>
    <g>
      <path class="cls-3" d="M234.36,239.35c-2.3-12.55-63.64-12.79-130.7-.5"/>
      <path class="cls-3" d="M239,245.87c-3.45-12.28-64.56-6.84-130.19,11.6"/>
      <path class="cls-3" d="M243.39,253.39c-4.42-12-64.9-1.7-128.86,21.89"/>
    </g>
    <g>
      <path class="cls-3" d="M272.8,239.86c2.3-12.55,63.65-12.79,130.7-.5"/>
      <path class="cls-3" d="M268.17,246.39c3.45-12.29,64.56-6.85,130.19,11.6"/>
      <path class="cls-3" d="M263.77,253.9c4.42-12,64.9-1.7,128.86,21.89"/>
    </g>
    <g>
      <ellipse class="cls-1" cx="254.22" cy="493.46" rx="123.43" ry="141.16"/>
      <ellipse class="cls-4" cx="255.33" cy="492.93" rx="72.28" ry="96.05"/>
    </g>
    <g>
      <path class="cls-1" d="M66.57,368.74c47.33,28.16,99.84,38.45,147.74,30.89,3.73-.58,7.28-4.48,8-8.57q2.94-17.28,5.85-34.66c.68-4.12-1.71-6.72-5.38-6-47.34,9.67-99.84,1.48-147.75-24.57-3.72-2-7.27-.91-8,2.62q-2.94,15-5.85,29.82C60.51,361.82,62.89,366.55,66.57,368.74Z"/>
      <ellipse class="cls-1" cx="61.77" cy="322.78" rx="11.39" ry="16.46" transform="matrix(0.67, -0.74, 0.74, 0.67, -218.73, 151.55)"/>
      <ellipse class="cls-1" cx="56.14" cy="338" rx="11.39" ry="16.46" transform="translate(-282.72 287.27) rotate(-72.05)"/>
      <ellipse class="cls-1" cx="56.14" cy="356.99" rx="11.39" ry="16.46" transform="translate(-303.48 392.57) rotate(-86.71)"/>
    </g>
    <g>
      <path class="cls-1" d="M440.58,369c-47.33,28.15-99.83,38.45-147.74,30.88-3.73-.58-7.28-4.48-8-8.57q-2.94-17.28-5.85-34.66c-.68-4.11,1.71-6.71,5.38-6,47.34,9.67,99.84,1.48,147.75-24.56,3.72-2,7.27-.91,8,2.62q2.94,15,5.85,29.82C446.64,362.11,444.26,366.85,440.58,369Z"/>
      <ellipse class="cls-1" cx="445.38" cy="323.07" rx="16.46" ry="11.39" transform="translate(-101.54 383.25) rotate(-42.24)"/>
      <ellipse class="cls-1" cx="451.01" cy="338.3" rx="16.46" ry="11.39" transform="translate(-82.29 155.42) rotate(-17.95)"/>
      <ellipse class="cls-1" cx="451.01" cy="357.29" rx="16.46" ry="11.39" transform="translate(-19.75 26.45) rotate(-3.29)"/>
    </g>
    <path class="cls-5" d="M182,188.59c10.1-14.17,34.28-15.83,51.5-3.55"/>
    <path class="cls-5" d="M325,189.21c-10.1-14.17-34.27-15.83-51.5-3.55"/>
    <g>
      <path class="cls-6" d="M275.74,291.09v.05c-11.06,12.16-30.83,12.17-44.26.05,12.95-3.61,22.39-14.89,22.39-28.27l.57,0A30.1,30.1,0,0,0,275.74,291.09Z"/>
      <g>
        <path class="cls-7" d="M253.86,262.92c0,13.38-9.44,24.66-22.39,28.27a33.07,33.07,0,0,1-8.92,1.21"/>
        <path class="cls-7" d="M254.42,262.28c0,.21,0,.42,0,.62a30.1,30.1,0,0,0,30.16,29.5"/>
        <path class="cls-7" d="M275.73,291.14c-11.06,12.16-30.83,12.17-44.26.05l-.05-.05"/>
      </g>
    </g>
    <ellipse class="cls-8" cx="253.91" cy="767.89" rx="159.51" ry="24.69"/>
    <path class="cls-1" d="M218.16,728.2l-53.57-5.67a433.49,433.49,0,0,1,12.94-122.12l53.56,5.67A333,333,0,0,0,218.16,728.2Z"/>
    <path class="cls-1" d="M286,727.68,339.53,722a433.53,433.53,0,0,0-12.94-122.12L273,605.56A333,333,0,0,1,286,727.68Z"/>
    <ellipse class="cls-1" cx="337.29" cy="740.78" rx="18.48" ry="27.32" transform="translate(-325.2 267.89) rotate(-30)"/>
    <ellipse class="cls-1" cx="318.15" cy="744.56" rx="22.45" ry="27.03" transform="translate(-157.37 89.22) rotate(-12.83)"/>
    <ellipse class="cls-1" cx="296.13" cy="743.17" rx="17.27" ry="25.35"/>
    <ellipse class="cls-1" cx="166.28" cy="742.28" rx="27.32" ry="17.65" transform="translate(-559.7 515.14) rotate(-60)"/>
    <ellipse class="cls-1" cx="186.48" cy="746.55" rx="27.03" ry="22.92" transform="translate(-582.84 762.62) rotate(-77.17)"/>
    <ellipse class="cls-1" cx="207.39" cy="745.09" rx="18.05" ry="25.35"/>
    <path class="cls-7" d="M199.71,766.84c1.59-12.23.88-23.33-1.51-23.64"/>
    <path class="cls-7" d="M168.21,763.76c0-12.25,2.19-23.09,4.67-23.09"/>
    <path class="cls-7" d="M334.76,764.36c.65-12.32-.91-23.33-3.32-23.45"/>
    <path class="cls-7" d="M305.2,764.81c-.47-12.25,1.31-23.17,3.79-23.26"/>
  </g>
</svg>
