<svg id="Layer_1" data-name="Layer 1" xmlns="http://www.w3.org/2000/svg" width="942.39" height="530.1" viewBox="0 0 942.39 530.1">
  <defs>
    <style>
      .cls-1 {
        fill: #bf8d6b;
      }

      .cls-2 {
        fill: #ffc69f;
      }

      .cls-3, .cls-5 {
        fill: #f7d574;
      }

      .cls-3, .cls-4 {
        stroke: #f7d574;
      }

      .cls-14, .cls-21, .cls-22, .cls-3, .cls-4 {
        stroke-miterlimit: 10;
      }

      .cls-3 {
        stroke-width: 3px;
      }

      .cls-14, .cls-21, .cls-22, .cls-4 {
        fill: none;
      }

      .cls-4 {
        stroke-width: 0.75px;
      }

      .cls-6 {
        fill: #d38548;
        opacity: 0.58;
      }

      .cls-7 {
        fill: #777;
      }

      .cls-8 {
        fill: #939393;
      }

      .cls-9 {
        fill: gray;
      }

      .cls-10 {
        fill: #ffc5f4;
      }

      .cls-11 {
        fill: #adea68;
      }

      .cls-12 {
        fill: #a0a0a0;
      }

      .cls-13 {
        fill: #fff;
      }

      .cls-14, .cls-21, .cls-22 {
        stroke: #000;
      }

      .cls-14 {
        stroke-width: 0.5px;
      }

      .cls-15 {
        fill: #db7d7d;
      }

      .cls-16 {
        fill: #999898;
      }

      .cls-17 {
        fill: #b5b5b5;
      }

      .cls-18 {
        fill: #ccc;
      }

      .cls-19 {
        fill: #ff7bac;
        opacity: 0.44;
      }

      .cls-20 {
        fill: #e6e6e6;
      }

      .cls-21 {
        stroke-width: 2px;
      }
    </style>
  </defs>
  <g>
    <rect class="cls-1" x="235.97" width="470.46" height="530.1"/>
    <g>
      <g>
        <path class="cls-2" d="M303.66,97.38q0,3.65-4.56,7.78-7.64,7-19.54,7-12.8,0-19.81-8.69t-7-24.53q0-15.23,7.1-24.83a24.2,24.2,0,0,1,20.43-10.3q10.88,0,17.8,6.39c1.74,1.58,2.6,3.05,2.6,4.4a3.92,3.92,0,0,1-1,2.68,3.12,3.12,0,0,1-2.37,1.16,4.64,4.64,0,0,1-2.46-1.32q-7.2-5.82-14.67-5.83a17.56,17.56,0,0,0-14.83,7.41q-5.54,7.43-5.54,20.17,0,25.65,19.8,25.66,11.31,0,16.14-6.17L297.9,95a2.95,2.95,0,0,1,4.81-.35A3.87,3.87,0,0,1,303.66,97.38Z"/>
        <path class="cls-2" d="M345,81.69q0,10.75-1.84,17.23c-1.15,4.11-2.61,6.17-4.36,6.17a3.46,3.46,0,0,1-2.54-1,3.23,3.23,0,0,1-1-2.35q3.14-13.2,3.13-20,0-10.2-2.06-14.82-2.14-4.79-6.94-4.78a10.94,10.94,0,0,0-5.16,1.39,11.45,11.45,0,0,0-4.07,3.39q-1.77,2.52-1.77,7.63v2.41q0,9.6.65,18.6c.44,6,.65,8.81.65,8.41q0,3.73-3.06,3.73a2.67,2.67,0,0,1-2.5-1.24,12.68,12.68,0,0,1-1.07-4.26,189.27,189.27,0,0,1-1.13-23.32,196.18,196.18,0,0,1,2.5-29.19A21.83,21.83,0,0,1,315.43,45a2.6,2.6,0,0,1,2.5-1.58,2.67,2.67,0,0,1,2.14,1,4.19,4.19,0,0,1,.86,2.71s-.56,4.17-1.7,12.64a14.23,14.23,0,0,1,10.7-4.62Q345,55.17,345,81.69Z"/>
        <path class="cls-2" d="M386.34,71q0,3.92-2.4,5.8c-.72.55-3,1.26-6.77,2.14a58.21,58.21,0,0,1-12.9,1.77,55.55,55.55,0,0,1-5.87-.38q0,14.19,9.57,14.18a7.5,7.5,0,0,0,4.77-1.69,36.27,36.27,0,0,0,3.83-4,2.82,2.82,0,0,1,2.1-1.17,3.11,3.11,0,0,1,2.42,1.19,4.35,4.35,0,0,1,1,2.91,4.12,4.12,0,0,1-1,2.63q-5.75,7.08-13.44,7.08-15.93,0-15.93-20.81a33.26,33.26,0,0,1,5.06-18.51q5.78-8.83,14.27-8.84a13.8,13.8,0,0,1,10.94,5A18.83,18.83,0,0,1,386.34,71Zm-6.64.45a14.82,14.82,0,0,0-2.41-8.27,6.65,6.65,0,0,0-5.55-3,10.23,10.23,0,0,0-7.64,3.5,22.17,22.17,0,0,0-5.07,10,40.18,40.18,0,0,0,5,.3A61.26,61.26,0,0,0,379.7,71.49Z"/>
        <path class="cls-2" d="M424.51,71q0,3.92-2.4,5.8c-.72.55-3,1.26-6.77,2.14a58.21,58.21,0,0,1-12.9,1.77,55.55,55.55,0,0,1-5.87-.38q0,14.19,9.57,14.18a7.46,7.46,0,0,0,4.76-1.69,35.1,35.1,0,0,0,3.84-4,2.82,2.82,0,0,1,2.1-1.17,3.11,3.11,0,0,1,2.42,1.19,4.35,4.35,0,0,1,1,2.91,4.12,4.12,0,0,1-1,2.63q-5.74,7.08-13.44,7.08-15.93,0-15.93-20.81A33.26,33.26,0,0,1,395,62.16q5.78-8.83,14.27-8.84a13.8,13.8,0,0,1,10.94,5A18.83,18.83,0,0,1,424.51,71Zm-6.64.45a14.75,14.75,0,0,0-2.42-8.27,6.63,6.63,0,0,0-5.55-3,10.22,10.22,0,0,0-7.63,3.5,22.07,22.07,0,0,0-5.07,10,40.18,40.18,0,0,0,5,.3A61.26,61.26,0,0,0,417.87,71.49Z"/>
        <path class="cls-2" d="M455.57,62.43q0,3.76-3.36,3.76a2.13,2.13,0,0,1-1.84-.94l-1-1.77a6.37,6.37,0,0,0-5.5-3Q438,60.47,438,68a9,9,0,0,0,1.06,4.52,14.77,14.77,0,0,0,3.24,3.65,53.17,53.17,0,0,1,6.56,6.28,12.87,12.87,0,0,1,2.74,8.12,13.93,13.93,0,0,1-3.47,9.8,11.65,11.65,0,0,1-9,3.79,12.35,12.35,0,0,1-8.7-3.13,9.83,9.83,0,0,1-3.3-7.6q0-4.62,3.55-4.62c2,0,3,1.71,3.08,5.15,1.59,2.16,3.39,3.24,5.38,3.24a5.25,5.25,0,0,0,4.07-1.72,6,6,0,0,0,1.58-4.27,6.37,6.37,0,0,0-1.93-4.4s-1.66-1.51-4.9-4.4q-6.74-6-6.73-14.11,0-6.59,3.58-10.64a11.92,11.92,0,0,1,9.38-4.07,12.34,12.34,0,0,1,8.17,2.83C454.5,58.23,455.57,60.22,455.57,62.43Z"/>
        <path class="cls-2" d="M493.74,71q0,3.92-2.4,5.8-1.06.82-6.76,2.14a58.21,58.21,0,0,1-12.9,1.77,55.39,55.39,0,0,1-5.87-.38q0,14.19,9.57,14.18a7.46,7.46,0,0,0,4.76-1.69,36,36,0,0,0,3.84-4,2.79,2.79,0,0,1,2.1-1.17,3.09,3.09,0,0,1,2.41,1.19,4.31,4.31,0,0,1,1,2.91,4.08,4.08,0,0,1-1,2.63q-5.73,7.08-13.43,7.08-15.93,0-15.94-20.81a33.18,33.18,0,0,1,5.07-18.51q5.77-8.83,14.27-8.84a13.76,13.76,0,0,1,10.93,5Q493.75,63.33,493.74,71Zm-6.63.45a14.75,14.75,0,0,0-2.42-8.27,6.65,6.65,0,0,0-5.55-3,10.21,10.21,0,0,0-7.63,3.5,22.07,22.07,0,0,0-5.07,10,40.13,40.13,0,0,0,5,.3A61.26,61.26,0,0,0,487.11,71.49Z"/>
        <path class="cls-2" d="M575.71,104.49a7.68,7.68,0,0,1-2.67,5.45v-.07a9.55,9.55,0,0,1-7,2.48q-5.75,0-8.55-2.26a14,14,0,0,1-2.06-2.29c-1.33-1.73-2.1-2.71-2.3-2.94q-10.56-12.6-14.52-14.78c-1.15-.48-2.29-1-3.41-1.49a2.84,2.84,0,0,1-1.68-2.84c0-2.36,1.76-3.69,5.3-4a12.7,12.7,0,0,0,9.26-5.17,18.18,18.18,0,0,0,3.57-11.42q0-15.3-17.27-15.31h-.53a201.61,201.61,0,0,0-4.3,42.74c0,2.63.06,5.4.2,8.31s.2,4.49.2,4.74q0,5.23-3.2,5.23-2.61,0-3.4-3.57-.63-2.86-.64-11.7,0-27.17,4.17-45Q514.61,53,513.31,53q-4.77,0-4.77-3.88a3.38,3.38,0,0,1,1.77-3.31,7.08,7.08,0,0,1,2.63-.56c.92-.05,1.84-.09,2.77-.12q1-.11,8.6-1.5a54.14,54.14,0,0,1,9.7-1q24.76,0,24.77,22.19a25.6,25.6,0,0,1-3.43,13,24.39,24.39,0,0,1-9.6,9.35,83.93,83.93,0,0,1,9.5,9.67q5.54,6.54,5.66,6.66c1.14,1.12,3,1.69,5.6,1.69q1.88,0,2.37-.6l2.13-2.56a3.11,3.11,0,0,1,2.1-1.13,2.23,2.23,0,0,1,1.84,1A4.38,4.38,0,0,1,575.71,104.49Z"/>
        <path class="cls-2" d="M605.62,99.48a4.84,4.84,0,0,1-1,3,2.9,2.9,0,0,1-2.37,1.24q-2.62,0-4.43-9.14-5.64,8.69-13.67,8.69-13.3,0-13.3-24A140.21,140.21,0,0,1,572.31,58q.87-5.64,4.24-5.64a2.75,2.75,0,0,1,2.1,1,3.47,3.47,0,0,1,.9,2.37q0,1.22-1,9.33a129.62,129.62,0,0,0-1,15.13q0,16.09,7.87,16.1a9.28,9.28,0,0,0,8.09-4.46q3-4.46,3-12.58V77q0-12.61.57-16.18.79-5.12,3.73-5.12t2.8,4.4c0,.53-.1,2.44-.28,5.72s-.29,6.29-.29,9a114.17,114.17,0,0,0,1.27,17.7C605.19,97.91,605.62,100.24,605.62,99.48Z"/>
        <path class="cls-2" d="M639.28,62.43q0,3.76-3.36,3.76a2.13,2.13,0,0,1-1.84-.94l-1-1.77a6.37,6.37,0,0,0-5.5-3q-5.91,0-5.9,7.56a9,9,0,0,0,1.06,4.52A14.77,14.77,0,0,0,626,76.2a53.17,53.17,0,0,1,6.56,6.28,12.87,12.87,0,0,1,2.74,8.12,13.93,13.93,0,0,1-3.47,9.8,11.65,11.65,0,0,1-9,3.79,12.35,12.35,0,0,1-8.7-3.13,9.83,9.83,0,0,1-3.3-7.6q0-4.62,3.55-4.62c2,0,3,1.71,3.08,5.15q2.4,3.24,5.38,3.24a5.28,5.28,0,0,0,4.08-1.72,6.05,6.05,0,0,0,1.57-4.27,6.37,6.37,0,0,0-1.93-4.4s-1.65-1.51-4.9-4.4q-6.74-6-6.73-14.11,0-6.59,3.58-10.64a11.92,11.92,0,0,1,9.38-4.07,12.34,12.34,0,0,1,8.17,2.83C638.21,58.23,639.28,60.22,639.28,62.43Z"/>
        <path class="cls-2" d="M679.09,81.69q0,10.75-1.84,17.23c-1.15,4.11-2.61,6.17-4.36,6.17a3.46,3.46,0,0,1-2.54-1,3.23,3.23,0,0,1-1-2.35q3.13-13.2,3.13-20,0-10.2-2.06-14.82-2.14-4.79-6.94-4.78a10.94,10.94,0,0,0-5.16,1.39,11.54,11.54,0,0,0-4.07,3.39q-1.77,2.52-1.77,7.63v2.41q0,9.6.65,18.6c.44,6,.65,8.81.65,8.41q0,3.73-3.06,3.73a2.67,2.67,0,0,1-2.5-1.24,12.68,12.68,0,0,1-1.07-4.26A189.27,189.27,0,0,1,646,78.83a196.18,196.18,0,0,1,2.5-29.19A21.83,21.83,0,0,1,649.55,45a2.6,2.6,0,0,1,2.5-1.58,2.67,2.67,0,0,1,2.14,1,4.19,4.19,0,0,1,.86,2.71s-.56,4.17-1.7,12.64a14.23,14.23,0,0,1,10.7-4.62Q679.1,55.17,679.09,81.69Z"/>
      </g>
      <g>
        <path class="cls-3" d="M303.66,97.38q0,3.65-4.56,7.78-7.64,7-19.54,7-12.8,0-19.81-8.69t-7-24.53q0-15.23,7.1-24.83a24.2,24.2,0,0,1,20.43-10.3q10.88,0,17.8,6.39c1.74,1.58,2.6,3.05,2.6,4.4a3.92,3.92,0,0,1-1,2.68,3.12,3.12,0,0,1-2.37,1.16,4.64,4.64,0,0,1-2.46-1.32q-7.2-5.82-14.67-5.83a17.56,17.56,0,0,0-14.83,7.41q-5.54,7.43-5.54,20.17,0,25.65,19.8,25.66,11.31,0,16.14-6.17L297.9,95a2.95,2.95,0,0,1,4.81-.35A3.87,3.87,0,0,1,303.66,97.38Z"/>
        <path class="cls-3" d="M345,81.69q0,10.75-1.84,17.23c-1.15,4.11-2.61,6.17-4.36,6.17a3.46,3.46,0,0,1-2.54-1,3.23,3.23,0,0,1-1-2.35q3.14-13.2,3.13-20,0-10.2-2.06-14.82-2.14-4.79-6.94-4.78a10.94,10.94,0,0,0-5.16,1.39,11.45,11.45,0,0,0-4.07,3.39q-1.77,2.52-1.77,7.63v2.41q0,9.6.65,18.6c.44,6,.65,8.81.65,8.41q0,3.73-3.06,3.73a2.67,2.67,0,0,1-2.5-1.24,12.68,12.68,0,0,1-1.07-4.26,189.27,189.27,0,0,1-1.13-23.32,196.18,196.18,0,0,1,2.5-29.19A21.83,21.83,0,0,1,315.43,45a2.6,2.6,0,0,1,2.5-1.58,2.67,2.67,0,0,1,2.14,1,4.19,4.19,0,0,1,.86,2.71s-.56,4.17-1.7,12.64a14.23,14.23,0,0,1,10.7-4.62Q345,55.17,345,81.69Z"/>
        <path class="cls-3" d="M386.34,71q0,3.92-2.4,5.8c-.72.55-3,1.26-6.77,2.14a58.21,58.21,0,0,1-12.9,1.77,55.55,55.55,0,0,1-5.87-.38q0,14.19,9.57,14.18a7.5,7.5,0,0,0,4.77-1.69,36.27,36.27,0,0,0,3.83-4,2.82,2.82,0,0,1,2.1-1.17,3.11,3.11,0,0,1,2.42,1.19,4.35,4.35,0,0,1,1,2.91,4.12,4.12,0,0,1-1,2.63q-5.75,7.08-13.44,7.08-15.93,0-15.93-20.81a33.26,33.26,0,0,1,5.06-18.51q5.78-8.83,14.27-8.84a13.8,13.8,0,0,1,10.94,5A18.83,18.83,0,0,1,386.34,71Zm-6.64.45a14.82,14.82,0,0,0-2.41-8.27,6.65,6.65,0,0,0-5.55-3,10.23,10.23,0,0,0-7.64,3.5,22.17,22.17,0,0,0-5.07,10,40.18,40.18,0,0,0,5,.3A61.26,61.26,0,0,0,379.7,71.49Z"/>
        <path class="cls-3" d="M424.51,71q0,3.92-2.4,5.8c-.72.55-3,1.26-6.77,2.14a58.21,58.21,0,0,1-12.9,1.77,55.55,55.55,0,0,1-5.87-.38q0,14.19,9.57,14.18a7.46,7.46,0,0,0,4.76-1.69,35.1,35.1,0,0,0,3.84-4,2.82,2.82,0,0,1,2.1-1.17,3.11,3.11,0,0,1,2.42,1.19,4.35,4.35,0,0,1,1,2.91,4.12,4.12,0,0,1-1,2.63q-5.74,7.08-13.44,7.08-15.93,0-15.93-20.81A33.26,33.26,0,0,1,395,62.16q5.78-8.83,14.27-8.84a13.8,13.8,0,0,1,10.94,5A18.83,18.83,0,0,1,424.51,71Zm-6.64.45a14.75,14.75,0,0,0-2.42-8.27,6.63,6.63,0,0,0-5.55-3,10.22,10.22,0,0,0-7.63,3.5,22.07,22.07,0,0,0-5.07,10,40.18,40.18,0,0,0,5,.3A61.26,61.26,0,0,0,417.87,71.49Z"/>
        <path class="cls-3" d="M455.57,62.43q0,3.76-3.36,3.76a2.13,2.13,0,0,1-1.84-.94l-1-1.77a6.37,6.37,0,0,0-5.5-3Q438,60.47,438,68a9,9,0,0,0,1.06,4.52,14.77,14.77,0,0,0,3.24,3.65,53.17,53.17,0,0,1,6.56,6.28,12.87,12.87,0,0,1,2.74,8.12,13.93,13.93,0,0,1-3.47,9.8,11.65,11.65,0,0,1-9,3.79,12.35,12.35,0,0,1-8.7-3.13,9.83,9.83,0,0,1-3.3-7.6q0-4.62,3.55-4.62c2,0,3,1.71,3.08,5.15,1.59,2.16,3.39,3.24,5.38,3.24a5.25,5.25,0,0,0,4.07-1.72,6,6,0,0,0,1.58-4.27,6.37,6.37,0,0,0-1.93-4.4s-1.66-1.51-4.9-4.4q-6.74-6-6.73-14.11,0-6.59,3.58-10.64a11.92,11.92,0,0,1,9.38-4.07,12.34,12.34,0,0,1,8.17,2.83C454.5,58.23,455.57,60.22,455.57,62.43Z"/>
        <path class="cls-3" d="M493.74,71q0,3.92-2.4,5.8-1.06.82-6.76,2.14a58.21,58.21,0,0,1-12.9,1.77,55.39,55.39,0,0,1-5.87-.38q0,14.19,9.57,14.18a7.46,7.46,0,0,0,4.76-1.69,36,36,0,0,0,3.84-4,2.79,2.79,0,0,1,2.1-1.17,3.09,3.09,0,0,1,2.41,1.19,4.31,4.31,0,0,1,1,2.91,4.08,4.08,0,0,1-1,2.63q-5.73,7.08-13.43,7.08-15.93,0-15.94-20.81a33.18,33.18,0,0,1,5.07-18.51q5.77-8.83,14.27-8.84a13.76,13.76,0,0,1,10.93,5Q493.75,63.33,493.74,71Zm-6.63.45a14.75,14.75,0,0,0-2.42-8.27,6.65,6.65,0,0,0-5.55-3,10.21,10.21,0,0,0-7.63,3.5,22.07,22.07,0,0,0-5.07,10,40.13,40.13,0,0,0,5,.3A61.26,61.26,0,0,0,487.11,71.49Z"/>
        <path class="cls-3" d="M575.71,104.49a7.68,7.68,0,0,1-2.67,5.45v-.07a9.55,9.55,0,0,1-7,2.48q-5.75,0-8.55-2.26a14,14,0,0,1-2.06-2.29c-1.33-1.73-2.1-2.71-2.3-2.94q-10.56-12.6-14.52-14.78c-1.15-.48-2.29-1-3.41-1.49a2.84,2.84,0,0,1-1.68-2.84c0-2.36,1.76-3.69,5.3-4a12.7,12.7,0,0,0,9.26-5.17,18.18,18.18,0,0,0,3.57-11.42q0-15.3-17.27-15.31h-.53a201.61,201.61,0,0,0-4.3,42.74c0,2.63.06,5.4.2,8.31s.2,4.49.2,4.74q0,5.23-3.2,5.23-2.61,0-3.4-3.57-.63-2.86-.64-11.7,0-27.17,4.17-45Q514.61,53,513.31,53q-4.77,0-4.77-3.88a3.38,3.38,0,0,1,1.77-3.31,7.08,7.08,0,0,1,2.63-.56c.92-.05,1.84-.09,2.77-.12q1-.11,8.6-1.5a54.14,54.14,0,0,1,9.7-1q24.76,0,24.77,22.19a25.6,25.6,0,0,1-3.43,13,24.39,24.39,0,0,1-9.6,9.35,83.93,83.93,0,0,1,9.5,9.67q5.54,6.54,5.66,6.66c1.14,1.12,3,1.69,5.6,1.69q1.88,0,2.37-.6l2.13-2.56a3.11,3.11,0,0,1,2.1-1.13,2.23,2.23,0,0,1,1.84,1A4.38,4.38,0,0,1,575.71,104.49Z"/>
        <path class="cls-3" d="M605.62,99.48a4.84,4.84,0,0,1-1,3,2.9,2.9,0,0,1-2.37,1.24q-2.62,0-4.43-9.14-5.64,8.69-13.67,8.69-13.3,0-13.3-24A140.21,140.21,0,0,1,572.31,58q.87-5.64,4.24-5.64a2.75,2.75,0,0,1,2.1,1,3.47,3.47,0,0,1,.9,2.37q0,1.22-1,9.33a129.62,129.62,0,0,0-1,15.13q0,16.09,7.87,16.1a9.28,9.28,0,0,0,8.09-4.46q3-4.46,3-12.58V77q0-12.61.57-16.18.79-5.12,3.73-5.12t2.8,4.4c0,.53-.1,2.44-.28,5.72s-.29,6.29-.29,9a114.17,114.17,0,0,0,1.27,17.7C605.19,97.91,605.62,100.24,605.62,99.48Z"/>
        <path class="cls-3" d="M639.28,62.43q0,3.76-3.36,3.76a2.13,2.13,0,0,1-1.84-.94l-1-1.77a6.37,6.37,0,0,0-5.5-3q-5.91,0-5.9,7.56a9,9,0,0,0,1.06,4.52A14.77,14.77,0,0,0,626,76.2a53.17,53.17,0,0,1,6.56,6.28,12.87,12.87,0,0,1,2.74,8.12,13.93,13.93,0,0,1-3.47,9.8,11.65,11.65,0,0,1-9,3.79,12.35,12.35,0,0,1-8.7-3.13,9.83,9.83,0,0,1-3.3-7.6q0-4.62,3.55-4.62c2,0,3,1.71,3.08,5.15q2.4,3.24,5.38,3.24a5.28,5.28,0,0,0,4.08-1.72,6.05,6.05,0,0,0,1.57-4.27,6.37,6.37,0,0,0-1.93-4.4s-1.65-1.51-4.9-4.4q-6.74-6-6.73-14.11,0-6.59,3.58-10.64a11.92,11.92,0,0,1,9.38-4.07,12.34,12.34,0,0,1,8.17,2.83C638.21,58.23,639.28,60.22,639.28,62.43Z"/>
        <path class="cls-3" d="M679.09,81.69q0,10.75-1.84,17.23c-1.15,4.11-2.61,6.17-4.36,6.17a3.46,3.46,0,0,1-2.54-1,3.23,3.23,0,0,1-1-2.35q3.13-13.2,3.13-20,0-10.2-2.06-14.82-2.14-4.79-6.94-4.78a10.94,10.94,0,0,0-5.16,1.39,11.54,11.54,0,0,0-4.07,3.39q-1.77,2.52-1.77,7.63v2.41q0,9.6.65,18.6c.44,6,.65,8.81.65,8.41q0,3.73-3.06,3.73a2.67,2.67,0,0,1-2.5-1.24,12.68,12.68,0,0,1-1.07-4.26A189.27,189.27,0,0,1,646,78.83a196.18,196.18,0,0,1,2.5-29.19A21.83,21.83,0,0,1,649.55,45a2.6,2.6,0,0,1,2.5-1.58,2.67,2.67,0,0,1,2.14,1,4.19,4.19,0,0,1,.86,2.71s-.56,4.17-1.7,12.64a14.23,14.23,0,0,1,10.7-4.62Q679.1,55.17,679.09,81.69Z"/>
      </g>
      <g>
        <path class="cls-4" d="M303.66,97.38q0,3.65-4.56,7.78-7.64,7-19.54,7-12.8,0-19.81-8.69t-7-24.53q0-15.23,7.1-24.83a24.2,24.2,0,0,1,20.43-10.3q10.88,0,17.8,6.39c1.74,1.58,2.6,3.05,2.6,4.4a3.92,3.92,0,0,1-1,2.68,3.12,3.12,0,0,1-2.37,1.16,4.64,4.64,0,0,1-2.46-1.32q-7.2-5.82-14.67-5.83a17.56,17.56,0,0,0-14.83,7.41q-5.54,7.43-5.54,20.17,0,25.65,19.8,25.66,11.31,0,16.14-6.17L297.9,95a2.95,2.95,0,0,1,4.81-.35A3.87,3.87,0,0,1,303.66,97.38Z"/>
        <path class="cls-4" d="M345,81.69q0,10.75-1.84,17.23c-1.15,4.11-2.61,6.17-4.36,6.17a3.46,3.46,0,0,1-2.54-1,3.23,3.23,0,0,1-1-2.35q3.14-13.2,3.13-20,0-10.2-2.06-14.82-2.14-4.79-6.94-4.78a10.94,10.94,0,0,0-5.16,1.39,11.45,11.45,0,0,0-4.07,3.39q-1.77,2.52-1.77,7.63v2.41q0,9.6.65,18.6c.44,6,.65,8.81.65,8.41q0,3.73-3.06,3.73a2.67,2.67,0,0,1-2.5-1.24,12.68,12.68,0,0,1-1.07-4.26,189.27,189.27,0,0,1-1.13-23.32,196.18,196.18,0,0,1,2.5-29.19A21.83,21.83,0,0,1,315.43,45a2.6,2.6,0,0,1,2.5-1.58,2.67,2.67,0,0,1,2.14,1,4.19,4.19,0,0,1,.86,2.71s-.56,4.17-1.7,12.64a14.23,14.23,0,0,1,10.7-4.62Q345,55.17,345,81.69Z"/>
        <path class="cls-4" d="M386.34,71q0,3.92-2.4,5.8c-.72.55-3,1.26-6.77,2.14a58.21,58.21,0,0,1-12.9,1.77,55.55,55.55,0,0,1-5.87-.38q0,14.19,9.57,14.18a7.5,7.5,0,0,0,4.77-1.69,36.27,36.27,0,0,0,3.83-4,2.82,2.82,0,0,1,2.1-1.17,3.11,3.11,0,0,1,2.42,1.19,4.35,4.35,0,0,1,1,2.91,4.12,4.12,0,0,1-1,2.63q-5.75,7.08-13.44,7.08-15.93,0-15.93-20.81a33.26,33.26,0,0,1,5.06-18.51q5.78-8.83,14.27-8.84a13.8,13.8,0,0,1,10.94,5A18.83,18.83,0,0,1,386.34,71Zm-6.64.45a14.82,14.82,0,0,0-2.41-8.27,6.65,6.65,0,0,0-5.55-3,10.23,10.23,0,0,0-7.64,3.5,22.17,22.17,0,0,0-5.07,10,40.18,40.18,0,0,0,5,.3A61.26,61.26,0,0,0,379.7,71.49Z"/>
        <path class="cls-4" d="M424.51,71q0,3.92-2.4,5.8c-.72.55-3,1.26-6.77,2.14a58.21,58.21,0,0,1-12.9,1.77,55.55,55.55,0,0,1-5.87-.38q0,14.19,9.57,14.18a7.46,7.46,0,0,0,4.76-1.69,35.1,35.1,0,0,0,3.84-4,2.82,2.82,0,0,1,2.1-1.17,3.11,3.11,0,0,1,2.42,1.19,4.35,4.35,0,0,1,1,2.91,4.12,4.12,0,0,1-1,2.63q-5.74,7.08-13.44,7.08-15.93,0-15.93-20.81A33.26,33.26,0,0,1,395,62.16q5.78-8.83,14.27-8.84a13.8,13.8,0,0,1,10.94,5A18.83,18.83,0,0,1,424.51,71Zm-6.64.45a14.75,14.75,0,0,0-2.42-8.27,6.63,6.63,0,0,0-5.55-3,10.22,10.22,0,0,0-7.63,3.5,22.07,22.07,0,0,0-5.07,10,40.18,40.18,0,0,0,5,.3A61.26,61.26,0,0,0,417.87,71.49Z"/>
        <path class="cls-4" d="M455.57,62.43q0,3.76-3.36,3.76a2.13,2.13,0,0,1-1.84-.94l-1-1.77a6.37,6.37,0,0,0-5.5-3Q438,60.47,438,68a9,9,0,0,0,1.06,4.52,14.77,14.77,0,0,0,3.24,3.65,53.17,53.17,0,0,1,6.56,6.28,12.87,12.87,0,0,1,2.74,8.12,13.93,13.93,0,0,1-3.47,9.8,11.65,11.65,0,0,1-9,3.79,12.35,12.35,0,0,1-8.7-3.13,9.83,9.83,0,0,1-3.3-7.6q0-4.62,3.55-4.62c2,0,3,1.71,3.08,5.15,1.59,2.16,3.39,3.24,5.38,3.24a5.25,5.25,0,0,0,4.07-1.72,6,6,0,0,0,1.58-4.27,6.37,6.37,0,0,0-1.93-4.4s-1.66-1.51-4.9-4.4q-6.74-6-6.73-14.11,0-6.59,3.58-10.64a11.92,11.92,0,0,1,9.38-4.07,12.34,12.34,0,0,1,8.17,2.83C454.5,58.23,455.57,60.22,455.57,62.43Z"/>
        <path class="cls-4" d="M493.74,71q0,3.92-2.4,5.8-1.06.82-6.76,2.14a58.21,58.21,0,0,1-12.9,1.77,55.39,55.39,0,0,1-5.87-.38q0,14.19,9.57,14.18a7.46,7.46,0,0,0,4.76-1.69,36,36,0,0,0,3.84-4,2.79,2.79,0,0,1,2.1-1.17,3.09,3.09,0,0,1,2.41,1.19,4.31,4.31,0,0,1,1,2.91,4.08,4.08,0,0,1-1,2.63q-5.73,7.08-13.43,7.08-15.93,0-15.94-20.81a33.18,33.18,0,0,1,5.07-18.51q5.77-8.83,14.27-8.84a13.76,13.76,0,0,1,10.93,5Q493.75,63.33,493.74,71Zm-6.63.45a14.75,14.75,0,0,0-2.42-8.27,6.65,6.65,0,0,0-5.55-3,10.21,10.21,0,0,0-7.63,3.5,22.07,22.07,0,0,0-5.07,10,40.13,40.13,0,0,0,5,.3A61.26,61.26,0,0,0,487.11,71.49Z"/>
        <path class="cls-4" d="M575.71,104.49a7.68,7.68,0,0,1-2.67,5.45v-.07a9.55,9.55,0,0,1-7,2.48q-5.75,0-8.55-2.26a14,14,0,0,1-2.06-2.29c-1.33-1.73-2.1-2.71-2.3-2.94q-10.56-12.6-14.52-14.78c-1.15-.48-2.29-1-3.41-1.49a2.84,2.84,0,0,1-1.68-2.84c0-2.36,1.76-3.69,5.3-4a12.7,12.7,0,0,0,9.26-5.17,18.18,18.18,0,0,0,3.57-11.42q0-15.3-17.27-15.31h-.53a201.61,201.61,0,0,0-4.3,42.74c0,2.63.06,5.4.2,8.31s.2,4.49.2,4.74q0,5.23-3.2,5.23-2.61,0-3.4-3.57-.63-2.86-.64-11.7,0-27.17,4.17-45Q514.61,53,513.31,53q-4.77,0-4.77-3.88a3.38,3.38,0,0,1,1.77-3.31,7.08,7.08,0,0,1,2.63-.56c.92-.05,1.84-.09,2.77-.12q1-.11,8.6-1.5a54.14,54.14,0,0,1,9.7-1q24.76,0,24.77,22.19a25.6,25.6,0,0,1-3.43,13,24.39,24.39,0,0,1-9.6,9.35,83.93,83.93,0,0,1,9.5,9.67q5.54,6.54,5.66,6.66c1.14,1.12,3,1.69,5.6,1.69q1.88,0,2.37-.6l2.13-2.56a3.11,3.11,0,0,1,2.1-1.13,2.23,2.23,0,0,1,1.84,1A4.38,4.38,0,0,1,575.71,104.49Z"/>
        <path class="cls-4" d="M605.62,99.48a4.84,4.84,0,0,1-1,3,2.9,2.9,0,0,1-2.37,1.24q-2.62,0-4.43-9.14-5.64,8.69-13.67,8.69-13.3,0-13.3-24A140.21,140.21,0,0,1,572.31,58q.87-5.64,4.24-5.64a2.75,2.75,0,0,1,2.1,1,3.47,3.47,0,0,1,.9,2.37q0,1.22-1,9.33a129.62,129.62,0,0,0-1,15.13q0,16.09,7.87,16.1a9.28,9.28,0,0,0,8.09-4.46q3-4.46,3-12.58V77q0-12.61.57-16.18.79-5.12,3.73-5.12t2.8,4.4c0,.53-.1,2.44-.28,5.72s-.29,6.29-.29,9a114.17,114.17,0,0,0,1.27,17.7C605.19,97.91,605.62,100.24,605.62,99.48Z"/>
        <path class="cls-4" d="M639.28,62.43q0,3.76-3.36,3.76a2.13,2.13,0,0,1-1.84-.94l-1-1.77a6.37,6.37,0,0,0-5.5-3q-5.91,0-5.9,7.56a9,9,0,0,0,1.06,4.52A14.77,14.77,0,0,0,626,76.2a53.17,53.17,0,0,1,6.56,6.28,12.87,12.87,0,0,1,2.74,8.12,13.93,13.93,0,0,1-3.47,9.8,11.65,11.65,0,0,1-9,3.79,12.35,12.35,0,0,1-8.7-3.13,9.83,9.83,0,0,1-3.3-7.6q0-4.62,3.55-4.62c2,0,3,1.71,3.08,5.15q2.4,3.24,5.38,3.24a5.28,5.28,0,0,0,4.08-1.72,6.05,6.05,0,0,0,1.57-4.27,6.37,6.37,0,0,0-1.93-4.4s-1.65-1.51-4.9-4.4q-6.74-6-6.73-14.11,0-6.59,3.58-10.64a11.92,11.92,0,0,1,9.38-4.07,12.34,12.34,0,0,1,8.17,2.83C638.21,58.23,639.28,60.22,639.28,62.43Z"/>
        <path class="cls-4" d="M679.09,81.69q0,10.75-1.84,17.23c-1.15,4.11-2.61,6.17-4.36,6.17a3.46,3.46,0,0,1-2.54-1,3.23,3.23,0,0,1-1-2.35q3.13-13.2,3.13-20,0-10.2-2.06-14.82-2.14-4.79-6.94-4.78a10.94,10.94,0,0,0-5.16,1.39,11.54,11.54,0,0,0-4.07,3.39q-1.77,2.52-1.77,7.63v2.41q0,9.6.65,18.6c.44,6,.65,8.81.65,8.41q0,3.73-3.06,3.73a2.67,2.67,0,0,1-2.5-1.24,12.68,12.68,0,0,1-1.07-4.26A189.27,189.27,0,0,1,646,78.83a196.18,196.18,0,0,1,2.5-29.19A21.83,21.83,0,0,1,649.55,45a2.6,2.6,0,0,1,2.5-1.58,2.67,2.67,0,0,1,2.14,1,4.19,4.19,0,0,1,.86,2.71s-.56,4.17-1.7,12.64a14.23,14.23,0,0,1,10.7-4.62Q679.1,55.17,679.09,81.69Z"/>
      </g>
    </g>
    <g>
      <g>
        <rect class="cls-5" x="706.43" width="235.97" height="530.1"/>
        <g>
          <circle class="cls-6" cx="866.23" cy="96.18" r="33.57"/>
          <circle class="cls-6" cx="791.52" cy="308.81" r="21.65"/>
          <circle class="cls-6" cx="832.66" cy="189.01" r="33.57"/>
          <circle class="cls-6" cx="756.69" cy="444.11" r="33.57"/>
          <circle class="cls-6" cx="744.83" cy="62.61" r="33.57"/>
          <path class="cls-6" d="M942.39,408.11V471.4a33.58,33.58,0,1,1,0-63.29Z"/>
          <circle class="cls-6" cx="740" cy="222.58" r="13.24"/>
          <path class="cls-6" d="M877.69,530.1H787.63a49.77,49.77,0,0,1,90.06,0Z"/>
          <path class="cls-6" d="M942.39,0V20.66a15.18,15.18,0,0,1-7.11,1.76A15.28,15.28,0,0,1,921.76,0Z"/>
        </g>
      </g>
      <g>
        <g>
          <path class="cls-7" d="M631.07,307.08v16.68h-4.65c-11.23,0-20.34,8.1-20.34,18.1v58.79h-25V307.08Z"/>
          <path class="cls-8" d="M688,323v13.83h-4.64c-11.23,0-20.34,6.72-20.34,15v48.77H638V323Z"/>
          <path class="cls-8" d="M706.43,191.67V338.08c-6.59.52-13.33.78-20.18.78-4.15,0-8.27-.09-12.33-.29h0A242.65,242.65,0,0,1,638,334.26a205.43,205.43,0,0,1-24.49-6.39h0A151.53,151.53,0,0,1,581.1,313.1a98.09,98.09,0,0,1-15.2-11.47h0a73,73,0,0,1-5.69-5.89h0a60.65,60.65,0,0,1-4.44-5.79c-.59-.88-1.16-1.76-1.68-2.65h0a45.13,45.13,0,0,1-5.83-15.21h0a40,40,0,0,1,.34-16,40.91,40.91,0,0,1,1.5-5.2c.5-1.4,1.09-2.78,1.74-4.15a54,54,0,0,1,5.37-8.92l0,0a66.26,66.26,0,0,1,4.22-5.13h0c9.93-10.93,24.76-20.35,42.95-27.46q5-1.93,10.25-3.64,4.35-1.41,8.91-2.65l1.29-.34h0q4.25-1.12,8.66-2.09,5.85-1.29,12-2.29a244,244,0,0,1,26.64-2.87q6.23-.35,12.61-.38h1.51Q696.54,190.89,706.43,191.67Z"/>
          <path class="cls-8" d="M657.2,400.65c-3.71-8.88-10.91-14.9-19.19-14.9s-15.48,6-19.19,14.9Z"/>
          <path class="cls-7" d="M601,400.65c-3.71-8.88-10.92-14.9-19.2-14.9s-15.48,6-19.19,14.9Z"/>
          <g>
            <g>
              <g>
                <g>
                  <path class="cls-9" d="M563.91,197.12l-3.68,1.3-.63.22-45.26,16c-.82.29-1.61-.11-1.52-.77-.09-1.37-.18-2.74-.25-4.1-1.18-21-.67-40.55,7.66-53.78a1.46,1.46,0,0,1,2.22-.79l25.66,24.56,2.6,2.48,9.52,9.1,4.38,4.2C565.1,196,564.74,196.83,563.91,197.12Z"/>
                  <path class="cls-10" d="M525.09,172.91c-4.81,7.63-4.81,19.19-4,31.39-.05.36.37.58.82.42l26.89-9.52c.45-.16.64-.59.38-.84L526.3,172.48A.79.79,0,0,0,525.09,172.91Z"/>
                </g>
                <g>
                  <path class="cls-9" d="M633.07,209.79c-.08,1.36-.16,2.73-.25,4.1.08.66-.7,1.06-1.53.77l-45.25-16-.63-.22-3.68-1.3c-.83-.29-1.19-1.1-.71-1.56l4.39-4.2,9.52-9.1,2.59-2.48,25.67-24.56a1.46,1.46,0,0,1,2.22.79C633.74,169.24,634.25,188.82,633.07,209.79Z"/>
                  <path class="cls-10" d="M620.54,172.91c4.81,7.63,4.81,19.19,4,31.39.05.36-.38.58-.83.42l-26.88-9.52c-.45-.16-.65-.59-.39-.84l22.87-21.88A.79.79,0,0,1,620.54,172.91Z"/>
                </g>
                <path class="cls-9" d="M645.62,249.27c0,38.83-32.6,52.5-72.8,52.5S500,288.1,500,249.27a68.33,68.33,0,0,1,12.55-39.48,70.49,70.49,0,0,1,8.27-9.75,72.6,72.6,0,0,1,19.79-13.85,73.78,73.78,0,0,1,9.36-3.71l.72-.22a74.56,74.56,0,0,1,9.52-2.26c1.83-.31,3.7-.55,5.58-.72,2.31-.22,4.64-.33,7-.33s4.7.11,7,.33q2.82.25,5.58.72a75,75,0,0,1,9.52,2.26l.71.22h0a73.33,73.33,0,0,1,9.37,3.71,72.57,72.57,0,0,1,19.79,13.86,69.83,69.83,0,0,1,8.27,9.74A68.33,68.33,0,0,1,645.62,249.27Z"/>
                <g>
                  <path class="cls-11" d="M562.79,230a22,22,0,0,1-40.49-17.18A108.87,108.87,0,0,0,544.2,224l.79.28,3.72,1.36.84.31Q555.81,228.15,562.79,230Z"/>
                  <path d="M549,229c0,3.79-1,6.86-2.31,6.86s-2.3-3.07-2.3-6.86a16.23,16.23,0,0,1,.61-4.65l3.72,1.36A19.41,19.41,0,0,1,549,229Z"/>
                </g>
                <g>
                  <path class="cls-11" d="M582.84,230a22,22,0,0,0,40.49-17.18A108.6,108.6,0,0,1,601.43,224l-.78.28-3.72,1.36-.84.31Q589.83,228.15,582.84,230Z"/>
                  <path d="M596.65,229c0,3.79,1,6.86,2.3,6.86s2.31-3.07,2.31-6.86a16.6,16.6,0,0,0-.61-4.65l-3.72,1.36A18.43,18.43,0,0,0,596.65,229Z"/>
                </g>
                <path class="cls-10" d="M569.74,251.08h0a4.47,4.47,0,0,1,3.08-7.71h0a4.47,4.47,0,0,1,3.08,7.71h0A4.47,4.47,0,0,1,569.74,251.08Z"/>
              </g>
              <path class="cls-12" d="M606.08,281.15a30.93,30.93,0,0,1-12.21,11.23l-.68.36c-.43.21-.87.43-1.32.63l-.55.26-.79.34-.66.27-.07,0-.66.25-.35.14-.36.12-.71.25c-.24.09-.48.16-.72.24l-.74.23-.71.21h0l-.71.19-1,.25-.57.13-.62.14-.93.18-1.07.19-.43.07-.5.08L579,297c-1.12.15-2.26.25-3.42.32l-.7,0c-.69,0-1.4,0-2.1,0s-1.41,0-2.11,0l-.65,0-.74-.05-.69-.06h-.06l-.62-.06-1.36-.16-1-.14-.17,0-.42-.07-1.08-.19-.93-.18-.61-.14c-.53-.12-1-.24-1.56-.38l-.7-.19h0l-.71-.21-.73-.23c-.24-.08-.48-.15-.72-.24l-.72-.25c-.46-.16-.91-.33-1.36-.51l-.07,0-.66-.27-.68-.29-.6-.27-.73-.35-.65-.32-.68-.36a31,31,0,0,1-12.22-11.23,31.48,31.48,0,0,1,13.19-11.73,43,43,0,0,1,9.84-3.44,48.21,48.21,0,0,1,20.48,0,42.92,42.92,0,0,1,9.83,3.44A31.36,31.36,0,0,1,606.08,281.15Z"/>
              <g>
                <path class="cls-13" d="M562.58,266l-5.7,12.52-4.14-9.08A43,43,0,0,1,562.58,266Z"/>
                <path class="cls-13" d="M592.89,269.42l-4.13,9.08L583.06,266A42.92,42.92,0,0,1,592.89,269.42Z"/>
              </g>
              <g>
                <path class="cls-13" d="M563.91,296.6l-.93-.18-.61-.14c-.53-.12-1-.24-1.56-.38l-.7-.19h0l-.71-.21-.73-.23c-.24-.08-.48-.15-.72-.24l-.72-.25c-.46-.16-.91-.33-1.36-.51l-.07,0-.66-.27-.68-.29-.6-.27-.73-.35-.65-.32-.68-.36,5.11-11.23,3.32,7.31Z"/>
                <path class="cls-13" d="M593.87,292.38l-.68.36c-.43.21-.87.43-1.32.63l-.55.26-.79.34-.66.27-.07,0-.66.25-.35.14-.36.12-.71.25c-.24.09-.48.16-.72.24l-.74.23-.71.21h0l-.71.19-1,.25-.57.13-.62.14-.93.18,3.71-8.14,3.33-7.31Z"/>
              </g>
              <g>
                <path class="cls-14" d="M562.11,249.08c-1-4.28-23.34-2.7-50,3.52"/>
                <path class="cls-14" d="M563.83,251.07c-1.63-4.08-23.48.83-48.85,11"/>
                <path class="cls-14" d="M564.76,252.72c-2.33-3.72-23,5-46.12,19.5"/>
              </g>
              <g>
                <path class="cls-14" d="M583.52,249.08c1-4.28,23.34-2.7,50,3.52"/>
                <path class="cls-14" d="M581.8,251.07c1.63-4.08,23.48.83,48.86,11"/>
                <path class="cls-14" d="M580.87,252.72c2.33-3.72,23,5,46.12,19.5"/>
              </g>
              <path class="cls-15" d="M593.19,292.74c-.43.21-.87.43-1.32.63l-.55.26-.79.34-.66.27-.07,0-.66.25-.35.14-.36.12-.71.25c-.24.09-.48.16-.72.24l-.74.23-.71.21h0l-.71.19-1,.25-.57.13-.62.14-.93.18-1.07.19-.43.07-.5.08L579,297c-1.12.15-2.26.25-3.42.32l-.7,0c-.69,0-1.4,0-2.1,0s-1.41,0-2.11,0l-.65,0-.74-.05-.69-.06h-.06l-.62-.06-1.36-.16-1-.14-.17,0-.42-.07-1.08-.19-.93-.18-.61-.14c-.53-.12-1-.24-1.56-.38l-.7-.19h0l-.71-.21-.73-.23c-.24-.08-.48-.15-.72-.24l-.72-.25c-.46-.16-.91-.33-1.36-.51l-.07,0-.66-.27-.68-.29-.6-.27-.73-.35-.65-.32c.64-1.74,3.54-3.26,7.75-4.28a59.62,59.62,0,0,1,25.23,0C589.65,289.48,592.54,291,593.19,292.74Z"/>
            </g>
            <path class="cls-16" d="M572.82,179q3.54,0,7,.33l-7,21.81-7-21.81C568.12,179.06,570.45,179,572.82,179Z"/>
            <path class="cls-16" d="M550.71,182.26a74.56,74.56,0,0,1,9.52-2.26v19.83l-.63-1.19A170.92,170.92,0,0,0,550,182.48c-.6-.89-1.23-1.8-1.88-2.7Z"/>
            <path class="cls-16" d="M597.52,179.78c-.65.9-1.27,1.8-1.88,2.7h0a170.73,170.73,0,0,0-9.6,16.16c-.22.4-.42.79-.63,1.19V180a75,75,0,0,1,9.52,2.26Z"/>
          </g>
        </g>
        <path class="cls-17" d="M672.13,191.27l-6.08,53-20.56-50.11A246.54,246.54,0,0,1,672.13,191.27Z"/>
        <path class="cls-17" d="M706.43,191.67v19.65L698.16,244l-13.42-53.12h1.51Q696.54,190.89,706.43,191.67Z"/>
      </g>
    </g>
    <g>
      <g>
        <rect class="cls-5" width="235.78" height="530.1"/>
        <circle class="cls-6" cx="72.13" cy="73.7" r="33.57"/>
        <circle class="cls-6" cx="171.5" cy="181.72" r="33.57"/>
        <circle class="cls-6" cx="61.79" cy="473.33" r="33.57"/>
        <circle class="cls-6" cx="90.25" cy="275.84" r="33.57"/>
        <path class="cls-6" d="M224.28,16.69A33.58,33.58,0,1,1,161.57,0h58.26A33.37,33.37,0,0,1,224.28,16.69Z"/>
        <circle class="cls-6" cx="184.32" cy="431.53" r="27.19"/>
        <circle class="cls-6" cx="86.68" cy="366.65" r="19.02"/>
        <circle class="cls-6" cx="47.24" cy="181.72" r="9.51"/>
      </g>
      <g>
        <ellipse class="cls-18" cx="297.14" cy="264.74" rx="54.72" ry="62.22" transform="translate(-81.37 387.65) rotate(-59.69)"/>
        <g>
          <path class="cls-18" d="M301.09,208.89A34.79,34.79,0,0,1,288.42,220a35.64,35.64,0,0,1-33-.42A40.11,40.11,0,0,1,236,195.91v-23a35.17,35.17,0,0,1,17.5-21c17.83-9.16,40.12-1.34,49.76,17.45A38.51,38.51,0,0,1,301.09,208.89Z"/>
          <ellipse class="cls-19" cx="270.6" cy="186.01" rx="21.8" ry="24.65" transform="translate(-15.7 25.2) rotate(-5.18)"/>
        </g>
        <g>
          <ellipse class="cls-18" cx="378.52" cy="249.33" rx="38.26" ry="36.3" transform="translate(-9.29 14.71) rotate(-2.2)"/>
          <ellipse class="cls-19" cx="379.2" cy="249.15" rx="24.65" ry="21.8" transform="translate(-68.8 177.3) rotate(-24.19)"/>
        </g>
        <path d="M296.59,275.43h0A6.63,6.63,0,0,0,298,263.37h0a6.63,6.63,0,0,0-9.84,7.1h0A6.62,6.62,0,0,0,296.59,275.43Z"/>
        <g>
          <path class="cls-14" d="M289.19,263.33c1.71-4.74-19.15-17-44.44-26.21"/>
          <path class="cls-14" d="M289.46,266.47c1.27-4.87-20.63-15.19-46.67-22"/>
          <path class="cls-14" d="M289.46,269.91c.89-5-21.77-13.51-48.27-18.21"/>
        </g>
        <g>
          <path class="cls-14" d="M302.18,271.16c3.29-3.82,24.24,8.32,44.64,25.87"/>
          <path class="cls-14" d="M299.3,272.46c3.63-3.5,23.37,10.53,42.06,29.89"/>
          <path class="cls-14" d="M296.31,274.15c3.89-3.21,22.45,12.34,39.55,33.13"/>
        </g>
        <g>
          <path class="cls-18" d="M294.11,333.55a48.6,48.6,0,0,0-6.26-14.07,43.88,43.88,0,0,0-6.43-7.71,43.25,43.25,0,0,0-17.58-10.14,45,45,0,0,0-9.6-1.7h0a49,49,0,0,0-15.1,1.46c-1.06.27-2.11.58-3.16.92V407.79a47.44,47.44,0,0,0,12.05-.66c15.36-2.79,30.16-12.91,39.37-28.66C295.9,363.92,297.88,347.58,294.11,333.55Z"/>
          <path class="cls-20" d="M270.45,368.32c-8.34,14.26-22.29,22.37-34.48,21.27V323.76c9.54-6.19,20.44-7.56,29-2.57C278.55,329.14,281,350.24,270.45,368.32Z"/>
        </g>
        <path class="cls-18" d="M263.85,301.76a5,5,0,0,1-.51,1Q262,305,260.58,307c-1.57,2.33-3.17,4.54-4.78,6.64a3.43,3.43,0,0,1-4.94.8A88.83,88.83,0,0,1,239,302.56q-1.56-1.89-3.07-3.92v-24.5c1.39,1.87,2.82,3.65,4.26,5.33,7.47,8.71,15.48,14.91,22.78,18.6C264.15,298.64,264.45,300.14,263.85,301.76Z"/>
        <g>
          <path class="cls-18" d="M330.26,350.08c-15.78-1.35-32.57-7.66-48.05-18.93-3.56-2.61-5.35-7.5-4.11-10.59l1.44-3.6c1.25-3.13,5.15-3.56,8.79-1.29,15.78,10,32.57,15,48,15.06,3.56,0,5.36,3.14,4.11,7.34q-.71,2.42-1.44,4.8C337.79,347,333.89,350.42,330.26,350.08Z"/>
          <ellipse class="cls-18" cx="344.41" cy="333.9" rx="6.5" ry="4.5" transform="translate(-61.56 78.37) rotate(-11.92)"/>
          <ellipse class="cls-18" cx="343.3" cy="340.21" rx="4.5" ry="6.5" transform="translate(-62.53 602.69) rotate(-77.63)"/>
          <ellipse class="cls-18" cx="339.52" cy="346.68" rx="4.5" ry="6.5" transform="translate(-123.57 491.61) rotate(-62.98)"/>
        </g>
        <path class="cls-21" d="M281.47,235.6c6.26-2.81,14.83,1.44,18.25,9.06"/>
        <path class="cls-21" d="M330.07,264.3c-.62-6.84-8.53-12.22-16.84-11.47"/>
        <g>
          <path class="cls-9" d="M293,289.2v0c-6.19,1.94-12.94-2-15.1-8.8a11.77,11.77,0,0,0,13.27-5.18l.19.11A11.88,11.88,0,0,0,293,289.2Z"/>
          <g>
            <path class="cls-22" d="M291.14,275.24a11.77,11.77,0,0,1-13.27,5.18,12.91,12.91,0,0,1-3.28-1.37"/>
            <path class="cls-22" d="M291.45,275.14a2.25,2.25,0,0,0-.12.21A11.88,11.88,0,0,0,293,289.2a11.71,11.71,0,0,0,2.75,2.21"/>
            <path class="cls-22" d="M293,289.22c-6.19,1.94-12.94-2-15.1-8.8v0"/>
          </g>
        </g>
        <path class="cls-18" d="M248.79,404.57c-.25.85-.51,1.71-.77,2.56A171.49,171.49,0,0,1,236,436.47V398.78Z"/>
      </g>
    </g>
  </g>
</svg>
