<svg id="Layer_1" data-name="Layer 1" xmlns="http://www.w3.org/2000/svg" width="616.74" height="898.83" viewBox="0 0 616.74 898.83">
  <defs>
    <style>
      .cls-1 {
        fill: #bf8d6b;
      }

      .cls-2 {
        fill: #ffc69f;
      }

      .cls-3, .cls-5 {
        fill: #f7d574;
      }

      .cls-3, .cls-4, .cls-5 {
        stroke: #f7d574;
      }

      .cls-11, .cls-3, .cls-4, .cls-5, .cls-8, .cls-9 {
        stroke-miterlimit: 10;
      }

      .cls-3 {
        stroke-width: 8px;
      }

      .cls-11, .cls-4, .cls-8, .cls-9 {
        fill: none;
      }

      .cls-6 {
        fill: #ccc;
      }

      .cls-7 {
        fill: #ff7bac;
        opacity: 0.44;
      }

      .cls-11, .cls-8, .cls-9 {
        stroke: #000;
      }

      .cls-8 {
        stroke-width: 0.5px;
      }

      .cls-9 {
        stroke-width: 2px;
      }

      .cls-10 {
        fill: gray;
      }
    </style>
  </defs>
  <g>
    <rect class="cls-1" width="616.74" height="898.83"/>
    <g>
      <g>
        <path class="cls-2" d="M257.65,101.34q0,12.81-6.92,19v.19q-6.25,4.36-18.88,4.36-18.6,0-29.33-2.55a11.92,11.92,0,0,1-4.49-1.81,4.42,4.42,0,0,1-1.4-3.53c0-2.42,1.46-3.62,4.37-3.62a27.35,27.35,0,0,1,5.38.69q-1.23-15.27-1.23-25.95a349.51,349.51,0,0,1,2.1-37.28l-2,.18h-.33q-3.83,0-3.82-4.17a4.51,4.51,0,0,1,2.38-4.37q2.19-1.15,7.24-1.16,8.15,0,12.8,2.28,4.32,2.13,4.32,5.52a4.9,4.9,0,0,1-1.17,3.25A3.43,3.43,0,0,1,224,53.79a9.4,9.4,0,0,1-3.49-1.34,14.08,14.08,0,0,0-4.65-1.68,280,280,0,0,0-2.55,37.29q0,8.11,1.6,27.16a135.93,135.93,0,0,0,15.35,1.16q10.25,0,16.25-4.09,1.73-2.46,2.63-9.61a26.91,26.91,0,0,1,1.11-5.89,3.22,3.22,0,0,1,3.25-2Q257.65,94.79,257.65,101.34Z"/>
        <path class="cls-2" d="M303.31,75q0,4.83-3,7.15-1.32,1-8.35,2.65A72.17,72.17,0,0,1,276.08,87a67.85,67.85,0,0,1-7.24-.47q0,17.51,11.8,17.51a9.27,9.27,0,0,0,5.89-2.09,45.35,45.35,0,0,0,4.73-5,3.45,3.45,0,0,1,2.59-1.44,3.83,3.83,0,0,1,3,1.46,5.34,5.34,0,0,1,1.26,3.6,5.05,5.05,0,0,1-1.2,3.25q-7.06,8.73-16.58,8.73-19.67,0-19.66-25.67,0-13.25,6.25-22.85,7.13-10.9,17.61-10.91A17,17,0,0,1,298,59.32Q303.31,65.49,303.31,75Zm-8.19.56q-.24-6.45-3-10.22a8.21,8.21,0,0,0-6.85-3.76,12.61,12.61,0,0,0-9.42,4.32q-4.2,4.36-6.25,12.35a48.68,48.68,0,0,0,6.21.37A75.89,75.89,0,0,0,295.12,75.57Z"/>
        <path class="cls-2" d="M347.21,56.39a62.34,62.34,0,0,1-1.77,11.89q-1.94,8.82-2.92,12.35a162.43,162.43,0,0,1-7.61,21.08q-5.24,12-8.93,12-2.34,0-3.62-5.2-1.69-7.2-3.37-14.39-5.81-20.85-12.39-34.36l-1.71-3.25a6.37,6.37,0,0,1-.84-2.83q0-4.19,3.71-4.18,4.15,0,9.18,12.21,4.77,11.66,11.14,36.58,6.87-15.23,10.52-39,1-6.27,1.28-7.15a3.18,3.18,0,0,1,3.21-2.46C345.83,49.71,347.21,51.94,347.21,56.39Z"/>
        <path class="cls-2" d="M395.42,75c0,3.22-1,5.6-3,7.15q-1.32,1-8.35,2.65A72.09,72.09,0,0,1,368.19,87a68,68,0,0,1-7.24-.47Q361,104,372.76,104a9.26,9.26,0,0,0,5.88-2.09,44.38,44.38,0,0,0,4.73-5A3.47,3.47,0,0,1,386,95.53a3.81,3.81,0,0,1,3,1.46,5.34,5.34,0,0,1,1.26,3.6,5.1,5.1,0,0,1-1.19,3.25q-7.08,8.73-16.58,8.73-19.67,0-19.67-25.67,0-13.25,6.25-22.85,7.13-10.9,17.61-10.91a17,17,0,0,1,13.5,6.18Q395.42,65.49,395.42,75Zm-8.18.56q-.25-6.45-3-10.22a8.2,8.2,0,0,0-6.85-3.76A12.61,12.61,0,0,0,368,65.91q-4.19,4.36-6.25,12.35a48.91,48.91,0,0,0,6.21.37A76,76,0,0,0,387.24,75.57Z"/>
        <path class="cls-2" d="M413.57,114.1a16.88,16.88,0,0,1-.37,4.32,2.93,2.93,0,0,1-3.08,2q-3.89,0-4.58-7.15-1.19-12.06-1.19-33,0-23.45.57-28.84.66-5.89,4.14-5.89,4.1,0,4.09,5.62c0,.92-.15,4.62-.45,11.07s-.45,12.4-.45,17.85q0,7.16.66,18.5T413.57,114.1Z"/>
        <path class="cls-2" d="M157.82,209.82q0,4.83-8.68,12.4-6.13,5.28-16.09,5.29t-15.55-7.34q-5.81-7.47-5.8-20.52,0-16.85,6.67-26.25a21.22,21.22,0,0,1,18.3-9.4q8.64,0,14.16,4.36,5.22,4.08,5.22,9.8c0,3.12-1.29,4.69-3.87,4.69a2.81,2.81,0,0,1-2.63-1.44,50.29,50.29,0,0,0-2.26-5.11q-2.92-3.72-10.62-3.72a13.92,13.92,0,0,0-12.4,6.83q-4.38,6.83-4.38,19.5Q119.89,219,134,219a18.07,18.07,0,0,0,14-6.55l2.55-4.18c1-1.67,2.11-2.51,3.37-2.51a3.62,3.62,0,0,1,2.68,1.28A4.05,4.05,0,0,1,157.82,209.82Z"/>
        <path class="cls-2" d="M209.12,195q0,13.65-7.07,21.75t-18.89,8.1q-9.79,0-15.34-7.54t-5.56-21q0-14.12,6.71-21.92t18.26-7.66a19.15,19.15,0,0,1,15.84,7.75Q209.13,182.28,209.12,195Zm-8.19.09q0-9.33-4-14.6a13,13,0,0,0-11-5.27q-15.51,0-15.51,21,0,9.7,3.37,14.93a10.84,10.84,0,0,0,9.67,5.22q8.14,0,12.8-5.62T200.93,195.1Z"/>
        <path class="cls-2" d="M274.74,196.45q0,35.57-7.49,35.56-2.88,0-2.88-4.08s.47-3.57,1.4-10.61a160.65,160.65,0,0,0,1.4-21.06q0-17.5-7.32-17.5-6.42,0-8.44,8.82-1.51,6.78-1.52,26.65a62.54,62.54,0,0,0,.41,6.76c.28,2.46.41,3.9.41,4.34q0,4.59-3.86,4.59-4.65,0-4.65-16.76,0-7,.47-14.74c.32-5.12.47-7.87.47-8.24q0-6.87-6.41-6.87-6,0-8.73,6.08-2.62,5.9-2.63,18.67,0,8.2.41,15.29c.28,4.72.41,6.71.41,6a4,4,0,0,1-1.13,2.92,3.85,3.85,0,0,1-2.9,1.17q-3.66,0-4.52-7.9-.3-2.26-.29-11.79a241.86,241.86,0,0,1,2.88-38,33.5,33.5,0,0,1,1.89-7.9,3.72,3.72,0,0,1,3.58-2.37q3.87,0,3.87,4.65l-1.85,10.49A11.28,11.28,0,0,1,237.84,175q5.26,0,8.27,4.92,5.22-9.7,14.72-9.7Q274.74,170.17,274.74,196.45Z"/>
        <path class="cls-2" d="M327.65,198.82q0,11.88-6.28,19t-16.8,7.08a24.48,24.48,0,0,1-11.48-2.92,133,133,0,0,1-1.52,13.37c-.69,2.72-1.95,4.09-3.77,4.09a4,4,0,0,1-2.93-1.21,4.07,4.07,0,0,1-1.2-3c0,.18.22-1.78.66-5.9q.81-7.24,1.27-15.65.66-12.06.66-26.09c0-1.86,0-4-.08-6.38s-.09-3.85-.09-4.34q0-6.18,3.83-6.18c2.66,0,4,1.43,4.11,4.27l.09,2.83a16.54,16.54,0,0,1,12.79-5.38,18.2,18.2,0,0,1,15,7.06Q327.65,186.65,327.65,198.82Zm-8.19,0q0-8.5-3.5-13.19a11.42,11.42,0,0,0-9.71-4.69q-9.71,0-12,6.92v4.6q0,10.77-.49,21.17a22.37,22.37,0,0,0,10.78,2.88q7.11,0,11-4.6T319.46,198.82Z"/>
        <path class="cls-2" d="M346.45,228.21a16.85,16.85,0,0,1-.37,4.31,2.93,2.93,0,0,1-3.08,2c-2.59,0-4.12-2.39-4.58-7.15q-1.19-12.07-1.19-33.06,0-23.45.57-28.83.66-5.9,4.14-5.9,4.1,0,4.09,5.62,0,1.4-.45,11.07t-.45,17.85q0,7.16.66,18.51T346.45,228.21Z"/>
        <path class="cls-2" d="M398,189.11c0,3.22-1,5.61-3,7.15-.88.68-3.66,1.57-8.35,2.65a72,72,0,0,1-15.92,2.18,67.7,67.7,0,0,1-7.24-.46q0,17.51,11.81,17.5a9.26,9.26,0,0,0,5.88-2.09,44.38,44.38,0,0,0,4.73-5,3.47,3.47,0,0,1,2.59-1.44,3.83,3.83,0,0,1,3,1.47,5.34,5.34,0,0,1,1.25,3.59,5.1,5.1,0,0,1-1.19,3.25q-7.08,8.73-16.58,8.73-19.67,0-19.67-25.67,0-13.23,6.26-22.84,7.11-10.92,17.6-10.91a17,17,0,0,1,13.5,6.17Q398,179.6,398,189.11Zm-8.19.56q-.26-6.45-3-10.21A8.2,8.2,0,0,0,380,175.7a12.6,12.6,0,0,0-9.43,4.31q-4.19,4.37-6.25,12.35a48.91,48.91,0,0,0,6.21.37A76,76,0,0,0,389.81,189.67Z"/>
        <path class="cls-2" d="M438.85,185.49a4.23,4.23,0,0,1-.91,2.76,2.66,2.66,0,0,1-2.14,1.14,24.36,24.36,0,0,1-4.71-1.81,19.63,19.63,0,0,0-8-1.81,18.17,18.17,0,0,0-2.59.19A70.36,70.36,0,0,0,419,199.84q0,8.11,2.42,12.49t6.75,4.36a9.31,9.31,0,0,0,3.48-.95,9.2,9.2,0,0,1,3.1-1q3.3,0,3.3,4.36a5.31,5.31,0,0,1-2.72,4.6,13.45,13.45,0,0,1-7.41,1.76q-17.43,0-17.44-26.23a69.64,69.64,0,0,1,1.19-12.16c-.76.12-2.42.48-5,1.06a18.59,18.59,0,0,1-3.71.56q-4.39,0-4.4-3.81,0-5.19,15.18-6.77Q416.89,167,421.4,167a3.07,3.07,0,0,1,2.39,1.13,4.07,4.07,0,0,1,1,2.77,10,10,0,0,1-.62,3q-.62,1.83-1.23,3.69Q438.85,178.2,438.85,185.49Z"/>
        <path class="cls-2" d="M484.72,189.11c0,3.22-1,5.61-3,7.15-.88.68-3.66,1.57-8.36,2.65a72,72,0,0,1-15.92,2.18,67.85,67.85,0,0,1-7.24-.46q0,17.51,11.81,17.5a9.22,9.22,0,0,0,5.88-2.09,43.45,43.45,0,0,0,4.73-5,3.49,3.49,0,0,1,2.6-1.44,3.81,3.81,0,0,1,3,1.47,5.29,5.29,0,0,1,1.25,3.59,5,5,0,0,1-1.19,3.25q-7.08,8.73-16.58,8.73-19.67,0-19.66-25.67,0-13.23,6.25-22.84,7.11-10.92,17.61-10.91a17,17,0,0,1,13.49,6.17Q484.72,179.6,484.72,189.11Zm-8.19.56q-.24-6.45-3-10.21a8.2,8.2,0,0,0-6.85-3.76,12.57,12.57,0,0,0-9.42,4.31q-4.2,4.37-6.25,12.35a48.68,48.68,0,0,0,6.21.37A75.89,75.89,0,0,0,476.53,189.67Z"/>
        <path class="cls-2" d="M505.12,165.06a76,76,0,0,1-1.85,9.43,139.34,139.34,0,0,0-3.37,26.32c-.19,4.24-.36,6.7-.49,7.38a2.79,2.79,0,0,1-2.88,2.51c-1.57,0-2.66-1-3.3-3.06s-.86-5.19-.86-9.8q0-12.26,4.24-28.23,2.1-8,5.8-8Q505.13,161.63,505.12,165.06Zm-2.88,58.36a6,6,0,0,1-1.27,4,4,4,0,0,1-3.21,1.56,4.14,4.14,0,0,1-3.27-1.58,5.91,5.91,0,0,1-1.34-4,5.38,5.38,0,0,1,1.32-3.71,4.22,4.22,0,0,1,3.29-1.49,4.09,4.09,0,0,1,3.23,1.44A5.51,5.51,0,0,1,502.24,223.42Z"/>
      </g>
      <g>
        <path class="cls-3" d="M257.65,101.34q0,12.81-6.92,19v.19q-6.25,4.36-18.88,4.36-18.6,0-29.33-2.55a11.92,11.92,0,0,1-4.49-1.81,4.42,4.42,0,0,1-1.4-3.53c0-2.42,1.46-3.62,4.37-3.62a27.35,27.35,0,0,1,5.38.69q-1.23-15.27-1.23-25.95a349.51,349.51,0,0,1,2.1-37.28l-2,.18h-.33q-3.83,0-3.82-4.17a4.51,4.51,0,0,1,2.38-4.37q2.19-1.15,7.24-1.16,8.15,0,12.8,2.28,4.32,2.13,4.32,5.52a4.9,4.9,0,0,1-1.17,3.25A3.43,3.43,0,0,1,224,53.79a9.4,9.4,0,0,1-3.49-1.34,14.08,14.08,0,0,0-4.65-1.68,280,280,0,0,0-2.55,37.29q0,8.11,1.6,27.16a135.93,135.93,0,0,0,15.35,1.16q10.25,0,16.25-4.09,1.73-2.46,2.63-9.61a26.91,26.91,0,0,1,1.11-5.89,3.22,3.22,0,0,1,3.25-2Q257.65,94.79,257.65,101.34Z"/>
        <path class="cls-3" d="M303.31,75q0,4.83-3,7.15-1.32,1-8.35,2.65A72.17,72.17,0,0,1,276.08,87a67.85,67.85,0,0,1-7.24-.47q0,17.51,11.8,17.51a9.27,9.27,0,0,0,5.89-2.09,45.35,45.35,0,0,0,4.73-5,3.45,3.45,0,0,1,2.59-1.44,3.83,3.83,0,0,1,3,1.46,5.34,5.34,0,0,1,1.26,3.6,5.05,5.05,0,0,1-1.2,3.25q-7.06,8.73-16.58,8.73-19.67,0-19.66-25.67,0-13.25,6.25-22.85,7.13-10.9,17.61-10.91A17,17,0,0,1,298,59.32Q303.31,65.49,303.31,75Zm-8.19.56q-.24-6.45-3-10.22a8.21,8.21,0,0,0-6.85-3.76,12.61,12.61,0,0,0-9.42,4.32q-4.2,4.36-6.25,12.35a48.68,48.68,0,0,0,6.21.37A75.89,75.89,0,0,0,295.12,75.57Z"/>
        <path class="cls-3" d="M347.21,56.39a62.34,62.34,0,0,1-1.77,11.89q-1.94,8.82-2.92,12.35a162.43,162.43,0,0,1-7.61,21.08q-5.24,12-8.93,12-2.34,0-3.62-5.2-1.69-7.2-3.37-14.39-5.81-20.85-12.39-34.36l-1.71-3.25a6.37,6.37,0,0,1-.84-2.83q0-4.19,3.71-4.18,4.15,0,9.18,12.21,4.77,11.66,11.14,36.58,6.87-15.23,10.52-39,1-6.27,1.28-7.15a3.18,3.18,0,0,1,3.21-2.46C345.83,49.71,347.21,51.94,347.21,56.39Z"/>
        <path class="cls-3" d="M395.42,75c0,3.22-1,5.6-3,7.15q-1.32,1-8.35,2.65A72.09,72.09,0,0,1,368.19,87a68,68,0,0,1-7.24-.47Q361,104,372.76,104a9.26,9.26,0,0,0,5.88-2.09,44.38,44.38,0,0,0,4.73-5A3.47,3.47,0,0,1,386,95.53a3.81,3.81,0,0,1,3,1.46,5.34,5.34,0,0,1,1.26,3.6,5.1,5.1,0,0,1-1.19,3.25q-7.08,8.73-16.58,8.73-19.67,0-19.67-25.67,0-13.25,6.25-22.85,7.13-10.9,17.61-10.91a17,17,0,0,1,13.5,6.18Q395.42,65.49,395.42,75Zm-8.18.56q-.25-6.45-3-10.22a8.2,8.2,0,0,0-6.85-3.76A12.61,12.61,0,0,0,368,65.91q-4.19,4.36-6.25,12.35a48.91,48.91,0,0,0,6.21.37A76,76,0,0,0,387.24,75.57Z"/>
        <path class="cls-3" d="M413.57,114.1a16.88,16.88,0,0,1-.37,4.32,2.93,2.93,0,0,1-3.08,2q-3.89,0-4.58-7.15-1.19-12.06-1.19-33,0-23.45.57-28.84.66-5.89,4.14-5.89,4.1,0,4.09,5.62c0,.92-.15,4.62-.45,11.07s-.45,12.4-.45,17.85q0,7.16.66,18.5T413.57,114.1Z"/>
        <path class="cls-3" d="M157.82,209.82q0,4.83-8.68,12.4-6.13,5.28-16.09,5.29t-15.55-7.34q-5.81-7.47-5.8-20.52,0-16.85,6.67-26.25a21.22,21.22,0,0,1,18.3-9.4q8.64,0,14.16,4.36,5.22,4.08,5.22,9.8c0,3.12-1.29,4.69-3.87,4.69a2.81,2.81,0,0,1-2.63-1.44,50.29,50.29,0,0,0-2.26-5.11q-2.92-3.72-10.62-3.72a13.92,13.92,0,0,0-12.4,6.83q-4.38,6.83-4.38,19.5Q119.89,219,134,219a18.07,18.07,0,0,0,14-6.55l2.55-4.18c1-1.67,2.11-2.51,3.37-2.51a3.62,3.62,0,0,1,2.68,1.28A4.05,4.05,0,0,1,157.82,209.82Z"/>
        <path class="cls-3" d="M209.12,195q0,13.65-7.07,21.75t-18.89,8.1q-9.79,0-15.34-7.54t-5.56-21q0-14.12,6.71-21.92t18.26-7.66a19.15,19.15,0,0,1,15.84,7.75Q209.13,182.28,209.12,195Zm-8.19.09q0-9.33-4-14.6a13,13,0,0,0-11-5.27q-15.51,0-15.51,21,0,9.7,3.37,14.93a10.84,10.84,0,0,0,9.67,5.22q8.14,0,12.8-5.62T200.93,195.1Z"/>
        <path class="cls-3" d="M274.74,196.45q0,35.57-7.49,35.56-2.88,0-2.88-4.08s.47-3.57,1.4-10.61a160.65,160.65,0,0,0,1.4-21.06q0-17.5-7.32-17.5-6.42,0-8.44,8.82-1.51,6.78-1.52,26.65a62.54,62.54,0,0,0,.41,6.76c.28,2.46.41,3.9.41,4.34q0,4.59-3.86,4.59-4.65,0-4.65-16.76,0-7,.47-14.74c.32-5.12.47-7.87.47-8.24q0-6.87-6.41-6.87-6,0-8.73,6.08-2.62,5.9-2.63,18.67,0,8.2.41,15.29c.28,4.72.41,6.71.41,6a4,4,0,0,1-1.13,2.92,3.85,3.85,0,0,1-2.9,1.17q-3.66,0-4.52-7.9-.3-2.26-.29-11.79a241.86,241.86,0,0,1,2.88-38,33.5,33.5,0,0,1,1.89-7.9,3.72,3.72,0,0,1,3.58-2.37q3.87,0,3.87,4.65l-1.85,10.49A11.28,11.28,0,0,1,237.84,175q5.26,0,8.27,4.92,5.22-9.7,14.72-9.7Q274.74,170.17,274.74,196.45Z"/>
        <path class="cls-3" d="M327.65,198.82q0,11.88-6.28,19t-16.8,7.08a24.48,24.48,0,0,1-11.48-2.92,133,133,0,0,1-1.52,13.37c-.69,2.72-1.95,4.09-3.77,4.09a4,4,0,0,1-2.93-1.21,4.07,4.07,0,0,1-1.2-3c0,.18.22-1.78.66-5.9q.81-7.24,1.27-15.65.66-12.06.66-26.09c0-1.86,0-4-.08-6.38s-.09-3.85-.09-4.34q0-6.18,3.83-6.18c2.66,0,4,1.43,4.11,4.27l.09,2.83a16.54,16.54,0,0,1,12.79-5.38,18.2,18.2,0,0,1,15,7.06Q327.65,186.65,327.65,198.82Zm-8.19,0q0-8.5-3.5-13.19a11.42,11.42,0,0,0-9.71-4.69q-9.71,0-12,6.92v4.6q0,10.77-.49,21.17a22.37,22.37,0,0,0,10.78,2.88q7.11,0,11-4.6T319.46,198.82Z"/>
        <path class="cls-3" d="M346.45,228.21a16.85,16.85,0,0,1-.37,4.31,2.93,2.93,0,0,1-3.08,2c-2.59,0-4.12-2.39-4.58-7.15q-1.19-12.07-1.19-33.06,0-23.45.57-28.83.66-5.9,4.14-5.9,4.1,0,4.09,5.62,0,1.4-.45,11.07t-.45,17.85q0,7.16.66,18.51T346.45,228.21Z"/>
        <path class="cls-3" d="M398,189.11c0,3.22-1,5.61-3,7.15-.88.68-3.66,1.57-8.35,2.65a72,72,0,0,1-15.92,2.18,67.7,67.7,0,0,1-7.24-.46q0,17.51,11.81,17.5a9.26,9.26,0,0,0,5.88-2.09,44.38,44.38,0,0,0,4.73-5,3.47,3.47,0,0,1,2.59-1.44,3.83,3.83,0,0,1,3,1.47,5.34,5.34,0,0,1,1.25,3.59,5.1,5.1,0,0,1-1.19,3.25q-7.08,8.73-16.58,8.73-19.67,0-19.67-25.67,0-13.23,6.26-22.84,7.11-10.92,17.6-10.91a17,17,0,0,1,13.5,6.17Q398,179.6,398,189.11Zm-8.19.56q-.26-6.45-3-10.21A8.2,8.2,0,0,0,380,175.7a12.6,12.6,0,0,0-9.43,4.31q-4.19,4.37-6.25,12.35a48.91,48.91,0,0,0,6.21.37A76,76,0,0,0,389.81,189.67Z"/>
        <path class="cls-3" d="M438.85,185.49a4.23,4.23,0,0,1-.91,2.76,2.66,2.66,0,0,1-2.14,1.14,24.36,24.36,0,0,1-4.71-1.81,19.63,19.63,0,0,0-8-1.81,18.17,18.17,0,0,0-2.59.19A70.36,70.36,0,0,0,419,199.84q0,8.11,2.42,12.49t6.75,4.36a9.31,9.31,0,0,0,3.48-.95,9.2,9.2,0,0,1,3.1-1q3.3,0,3.3,4.36a5.31,5.31,0,0,1-2.72,4.6,13.45,13.45,0,0,1-7.41,1.76q-17.43,0-17.44-26.23a69.64,69.64,0,0,1,1.19-12.16c-.76.12-2.42.48-5,1.06a18.59,18.59,0,0,1-3.71.56q-4.39,0-4.4-3.81,0-5.19,15.18-6.77Q416.89,167,421.4,167a3.07,3.07,0,0,1,2.39,1.13,4.07,4.07,0,0,1,1,2.77,10,10,0,0,1-.62,3q-.62,1.83-1.23,3.69Q438.85,178.2,438.85,185.49Z"/>
        <path class="cls-3" d="M484.72,189.11c0,3.22-1,5.61-3,7.15-.88.68-3.66,1.57-8.36,2.65a72,72,0,0,1-15.92,2.18,67.85,67.85,0,0,1-7.24-.46q0,17.51,11.81,17.5a9.22,9.22,0,0,0,5.88-2.09,43.45,43.45,0,0,0,4.73-5,3.49,3.49,0,0,1,2.6-1.44,3.81,3.81,0,0,1,3,1.47,5.29,5.29,0,0,1,1.25,3.59,5,5,0,0,1-1.19,3.25q-7.08,8.73-16.58,8.73-19.67,0-19.66-25.67,0-13.23,6.25-22.84,7.11-10.92,17.61-10.91a17,17,0,0,1,13.49,6.17Q484.72,179.6,484.72,189.11Zm-8.19.56q-.24-6.45-3-10.21a8.2,8.2,0,0,0-6.85-3.76,12.57,12.57,0,0,0-9.42,4.31q-4.2,4.37-6.25,12.35a48.68,48.68,0,0,0,6.21.37A75.89,75.89,0,0,0,476.53,189.67Z"/>
        <path class="cls-3" d="M505.12,165.06a76,76,0,0,1-1.85,9.43,139.34,139.34,0,0,0-3.37,26.32c-.19,4.24-.36,6.7-.49,7.38a2.79,2.79,0,0,1-2.88,2.51c-1.57,0-2.66-1-3.3-3.06s-.86-5.19-.86-9.8q0-12.26,4.24-28.23,2.1-8,5.8-8Q505.13,161.63,505.12,165.06Zm-2.88,58.36a6,6,0,0,1-1.27,4,4,4,0,0,1-3.21,1.56,4.14,4.14,0,0,1-3.27-1.58,5.91,5.91,0,0,1-1.34-4,5.38,5.38,0,0,1,1.32-3.71,4.22,4.22,0,0,1,3.29-1.49,4.09,4.09,0,0,1,3.23,1.44A5.51,5.51,0,0,1,502.24,223.42Z"/>
      </g>
      <g>
        <path class="cls-4" d="M257.65,101.34q0,12.81-6.92,19v.19q-6.25,4.36-18.88,4.36-18.6,0-29.33-2.55a11.92,11.92,0,0,1-4.49-1.81,4.42,4.42,0,0,1-1.4-3.53c0-2.42,1.46-3.62,4.37-3.62a27.35,27.35,0,0,1,5.38.69q-1.23-15.27-1.23-25.95a349.51,349.51,0,0,1,2.1-37.28l-2,.18h-.33q-3.83,0-3.82-4.17a4.51,4.51,0,0,1,2.38-4.37q2.19-1.15,7.24-1.16,8.15,0,12.8,2.28,4.32,2.13,4.32,5.52a4.9,4.9,0,0,1-1.17,3.25A3.43,3.43,0,0,1,224,53.79a9.4,9.4,0,0,1-3.49-1.34,14.08,14.08,0,0,0-4.65-1.68,280,280,0,0,0-2.55,37.29q0,8.11,1.6,27.16a135.93,135.93,0,0,0,15.35,1.16q10.25,0,16.25-4.09,1.73-2.46,2.63-9.61a26.91,26.91,0,0,1,1.11-5.89,3.22,3.22,0,0,1,3.25-2Q257.65,94.79,257.65,101.34Z"/>
        <path class="cls-4" d="M303.31,75q0,4.83-3,7.15-1.32,1-8.35,2.65A72.17,72.17,0,0,1,276.08,87a67.85,67.85,0,0,1-7.24-.47q0,17.51,11.8,17.51a9.27,9.27,0,0,0,5.89-2.09,45.35,45.35,0,0,0,4.73-5,3.45,3.45,0,0,1,2.59-1.44,3.83,3.83,0,0,1,3,1.46,5.34,5.34,0,0,1,1.26,3.6,5.05,5.05,0,0,1-1.2,3.25q-7.06,8.73-16.58,8.73-19.67,0-19.66-25.67,0-13.25,6.25-22.85,7.13-10.9,17.61-10.91A17,17,0,0,1,298,59.32Q303.31,65.49,303.31,75Zm-8.19.56q-.24-6.45-3-10.22a8.21,8.21,0,0,0-6.85-3.76,12.61,12.61,0,0,0-9.42,4.32q-4.2,4.36-6.25,12.35a48.68,48.68,0,0,0,6.21.37A75.89,75.89,0,0,0,295.12,75.57Z"/>
        <path class="cls-4" d="M347.21,56.39a62.34,62.34,0,0,1-1.77,11.89q-1.94,8.82-2.92,12.35a162.43,162.43,0,0,1-7.61,21.08q-5.24,12-8.93,12-2.34,0-3.62-5.2-1.69-7.2-3.37-14.39-5.81-20.85-12.39-34.36l-1.71-3.25a6.37,6.37,0,0,1-.84-2.83q0-4.19,3.71-4.18,4.15,0,9.18,12.21,4.77,11.66,11.14,36.58,6.87-15.23,10.52-39,1-6.27,1.28-7.15a3.18,3.18,0,0,1,3.21-2.46C345.83,49.71,347.21,51.94,347.21,56.39Z"/>
        <path class="cls-4" d="M395.42,75c0,3.22-1,5.6-3,7.15q-1.32,1-8.35,2.65A72.09,72.09,0,0,1,368.19,87a68,68,0,0,1-7.24-.47Q361,104,372.76,104a9.26,9.26,0,0,0,5.88-2.09,44.38,44.38,0,0,0,4.73-5A3.47,3.47,0,0,1,386,95.53a3.81,3.81,0,0,1,3,1.46,5.34,5.34,0,0,1,1.26,3.6,5.1,5.1,0,0,1-1.19,3.25q-7.08,8.73-16.58,8.73-19.67,0-19.67-25.67,0-13.25,6.25-22.85,7.13-10.9,17.61-10.91a17,17,0,0,1,13.5,6.18Q395.42,65.49,395.42,75Zm-8.18.56q-.25-6.45-3-10.22a8.2,8.2,0,0,0-6.85-3.76A12.61,12.61,0,0,0,368,65.91q-4.19,4.36-6.25,12.35a48.91,48.91,0,0,0,6.21.37A76,76,0,0,0,387.24,75.57Z"/>
        <path class="cls-4" d="M413.57,114.1a16.88,16.88,0,0,1-.37,4.32,2.93,2.93,0,0,1-3.08,2q-3.89,0-4.58-7.15-1.19-12.06-1.19-33,0-23.45.57-28.84.66-5.89,4.14-5.89,4.1,0,4.09,5.62c0,.92-.15,4.62-.45,11.07s-.45,12.4-.45,17.85q0,7.16.66,18.5T413.57,114.1Z"/>
        <path class="cls-4" d="M157.82,209.82q0,4.83-8.68,12.4-6.13,5.28-16.09,5.29t-15.55-7.34q-5.81-7.47-5.8-20.52,0-16.85,6.67-26.25a21.22,21.22,0,0,1,18.3-9.4q8.64,0,14.16,4.36,5.22,4.08,5.22,9.8c0,3.12-1.29,4.69-3.87,4.69a2.81,2.81,0,0,1-2.63-1.44,50.29,50.29,0,0,0-2.26-5.11q-2.92-3.72-10.62-3.72a13.92,13.92,0,0,0-12.4,6.83q-4.38,6.83-4.38,19.5Q119.89,219,134,219a18.07,18.07,0,0,0,14-6.55l2.55-4.18c1-1.67,2.11-2.51,3.37-2.51a3.62,3.62,0,0,1,2.68,1.28A4.05,4.05,0,0,1,157.82,209.82Z"/>
        <path class="cls-4" d="M209.12,195q0,13.65-7.07,21.75t-18.89,8.1q-9.79,0-15.34-7.54t-5.56-21q0-14.12,6.71-21.92t18.26-7.66a19.15,19.15,0,0,1,15.84,7.75Q209.13,182.28,209.12,195Zm-8.19.09q0-9.33-4-14.6a13,13,0,0,0-11-5.27q-15.51,0-15.51,21,0,9.7,3.37,14.93a10.84,10.84,0,0,0,9.67,5.22q8.14,0,12.8-5.62T200.93,195.1Z"/>
        <path class="cls-4" d="M274.74,196.45q0,35.57-7.49,35.56-2.88,0-2.88-4.08s.47-3.57,1.4-10.61a160.65,160.65,0,0,0,1.4-21.06q0-17.5-7.32-17.5-6.42,0-8.44,8.82-1.51,6.78-1.52,26.65a62.54,62.54,0,0,0,.41,6.76c.28,2.46.41,3.9.41,4.34q0,4.59-3.86,4.59-4.65,0-4.65-16.76,0-7,.47-14.74c.32-5.12.47-7.87.47-8.24q0-6.87-6.41-6.87-6,0-8.73,6.08-2.62,5.9-2.63,18.67,0,8.2.41,15.29c.28,4.72.41,6.71.41,6a4,4,0,0,1-1.13,2.92,3.85,3.85,0,0,1-2.9,1.17q-3.66,0-4.52-7.9-.3-2.26-.29-11.79a241.86,241.86,0,0,1,2.88-38,33.5,33.5,0,0,1,1.89-7.9,3.72,3.72,0,0,1,3.58-2.37q3.87,0,3.87,4.65l-1.85,10.49A11.28,11.28,0,0,1,237.84,175q5.26,0,8.27,4.92,5.22-9.7,14.72-9.7Q274.74,170.17,274.74,196.45Z"/>
        <path class="cls-4" d="M327.65,198.82q0,11.88-6.28,19t-16.8,7.08a24.48,24.48,0,0,1-11.48-2.92,133,133,0,0,1-1.52,13.37c-.69,2.72-1.95,4.09-3.77,4.09a4,4,0,0,1-2.93-1.21,4.07,4.07,0,0,1-1.2-3c0,.18.22-1.78.66-5.9q.81-7.24,1.27-15.65.66-12.06.66-26.09c0-1.86,0-4-.08-6.38s-.09-3.85-.09-4.34q0-6.18,3.83-6.18c2.66,0,4,1.43,4.11,4.27l.09,2.83a16.54,16.54,0,0,1,12.79-5.38,18.2,18.2,0,0,1,15,7.06Q327.65,186.65,327.65,198.82Zm-8.19,0q0-8.5-3.5-13.19a11.42,11.42,0,0,0-9.71-4.69q-9.71,0-12,6.92v4.6q0,10.77-.49,21.17a22.37,22.37,0,0,0,10.78,2.88q7.11,0,11-4.6T319.46,198.82Z"/>
        <path class="cls-4" d="M346.45,228.21a16.85,16.85,0,0,1-.37,4.31,2.93,2.93,0,0,1-3.08,2c-2.59,0-4.12-2.39-4.58-7.15q-1.19-12.07-1.19-33.06,0-23.45.57-28.83.66-5.9,4.14-5.9,4.1,0,4.09,5.62,0,1.4-.45,11.07t-.45,17.85q0,7.16.66,18.51T346.45,228.21Z"/>
        <path class="cls-4" d="M398,189.11c0,3.22-1,5.61-3,7.15-.88.68-3.66,1.57-8.35,2.65a72,72,0,0,1-15.92,2.18,67.7,67.7,0,0,1-7.24-.46q0,17.51,11.81,17.5a9.26,9.26,0,0,0,5.88-2.09,44.38,44.38,0,0,0,4.73-5,3.47,3.47,0,0,1,2.59-1.44,3.83,3.83,0,0,1,3,1.47,5.34,5.34,0,0,1,1.25,3.59,5.1,5.1,0,0,1-1.19,3.25q-7.08,8.73-16.58,8.73-19.67,0-19.67-25.67,0-13.23,6.26-22.84,7.11-10.92,17.6-10.91a17,17,0,0,1,13.5,6.17Q398,179.6,398,189.11Zm-8.19.56q-.26-6.45-3-10.21A8.2,8.2,0,0,0,380,175.7a12.6,12.6,0,0,0-9.43,4.31q-4.19,4.37-6.25,12.35a48.91,48.91,0,0,0,6.21.37A76,76,0,0,0,389.81,189.67Z"/>
        <path class="cls-4" d="M438.85,185.49a4.23,4.23,0,0,1-.91,2.76,2.66,2.66,0,0,1-2.14,1.14,24.36,24.36,0,0,1-4.71-1.81,19.63,19.63,0,0,0-8-1.81,18.17,18.17,0,0,0-2.59.19A70.36,70.36,0,0,0,419,199.84q0,8.11,2.42,12.49t6.75,4.36a9.31,9.31,0,0,0,3.48-.95,9.2,9.2,0,0,1,3.1-1q3.3,0,3.3,4.36a5.31,5.31,0,0,1-2.72,4.6,13.45,13.45,0,0,1-7.41,1.76q-17.43,0-17.44-26.23a69.64,69.64,0,0,1,1.19-12.16c-.76.12-2.42.48-5,1.06a18.59,18.59,0,0,1-3.71.56q-4.39,0-4.4-3.81,0-5.19,15.18-6.77Q416.89,167,421.4,167a3.07,3.07,0,0,1,2.39,1.13,4.07,4.07,0,0,1,1,2.77,10,10,0,0,1-.62,3q-.62,1.83-1.23,3.69Q438.85,178.2,438.85,185.49Z"/>
        <path class="cls-4" d="M484.72,189.11c0,3.22-1,5.61-3,7.15-.88.68-3.66,1.57-8.36,2.65a72,72,0,0,1-15.92,2.18,67.85,67.85,0,0,1-7.24-.46q0,17.51,11.81,17.5a9.22,9.22,0,0,0,5.88-2.09,43.45,43.45,0,0,0,4.73-5,3.49,3.49,0,0,1,2.6-1.44,3.81,3.81,0,0,1,3,1.47,5.29,5.29,0,0,1,1.25,3.59,5,5,0,0,1-1.19,3.25q-7.08,8.73-16.58,8.73-19.67,0-19.66-25.67,0-13.23,6.25-22.84,7.11-10.92,17.61-10.91a17,17,0,0,1,13.49,6.17Q484.72,179.6,484.72,189.11Zm-8.19.56q-.24-6.45-3-10.21a8.2,8.2,0,0,0-6.85-3.76,12.57,12.57,0,0,0-9.42,4.31q-4.2,4.37-6.25,12.35a48.68,48.68,0,0,0,6.21.37A75.89,75.89,0,0,0,476.53,189.67Z"/>
        <path class="cls-4" d="M505.12,165.06a76,76,0,0,1-1.85,9.43,139.34,139.34,0,0,0-3.37,26.32c-.19,4.24-.36,6.7-.49,7.38a2.79,2.79,0,0,1-2.88,2.51c-1.57,0-2.66-1-3.3-3.06s-.86-5.19-.86-9.8q0-12.26,4.24-28.23,2.1-8,5.8-8Q505.13,161.63,505.12,165.06Zm-2.88,58.36a6,6,0,0,1-1.27,4,4,4,0,0,1-3.21,1.56,4.14,4.14,0,0,1-3.27-1.58,5.91,5.91,0,0,1-1.34-4,5.38,5.38,0,0,1,1.32-3.71,4.22,4.22,0,0,1,3.29-1.49,4.09,4.09,0,0,1,3.23,1.44A5.51,5.51,0,0,1,502.24,223.42Z"/>
      </g>
    </g>
    <g>
      <path class="cls-5" d="M121.51,286.12a1.9,1.9,0,0,1-.47,1.24,1.32,1.32,0,0,1-1,.57,1.84,1.84,0,0,1-.63-.12,5,5,0,0,1-.54-.2l-.4-.19q-1.08,21.27-5.14,31c-.72,1.7-1.56,2.54-2.54,2.54q-4.12,0-6.15-18.37a98.14,98.14,0,0,1-4.36,12.51q-1.94,4.1-3.82,4.09c-.86,0-1.67-.58-2.43-1.76a26.69,26.69,0,0,1-2.35-5.55q-2.52-7.71-2.51-23.15v-1.35a6.35,6.35,0,0,0-.89.17,3.62,3.62,0,0,1-.66.11c-1.11,0-1.67-.64-1.67-1.94q0-2.26,5.33-2.27a9.44,9.44,0,0,1,4,.7c1,.47,1.5,1.06,1.5,1.76,0,1.34-.53,2-1.6,2a4.23,4.23,0,0,1-1.21-.26,7.34,7.34,0,0,0-1.45-.36L92.4,292q0,14,4.13,22.83,2.56-4,5.84-16.06c.38-1.42.77-3.19,1.16-5.28a22.75,22.75,0,0,1,.77-3.31c.3-.76.74-1.15,1.31-1.15a1.56,1.56,0,0,1,1.59,1.3,18.79,18.79,0,0,1,.25,3.84c0,.31,0,.68,0,1.12s0,.69,0,.79a54.88,54.88,0,0,0,3.32,20q3.49-10.08,4.43-29a7.61,7.61,0,0,0-.85.17,3.12,3.12,0,0,1-.78.13c-1.09,0-1.63-.64-1.63-1.91,0-1.47,1.48-2.2,4.46-2.2a7.23,7.23,0,0,1,3.77.9A2.39,2.39,0,0,1,121.51,286.12Z"/>
      <path class="cls-5" d="M138.14,299.28a3.46,3.46,0,0,1-1.2,2.9,12.11,12.11,0,0,1-3.38,1.07,23.46,23.46,0,0,1-9.38.7c0,4.72,1.59,7.09,4.78,7.09a3.77,3.77,0,0,0,2.38-.85,19,19,0,0,0,1.92-2,1.39,1.39,0,0,1,1.05-.58,1.52,1.52,0,0,1,1.2.59,2.15,2.15,0,0,1,.51,1.46,2.06,2.06,0,0,1-.48,1.31,8.46,8.46,0,0,1-6.72,3.54q-8,0-8-10.4a16.54,16.54,0,0,1,2.53-9.25q2.88-4.43,7.13-4.42a6.89,6.89,0,0,1,5.47,2.5A9.41,9.41,0,0,1,138.14,299.28Zm-3.32.23a7.36,7.36,0,0,0-1.21-4.14,3.31,3.31,0,0,0-2.77-1.52A5.1,5.1,0,0,0,127,295.6a11.11,11.11,0,0,0-2.53,5,20.09,20.09,0,0,0,2.52.15A30.56,30.56,0,0,0,134.82,299.51Z"/>
      <path class="cls-5" d="M145.49,315.12a6.63,6.63,0,0,1-.15,1.74,1.18,1.18,0,0,1-1.25.83c-1.05,0-1.67-1-1.86-2.89q-.48-4.89-.48-13.39,0-9.5.24-11.68c.17-1.59.73-2.39,1.67-2.39,1.11,0,1.66.76,1.66,2.28,0,.37-.06,1.87-.18,4.48s-.19,5-.19,7.23q0,2.9.27,7.5T145.49,315.12Z"/>
      <path class="cls-5" d="M154.63,315.12a6.63,6.63,0,0,1-.15,1.74,1.17,1.17,0,0,1-1.24.83c-1.05,0-1.67-1-1.86-2.89q-.48-4.89-.48-13.39,0-9.5.23-11.68c.18-1.59.74-2.39,1.68-2.39,1.1,0,1.66.76,1.66,2.28,0,.37-.06,1.87-.19,4.48s-.18,5-.18,7.23q0,2.9.27,7.5T154.63,315.12Z"/>
      <path class="cls-5" d="M187.17,286.89c0-.07-.06.87-.2,2.82-.14,2.27-.26,4.69-.36,7.24q-.2,5.54-.19,11.77c0,.86,0,1.73,0,2.63s0,1.37,0,1.42c0,1.86-.53,2.8-1.58,2.8s-1.72-1.05-1.72-3.16c0-.49,0-.87,0-1.15a9.57,9.57,0,0,1-7.29,3.5,6.63,6.63,0,0,1-5.48-2.53,10.83,10.83,0,0,1-2-7,15.23,15.23,0,0,1,2.93-9.72,9.36,9.36,0,0,1,7.7-3.7,10.52,10.52,0,0,1,4.58,1.14,61.62,61.62,0,0,1,.31-6.24c.25-1.28.86-1.92,1.85-1.92S187.17,285.53,187.17,286.89Zm-3.73,9.78a7.5,7.5,0,0,0-4.37-1.54,6.32,6.32,0,0,0-5.36,2.64,11.76,11.76,0,0,0-2,7.17,7.79,7.79,0,0,0,1.33,4.83,4.37,4.37,0,0,0,3.65,1.72,5.11,5.11,0,0,0,4.46-2.2c.29-.49.57-1,.85-1.49a1.85,1.85,0,0,1,1.19-.94C183.22,303.34,183.3,299.94,183.44,296.67Z"/>
      <path class="cls-5" d="M209.38,301.67c0,3.69-.95,6.62-2.86,8.81a9.64,9.64,0,0,1-7.65,3.28,7.29,7.29,0,0,1-6.21-3.05q-2.25-3.06-2.25-8.49,0-5.72,2.71-8.88a9.23,9.23,0,0,1,7.4-3.1,7.75,7.75,0,0,1,6.41,3.14A13.06,13.06,0,0,1,209.38,301.67Zm-3.31,0a9.5,9.5,0,0,0-1.63-5.91,5.26,5.26,0,0,0-4.44-2.14q-6.27,0-6.28,8.52a11.2,11.2,0,0,0,1.37,6.05,4.37,4.37,0,0,0,3.91,2.11,6.38,6.38,0,0,0,5.19-2.28A9.7,9.7,0,0,0,206.07,301.71Z"/>
      <path class="cls-5" d="M228.73,302.56a31.26,31.26,0,0,1-1.3,8.89c-.53,1.83-1.19,2.74-2,2.74a1.46,1.46,0,0,1-1.08-.44,1.43,1.43,0,0,1-.45-1.06c0-.11.27-1.26.8-3.43a27.3,27.3,0,0,0,.8-6.48c0-4.88-1.35-7.31-4.06-7.31a4.56,4.56,0,0,0-3.79,1.93,8.5,8.5,0,0,0-1.51,5.27,39.69,39.69,0,0,0,.45,5.08,37.76,37.76,0,0,1,.46,4.66c0,2.15-.54,3.23-1.63,3.23a1.38,1.38,0,0,1-1.15-.41,3.13,3.13,0,0,1-.42-1.32c0-.77-.15-3-.41-6.73-.46-5.19-.69-8.87-.69-11.06q0-5.69,1.95-5.69a1.49,1.49,0,0,1,1.09.44,1.43,1.43,0,0,1,.45,1,11.49,11.49,0,0,1-.2,1.56,11,11,0,0,0-.2,1.94v.43q2.46-3.78,6-3.78a5.74,5.74,0,0,1,5.06,2.72Q228.74,297.48,228.73,302.56Z"/>
      <path class="cls-5" d="M249.07,299.28a3.46,3.46,0,0,1-1.2,2.9,12,12,0,0,1-3.38,1.07,23.46,23.46,0,0,1-9.38.7c0,4.72,1.59,7.09,4.78,7.09a3.75,3.75,0,0,0,2.38-.85,18,18,0,0,0,1.92-2,1.39,1.39,0,0,1,1.05-.58,1.53,1.53,0,0,1,1.21.59,2.15,2.15,0,0,1,.51,1.46,2,2,0,0,1-.49,1.31,8.45,8.45,0,0,1-6.71,3.54q-8,0-8-10.4a16.54,16.54,0,0,1,2.54-9.25q2.88-4.43,7.13-4.42a6.87,6.87,0,0,1,5.46,2.5A9.36,9.36,0,0,1,249.07,299.28Zm-3.31.23a7.44,7.44,0,0,0-1.21-4.14,3.34,3.34,0,0,0-2.78-1.52A5.08,5.08,0,0,0,238,295.6a11,11,0,0,0-2.53,5,19.93,19.93,0,0,0,2.51.15A30.63,30.63,0,0,0,245.76,299.51Z"/>
      <path class="cls-5" d="M257.34,289.54a31,31,0,0,1-.75,3.82A55.68,55.68,0,0,0,255.22,304c-.08,1.72-.14,2.72-.2,3a1.13,1.13,0,0,1-1.17,1c-.63,0-1.07-.42-1.33-1.24a15.71,15.71,0,0,1-.35-4,45,45,0,0,1,1.72-11.43c.56-2.16,1.35-3.24,2.35-3.24C257,288.15,257.34,288.62,257.34,289.54Zm-1.17,23.64a2.43,2.43,0,0,1-.52,1.61,1.6,1.6,0,0,1-1.3.63,1.69,1.69,0,0,1-1.32-.64,2.4,2.4,0,0,1-.54-1.6,2.2,2.2,0,0,1,.53-1.5,1.69,1.69,0,0,1,1.33-.61,1.65,1.65,0,0,1,1.31.59A2.22,2.22,0,0,1,256.17,313.18Z"/>
      <path class="cls-5" d="M293.33,286.54q0,1.41-2.4,5.47a49.35,49.35,0,0,1-10.33,12.63l0,0V307c0,1.09,0,2.42,0,4s0,2.56,0,3a26.59,26.59,0,0,1-.3,5c-.26,1.07-.81,1.61-1.65,1.61-1,0-1.53-1-1.53-2.93,0-.1,0-1,.07-2.65s.06-3.29.06-4.85v-4.82a37.86,37.86,0,0,1-5.7-8.81q-3.36-6.74-3.36-10c0-1.35.56-2,1.67-2a1.33,1.33,0,0,1,1.38.81,15.66,15.66,0,0,1,.58,2.18,28.59,28.59,0,0,0,.75,2.82,34.8,34.8,0,0,0,6.3,11.4A47.88,47.88,0,0,0,289,288c.42-.85.85-1.71,1.29-2.56a1.57,1.57,0,0,1,1.28-.94,1.62,1.62,0,0,1,1.25.59A2.12,2.12,0,0,1,293.33,286.54Z"/>
      <path class="cls-5" d="M311.72,301.67a12.92,12.92,0,0,1-2.87,8.81,9.63,9.63,0,0,1-7.64,3.28,7.3,7.3,0,0,1-6.22-3.05q-2.25-3.06-2.25-8.49,0-5.72,2.72-8.88a9.23,9.23,0,0,1,7.4-3.1,7.75,7.75,0,0,1,6.41,3.14A13.12,13.12,0,0,1,311.72,301.67Zm-3.32,0a9.56,9.56,0,0,0-1.62-5.91,5.26,5.26,0,0,0-4.44-2.14q-6.29,0-6.28,8.52a11.2,11.2,0,0,0,1.36,6.05,4.4,4.4,0,0,0,3.92,2.11,6.35,6.35,0,0,0,5.18-2.28A9.64,9.64,0,0,0,308.4,301.71Z"/>
      <path class="cls-5" d="M332.66,313.5a2.4,2.4,0,0,1-.48,1.52,1.44,1.44,0,0,1-1.18.62q-1.32,0-2.22-4.57c-1.88,2.9-4.15,4.35-6.83,4.35q-6.65,0-6.65-12a69.35,69.35,0,0,1,.72-10.7c.29-1.88,1-2.82,2.11-2.82a1.36,1.36,0,0,1,1.05.51,1.72,1.72,0,0,1,.45,1.18c0,.4-.16,2-.48,4.66a64.73,64.73,0,0,0-.48,7.56q0,8.06,3.93,8.05a4.62,4.62,0,0,0,4-2.23,11.27,11.27,0,0,0,1.49-6.29v-1.11a70.92,70.92,0,0,1,.28-8.08c.27-1.71.89-2.56,1.87-2.56s1.4.74,1.4,2.2c0,.27-.05,1.22-.14,2.86s-.14,3.14-.14,4.49A57.74,57.74,0,0,0,332,310C332.45,312.71,332.66,313.88,332.66,313.5Z"/>
      <path class="cls-5" d="M364.09,304.61a32.69,32.69,0,0,1-.92,8.61c-.58,2-1.3,3.08-2.18,3.08a1.72,1.72,0,0,1-1.27-.52,1.61,1.61,0,0,1-.51-1.17,47.69,47.69,0,0,0,1.56-10q0-5.1-1-7.41a3.6,3.6,0,0,0-3.47-2.39,5.55,5.55,0,0,0-2.58.69,5.76,5.76,0,0,0-2,1.7,6.66,6.66,0,0,0-.88,3.81v1.21c0,3.19.1,6.29.32,9.3s.32,4.4.32,4.2q0,1.86-1.53,1.86a1.34,1.34,0,0,1-1.25-.62,6.33,6.33,0,0,1-.53-2.13,94.35,94.35,0,0,1-.57-11.65,98.83,98.83,0,0,1,1.25-14.6,10.82,10.82,0,0,1,.54-2.33,1.3,1.3,0,0,1,1.25-.79,1.33,1.33,0,0,1,1.06.53,2,2,0,0,1,.43,1.35s-.28,2.08-.85,6.32a7.12,7.12,0,0,1,5.35-2.31Q364.09,291.35,364.09,304.61Z"/>
      <path class="cls-5" d="M384.77,299.28a3.46,3.46,0,0,1-1.2,2.9,12.23,12.23,0,0,1-3.39,1.07,23.46,23.46,0,0,1-9.38.7c0,4.72,1.6,7.09,4.78,7.09a3.78,3.78,0,0,0,2.39-.85,19.29,19.29,0,0,0,1.91-2,1.42,1.42,0,0,1,1.05-.58,1.53,1.53,0,0,1,1.21.59,2.15,2.15,0,0,1,.51,1.46,2.06,2.06,0,0,1-.48,1.31,8.46,8.46,0,0,1-6.72,3.54q-8,0-8-10.4a16.54,16.54,0,0,1,2.53-9.25q2.88-4.43,7.13-4.42a6.9,6.9,0,0,1,5.47,2.5A9.41,9.41,0,0,1,384.77,299.28Zm-3.32.23a7.44,7.44,0,0,0-1.21-4.14,3.32,3.32,0,0,0-2.77-1.52,5.09,5.09,0,0,0-3.82,1.75,11,11,0,0,0-2.53,5,20,20,0,0,0,2.51.15A30.63,30.63,0,0,0,381.45,299.51Z"/>
      <path class="cls-5" d="M392.11,315.12a6.63,6.63,0,0,1-.15,1.74,1.17,1.17,0,0,1-1.24.83c-1.05,0-1.67-1-1.86-2.89q-.48-4.89-.48-13.39,0-9.5.23-11.68c.18-1.59.74-2.39,1.68-2.39,1.1,0,1.66.76,1.66,2.28,0,.37-.07,1.87-.19,4.48s-.18,5-.18,7.23q0,2.9.27,7.5T392.11,315.12Z"/>
      <path class="cls-5" d="M413.87,303.21a11.17,11.17,0,0,1-2.54,7.69,8.63,8.63,0,0,1-6.8,2.86,9.91,9.91,0,0,1-4.65-1.18,53.23,53.23,0,0,1-.62,5.41c-.28,1.11-.79,1.66-1.52,1.66a1.67,1.67,0,0,1-1.68-1.69c0,.07.09-.73.27-2.39q.33-2.94.51-6.34.27-4.89.27-10.57,0-1.12,0-2.58c0-1,0-1.56,0-1.76,0-1.67.52-2.5,1.55-2.5s1.64.58,1.67,1.73l0,1.15a6.7,6.7,0,0,1,5.19-2.18,7.37,7.37,0,0,1,6.06,2.85A12.24,12.24,0,0,1,413.87,303.21Zm-3.31,0a8.83,8.83,0,0,0-1.42-5.34,4.63,4.63,0,0,0-3.93-1.9q-3.93,0-4.85,2.81v1.86c0,2.91-.07,5.76-.2,8.57a9,9,0,0,0,4.37,1.17,5.51,5.51,0,0,0,4.45-1.86A8,8,0,0,0,410.56,303.21Z"/>
      <path class="cls-5" d="M433.22,299.28a3.46,3.46,0,0,1-1.2,2.9,12.24,12.24,0,0,1-3.38,1.07,23.51,23.51,0,0,1-9.39.7c0,4.72,1.6,7.09,4.79,7.09a3.77,3.77,0,0,0,2.38-.85,20.14,20.14,0,0,0,1.92-2,1.38,1.38,0,0,1,1-.58,1.53,1.53,0,0,1,1.21.59,2.15,2.15,0,0,1,.51,1.46,2.06,2.06,0,0,1-.48,1.31,8.46,8.46,0,0,1-6.72,3.54q-8,0-8-10.4a16.54,16.54,0,0,1,2.53-9.25q2.88-4.43,7.13-4.42a6.9,6.9,0,0,1,5.47,2.5A9.41,9.41,0,0,1,433.22,299.28Zm-3.32.23a7.44,7.44,0,0,0-1.21-4.14,3.32,3.32,0,0,0-2.77-1.52,5.1,5.1,0,0,0-3.82,1.75,11.11,11.11,0,0,0-2.53,5,20.09,20.09,0,0,0,2.52.15A30.56,30.56,0,0,0,429.9,299.51Z"/>
      <path class="cls-5" d="M453.73,286.89c0-.07-.07.87-.2,2.82-.15,2.27-.27,4.69-.37,7.24q-.18,5.54-.18,11.77c0,.86,0,1.73,0,2.63s0,1.37,0,1.42c0,1.86-.52,2.8-1.57,2.8s-1.73-1.05-1.73-3.16c0-.49,0-.87,0-1.15a9.57,9.57,0,0,1-7.29,3.5,6.65,6.65,0,0,1-5.49-2.53,10.83,10.83,0,0,1-2-7q0-6,2.94-9.72a9.35,9.35,0,0,1,7.7-3.7,10.48,10.48,0,0,1,4.57,1.14,60.21,60.21,0,0,1,.32-6.24c.24-1.28.86-1.92,1.84-1.92S453.73,285.53,453.73,286.89ZM450,296.67a7.56,7.56,0,0,0-4.38-1.54,6.33,6.33,0,0,0-5.36,2.64,11.76,11.76,0,0,0-2,7.17,7.79,7.79,0,0,0,1.32,4.83,4.37,4.37,0,0,0,3.65,1.72,5.1,5.1,0,0,0,4.46-2.2c.29-.49.57-1,.85-1.49a1.85,1.85,0,0,1,1.2-.94Q449.78,301.58,450,296.67Z"/>
      <path class="cls-5" d="M499.28,305.79a97.08,97.08,0,0,1-.58,11.83c-.24,1.79-.85,2.69-1.85,2.69s-1.67-.69-1.67-2.07c0-.06.07-.76.2-2.09.16-1.57.29-3.15.39-4.76q.19-3.57.2-7.48a115.3,115.3,0,0,0-1-14.44q-4,4.48-7.1,14c-.41,1.32-.82,2.65-1.24,4-.4,1-.95,1.47-1.66,1.47a1.62,1.62,0,0,1-1.52-1.15c-.12-.27-.44-1.4-1-3.36a38.55,38.55,0,0,0-7.72-14.67q-1.84,6.76-1.85,18.48c0,1.13,0,2.52.13,4.18s.12,2.75.12,3.29c0,1.9-.56,2.86-1.68,2.86-.88,0-1.44-.61-1.68-1.81a42.36,42.36,0,0,1-.25-6,111.32,111.32,0,0,1,1.63-21,16.73,16.73,0,0,1,1.15-3.95,1.87,1.87,0,0,1,1.65-1.2c.73,0,1.55.56,2.49,1.69a58.15,58.15,0,0,1,4.51,6.07,42.57,42.57,0,0,1,4.2,9,62.61,62.61,0,0,1,6.53-13.3q2.86-4.47,4.56-4.47a1.18,1.18,0,0,1,1.09.71,9.75,9.75,0,0,1,.64,2.26Q499.29,292.64,499.28,305.79Z"/>
      <path class="cls-5" d="M509,294a140,140,0,0,1-.72,16.75,11.46,11.46,0,0,1-.63,2.94,1.55,1.55,0,0,1-2.58.5,1.71,1.71,0,0,1-.47-1.2c0,.06.09-.37.27-1.3s.38-2.25.52-3.59q.25-2.85.26-6.39c0-1,0-2.11,0-3.25s0-1.76,0-1.86a11,11,0,0,1,.38-3.54,1.49,1.49,0,0,1,1.5-1.09C508.45,292,509,292.65,509,294Zm.72-7.16c0,1.78-.77,2.67-2.32,2.67a2,2,0,0,1-1.57-.74,2.58,2.58,0,0,1-.64-1.76,2.75,2.75,0,0,1,.7-1.92,2.17,2.17,0,0,1,1.71-.79,1.88,1.88,0,0,1,1.53.69A2.79,2.79,0,0,1,509.68,286.84Z"/>
      <path class="cls-5" d="M528.51,304a46.66,46.66,0,0,1-1.34,10.77q-.66,2.82-2,2.82c-.9,0-1.35-.57-1.35-1.73a4,4,0,0,1,0-.58,6.64,6.64,0,0,1-3.51,1,6.35,6.35,0,0,1-5-2.05,8.37,8.37,0,0,1-1.8-5.73,8.58,8.58,0,0,1,2-5.93,6.59,6.59,0,0,1,5.18-2.19,6.17,6.17,0,0,1,4.75,2.12q-.31-7.43-4.89-7.43a4.29,4.29,0,0,0-2.17.69,4.25,4.25,0,0,1-1.51.69,1.31,1.31,0,0,1-1-.53,1.79,1.79,0,0,1-.45-1.2,2.62,2.62,0,0,1,1.45-2.09,6.48,6.48,0,0,1,3.69-1Q528.5,291.57,528.51,304Zm-3.39,4.42c0-3.19-1.32-4.78-4-4.78q-4.36,0-4.36,4.74t4.33,4.77a3.66,3.66,0,0,0,2.95-1.25A5.19,5.19,0,0,0,525.12,308.37Z"/>
      <path class="cls-5" d="M107,353.88q0,2-3.51,5A9.63,9.63,0,0,1,97,361.05a7.5,7.5,0,0,1-6.29-3q-2.35-3-2.35-8.31,0-6.83,2.7-10.63a8.6,8.6,0,0,1,7.41-3.81,9,9,0,0,1,5.73,1.77,4.92,4.92,0,0,1,2.12,4c0,1.26-.52,1.9-1.57,1.9a1.13,1.13,0,0,1-1.06-.59,20.54,20.54,0,0,0-.92-2.06c-.79-1-2.22-1.51-4.3-1.51a5.63,5.63,0,0,0-5,2.76q-1.79,2.78-1.78,7.9,0,8.13,5.73,8.13a7.35,7.35,0,0,0,5.67-2.65l1-1.7a1.69,1.69,0,0,1,1.37-1,1.45,1.45,0,0,1,1.08.51A1.66,1.66,0,0,1,107,353.88Z"/>
      <path class="cls-5" d="M124.28,350.16a46.59,46.59,0,0,1-1.34,10.77q-.66,2.82-2,2.82c-.9,0-1.35-.57-1.35-1.73a4.1,4.1,0,0,1,0-.58,6.65,6.65,0,0,1-3.51,1,6.38,6.38,0,0,1-5-2.05,8.42,8.42,0,0,1-1.8-5.74,8.6,8.6,0,0,1,2-5.93,6.59,6.59,0,0,1,5.18-2.19,6.19,6.19,0,0,1,4.75,2.12q-.32-7.43-4.88-7.43a4.29,4.29,0,0,0-2.18.69,4.25,4.25,0,0,1-1.51.69,1.33,1.33,0,0,1-1-.53,1.79,1.79,0,0,1-.45-1.2,2.62,2.62,0,0,1,1.45-2.09,6.48,6.48,0,0,1,3.7-1Q124.28,337.79,124.28,350.16Zm-3.39,4.42c0-3.19-1.32-4.78-4-4.78q-4.36,0-4.36,4.74c0,3.18,1.44,4.78,4.33,4.78a3.69,3.69,0,0,0,3-1.25A5.24,5.24,0,0,0,120.89,354.58Z"/>
      <path class="cls-5" d="M142.39,344a1.78,1.78,0,0,1-.37,1.12,1.09,1.09,0,0,1-.87.46,10.23,10.23,0,0,1-1.9-.74,8.15,8.15,0,0,0-3.24-.73,7.65,7.65,0,0,0-1,.08,28.7,28.7,0,0,0-.62,5.62,10.66,10.66,0,0,0,1,5.06,3,3,0,0,0,2.74,1.76,3.63,3.63,0,0,0,1.4-.38,3.75,3.75,0,0,1,1.26-.39c.89,0,1.33.59,1.33,1.77a2.12,2.12,0,0,1-1.1,1.86,5.4,5.4,0,0,1-3,.72q-7.07,0-7.07-10.63a28.13,28.13,0,0,1,.48-4.92c-.31.05-1,.19-2,.43a7.92,7.92,0,0,1-1.5.23c-1.19,0-1.78-.52-1.78-1.55,0-1.4,2-2.32,6.14-2.74q1.28-4.53,3.1-4.53a1.23,1.23,0,0,1,1,.46,1.62,1.62,0,0,1,.4,1.12,4,4,0,0,1-.25,1.23c-.17.49-.33,1-.5,1.49C140.24,341,142.39,342.06,142.39,344Z"/>
      <path class="cls-5" d="M162.36,353.88q0,2-3.51,5a9.63,9.63,0,0,1-6.52,2.15,7.5,7.5,0,0,1-6.29-3q-2.35-3-2.35-8.31,0-6.83,2.7-10.63a8.6,8.6,0,0,1,7.41-3.81,9,9,0,0,1,5.73,1.77,4.92,4.92,0,0,1,2.12,4c0,1.26-.52,1.9-1.57,1.9a1.13,1.13,0,0,1-1.06-.59,20.54,20.54,0,0,0-.92-2.06c-.79-1-2.22-1.51-4.3-1.51a5.63,5.63,0,0,0-5,2.76q-1.78,2.78-1.78,7.9,0,8.13,5.73,8.13a7.35,7.35,0,0,0,5.67-2.65l1-1.7a1.69,1.69,0,0,1,1.37-1,1.45,1.45,0,0,1,1.08.51A1.66,1.66,0,0,1,162.36,353.88Z"/>
      <path class="cls-5" d="M182.33,350.82a32.69,32.69,0,0,1-.92,8.61c-.58,2.05-1.31,3.08-2.18,3.08A1.73,1.73,0,0,1,178,362a1.66,1.66,0,0,1-.52-1.18,47.09,47.09,0,0,0,1.57-10q0-5.1-1-7.41a3.6,3.6,0,0,0-3.47-2.39,5.45,5.45,0,0,0-2.58.7,5.55,5.55,0,0,0-2,1.69,6.67,6.67,0,0,0-.89,3.82v1.2q0,4.8.33,9.3c.21,3,.32,4.4.32,4.2q0,1.86-1.53,1.86a1.33,1.33,0,0,1-1.25-.62,6.33,6.33,0,0,1-.53-2.12,94.53,94.53,0,0,1-.57-11.66A98.59,98.59,0,0,1,167,334.8a11.86,11.86,0,0,1,.53-2.34,1.31,1.31,0,0,1,1.25-.78,1.34,1.34,0,0,1,1.07.52,2.05,2.05,0,0,1,.43,1.36s-.28,2.08-.85,6.31a7.12,7.12,0,0,1,5.35-2.31Q182.33,337.56,182.33,350.82Z"/>
      <path class="cls-5" d="M213.23,345.5a3.45,3.45,0,0,1-1.2,2.89,12,12,0,0,1-3.38,1.07,23.46,23.46,0,0,1-9.38.7c0,4.72,1.59,7.09,4.78,7.09a3.7,3.7,0,0,0,2.38-.85,17.11,17.11,0,0,0,1.92-2,1.39,1.39,0,0,1,1.05-.58,1.53,1.53,0,0,1,1.21.59,2.15,2.15,0,0,1,.51,1.46,2,2,0,0,1-.49,1.31,8.44,8.44,0,0,1-6.71,3.54q-8,0-8-10.4a16.57,16.57,0,0,1,2.54-9.25q2.88-4.43,7.13-4.42a6.87,6.87,0,0,1,5.46,2.5A9.39,9.39,0,0,1,213.23,345.5Zm-3.31.22a7.44,7.44,0,0,0-1.21-4.14,3.32,3.32,0,0,0-2.77-1.52,5.09,5.09,0,0,0-3.82,1.75,11.06,11.06,0,0,0-2.53,5,19.93,19.93,0,0,0,2.51.15A30.63,30.63,0,0,0,209.92,345.72Z"/>
      <path class="cls-5" d="M232.34,348.77a31.55,31.55,0,0,1-1.29,8.89c-.53,1.83-1.19,2.75-2,2.75A1.47,1.47,0,0,1,228,360a1.4,1.4,0,0,1-.44-1.06c0-.11.26-1.25.79-3.43a26.73,26.73,0,0,0,.8-6.48q0-7.31-4-7.31a4.55,4.55,0,0,0-3.79,1.93,8.5,8.5,0,0,0-1.52,5.27,38.39,38.39,0,0,0,.46,5.09,39.58,39.58,0,0,1,.46,4.65c0,2.16-.55,3.23-1.64,3.23a1.38,1.38,0,0,1-1.15-.41,3.31,3.31,0,0,1-.41-1.32c0-.77-.15-3-.42-6.73q-.68-7.78-.68-11.05,0-5.7,1.95-5.7a1.5,1.5,0,0,1,1.08.44,1.41,1.41,0,0,1,.45,1,11.88,11.88,0,0,1-.2,1.56,11.91,11.91,0,0,0-.2,1.93V342q2.46-3.78,6-3.78a5.74,5.74,0,0,1,5.06,2.71Q232.34,343.68,232.34,348.77Z"/>
      <path class="cls-5" d="M254.32,347.88q0,5.53-2.87,8.81a9.63,9.63,0,0,1-7.64,3.28,7.28,7.28,0,0,1-6.22-3.05q-2.25-3.06-2.25-8.49,0-5.71,2.72-8.88a9.23,9.23,0,0,1,7.4-3.1,7.75,7.75,0,0,1,6.41,3.14A13.14,13.14,0,0,1,254.32,347.88Zm-3.32,0a9.56,9.56,0,0,0-1.62-5.91,5.26,5.26,0,0,0-4.44-2.14q-6.28,0-6.28,8.52a11.18,11.18,0,0,0,1.36,6.05,4.4,4.4,0,0,0,3.92,2.11,6.37,6.37,0,0,0,5.18-2.27A9.69,9.69,0,0,0,251,347.92Z"/>
      <path class="cls-5" d="M275.26,359.71a2.4,2.4,0,0,1-.48,1.52,1.44,1.44,0,0,1-1.18.62q-1.32,0-2.22-4.57c-1.88,2.9-4.15,4.35-6.83,4.35q-6.65,0-6.65-12a69.44,69.44,0,0,1,.72-10.7c.29-1.88,1-2.82,2.12-2.82a1.34,1.34,0,0,1,1,.51,1.72,1.72,0,0,1,.45,1.18c0,.41-.16,2-.48,4.67a64.47,64.47,0,0,0-.48,7.56q0,8,3.93,8a4.63,4.63,0,0,0,4-2.22,11.23,11.23,0,0,0,1.49-6.29v-1.11a67.77,67.77,0,0,1,.29-8.09c.26-1.7.88-2.56,1.86-2.56s1.4.74,1.4,2.2c0,.27,0,1.22-.14,2.86s-.14,3.14-.14,4.5a57.69,57.69,0,0,0,.63,8.84C275.05,358.92,275.26,360.09,275.26,359.71Z"/>
      <path class="cls-5" d="M295.54,336.56a1.3,1.3,0,0,1-1.46,1.47c-.14,0-.42,0-.85-.07s-1-.11-1.39-.14a9.16,9.16,0,0,1,2,5.95,7.59,7.59,0,0,1-2.09,5.5,7.28,7.28,0,0,1-5.44,2.15,22.66,22.66,0,0,1-2.4-.19,8.92,8.92,0,0,0-2.25,2.86,40.6,40.6,0,0,1,4.3-.43q6.82,0,6.83,5.32a5.89,5.89,0,0,1-2.57,5,12.27,12.27,0,0,1-7.19,1.83,7.73,7.73,0,0,1-4.64-1.26,3.57,3.57,0,0,1-1.61-3,1.49,1.49,0,0,1,.48-1.11,1.58,1.58,0,0,1,1.13-.47,1.25,1.25,0,0,1,.87.43l.83,1a4.1,4.1,0,0,0,3.1.92,9.85,9.85,0,0,0,4.57-.87,2.53,2.53,0,0,0,1.58-2.29c0-1.42-1.46-2.12-4.37-2.12a23.28,23.28,0,0,0-2.72.21,20.7,20.7,0,0,1-2.36.22c-1.07,0-1.61-.43-1.61-1.28,0-1.19,1-3.22,3.11-6.07a7.13,7.13,0,0,1-2.56-5.91,8.85,8.85,0,0,1,2.26-6.11,7.16,7.16,0,0,1,5.55-2.54,8.32,8.32,0,0,1,1.6.19c.37-.61,1.55-.92,3.55-.92C294.3,334.91,295.54,335.46,295.54,336.56Zm-4.85,6.85a4.93,4.93,0,0,0-1.1-3.35,3.72,3.72,0,0,0-2.93-1.26,4.07,4.07,0,0,0-3.26,1.51,5.92,5.92,0,0,0-1.27,3.94q0,3.93,4.16,3.93a4.16,4.16,0,0,0,3.25-1.25A5,5,0,0,0,290.69,343.41Z"/>
      <path class="cls-5" d="M314.44,350.82a32.69,32.69,0,0,1-.92,8.61c-.58,2.05-1.31,3.08-2.18,3.08a1.73,1.73,0,0,1-1.27-.51,1.66,1.66,0,0,1-.52-1.18,47.09,47.09,0,0,0,1.57-10q0-5.1-1-7.41a3.6,3.6,0,0,0-3.47-2.39,5.45,5.45,0,0,0-2.58.7,5.55,5.55,0,0,0-2,1.69,6.67,6.67,0,0,0-.89,3.82v1.2q0,4.8.33,9.3c.21,3,.32,4.4.32,4.2q0,1.86-1.53,1.86a1.33,1.33,0,0,1-1.25-.62,6.33,6.33,0,0,1-.53-2.12,94.53,94.53,0,0,1-.57-11.66,98.59,98.59,0,0,1,1.25-14.59,11.86,11.86,0,0,1,.53-2.34,1.31,1.31,0,0,1,1.25-.78,1.32,1.32,0,0,1,1.07.52,2.05,2.05,0,0,1,.43,1.36s-.28,2.08-.85,6.31a7.12,7.12,0,0,1,5.35-2.31Q314.44,337.56,314.44,350.82Z"/>
      <path class="cls-5" d="M346.74,353.88q0,2-3.51,5a9.63,9.63,0,0,1-6.52,2.15,7.53,7.53,0,0,1-6.3-3q-2.34-3-2.34-8.31,0-6.83,2.69-10.63a8.6,8.6,0,0,1,7.42-3.81,9,9,0,0,1,5.73,1.77,4.92,4.92,0,0,1,2.12,4c0,1.26-.53,1.9-1.57,1.9a1.15,1.15,0,0,1-1.07-.59,20.14,20.14,0,0,0-.91-2.06c-.79-1-2.22-1.51-4.3-1.51a5.65,5.65,0,0,0-5,2.76q-1.77,2.78-1.77,7.9,0,8.13,5.73,8.13a7.35,7.35,0,0,0,5.67-2.65l1-1.7a1.69,1.69,0,0,1,1.37-1,1.45,1.45,0,0,1,1.08.51A1.66,1.66,0,0,1,346.74,353.88Z"/>
      <path class="cls-5" d="M366.7,350.82a32.75,32.75,0,0,1-.91,8.61c-.58,2.05-1.31,3.08-2.19,3.08a1.71,1.71,0,0,1-1.26-.51,1.62,1.62,0,0,1-.52-1.18,47.09,47.09,0,0,0,1.57-10q0-5.1-1-7.41a3.59,3.59,0,0,0-3.46-2.39,5.42,5.42,0,0,0-2.58.7,5.68,5.68,0,0,0-2,1.69,6.76,6.76,0,0,0-.88,3.82v1.2q0,4.8.33,9.3c.21,3,.32,4.4.32,4.2q0,1.86-1.53,1.86a1.33,1.33,0,0,1-1.25-.62,6.52,6.52,0,0,1-.54-2.12,98.67,98.67,0,0,1,.69-26.25,11.16,11.16,0,0,1,.53-2.34,1.3,1.3,0,0,1,1.25-.78,1.34,1.34,0,0,1,1.07.52,2.05,2.05,0,0,1,.43,1.36s-.28,2.08-.85,6.31a7.12,7.12,0,0,1,5.35-2.31Q366.71,337.56,366.7,350.82Z"/>
      <path class="cls-5" d="M387.38,345.5a3.45,3.45,0,0,1-1.2,2.89,12,12,0,0,1-3.38,1.07,23.46,23.46,0,0,1-9.38.7c0,4.72,1.59,7.09,4.78,7.09a3.7,3.7,0,0,0,2.38-.85,17.11,17.11,0,0,0,1.92-2,1.39,1.39,0,0,1,1.05-.58,1.53,1.53,0,0,1,1.21.59,2.14,2.14,0,0,1,.5,1.46,2.06,2.06,0,0,1-.48,1.31,8.45,8.45,0,0,1-6.71,3.54q-8,0-8-10.4a16.64,16.64,0,0,1,2.53-9.25c1.93-2.95,4.3-4.42,7.14-4.42a6.87,6.87,0,0,1,5.46,2.5A9.44,9.44,0,0,1,387.38,345.5Zm-3.31.22a7.44,7.44,0,0,0-1.21-4.14,3.34,3.34,0,0,0-2.78-1.52,5.08,5.08,0,0,0-3.81,1.75,11,11,0,0,0-2.53,5,19.81,19.81,0,0,0,2.51.15A30.63,30.63,0,0,0,384.07,345.72Z"/>
      <path class="cls-5" d="M406.46,345.5a3.45,3.45,0,0,1-1.2,2.89,12.11,12.11,0,0,1-3.38,1.07,23.46,23.46,0,0,1-9.38.7c0,4.72,1.59,7.09,4.78,7.09a3.71,3.71,0,0,0,2.38-.85,18,18,0,0,0,1.92-2,1.39,1.39,0,0,1,1.05-.58,1.51,1.51,0,0,1,1.2.59,2.15,2.15,0,0,1,.51,1.46,2.06,2.06,0,0,1-.48,1.31,8.46,8.46,0,0,1-6.72,3.54q-8,0-8-10.4a16.56,16.56,0,0,1,2.53-9.25q2.88-4.43,7.13-4.42a6.89,6.89,0,0,1,5.47,2.5A9.44,9.44,0,0,1,406.46,345.5Zm-3.32.22a7.36,7.36,0,0,0-1.21-4.14,3.31,3.31,0,0,0-2.77-1.52,5.1,5.1,0,0,0-3.82,1.75,11.16,11.16,0,0,0-2.53,5,20.09,20.09,0,0,0,2.52.15A30.56,30.56,0,0,0,403.14,345.72Z"/>
      <path class="cls-5" d="M422,341.19c0,1.25-.56,1.88-1.69,1.88a1.07,1.07,0,0,1-.91-.47l-.49-.88a3.15,3.15,0,0,0-2.74-1.51q-3,0-3,3.78a4.47,4.47,0,0,0,.53,2.26,7.38,7.38,0,0,0,1.62,1.82,29.14,29.14,0,0,1,3.28,3.14,6.46,6.46,0,0,1,1.36,4.06,6.94,6.94,0,0,1-1.73,4.9,5.83,5.83,0,0,1-4.51,1.89,6.17,6.17,0,0,1-4.35-1.56,4.92,4.92,0,0,1-1.65-3.8q0-2.31,1.77-2.31c1,0,1.51.86,1.54,2.58a3.39,3.39,0,0,0,2.69,1.61,2.64,2.64,0,0,0,2-.85,3,3,0,0,0,.79-2.14,3.18,3.18,0,0,0-1-2.2s-.83-.76-2.45-2.2a9.18,9.18,0,0,1-3.36-7.05,7.72,7.72,0,0,1,1.79-5.32,6,6,0,0,1,4.69-2,6.17,6.17,0,0,1,4.08,1.41A3.85,3.85,0,0,1,422,341.19Z"/>
      <path class="cls-5" d="M441.07,345.5a3.45,3.45,0,0,1-1.2,2.89,12.23,12.23,0,0,1-3.39,1.07,23.46,23.46,0,0,1-9.38.7c0,4.72,1.6,7.09,4.78,7.09a3.72,3.72,0,0,0,2.39-.85,18.26,18.26,0,0,0,1.91-2,1.42,1.42,0,0,1,1.05-.58,1.53,1.53,0,0,1,1.21.59,2.15,2.15,0,0,1,.51,1.46,2.06,2.06,0,0,1-.48,1.31,8.47,8.47,0,0,1-6.72,3.54q-8,0-8-10.4a16.56,16.56,0,0,1,2.53-9.25q2.88-4.43,7.13-4.42a6.9,6.9,0,0,1,5.47,2.5A9.44,9.44,0,0,1,441.07,345.5Zm-3.32.22a7.44,7.44,0,0,0-1.21-4.14,3.32,3.32,0,0,0-2.77-1.52,5.09,5.09,0,0,0-3.82,1.75,11.06,11.06,0,0,0-2.53,5,20,20,0,0,0,2.51.15A30.63,30.63,0,0,0,437.75,345.72Z"/>
    </g>
    <g>
      <ellipse class="cls-6" cx="308.27" cy="590.79" rx="132.75" ry="116.75"/>
      <g>
        <ellipse class="cls-6" cx="175.17" cy="473.86" rx="77.44" ry="81.64" transform="translate(-318.58 366.9) rotate(-57.49)"/>
        <ellipse class="cls-7" cx="174.6" cy="474.36" rx="46.51" ry="52.59" transform="translate(-242.98 189.52) rotate(-35.49)"/>
      </g>
      <g>
        <ellipse class="cls-6" cx="441.57" cy="474.77" rx="81.64" ry="77.44" transform="translate(-185.97 311.73) rotate(-32.51)"/>
        <ellipse class="cls-7" cx="442.64" cy="473.71" rx="52.59" ry="46.51" transform="translate(-200.05 559.05) rotate(-54.51)"/>
      </g>
      <path d="M316.41,613.69l7.22-8a11,11,0,0,0-8.11-18.33H301.06A11,11,0,0,0,293,605.73l7.22,8A11,11,0,0,0,316.41,613.69Z"/>
      <g>
        <path class="cls-8" d="M292.1,596.76c-1.94-10.57-53.61-10.77-110.08-.42"/>
        <path class="cls-8" d="M296,602.26c-2.9-10.35-54.37-5.77-109.64,9.77"/>
        <path class="cls-8" d="M299.7,608.59C296,598.5,245,607.15,191.17,627"/>
      </g>
      <g>
        <path class="cls-8" d="M324.47,597.2c1.93-10.58,53.6-10.78,110.08-.43"/>
        <path class="cls-8" d="M320.57,602.69c2.91-10.35,54.37-5.76,109.65,9.77"/>
        <path class="cls-8" d="M316.87,609c3.72-10.09,54.66-1.43,108.52,18.43"/>
      </g>
      <path class="cls-9" d="M248,554c8.51-11.93,28.87-13.33,43.37-3"/>
      <path class="cls-9" d="M368.45,554.53c-8.51-11.93-28.87-13.33-43.37-3"/>
      <g>
        <path class="cls-10" d="M326.94,640.33v0c-9.31,10.26-25.95,10.27-37.27,0,10.91-3,18.85-12.54,18.85-23.8H309A25.36,25.36,0,0,0,326.94,640.33Z"/>
        <g>
          <path class="cls-11" d="M308.51,616.62c0,11.26-7.94,20.76-18.85,23.8a27.63,27.63,0,0,1-7.51,1"/>
          <path class="cls-11" d="M309,616.08c0,.17,0,.36,0,.53a25.38,25.38,0,0,0,25.4,24.83"/>
          <path class="cls-11" d="M326.93,640.37c-9.31,10.26-25.95,10.27-37.27,0l-.05,0"/>
        </g>
      </g>
    </g>
  </g>
</svg>
