<svg id="Layer_1" data-name="Layer 1" xmlns="http://www.w3.org/2000/svg" width="942.39" height="530.1" viewBox="0 0 942.39 530.1">
  <defs>
    <style>
      .cls-1 {
        fill: #bf8d6b;
      }

      .cls-2 {
        fill: #ffc69f;
      }

      .cls-3, .cls-5 {
        fill: #f7d574;
      }

      .cls-3, .cls-4, .cls-5 {
        stroke: #f7d574;
      }

      .cls-3, .cls-4, .cls-5, .cls-8 {
        stroke-miterlimit: 10;
      }

      .cls-3 {
        stroke-width: 8px;
      }

      .cls-4, .cls-8 {
        fill: none;
      }

      .cls-6 {
        fill: #ccc;
      }

      .cls-7 {
        fill: #ff7bac;
        opacity: 0.44;
      }

      .cls-8 {
        stroke: #000;
        stroke-width: 0.5px;
      }

      .cls-9 {
        fill: #fff;
      }

      .cls-10 {
        fill: gray;
      }

      .cls-11 {
        fill: #4ab1bc;
      }
    </style>
  </defs>
  <g>
    <rect class="cls-1" width="942.39" height="530.1"/>
    <g>
      <g>
        <path class="cls-2" d="M351.46,48.56q0,3.48-5.92,13.5-11.09,18.87-25.48,31.17l.08.09v5.8c0,2.69,0,6,0,9.81s.05,6.33.05,7.45q0,9.27-.74,12.38-1,4-4.07,4-3.8,0-3.79-7.24,0-.36.17-6.54t.16-12V95.13q-6.52-6.81-14-21.75-8.31-16.6-8.31-24.73,0-5,4.14-5a3.29,3.29,0,0,1,3.38,2A35.49,35.49,0,0,1,298.56,51a66.22,66.22,0,0,0,1.85,7A85.8,85.8,0,0,0,316,86.09Q330.22,73,340.77,52.27c1-2.1,2.1-4.21,3.17-6.31.92-1.54,2-2.32,3.17-2.32a3.94,3.94,0,0,1,3.07,1.46A5.06,5.06,0,0,1,351.46,48.56Z"/>
        <path class="cls-2" d="M396.84,85.9q0,13.63-7.07,21.73t-18.86,8.1q-9.8,0-15.34-7.54T350,87.25q0-14.1,6.7-21.9Q363.3,57.7,375,57.7a19.12,19.12,0,0,1,15.82,7.74Q396.85,73.19,396.84,85.9Zm-8.18.09q0-9.31-4-14.59a13,13,0,0,0-10.95-5.26q-15.49,0-15.5,21,0,9.7,3.38,14.92a10.8,10.8,0,0,0,9.65,5.21q8.14,0,12.79-5.61T388.66,86Z"/>
        <path class="cls-2" d="M448.51,115.08a5.94,5.94,0,0,1-1.19,3.75,3.58,3.58,0,0,1-2.92,1.54q-3.25,0-5.47-11.28-6.94,10.72-16.85,10.72-16.4,0-16.4-29.55a171.66,171.66,0,0,1,1.77-26.39q1.07-7,5.22-7a3.39,3.39,0,0,1,2.59,1.25,4.28,4.28,0,0,1,1.11,2.92q0,1.48-1.2,11.51A159.38,159.38,0,0,0,414,91.23q0,19.86,9.7,19.86a11.42,11.42,0,0,0,10-5.5q3.68-5.49,3.68-15.52V87.34q0-15.54.7-20c.65-4.2,2.19-6.31,4.6-6.31s3.45,1.81,3.45,5.43c0,.65-.11,3-.35,7s-.35,7.75-.35,11.09A140.57,140.57,0,0,0,447,106.47Q448.51,116.48,448.51,115.08Z"/>
        <path class="cls-2" d="M495.08,119.07a16.39,16.39,0,0,1-.37,4.31,2.92,2.92,0,0,1-3.07,2q-3.88,0-4.58-7.14-1.19-12.06-1.19-33,0-23.43.57-28.81c.44-3.92,1.82-5.89,4.13-5.89,2.73,0,4.1,1.88,4.1,5.62q0,1.38-.45,11.06t-.46,17.84q0,7.14.66,18.48T495.08,119.07Z"/>
        <path class="cls-2" d="M550.61,85.9q0,13.63-7.07,21.73t-18.87,8.1q-9.78,0-15.33-7.54t-5.55-20.94q0-14.1,6.7-21.9,6.59-7.65,18.25-7.65a19.14,19.14,0,0,1,15.83,7.74Q550.6,73.19,550.61,85.9Zm-8.18.09q0-9.31-4-14.59a13,13,0,0,0-10.95-5.26q-15.5,0-15.5,21,0,9.7,3.37,14.92a10.83,10.83,0,0,0,9.66,5.21q8.14,0,12.78-5.61T542.43,86Z"/>
        <path class="cls-2" d="M589.49,69.39q0,4.64-4.15,4.64a2.63,2.63,0,0,1-2.26-1.16c-.38-.72-.78-1.44-1.19-2.18A7.85,7.85,0,0,0,575.11,67q-7.27,0-7.28,9.33a11.05,11.05,0,0,0,1.32,5.56,18.3,18.3,0,0,0,4,4.5q6.5,5.63,8.1,7.75a15.93,15.93,0,0,1,3.37,10q0,7.43-4.27,12.08a14.42,14.42,0,0,1-11.14,4.67A15.26,15.26,0,0,1,558.46,117a12.16,12.16,0,0,1-4.07-9.37q0-5.72,4.38-5.71,3.68,0,3.8,6.35c2,2.67,4.18,4,6.64,4a6.51,6.51,0,0,0,5-2.11,7.44,7.44,0,0,0,1.95-5.26,7.87,7.87,0,0,0-2.39-5.43q0-.09-6-5.43-8.31-7.41-8.3-17.39,0-8.11,4.41-13.13a14.71,14.71,0,0,1,11.58-5A15.28,15.28,0,0,1,585.51,62Q589.48,65.31,589.49,69.39Z"/>
        <path class="cls-2" d="M630.31,76.39a4.27,4.27,0,0,1-.91,2.76,2.65,2.65,0,0,1-2.13,1.14,25.16,25.16,0,0,1-4.71-1.81A18.58,18.58,0,0,0,612,76.85a70.49,70.49,0,0,0-1.53,13.87q0,8.13,2.43,12.48c1.62,2.91,3.86,4.36,6.74,4.36a9,9,0,0,0,3.47-1,9.24,9.24,0,0,1,3.11-1c2.19,0,3.29,1.46,3.29,4.36a5.28,5.28,0,0,1-2.72,4.59,13.41,13.41,0,0,1-7.4,1.77Q602,116.38,602,90.17A68.77,68.77,0,0,1,603.14,78c-.77.13-2.43.48-5,1.07a19.41,19.41,0,0,1-3.7.56c-2.94,0-4.4-1.27-4.4-3.81q0-5.19,15.17-6.77,3.12-11.18,7.64-11.18A3,3,0,0,1,615.26,59a4.07,4.07,0,0,1,1,2.76,9.72,9.72,0,0,1-.62,3q-.61,1.83-1.23,3.69Q630.32,69.11,630.31,76.39Z"/>
        <path class="cls-2" d="M649.46,56a75.61,75.61,0,0,1-1.85,9.42,139.12,139.12,0,0,0-3.37,26.3c-.19,4.24-.35,6.69-.49,7.37a2.79,2.79,0,0,1-2.88,2.51q-2.34,0-3.29-3.06-.86-2.88-.86-9.79,0-12.24,4.23-28.2,2.1-8,5.8-8Q649.46,52.55,649.46,56Zm-2.88,58.31a6.06,6.06,0,0,1-1.27,4,4,4,0,0,1-3.21,1.55,4.13,4.13,0,0,1-3.26-1.58,5.88,5.88,0,0,1-1.34-3.94,5.37,5.37,0,0,1,1.32-3.71,4.2,4.2,0,0,1,3.28-1.49,4.07,4.07,0,0,1,3.23,1.44A5.49,5.49,0,0,1,646.58,114.29Z"/>
      </g>
      <g>
        <path class="cls-3" d="M351.46,48.56q0,3.48-5.92,13.5-11.09,18.87-25.48,31.17l.08.09v5.8c0,2.69,0,6,0,9.81s.05,6.33.05,7.45q0,9.27-.74,12.38-1,4-4.07,4-3.8,0-3.79-7.24,0-.36.17-6.54t.16-12V95.13q-6.52-6.81-14-21.75-8.31-16.6-8.31-24.73,0-5,4.14-5a3.29,3.29,0,0,1,3.38,2A35.49,35.49,0,0,1,298.56,51a66.22,66.22,0,0,0,1.85,7A85.8,85.8,0,0,0,316,86.09Q330.22,73,340.77,52.27c1-2.1,2.1-4.21,3.17-6.31.92-1.54,2-2.32,3.17-2.32a3.94,3.94,0,0,1,3.07,1.46A5.06,5.06,0,0,1,351.46,48.56Z"/>
        <path class="cls-3" d="M396.84,85.9q0,13.63-7.07,21.73t-18.86,8.1q-9.8,0-15.34-7.54T350,87.25q0-14.1,6.7-21.9Q363.3,57.7,375,57.7a19.12,19.12,0,0,1,15.82,7.74Q396.85,73.19,396.84,85.9Zm-8.18.09q0-9.31-4-14.59a13,13,0,0,0-10.95-5.26q-15.49,0-15.5,21,0,9.7,3.38,14.92a10.8,10.8,0,0,0,9.65,5.21q8.14,0,12.79-5.61T388.66,86Z"/>
        <path class="cls-3" d="M448.51,115.08a5.94,5.94,0,0,1-1.19,3.75,3.58,3.58,0,0,1-2.92,1.54q-3.25,0-5.47-11.28-6.94,10.72-16.85,10.72-16.4,0-16.4-29.55a171.66,171.66,0,0,1,1.77-26.39q1.07-7,5.22-7a3.39,3.39,0,0,1,2.59,1.25,4.28,4.28,0,0,1,1.11,2.92q0,1.48-1.2,11.51A159.38,159.38,0,0,0,414,91.23q0,19.86,9.7,19.86a11.42,11.42,0,0,0,10-5.5q3.68-5.49,3.68-15.52V87.34q0-15.54.7-20c.65-4.2,2.19-6.31,4.6-6.31s3.45,1.81,3.45,5.43c0,.65-.11,3-.35,7s-.35,7.75-.35,11.09A140.57,140.57,0,0,0,447,106.47Q448.51,116.48,448.51,115.08Z"/>
        <path class="cls-3" d="M495.08,119.07a16.39,16.39,0,0,1-.37,4.31,2.92,2.92,0,0,1-3.07,2q-3.88,0-4.58-7.14-1.19-12.06-1.19-33,0-23.43.57-28.81c.44-3.92,1.82-5.89,4.13-5.89,2.73,0,4.1,1.88,4.1,5.62q0,1.38-.45,11.06t-.46,17.84q0,7.14.66,18.48T495.08,119.07Z"/>
        <path class="cls-3" d="M550.61,85.9q0,13.63-7.07,21.73t-18.87,8.1q-9.78,0-15.33-7.54t-5.55-20.94q0-14.1,6.7-21.9,6.59-7.65,18.25-7.65a19.14,19.14,0,0,1,15.83,7.74Q550.6,73.19,550.61,85.9Zm-8.18.09q0-9.31-4-14.59a13,13,0,0,0-10.95-5.26q-15.5,0-15.5,21,0,9.7,3.37,14.92a10.83,10.83,0,0,0,9.66,5.21q8.14,0,12.78-5.61T542.43,86Z"/>
        <path class="cls-3" d="M589.49,69.39q0,4.64-4.15,4.64a2.63,2.63,0,0,1-2.26-1.16c-.38-.72-.78-1.44-1.19-2.18A7.85,7.85,0,0,0,575.11,67q-7.27,0-7.28,9.33a11.05,11.05,0,0,0,1.32,5.56,18.3,18.3,0,0,0,4,4.5q6.5,5.63,8.1,7.75a15.93,15.93,0,0,1,3.37,10q0,7.43-4.27,12.08a14.42,14.42,0,0,1-11.14,4.67A15.26,15.26,0,0,1,558.46,117a12.16,12.16,0,0,1-4.07-9.37q0-5.72,4.38-5.71,3.68,0,3.8,6.35c2,2.67,4.18,4,6.64,4a6.51,6.51,0,0,0,5-2.11,7.44,7.44,0,0,0,1.95-5.26,7.87,7.87,0,0,0-2.39-5.43q0-.09-6-5.43-8.31-7.41-8.3-17.39,0-8.11,4.41-13.13a14.71,14.71,0,0,1,11.58-5A15.28,15.28,0,0,1,585.51,62Q589.48,65.31,589.49,69.39Z"/>
        <path class="cls-3" d="M630.31,76.39a4.27,4.27,0,0,1-.91,2.76,2.65,2.65,0,0,1-2.13,1.14,25.16,25.16,0,0,1-4.71-1.81A18.58,18.58,0,0,0,612,76.85a70.49,70.49,0,0,0-1.53,13.87q0,8.13,2.43,12.48c1.62,2.91,3.86,4.36,6.74,4.36a9,9,0,0,0,3.47-1,9.24,9.24,0,0,1,3.11-1c2.19,0,3.29,1.46,3.29,4.36a5.28,5.28,0,0,1-2.72,4.59,13.41,13.41,0,0,1-7.4,1.77Q602,116.38,602,90.17A68.77,68.77,0,0,1,603.14,78c-.77.13-2.43.48-5,1.07a19.41,19.41,0,0,1-3.7.56c-2.94,0-4.4-1.27-4.4-3.81q0-5.19,15.17-6.77,3.12-11.18,7.64-11.18A3,3,0,0,1,615.26,59a4.07,4.07,0,0,1,1,2.76,9.72,9.72,0,0,1-.62,3q-.61,1.83-1.23,3.69Q630.32,69.11,630.31,76.39Z"/>
        <path class="cls-3" d="M649.46,56a75.61,75.61,0,0,1-1.85,9.42,139.12,139.12,0,0,0-3.37,26.3c-.19,4.24-.35,6.69-.49,7.37a2.79,2.79,0,0,1-2.88,2.51q-2.34,0-3.29-3.06-.86-2.88-.86-9.79,0-12.24,4.23-28.2,2.1-8,5.8-8Q649.46,52.55,649.46,56Zm-2.88,58.31a6.06,6.06,0,0,1-1.27,4,4,4,0,0,1-3.21,1.55,4.13,4.13,0,0,1-3.26-1.58,5.88,5.88,0,0,1-1.34-3.94,5.37,5.37,0,0,1,1.32-3.71,4.2,4.2,0,0,1,3.28-1.49,4.07,4.07,0,0,1,3.23,1.44A5.49,5.49,0,0,1,646.58,114.29Z"/>
      </g>
      <g>
        <path class="cls-4" d="M351.46,48.56q0,3.48-5.92,13.5-11.09,18.87-25.48,31.17l.08.09v5.8c0,2.69,0,6,0,9.81s.05,6.33.05,7.45q0,9.27-.74,12.38-1,4-4.07,4-3.8,0-3.79-7.24,0-.36.17-6.54t.16-12V95.13q-6.52-6.81-14-21.75-8.31-16.6-8.31-24.73,0-5,4.14-5a3.29,3.29,0,0,1,3.38,2A35.49,35.49,0,0,1,298.56,51a66.22,66.22,0,0,0,1.85,7A85.8,85.8,0,0,0,316,86.09Q330.22,73,340.77,52.27c1-2.1,2.1-4.21,3.17-6.31.92-1.54,2-2.32,3.17-2.32a3.94,3.94,0,0,1,3.07,1.46A5.06,5.06,0,0,1,351.46,48.56Z"/>
        <path class="cls-4" d="M396.84,85.9q0,13.63-7.07,21.73t-18.86,8.1q-9.8,0-15.34-7.54T350,87.25q0-14.1,6.7-21.9Q363.3,57.7,375,57.7a19.12,19.12,0,0,1,15.82,7.74Q396.85,73.19,396.84,85.9Zm-8.18.09q0-9.31-4-14.59a13,13,0,0,0-10.95-5.26q-15.49,0-15.5,21,0,9.7,3.38,14.92a10.8,10.8,0,0,0,9.65,5.21q8.14,0,12.79-5.61T388.66,86Z"/>
        <path class="cls-4" d="M448.51,115.08a5.94,5.94,0,0,1-1.19,3.75,3.58,3.58,0,0,1-2.92,1.54q-3.25,0-5.47-11.28-6.94,10.72-16.85,10.72-16.4,0-16.4-29.55a171.66,171.66,0,0,1,1.77-26.39q1.07-7,5.22-7a3.39,3.39,0,0,1,2.59,1.25,4.28,4.28,0,0,1,1.11,2.92q0,1.48-1.2,11.51A159.38,159.38,0,0,0,414,91.23q0,19.86,9.7,19.86a11.42,11.42,0,0,0,10-5.5q3.68-5.49,3.68-15.52V87.34q0-15.54.7-20c.65-4.2,2.19-6.31,4.6-6.31s3.45,1.81,3.45,5.43c0,.65-.11,3-.35,7s-.35,7.75-.35,11.09A140.57,140.57,0,0,0,447,106.47Q448.51,116.48,448.51,115.08Z"/>
        <path class="cls-4" d="M495.08,119.07a16.39,16.39,0,0,1-.37,4.31,2.92,2.92,0,0,1-3.07,2q-3.88,0-4.58-7.14-1.19-12.06-1.19-33,0-23.43.57-28.81c.44-3.92,1.82-5.89,4.13-5.89,2.73,0,4.1,1.88,4.1,5.62q0,1.38-.45,11.06t-.46,17.84q0,7.14.66,18.48T495.08,119.07Z"/>
        <path class="cls-4" d="M550.61,85.9q0,13.63-7.07,21.73t-18.87,8.1q-9.78,0-15.33-7.54t-5.55-20.94q0-14.1,6.7-21.9,6.59-7.65,18.25-7.65a19.14,19.14,0,0,1,15.83,7.74Q550.6,73.19,550.61,85.9Zm-8.18.09q0-9.31-4-14.59a13,13,0,0,0-10.95-5.26q-15.5,0-15.5,21,0,9.7,3.37,14.92a10.83,10.83,0,0,0,9.66,5.21q8.14,0,12.78-5.61T542.43,86Z"/>
        <path class="cls-4" d="M589.49,69.39q0,4.64-4.15,4.64a2.63,2.63,0,0,1-2.26-1.16c-.38-.72-.78-1.44-1.19-2.18A7.85,7.85,0,0,0,575.11,67q-7.27,0-7.28,9.33a11.05,11.05,0,0,0,1.32,5.56,18.3,18.3,0,0,0,4,4.5q6.5,5.63,8.1,7.75a15.93,15.93,0,0,1,3.37,10q0,7.43-4.27,12.08a14.42,14.42,0,0,1-11.14,4.67A15.26,15.26,0,0,1,558.46,117a12.16,12.16,0,0,1-4.07-9.37q0-5.72,4.38-5.71,3.68,0,3.8,6.35c2,2.67,4.18,4,6.64,4a6.51,6.51,0,0,0,5-2.11,7.44,7.44,0,0,0,1.95-5.26,7.87,7.87,0,0,0-2.39-5.43q0-.09-6-5.43-8.31-7.41-8.3-17.39,0-8.11,4.41-13.13a14.71,14.71,0,0,1,11.58-5A15.28,15.28,0,0,1,585.51,62Q589.48,65.31,589.49,69.39Z"/>
        <path class="cls-4" d="M630.31,76.39a4.27,4.27,0,0,1-.91,2.76,2.65,2.65,0,0,1-2.13,1.14,25.16,25.16,0,0,1-4.71-1.81A18.58,18.58,0,0,0,612,76.85a70.49,70.49,0,0,0-1.53,13.87q0,8.13,2.43,12.48c1.62,2.91,3.86,4.36,6.74,4.36a9,9,0,0,0,3.47-1,9.24,9.24,0,0,1,3.11-1c2.19,0,3.29,1.46,3.29,4.36a5.28,5.28,0,0,1-2.72,4.59,13.41,13.41,0,0,1-7.4,1.77Q602,116.38,602,90.17A68.77,68.77,0,0,1,603.14,78c-.77.13-2.43.48-5,1.07a19.41,19.41,0,0,1-3.7.56c-2.94,0-4.4-1.27-4.4-3.81q0-5.19,15.17-6.77,3.12-11.18,7.64-11.18A3,3,0,0,1,615.26,59a4.07,4.07,0,0,1,1,2.76,9.72,9.72,0,0,1-.62,3q-.61,1.83-1.23,3.69Q630.32,69.11,630.31,76.39Z"/>
        <path class="cls-4" d="M649.46,56a75.61,75.61,0,0,1-1.85,9.42,139.12,139.12,0,0,0-3.37,26.3c-.19,4.24-.35,6.69-.49,7.37a2.79,2.79,0,0,1-2.88,2.51q-2.34,0-3.29-3.06-.86-2.88-.86-9.79,0-12.24,4.23-28.2,2.1-8,5.8-8Q649.46,52.55,649.46,56Zm-2.88,58.31a6.06,6.06,0,0,1-1.27,4,4,4,0,0,1-3.21,1.55,4.13,4.13,0,0,1-3.26-1.58,5.88,5.88,0,0,1-1.34-3.94,5.37,5.37,0,0,1,1.32-3.71,4.2,4.2,0,0,1,3.28-1.49,4.07,4.07,0,0,1,3.23,1.44A5.49,5.49,0,0,1,646.58,114.29Z"/>
      </g>
    </g>
    <g>
      <path class="cls-5" d="M149.37,214.76q0,8-3.82,12.41T135,231.62a11.9,11.9,0,0,1-9.66-4.58q-3.69-4.5-3.69-12.06,0-8,3.24-12.9a11.46,11.46,0,0,1,10.18-5.3,12.71,12.71,0,0,1,10.48,4.72Q149.37,206.23,149.37,214.76Zm-3.52.11q0-6.93-2.77-10.61a9.32,9.32,0,0,0-7.91-3.68,8.47,8.47,0,0,0-7.39,3.59q-2.53,3.6-2.54,10.48,0,6,2.82,9.65a8.85,8.85,0,0,0,7.31,3.62A9.36,9.36,0,0,0,143,224.5C144.9,222.15,145.85,219,145.85,214.87Z"/>
      <path class="cls-5" d="M169.91,216.07a32.78,32.78,0,0,1-.91,8.62c-.58,2.05-1.31,3.08-2.19,3.08a1.68,1.68,0,0,1-1.26-.52,1.58,1.58,0,0,1-.52-1.17,47.16,47.16,0,0,0,1.57-10q0-5.08-1-7.4a3.57,3.57,0,0,0-3.46-2.39,5.52,5.52,0,0,0-2.58.69,5.8,5.8,0,0,0-2,1.7,6.74,6.74,0,0,0-.88,3.81v1.21q0,4.78.33,9.29c.21,3,.32,4.41.32,4.21q0,1.86-1.53,1.86a1.33,1.33,0,0,1-1.25-.62,6.52,6.52,0,0,1-.54-2.13,96.71,96.71,0,0,1-.56-11.65,98.83,98.83,0,0,1,1.25-14.6,11,11,0,0,1,.53-2.33,1.31,1.31,0,0,1,1.25-.79,1.35,1.35,0,0,1,1.07.53,2,2,0,0,1,.43,1.35s-.28,2.08-.85,6.32a7.12,7.12,0,0,1,5.35-2.31Q169.92,202.82,169.91,216.07Z"/>
      <path class="cls-5" d="M200.85,214a31.6,31.6,0,0,1-1.29,8.89c-.53,1.83-1.19,2.74-2,2.74a1.5,1.5,0,0,1-1.52-1.5c0-.11.26-1.26.8-3.43a27.36,27.36,0,0,0,.8-6.48c0-4.88-1.36-7.31-4.06-7.31a4.55,4.55,0,0,0-3.79,1.93,8.5,8.5,0,0,0-1.52,5.27,38.26,38.26,0,0,0,.46,5.08,37.76,37.76,0,0,1,.46,4.66c0,2.15-.55,3.23-1.63,3.23a1.38,1.38,0,0,1-1.15-.41,3.13,3.13,0,0,1-.42-1.32c0-.77-.15-3-.42-6.73-.45-5.19-.68-8.87-.68-11.06q0-5.68,2-5.69a1.46,1.46,0,0,1,1.08.44,1.37,1.37,0,0,1,.45,1,10,10,0,0,1-.2,1.56,12,12,0,0,0-.2,1.94v.43q2.47-3.78,6-3.78a5.75,5.75,0,0,1,5.06,2.72Q200.85,208.95,200.85,214Z"/>
      <path class="cls-5" d="M222.83,213.14c0,3.69-1,6.62-2.86,8.81a9.65,9.65,0,0,1-7.65,3.28,7.3,7.3,0,0,1-6.22-3q-2.25-3.06-2.25-8.49,0-5.72,2.72-8.88a9.23,9.23,0,0,1,7.4-3.1,7.75,7.75,0,0,1,6.41,3.14A13.06,13.06,0,0,1,222.83,213.14Zm-3.31,0a9.62,9.62,0,0,0-1.63-5.92,5.27,5.27,0,0,0-4.44-2.13q-6.28,0-6.28,8.52a11,11,0,0,0,1.37,6,4.38,4.38,0,0,0,3.91,2.12,6.35,6.35,0,0,0,5.18-2.28A9.64,9.64,0,0,0,219.52,213.18Z"/>
      <path class="cls-5" d="M231.83,223.11a9.56,9.56,0,0,1-1.14,4.74c-.66,1.19-1.31,1.78-2,1.78s-1.11-.4-1.11-1.2a6.36,6.36,0,0,1,.79-2,6.24,6.24,0,0,0,.8-2.9c0-.05,0-.13,0-.24s0-.2,0-.27a3,3,0,0,1-1.22.28c-1.3,0-1.94-.84-1.94-2.54a2.27,2.27,0,0,1,2.6-2.55,2.71,2.71,0,0,1,2.33,1.31A6.19,6.19,0,0,1,231.83,223.11Z"/>
      <path class="cls-5" d="M277.35,217.26a99.16,99.16,0,0,1-.58,11.83c-.24,1.79-.85,2.69-1.85,2.69s-1.67-.69-1.67-2.07c0-.07.07-.76.2-2.09.15-1.57.28-3.15.38-4.76.14-2.38.2-4.87.2-7.48a113.43,113.43,0,0,0-1-14.44q-4,4.49-7.1,14c-.41,1.33-.82,2.66-1.23,4-.4,1-.95,1.47-1.66,1.47a1.62,1.62,0,0,1-1.52-1.15c-.12-.27-.44-1.4-1-3.36a38.38,38.38,0,0,0-7.71-14.67Q251,208,251,219.72c0,1.13,0,2.52.12,4.18s.13,2.75.13,3.29c0,1.9-.56,2.86-1.68,2.86-.88,0-1.44-.61-1.69-1.81a44,44,0,0,1-.25-6,111.14,111.14,0,0,1,1.64-21,16.25,16.25,0,0,1,1.15-4,1.87,1.87,0,0,1,1.65-1.2c.72,0,1.55.56,2.49,1.69a59.63,59.63,0,0,1,4.51,6.07,42.57,42.57,0,0,1,4.2,9,62.61,62.61,0,0,1,6.53-13.3q2.86-4.47,4.56-4.47a1.17,1.17,0,0,1,1.08.71,9.15,9.15,0,0,1,.65,2.26Q277.36,204.11,277.35,217.26Z"/>
      <path class="cls-5" d="M287,205.47a140,140,0,0,1-.72,16.75,11.92,11.92,0,0,1-.63,2.94,1.55,1.55,0,0,1-2.58.5,1.73,1.73,0,0,1-.47-1.2c0,.06.09-.37.27-1.3s.38-2.25.51-3.59q.27-2.85.27-6.39c0-1,0-2.11,0-3.25s0-1.77,0-1.87a10.89,10.89,0,0,1,.39-3.53,1.48,1.48,0,0,1,1.5-1.09C286.52,203.44,287,204.12,287,205.47Zm.72-7.16c0,1.78-.78,2.67-2.32,2.67a2,2,0,0,1-1.58-.74,2.64,2.64,0,0,1-.64-1.77,2.79,2.79,0,0,1,.7-1.91,2.2,2.2,0,0,1,1.72-.79,1.91,1.91,0,0,1,1.53.69A2.79,2.79,0,0,1,287.75,198.31Z"/>
      <path class="cls-5" d="M306.57,215.42a46.62,46.62,0,0,1-1.33,10.77c-.44,1.88-1.11,2.82-2,2.82s-1.35-.58-1.35-1.73a4,4,0,0,1,0-.58,6.64,6.64,0,0,1-3.51,1,6.35,6.35,0,0,1-5-2,8.38,8.38,0,0,1-1.81-5.73,8.58,8.58,0,0,1,2-5.93,6.62,6.62,0,0,1,5.19-2.2,6.16,6.16,0,0,1,4.74,2.13q-.32-7.42-4.88-7.43a4.26,4.26,0,0,0-2.17.69,4.33,4.33,0,0,1-1.51.69,1.33,1.33,0,0,1-1-.53,1.79,1.79,0,0,1-.45-1.2,2.64,2.64,0,0,1,1.45-2.09,6.53,6.53,0,0,1,3.7-1Q306.57,203,306.57,215.42Zm-3.38,4.42q0-4.78-4-4.78-4.36,0-4.37,4.74t4.34,4.77a3.64,3.64,0,0,0,2.94-1.25A5.19,5.19,0,0,0,303.19,219.84Z"/>
      <path class="cls-5" d="M344.78,214.61q0,5.85-1.85,9.06a5.47,5.47,0,0,1-4.93,3.1q-3.87,0-5.53-4.47c-1.33,2.29-2.78,3.44-4.37,3.44q-3.18,0-5.33-3.91-2.28-4.16-2.28-11,0-9.37,2.44-9.37a1.5,1.5,0,0,1,1.15.56,1.84,1.84,0,0,1,.5,1.3c0-.08-.11.73-.35,2.45a38.88,38.88,0,0,0-.36,5.38,18.31,18.31,0,0,0,1.33,7.55c.82,1.81,1.81,2.71,3,2.71a2.48,2.48,0,0,0,2.09-1.55,8.19,8.19,0,0,0,.87-4c0-.89-.07-2.11-.22-3.65s-.23-2.63-.23-3.27c0-1.69.62-2.54,1.85-2.54s1.88.91,1.88,2.73c0,.27,0,.75,0,1.43s0,1.2,0,1.57a63.29,63.29,0,0,0,.21,6.76c.44,2.83,1.5,4.24,3.2,4.24a3,3,0,0,0,2.66-1.94,12.34,12.34,0,0,0,1-5.48,43.54,43.54,0,0,0-.75-8c-.5-2.68-.75-4.07-.75-4.19,0-1,.47-1.5,1.4-1.5s1.89,1.07,2.5,3.21A36.27,36.27,0,0,1,344.78,214.61Z"/>
      <path class="cls-5" d="M352.49,205.47a142.7,142.7,0,0,1-.71,16.75,11.34,11.34,0,0,1-.64,2.94,1.55,1.55,0,0,1-2.58.5,1.73,1.73,0,0,1-.47-1.2c0,.06.09-.37.27-1.3s.38-2.25.52-3.59q.25-2.85.26-6.39c0-1,0-2.11,0-3.25s0-1.77,0-1.87a11,11,0,0,1,.38-3.53,1.49,1.49,0,0,1,1.5-1.09C352,203.44,352.49,204.12,352.49,205.47Zm.72-7.16c0,1.78-.77,2.67-2.32,2.67a2,2,0,0,1-1.57-.74,2.59,2.59,0,0,1-.64-1.77,2.75,2.75,0,0,1,.7-1.91,2.18,2.18,0,0,1,1.71-.79,1.92,1.92,0,0,1,1.54.69A2.84,2.84,0,0,1,353.21,198.31Z"/>
      <path class="cls-5" d="M362.19,226.59a6.63,6.63,0,0,1-.15,1.74,1.18,1.18,0,0,1-1.25.83c-1,0-1.66-1-1.85-2.89q-.48-4.89-.48-13.39,0-9.49.23-11.68c.18-1.59.73-2.39,1.67-2.39,1.11,0,1.66.76,1.66,2.28,0,.37-.06,1.87-.18,4.48s-.18,5-.18,7.23q0,2.89.26,7.5T362.19,226.59Z"/>
      <path class="cls-5" d="M371.34,226.59a6.63,6.63,0,0,1-.15,1.74,1.18,1.18,0,0,1-1.25.83c-1.05,0-1.67-1-1.85-2.89q-.48-4.89-.49-13.39,0-9.49.24-11.68c.17-1.59.73-2.39,1.67-2.39,1.11,0,1.66.76,1.66,2.28,0,.37-.06,1.87-.18,4.48s-.19,5-.19,7.23q0,2.89.27,7.5T371.34,226.59Z"/>
      <path class="cls-5" d="M139.47,262.29a32.75,32.75,0,0,1-.91,8.61C138,273,137.25,274,136.37,274a1.68,1.68,0,0,1-1.26-.52,1.58,1.58,0,0,1-.52-1.17,47.85,47.85,0,0,0,1.57-10q0-5.1-1-7.41a3.59,3.59,0,0,0-3.46-2.39,5.39,5.39,0,0,0-2.58.7,5.68,5.68,0,0,0-2,1.69,6.66,6.66,0,0,0-.88,3.81v1.21q0,4.78.33,9.3c.21,3,.32,4.4.32,4.2q0,1.86-1.53,1.86a1.33,1.33,0,0,1-1.25-.62,6.52,6.52,0,0,1-.54-2.13,98.61,98.61,0,0,1,.69-26.24,11,11,0,0,1,.53-2.34,1.31,1.31,0,0,1,1.25-.79,1.35,1.35,0,0,1,1.07.53,2,2,0,0,1,.43,1.35s-.28,2.09-.85,6.32A7.12,7.12,0,0,1,132,249Q139.48,249,139.47,262.29Z"/>
      <path class="cls-5" d="M158.27,261.63a46.66,46.66,0,0,1-1.34,10.77q-.66,2.82-2,2.82c-.9,0-1.35-.57-1.35-1.73a2.77,2.77,0,0,1,0-.58,6.7,6.7,0,0,1-3.52,1,6.33,6.33,0,0,1-5-2.05,8.33,8.33,0,0,1-1.81-5.73,8.6,8.6,0,0,1,2-5.93,6.59,6.59,0,0,1,5.18-2.19,6.16,6.16,0,0,1,4.75,2.12q-.31-7.43-4.88-7.43a4.29,4.29,0,0,0-2.18.69,4.25,4.25,0,0,1-1.51.69,1.33,1.33,0,0,1-1-.53,1.79,1.79,0,0,1-.45-1.2,2.62,2.62,0,0,1,1.45-2.09,6.48,6.48,0,0,1,3.7-1Q158.27,249.26,158.27,261.63Zm-3.38,4.42q0-4.79-4-4.78-4.36,0-4.36,4.74t4.33,4.77a3.66,3.66,0,0,0,2.95-1.25A5.19,5.19,0,0,0,154.89,266.05Z"/>
      <path class="cls-5" d="M177.61,249.42a25.75,25.75,0,0,1-.71,4.82c-.53,2.38-.92,4.05-1.19,5a65.53,65.53,0,0,1-3.08,8.54c-1.41,3.24-2.62,4.87-3.62,4.87-.63,0-1.12-.71-1.46-2.11-.46-1.94-.91-3.88-1.37-5.83a83.37,83.37,0,0,0-5-13.91q-.36-.66-.69-1.32a2.57,2.57,0,0,1-.35-1.15c0-1.12.5-1.69,1.5-1.69s2.37,1.65,3.72,5a121.93,121.93,0,0,1,4.52,14.81,62,62,0,0,0,4.26-15.79c.26-1.69.44-2.66.51-2.9a1.29,1.29,0,0,1,1.3-1C177.06,246.72,177.61,247.62,177.61,249.42Z"/>
      <path class="cls-5" d="M197.14,257a3.46,3.46,0,0,1-1.2,2.9,12.11,12.11,0,0,1-3.38,1.07,23.46,23.46,0,0,1-9.38.7c0,4.72,1.59,7.09,4.78,7.09a3.75,3.75,0,0,0,2.38-.85,18,18,0,0,0,1.92-2,1.39,1.39,0,0,1,1.05-.58,1.51,1.51,0,0,1,1.2.59,2.15,2.15,0,0,1,.51,1.46,2.06,2.06,0,0,1-.48,1.31,8.45,8.45,0,0,1-6.71,3.54q-8,0-8-10.4a16.56,16.56,0,0,1,2.53-9.25q2.88-4.42,7.13-4.42a6.89,6.89,0,0,1,5.47,2.5A9.41,9.41,0,0,1,197.14,257Zm-3.32.23a7.44,7.44,0,0,0-1.2-4.14,3.34,3.34,0,0,0-2.78-1.52,5.07,5.07,0,0,0-3.81,1.75,11,11,0,0,0-2.54,5,20.09,20.09,0,0,0,2.52.15A30.56,30.56,0,0,0,193.82,257.19Z"/>
      <path class="cls-5" d="M223.91,255.5a1.77,1.77,0,0,1-.36,1.12,1.12,1.12,0,0,1-.87.46,10.18,10.18,0,0,1-1.91-.74,8.08,8.08,0,0,0-3.24-.73,7.9,7.9,0,0,0-1.05.08,28.64,28.64,0,0,0-.61,5.62,10.54,10.54,0,0,0,1,5.06,3,3,0,0,0,2.73,1.76,3.63,3.63,0,0,0,1.41-.38,3.62,3.62,0,0,1,1.26-.39c.89,0,1.33.59,1.33,1.77a2.14,2.14,0,0,1-1.1,1.86,5.41,5.41,0,0,1-3,.72q-7.06,0-7.06-10.63a28.13,28.13,0,0,1,.48-4.92c-.31,0-1,.19-2,.43a7.53,7.53,0,0,1-1.49.22c-1.19,0-1.79-.51-1.79-1.54,0-1.4,2.05-2.32,6.15-2.74.84-3,1.88-4.53,3.1-4.53a1.23,1.23,0,0,1,1,.46,1.66,1.66,0,0,1,.4,1.11,4.29,4.29,0,0,1-.25,1.24c-.17.49-.34,1-.5,1.49C221.77,252.46,223.91,253.53,223.91,255.5Z"/>
      <path class="cls-5" d="M244.13,259.35a12.92,12.92,0,0,1-2.87,8.81,9.64,9.64,0,0,1-7.65,3.28,7.27,7.27,0,0,1-6.21-3.05q-2.25-3.06-2.25-8.49,0-5.72,2.71-8.88a9.24,9.24,0,0,1,7.4-3.1,7.78,7.78,0,0,1,6.42,3.14A13.12,13.12,0,0,1,244.13,259.35Zm-3.32,0a9.5,9.5,0,0,0-1.63-5.91,5.26,5.26,0,0,0-4.44-2.14q-6.27,0-6.28,8.52a11.17,11.17,0,0,0,1.37,6.05,4.39,4.39,0,0,0,3.92,2.11,6.39,6.39,0,0,0,5.18-2.27A9.74,9.74,0,0,0,240.81,259.39Z"/>
      <path class="cls-5" d="M273.57,248a1.3,1.3,0,0,1-1.47,1.47c-.13,0-.42,0-.85-.08l-1.38-.13a9.2,9.2,0,0,1,2,5.94,7.52,7.52,0,0,1-2.09,5.5,7.23,7.23,0,0,1-5.44,2.16c-.5,0-1.3-.07-2.4-.19a9.09,9.09,0,0,0-2.25,2.86,40.85,40.85,0,0,1,4.3-.43q6.84,0,6.83,5.32a5.87,5.87,0,0,1-2.57,5.05,12.25,12.25,0,0,1-7.19,1.83,7.7,7.7,0,0,1-4.63-1.26,3.56,3.56,0,0,1-1.62-3,1.47,1.47,0,0,1,.49-1.11,1.56,1.56,0,0,1,1.13-.47,1.21,1.21,0,0,1,.86.43l.84,1a4.07,4.07,0,0,0,3.1.92,9.83,9.83,0,0,0,4.56-.87,2.51,2.51,0,0,0,1.58-2.29c0-1.42-1.45-2.12-4.36-2.12a23,23,0,0,0-2.72.21,20.89,20.89,0,0,1-2.36.22c-1.08,0-1.62-.43-1.62-1.28,0-1.19,1-3.22,3.12-6.07a7.13,7.13,0,0,1-2.57-5.91,8.86,8.86,0,0,1,2.27-6.11,7.16,7.16,0,0,1,5.55-2.54,7.74,7.74,0,0,1,1.6.19c.36-.61,1.54-.92,3.54-.92C272.32,246.38,273.57,246.93,273.57,248Zm-4.85,6.85a4.89,4.89,0,0,0-1.11-3.35,3.7,3.7,0,0,0-2.92-1.26,4.08,4.08,0,0,0-3.27,1.51,6,6,0,0,0-1.27,3.94q0,3.93,4.17,3.93a4.18,4.18,0,0,0,3.25-1.25A5,5,0,0,0,268.72,254.88Z"/>
      <path class="cls-5" d="M293.28,259.35a12.92,12.92,0,0,1-2.87,8.81,9.64,9.64,0,0,1-7.65,3.28,7.27,7.27,0,0,1-6.21-3.05q-2.25-3.06-2.25-8.49c0-3.81.9-6.77,2.72-8.88a9.21,9.21,0,0,1,7.39-3.1,7.77,7.77,0,0,1,6.42,3.14A13.12,13.12,0,0,1,293.28,259.35Zm-3.32,0a9.56,9.56,0,0,0-1.62-5.91,5.28,5.28,0,0,0-4.44-2.14q-6.28,0-6.28,8.52a11.18,11.18,0,0,0,1.36,6.05A4.39,4.39,0,0,0,282.9,268a6.38,6.38,0,0,0,5.18-2.27A9.74,9.74,0,0,0,290,259.39Z"/>
      <path class="cls-5" d="M139.47,308.5a32.75,32.75,0,0,1-.91,8.61c-.58,2.05-1.31,3.08-2.19,3.08a1.71,1.71,0,0,1-1.26-.51,1.62,1.62,0,0,1-.52-1.18,47.76,47.76,0,0,0,1.57-10q0-5.1-1-7.41a3.59,3.59,0,0,0-3.46-2.39,5.39,5.39,0,0,0-2.58.7,5.68,5.68,0,0,0-2,1.69,6.68,6.68,0,0,0-.88,3.82v1.2q0,4.8.33,9.3c.21,3,.32,4.4.32,4.2q0,1.86-1.53,1.86a1.33,1.33,0,0,1-1.25-.62,6.52,6.52,0,0,1-.54-2.12,98.67,98.67,0,0,1,.69-26.25,11.16,11.16,0,0,1,.53-2.34,1.3,1.3,0,0,1,1.25-.78,1.34,1.34,0,0,1,1.07.52,2.05,2.05,0,0,1,.43,1.36s-.28,2.08-.85,6.31a7.12,7.12,0,0,1,5.35-2.31Q139.48,295.24,139.47,308.5Z"/>
      <path class="cls-5" d="M161.78,317.39a2.4,2.4,0,0,1-.48,1.52,1.44,1.44,0,0,1-1.18.62q-1.32,0-2.22-4.56c-1.88,2.89-4.15,4.34-6.83,4.34q-6.65,0-6.65-12a69.44,69.44,0,0,1,.72-10.7c.29-1.88,1-2.82,2.11-2.82a1.36,1.36,0,0,1,1.05.51,1.72,1.72,0,0,1,.45,1.18c0,.41-.16,2-.48,4.67a64.47,64.47,0,0,0-.48,7.56q0,8,3.93,8a4.63,4.63,0,0,0,4-2.22,11.31,11.31,0,0,0,1.49-6.29v-1.11a71,71,0,0,1,.28-8.09c.27-1.7.89-2.56,1.87-2.56s1.4.74,1.4,2.2c0,.27-.05,1.22-.14,2.86s-.14,3.14-.14,4.5a57.69,57.69,0,0,0,.63,8.84C161.57,316.6,161.78,317.77,161.78,317.39Z"/>
      <path class="cls-5" d="M182.19,306.45a31.55,31.55,0,0,1-1.29,8.89c-.53,1.83-1.19,2.75-2,2.75a1.47,1.47,0,0,1-1.08-.45,1.41,1.41,0,0,1-.45-1.06c0-.11.27-1.25.8-3.43a26.73,26.73,0,0,0,.8-6.48q0-7.31-4.05-7.31a4.53,4.53,0,0,0-3.79,1.94,8.45,8.45,0,0,0-1.52,5.26,38.39,38.39,0,0,0,.46,5.09,39.58,39.58,0,0,1,.46,4.65c0,2.16-.55,3.23-1.64,3.23a1.38,1.38,0,0,1-1.15-.41,3.31,3.31,0,0,1-.41-1.32c0-.77-.15-3-.42-6.73q-.68-7.79-.68-11.05,0-5.7,1.95-5.7a1.5,1.5,0,0,1,1.08.44,1.41,1.41,0,0,1,.45,1,11.88,11.88,0,0,1-.2,1.56,11.91,11.91,0,0,0-.2,1.93v.44q2.46-3.78,6-3.78a5.74,5.74,0,0,1,5.06,2.71C181.59,300.47,182.19,303.06,182.19,306.45Z"/>
      <path class="cls-5" d="M202.44,294.24a1.3,1.3,0,0,1-1.47,1.47c-.13,0-.42,0-.85-.07s-1-.11-1.38-.14a9.21,9.21,0,0,1,2,5.95,7.55,7.55,0,0,1-2.09,5.5,7.25,7.25,0,0,1-5.44,2.15,22.66,22.66,0,0,1-2.4-.19,9.21,9.21,0,0,0-2.25,2.86,40.85,40.85,0,0,1,4.3-.43q6.84,0,6.83,5.32a5.87,5.87,0,0,1-2.57,5,12.25,12.25,0,0,1-7.19,1.83,7.7,7.7,0,0,1-4.63-1.26,3.56,3.56,0,0,1-1.62-3,1.47,1.47,0,0,1,.49-1.11,1.58,1.58,0,0,1,1.13-.47,1.25,1.25,0,0,1,.87.43c.27.34.55.67.83,1a4.08,4.08,0,0,0,3.1.92,9.83,9.83,0,0,0,4.56-.87,2.52,2.52,0,0,0,1.59-2.29c0-1.42-1.46-2.12-4.37-2.12a23,23,0,0,0-2.72.21,20.89,20.89,0,0,1-2.36.22c-1.08,0-1.62-.43-1.62-1.28,0-1.19,1-3.22,3.12-6.07a7.13,7.13,0,0,1-2.57-5.91,8.86,8.86,0,0,1,2.27-6.11,7.16,7.16,0,0,1,5.55-2.54,8.41,8.41,0,0,1,1.6.19c.36-.61,1.55-.92,3.54-.92C201.19,292.59,202.44,293.14,202.44,294.24Zm-4.85,6.85a4.89,4.89,0,0,0-1.11-3.35,3.7,3.7,0,0,0-2.92-1.26,4.07,4.07,0,0,0-3.27,1.52,5.93,5.93,0,0,0-1.27,3.93q0,3.93,4.17,3.93a4.18,4.18,0,0,0,3.25-1.25A5,5,0,0,0,197.59,301.09Z"/>
      <path class="cls-5" d="M216.9,300.49a1.93,1.93,0,0,1-.38,1.2,1.13,1.13,0,0,1-.92.49,2.25,2.25,0,0,1-1.18-.66,2.34,2.34,0,0,0-1.42-.66,3,3,0,0,0-2.57,1.57,8,8,0,0,0-1,4.24v2.47a22.52,22.52,0,0,1-.76,6.54c-.48,1.52-1.1,2.27-1.85,2.27-1,0-1.52-.56-1.52-1.69a23.56,23.56,0,0,1,.47-2.49,19.13,19.13,0,0,0,.46-4,22,22,0,0,0-1.33-8.42c0-.07-.33-.7-.92-1.9a3.68,3.68,0,0,1-.45-1.47,1.62,1.62,0,0,1,.52-1.13,1.56,1.56,0,0,1,1.12-.53q1.76,0,2.93,4.89c1.15-2.5,2.84-3.76,5-3.76a4,4,0,0,1,2.7.88A2.76,2.76,0,0,1,216.9,300.49Z"/>
      <path class="cls-5" d="M231.86,295.32a34.3,34.3,0,0,1-1.7,8.19,88.29,88.29,0,0,1-5.63,13.64q-.81,1.86-1.65,3.72c-.48,1-1,1.45-1.7,1.45a1.38,1.38,0,0,1-1.06-.57,1.9,1.9,0,0,1-.47-1.24,10.89,10.89,0,0,1,1.47-4.08l3.47-6.84a65.73,65.73,0,0,1-5.16-9.23,14.63,14.63,0,0,1-1.51-4.61c0-1.13.47-1.69,1.43-1.69.6,0,1.2.59,1.8,1.76s1.09,2.64,1.62,3.95a43.49,43.49,0,0,0,3.29,6.42,54.08,54.08,0,0,0,2-7.49c.52-2.69.79-4.07.8-4.12.32-1,.83-1.54,1.51-1.54Q231.86,293,231.86,295.32Z"/>
      <path class="cls-5" d="M261.24,294.47a1.79,1.79,0,0,1-.45,1.19,1.31,1.31,0,0,1-1,.54,14.62,14.62,0,0,1-1.82-.87,7.59,7.59,0,0,0-3.48-.86,4,4,0,0,0-3.95,2.61,11.51,11.51,0,0,0-.65,3.73l-.13,5.26a40.43,40.43,0,0,1,6,.83c1.29.37,1.93,1,1.93,1.86a2,2,0,0,1-.34,1.21,1,1,0,0,1-.79.48c-.18,0-.94-.13-2.3-.39a44,44,0,0,0-4.51-.64q-.26,8.46-.52,10.43-.45,3.39-1.95,3.39c-1.07,0-1.6-.7-1.6-2.09l.35-3.85q.38-4,.43-8.07a8.26,8.26,0,0,1-2.68-.32,1.47,1.47,0,0,1-.83-1.5q0-1.62,1.53-1.62h.07l2,.07c0-1.66.08-3.32.11-5a17.13,17.13,0,0,1,.44-3.55q1.73-6.31,7.3-6.32a10.45,10.45,0,0,1,5.09,1.11C260.63,292.8,261.24,293.58,261.24,294.47Z"/>
      <path class="cls-5" d="M279.5,305.56q0,5.54-2.87,8.81a9.64,9.64,0,0,1-7.65,3.28,7.27,7.27,0,0,1-6.21-3q-2.25-3.06-2.25-8.49,0-5.72,2.72-8.88a9.24,9.24,0,0,1,7.39-3.1,7.76,7.76,0,0,1,6.42,3.14A13.14,13.14,0,0,1,279.5,305.56Zm-3.32,0a9.56,9.56,0,0,0-1.62-5.91,5.28,5.28,0,0,0-4.44-2.14q-6.28,0-6.28,8.52a11.18,11.18,0,0,0,1.36,6.05,4.39,4.39,0,0,0,3.92,2.11A6.38,6.38,0,0,0,274.3,312,9.74,9.74,0,0,0,276.18,305.6Z"/>
      <path class="cls-5" d="M295.19,300.49a1.87,1.87,0,0,1-.38,1.2,1.13,1.13,0,0,1-.92.49,2.28,2.28,0,0,1-1.18-.66,2.3,2.3,0,0,0-1.42-.66,2.94,2.94,0,0,0-2.56,1.57,7.9,7.9,0,0,0-1,4.24v2.47a22.47,22.47,0,0,1-.77,6.54c-.48,1.52-1.1,2.27-1.85,2.27-1,0-1.52-.56-1.52-1.69a23.56,23.56,0,0,1,.47-2.49,19.17,19.17,0,0,0,.47-4,22,22,0,0,0-1.34-8.42c0-.07-.32-.7-.91-1.9a3.68,3.68,0,0,1-.45-1.47,1.61,1.61,0,0,1,.51-1.13,1.57,1.57,0,0,1,1.12-.53c1.18,0,2.15,1.63,2.93,4.89,1.16-2.5,2.84-3.76,5-3.76a4,4,0,0,1,2.7.88A2.76,2.76,0,0,1,295.19,300.49Z"/>
      <path class="cls-5" d="M321.75,301.71a1.77,1.77,0,0,1-.36,1.12,1.09,1.09,0,0,1-.87.46,10.18,10.18,0,0,1-1.91-.74,8.08,8.08,0,0,0-3.24-.73,7.9,7.9,0,0,0-1.05.08,28.7,28.7,0,0,0-.62,5.62,10.52,10.52,0,0,0,1,5.06,3,3,0,0,0,2.73,1.77,3.72,3.72,0,0,0,1.41-.39,3.62,3.62,0,0,1,1.26-.39c.88,0,1.33.59,1.33,1.77a2.14,2.14,0,0,1-1.1,1.86,5.41,5.41,0,0,1-3,.72q-7.06,0-7.06-10.63a28.13,28.13,0,0,1,.48-4.92c-.31.05-1,.19-2,.43a7.92,7.92,0,0,1-1.5.23c-1.19,0-1.78-.52-1.78-1.55,0-1.4,2.05-2.32,6.15-2.74.84-3,1.88-4.53,3.1-4.53a1.22,1.22,0,0,1,1,.46,1.62,1.62,0,0,1,.4,1.12,4,4,0,0,1-.25,1.23c-.16.49-.33,1-.5,1.49C319.6,298.68,321.75,299.74,321.75,301.71Z"/>
      <path class="cls-5" d="M341.15,308.5a32.69,32.69,0,0,1-.92,8.61c-.58,2.05-1.31,3.08-2.18,3.08a1.73,1.73,0,0,1-1.27-.51,1.66,1.66,0,0,1-.52-1.18,47.09,47.09,0,0,0,1.57-10q0-5.1-1-7.41a3.6,3.6,0,0,0-3.47-2.39,5.45,5.45,0,0,0-2.58.7,5.55,5.55,0,0,0-2,1.69,6.67,6.67,0,0,0-.89,3.82v1.2q0,4.8.33,9.3c.21,3,.32,4.4.32,4.2q0,1.86-1.53,1.86a1.33,1.33,0,0,1-1.25-.62,6.33,6.33,0,0,1-.53-2.12,94.53,94.53,0,0,1-.57-11.66,98.59,98.59,0,0,1,1.25-14.59,11.86,11.86,0,0,1,.53-2.34,1.31,1.31,0,0,1,1.25-.78,1.32,1.32,0,0,1,1.07.52,2.05,2.05,0,0,1,.43,1.36s-.28,2.08-.85,6.31a7.12,7.12,0,0,1,5.35-2.31Q341.15,295.24,341.15,308.5Z"/>
      <path class="cls-5" d="M361.82,303.18a3.45,3.45,0,0,1-1.2,2.89,12,12,0,0,1-3.38,1.07,23.46,23.46,0,0,1-9.38.7c0,4.72,1.59,7.09,4.78,7.09a3.74,3.74,0,0,0,2.39-.85,17.33,17.33,0,0,0,1.91-2,1.39,1.39,0,0,1,1.05-.58,1.53,1.53,0,0,1,1.21.59,2.15,2.15,0,0,1,.51,1.46,2,2,0,0,1-.49,1.31,8.44,8.44,0,0,1-6.71,3.54q-8,0-8-10.4a16.56,16.56,0,0,1,2.53-9.25q2.88-4.42,7.13-4.42a6.87,6.87,0,0,1,5.46,2.5A9.39,9.39,0,0,1,361.82,303.18Zm-3.31.22a7.44,7.44,0,0,0-1.21-4.14,3.32,3.32,0,0,0-2.77-1.52,5.09,5.09,0,0,0-3.82,1.75,11.06,11.06,0,0,0-2.53,5,19.93,19.93,0,0,0,2.51.15A30.63,30.63,0,0,0,358.51,303.4Z"/>
      <path class="cls-5" d="M392.56,290.78c0-.07-.06.87-.2,2.82-.14,2.27-.26,4.69-.36,7.24-.13,3.69-.19,7.61-.19,11.78,0,.85,0,1.72,0,2.62s0,1.37,0,1.42c0,1.87-.53,2.8-1.58,2.8s-1.72-1-1.72-3.16c0-.49,0-.87,0-1.15a9.52,9.52,0,0,1-7.29,3.5,6.63,6.63,0,0,1-5.48-2.53,10.81,10.81,0,0,1-2-6.95,15.23,15.23,0,0,1,2.93-9.72,9.36,9.36,0,0,1,7.7-3.7A10.4,10.4,0,0,1,389,296.9a61.69,61.69,0,0,1,.31-6.25c.25-1.28.86-1.92,1.85-1.92S392.56,289.42,392.56,290.78Zm-3.73,9.78a7.5,7.5,0,0,0-4.37-1.54,6.32,6.32,0,0,0-5.36,2.64,11.77,11.77,0,0,0-2,7.18,7.78,7.78,0,0,0,1.32,4.82,4.34,4.34,0,0,0,3.65,1.72,5.09,5.09,0,0,0,4.46-2.2c.29-.49.57-1,.85-1.49a1.88,1.88,0,0,1,1.2-.94Q388.62,305.47,388.83,300.56Z"/>
      <path class="cls-5" d="M411.26,307.84a47.11,47.11,0,0,1-1.33,10.77c-.45,1.88-1.11,2.82-2,2.82s-1.35-.57-1.35-1.73a2.83,2.83,0,0,1,0-.58,6.71,6.71,0,0,1-3.52,1,6.36,6.36,0,0,1-5-2.05,8.37,8.37,0,0,1-1.81-5.74,8.6,8.6,0,0,1,2-5.93,6.6,6.6,0,0,1,5.18-2.19,6.19,6.19,0,0,1,4.75,2.12q-.32-7.42-4.88-7.43a4.29,4.29,0,0,0-2.18.69,4.32,4.32,0,0,1-1.5.69,1.33,1.33,0,0,1-1-.53,1.79,1.79,0,0,1-.45-1.2,2.63,2.63,0,0,1,1.45-2.09,6.48,6.48,0,0,1,3.7-1Q411.26,295.47,411.26,307.84Zm-3.38,4.42q0-4.78-4-4.78-4.36,0-4.36,4.74c0,3.18,1.44,4.78,4.33,4.78a3.67,3.67,0,0,0,2.95-1.25A5.24,5.24,0,0,0,407.88,312.26Z"/>
      <path class="cls-5" d="M428,295.32a34.3,34.3,0,0,1-1.7,8.19,88.29,88.29,0,0,1-5.63,13.64q-.81,1.86-1.65,3.72c-.47,1-1,1.45-1.7,1.45a1.34,1.34,0,0,1-1.05-.57,1.86,1.86,0,0,1-.48-1.24,10.89,10.89,0,0,1,1.47-4.08c2.24-4.41,3.4-6.68,3.47-6.84a65.73,65.73,0,0,1-5.16-9.23,14.63,14.63,0,0,1-1.51-4.61c0-1.13.48-1.69,1.43-1.69.6,0,1.2.59,1.8,1.76s1.09,2.64,1.62,3.95a43.49,43.49,0,0,0,3.29,6.42,54.08,54.08,0,0,0,2-7.49c.52-2.69.79-4.07.8-4.12.33-1,.83-1.54,1.51-1.54Q428,293,428,295.32Z"/>
      <path class="cls-5" d="M436.37,314.38a3.29,3.29,0,0,1-.74,2.24,2.51,2.51,0,0,1-2,.85,2.22,2.22,0,0,1-1.76-.82,3.13,3.13,0,0,1-.69-2.08,2.84,2.84,0,0,1,.76-2,2.42,2.42,0,0,1,1.86-.83C435.52,311.73,436.37,312.62,436.37,314.38Z"/>
      <path class="cls-5" d="M154.55,336.22a1.92,1.92,0,0,1-.46,1.25,1.37,1.37,0,0,1-1,.56,2.09,2.09,0,0,1-.63-.11l-.53-.21a2.8,2.8,0,0,1-.4-.19q-1.1,21.27-5.15,31.05c-.71,1.69-1.56,2.53-2.53,2.53q-4.14,0-6.15-18.37a97.77,97.77,0,0,1-4.37,12.51q-1.93,4.1-3.81,4.1c-.87,0-1.68-.59-2.44-1.77a26.69,26.69,0,0,1-2.35-5.55q-2.5-7.71-2.51-23.14v-1.36a8.74,8.74,0,0,0-.89.17,2.9,2.9,0,0,1-.66.11c-1.11,0-1.67-.64-1.67-1.93q0-2.28,5.33-2.28a9.47,9.47,0,0,1,4,.71c1,.47,1.5,1.05,1.5,1.76,0,1.34-.54,2-1.6,2a4.31,4.31,0,0,1-1.22-.27,6.57,6.57,0,0,0-1.45-.35l-.07,4.7q0,14,4.14,22.82,2.56-4,5.83-16.05c.39-1.43.77-3.19,1.16-5.29a24.25,24.25,0,0,1,.77-3.31q.45-1.14,1.32-1.14a1.54,1.54,0,0,1,1.58,1.29,18.13,18.13,0,0,1,.25,3.84c0,.31,0,.69,0,1.12s0,.7,0,.8a54.87,54.87,0,0,0,3.31,19.95q3.49-10.08,4.43-29a5.8,5.8,0,0,0-.85.17,3.66,3.66,0,0,1-.78.13c-1.09,0-1.63-.64-1.63-1.92q0-2.2,4.46-2.2a7.23,7.23,0,0,1,3.77.9A2.4,2.4,0,0,1,154.55,336.22Z"/>
      <path class="cls-5" d="M172,354.71a32.69,32.69,0,0,1-.92,8.61c-.58,2.06-1.31,3.08-2.18,3.08a1.75,1.75,0,0,1-1.27-.51,1.66,1.66,0,0,1-.52-1.18,47.09,47.09,0,0,0,1.57-10q0-5.1-1-7.41a3.6,3.6,0,0,0-3.47-2.39,5.45,5.45,0,0,0-2.58.7,5.65,5.65,0,0,0-2,1.69,6.67,6.67,0,0,0-.89,3.82v1.2q0,4.8.33,9.3c.22,3,.32,4.4.32,4.2q0,1.86-1.53,1.86a1.32,1.32,0,0,1-1.25-.62,6.33,6.33,0,0,1-.53-2.12,94.53,94.53,0,0,1-.57-11.66,98.7,98.7,0,0,1,1.25-14.59,11.52,11.52,0,0,1,.53-2.33,1.3,1.3,0,0,1,1.25-.79,1.32,1.32,0,0,1,1.07.52,2.07,2.07,0,0,1,.43,1.36s-.28,2.08-.85,6.31a7.12,7.12,0,0,1,5.35-2.31Q172,341.45,172,354.71Z"/>
      <path class="cls-5" d="M188.77,341.53a34.8,34.8,0,0,1-1.69,8.2,89.9,89.9,0,0,1-5.64,13.63q-.81,1.86-1.65,3.72c-.47,1-1,1.45-1.7,1.45A1.36,1.36,0,0,1,177,368a1.84,1.84,0,0,1-.48-1.24,10.89,10.89,0,0,1,1.47-4.08q3.36-6.6,3.47-6.83a65.21,65.21,0,0,1-5.15-9.24,14.47,14.47,0,0,1-1.52-4.61c0-1.13.48-1.69,1.43-1.69.6,0,1.2.59,1.8,1.76.55,1.32,1.09,2.64,1.62,4A43,43,0,0,0,183,352.4a52.71,52.71,0,0,0,2-7.49c.53-2.69.79-4.07.8-4.12.33-1,.83-1.54,1.51-1.54Q188.77,339.25,188.77,341.53Z"/>
      <path class="cls-5" d="M218.08,352.66a31.55,31.55,0,0,1-1.29,8.89c-.53,1.83-1.19,2.75-2,2.75a1.5,1.5,0,0,1-1.08-.44,1.45,1.45,0,0,1-.45-1.07c0-.11.27-1.25.8-3.43a26.73,26.73,0,0,0,.8-6.48q0-7.31-4-7.31a4.55,4.55,0,0,0-3.79,1.94,8.47,8.47,0,0,0-1.52,5.26,38.39,38.39,0,0,0,.46,5.09,39.58,39.58,0,0,1,.46,4.65c0,2.16-.55,3.24-1.64,3.24a1.37,1.37,0,0,1-1.15-.42,3.31,3.31,0,0,1-.41-1.31c0-.78-.15-3-.42-6.74q-.67-7.78-.68-11,0-5.7,2-5.7a1.5,1.5,0,0,1,1.08.44,1.41,1.41,0,0,1,.45,1,11.88,11.88,0,0,1-.2,1.56,11.91,11.91,0,0,0-.2,1.93v.44q2.46-3.78,6-3.78a5.73,5.73,0,0,1,5.05,2.71C217.48,346.68,218.08,349.27,218.08,352.66Z"/>
      <path class="cls-5" d="M240.06,351.78c0,3.68-1,6.62-2.87,8.8a9.64,9.64,0,0,1-7.64,3.29,7.29,7.29,0,0,1-6.22-3.06q-2.25-3.06-2.25-8.49,0-5.71,2.72-8.87a9.23,9.23,0,0,1,7.4-3.11,7.75,7.75,0,0,1,6.41,3.14A13.15,13.15,0,0,1,240.06,351.78Zm-3.32,0a9.56,9.56,0,0,0-1.62-5.91,5.28,5.28,0,0,0-4.44-2.14q-6.28,0-6.28,8.52a11.18,11.18,0,0,0,1.36,6.05,4.39,4.39,0,0,0,3.92,2.11,6.37,6.37,0,0,0,5.18-2.27A9.69,9.69,0,0,0,236.74,351.81Z"/>
      <path class="cls-5" d="M256.84,347.92a1.72,1.72,0,0,1-.37,1.12,1.06,1.06,0,0,1-.87.46,9.78,9.78,0,0,1-1.9-.73,8,8,0,0,0-3.24-.74,7.65,7.65,0,0,0-1.05.08,28.78,28.78,0,0,0-.62,5.62,10.66,10.66,0,0,0,1,5.06,3,3,0,0,0,2.74,1.77,3.68,3.68,0,0,0,1.4-.39,3.66,3.66,0,0,1,1.26-.38c.89,0,1.33.58,1.33,1.76a2.12,2.12,0,0,1-1.1,1.86,5.4,5.4,0,0,1-3,.72q-7.07,0-7.07-10.62a28.15,28.15,0,0,1,.48-4.93c-.31.05-1,.19-2,.43a7.92,7.92,0,0,1-1.5.23c-1.19,0-1.78-.52-1.78-1.55q0-2.1,6.14-2.74,1.28-4.53,3.1-4.53a1.23,1.23,0,0,1,1,.46,1.64,1.64,0,0,1,.4,1.12,4,4,0,0,1-.25,1.23c-.17.49-.33,1-.5,1.49C254.69,344.89,256.84,346,256.84,347.92Z"/>
      <path class="cls-5" d="M283.11,347.92a1.77,1.77,0,0,1-.36,1.12,1.09,1.09,0,0,1-.87.46,9.74,9.74,0,0,1-1.91-.73,7.33,7.33,0,0,0-4.29-.66,28.71,28.71,0,0,0-.61,5.62,10.54,10.54,0,0,0,1,5.06,3,3,0,0,0,2.73,1.77,3.68,3.68,0,0,0,1.41-.39,3.55,3.55,0,0,1,1.26-.38c.89,0,1.33.58,1.33,1.76a2.14,2.14,0,0,1-1.1,1.86,5.41,5.41,0,0,1-3,.72q-7.06,0-7.06-10.62a28.15,28.15,0,0,1,.48-4.93c-.31.05-1,.19-2,.43a7.71,7.71,0,0,1-1.5.23c-1.18,0-1.78-.52-1.78-1.55q0-2.1,6.15-2.74c.84-3,1.88-4.53,3.1-4.53a1.23,1.23,0,0,1,1,.46,1.69,1.69,0,0,1,.4,1.12,4.3,4.3,0,0,1-.25,1.23c-.17.49-.34,1-.5,1.49C281,344.89,283.11,346,283.11,347.92Z"/>
      <path class="cls-5" d="M298.08,346.7a1.86,1.86,0,0,1-.39,1.2,1.11,1.11,0,0,1-.91.49,2.26,2.26,0,0,1-1.19-.66,2.3,2.3,0,0,0-1.41-.66,3,3,0,0,0-2.57,1.57,7.9,7.9,0,0,0-1,4.24v2.47a22.47,22.47,0,0,1-.77,6.54c-.48,1.52-1.09,2.28-1.85,2.28-1,0-1.51-.57-1.51-1.7A22.15,22.15,0,0,1,287,360a19.17,19.17,0,0,0,.47-4.05,22.18,22.18,0,0,0-1.33-8.42c0-.07-.33-.7-.92-1.9a3.68,3.68,0,0,1-.45-1.47,1.58,1.58,0,0,1,.52-1.13,1.52,1.52,0,0,1,1.11-.52q1.77,0,2.93,4.88c1.16-2.5,2.84-3.76,5-3.76a4.06,4.06,0,0,1,2.7.88A2.77,2.77,0,0,1,298.08,346.7Z"/>
      <path class="cls-5" d="M313,341.53a35,35,0,0,1-1.7,8.2,89.68,89.68,0,0,1-5.63,13.63l-1.65,3.72c-.48,1-1.05,1.45-1.7,1.45a1.38,1.38,0,0,1-1.06-.57,1.84,1.84,0,0,1-.48-1.24,10.89,10.89,0,0,1,1.47-4.08l3.48-6.83a64.36,64.36,0,0,1-5.16-9.24,14.75,14.75,0,0,1-1.52-4.61c0-1.13.48-1.69,1.44-1.69.6,0,1.2.59,1.8,1.76l1.62,4a43,43,0,0,0,3.28,6.42,54.1,54.1,0,0,0,2-7.49c.52-2.69.79-4.07.8-4.12.32-1,.82-1.54,1.5-1.54C312.53,339.25,313,340,313,341.53Z"/>
      <path class="cls-5" d="M340.43,354.05a46.49,46.49,0,0,1-1.33,10.77c-.45,1.88-1.11,2.83-2,2.83s-1.35-.58-1.35-1.73a3.85,3.85,0,0,1,0-.59,6.71,6.71,0,0,1-3.52,1,6.36,6.36,0,0,1-5-2.05,8.37,8.37,0,0,1-1.81-5.74,8.6,8.6,0,0,1,1.95-5.93,6.6,6.6,0,0,1,5.18-2.19,6.19,6.19,0,0,1,4.75,2.12q-.31-7.43-4.88-7.42a4.4,4.4,0,0,0-2.18.68,4.32,4.32,0,0,1-1.5.69,1.33,1.33,0,0,1-1-.53,1.79,1.79,0,0,1-.45-1.2,2.63,2.63,0,0,1,1.45-2.09,6.5,6.5,0,0,1,3.7-1Q340.43,341.68,340.43,354.05Zm-3.38,4.42q0-4.79-4-4.78-4.36,0-4.37,4.74t4.33,4.78a3.67,3.67,0,0,0,3-1.25A5.24,5.24,0,0,0,337.05,358.47Z"/>
      <path class="cls-5" d="M361,340.46a1.29,1.29,0,0,1-1.46,1.46c-.14,0-.42,0-.85-.07s-1-.11-1.39-.13a9.12,9.12,0,0,1,2,5.94,7.59,7.59,0,0,1-2.09,5.5,7.26,7.26,0,0,1-5.44,2.15,22.66,22.66,0,0,1-2.4-.19,9.21,9.21,0,0,0-2.25,2.86,40.85,40.85,0,0,1,4.3-.43q6.82,0,6.83,5.32a5.88,5.88,0,0,1-2.57,5.05,12.27,12.27,0,0,1-7.19,1.83,7.68,7.68,0,0,1-4.63-1.26,3.56,3.56,0,0,1-1.62-3,1.49,1.49,0,0,1,.48-1.11,1.59,1.59,0,0,1,1.14-.47,1.29,1.29,0,0,1,.86.43l.83,1a4.1,4.1,0,0,0,3.1.92,10,10,0,0,0,4.57-.86,2.55,2.55,0,0,0,1.58-2.3q0-2.11-4.36-2.12a23.27,23.27,0,0,0-2.73.21,20.7,20.7,0,0,1-2.36.22c-1.07,0-1.61-.43-1.61-1.28q0-1.79,3.11-6.07a7.13,7.13,0,0,1-2.56-5.91,8.85,8.85,0,0,1,2.26-6.11,7.18,7.18,0,0,1,5.55-2.54,8.32,8.32,0,0,1,1.6.19c.37-.61,1.55-.92,3.55-.92C359.73,338.8,361,339.35,361,340.46Zm-4.85,6.84A4.89,4.89,0,0,0,355,344a3.72,3.72,0,0,0-2.93-1.26,4.05,4.05,0,0,0-3.26,1.52,5.9,5.9,0,0,0-1.27,3.94q0,3.93,4.17,3.93a4.21,4.21,0,0,0,3.25-1.25A5.06,5.06,0,0,0,356.12,347.3Z"/>
      <path class="cls-5" d="M377.17,354.05a47,47,0,0,1-1.33,10.77c-.45,1.88-1.11,2.83-2,2.83s-1.35-.58-1.35-1.73a2.88,2.88,0,0,1,0-.59,6.71,6.71,0,0,1-3.52,1,6.36,6.36,0,0,1-5-2.05,8.37,8.37,0,0,1-1.81-5.74,8.6,8.6,0,0,1,1.95-5.93,6.6,6.6,0,0,1,5.18-2.19,6.19,6.19,0,0,1,4.75,2.12q-.31-7.43-4.88-7.42a4.4,4.4,0,0,0-2.18.68,4.32,4.32,0,0,1-1.5.69,1.33,1.33,0,0,1-1-.53,1.79,1.79,0,0,1-.45-1.2,2.63,2.63,0,0,1,1.45-2.09,6.48,6.48,0,0,1,3.7-1Q377.17,341.68,377.17,354.05Zm-3.38,4.42q0-4.79-4-4.78-4.37,0-4.36,4.74t4.33,4.78a3.67,3.67,0,0,0,3-1.25A5.24,5.24,0,0,0,373.79,358.47Z"/>
      <path class="cls-5" d="M385.87,344.1a140.2,140.2,0,0,1-.72,16.76,11.92,11.92,0,0,1-.63,2.93,1.55,1.55,0,0,1-2.59.5,1.68,1.68,0,0,1-.46-1.2c0,.07.09-.37.26-1.29a33.87,33.87,0,0,0,.52-3.59q.27-2.86.27-6.4c0-1,0-2.11,0-3.25s0-1.76,0-1.86a11.38,11.38,0,0,1,.38-3.54,1.5,1.5,0,0,1,1.5-1.09C385.36,342.07,385.87,342.75,385.87,344.1Zm.71-7.16q0,2.67-2.31,2.67a2,2,0,0,1-1.58-.73,2.59,2.59,0,0,1-.64-1.77,2.79,2.79,0,0,1,.7-1.92,2.2,2.2,0,0,1,1.72-.79,1.89,1.89,0,0,1,1.53.7A2.74,2.74,0,0,1,386.58,336.94Z"/>
      <path class="cls-5" d="M407.33,352.66a31.57,31.57,0,0,1-1.3,8.89c-.53,1.83-1.19,2.75-2,2.75a1.47,1.47,0,0,1-1.08-.44,1.45,1.45,0,0,1-.45-1.07c0-.11.26-1.25.8-3.43a27.24,27.24,0,0,0,.8-6.48q0-7.31-4.06-7.31a4.55,4.55,0,0,0-3.79,1.94,8.47,8.47,0,0,0-1.52,5.26,40.18,40.18,0,0,0,.46,5.09,37.47,37.47,0,0,1,.46,4.65c0,2.16-.54,3.24-1.63,3.24a1.35,1.35,0,0,1-1.15-.42,3.12,3.12,0,0,1-.42-1.31c0-.78-.15-3-.42-6.74q-.68-7.78-.68-11,0-5.7,1.95-5.7a1.5,1.5,0,0,1,1.08.44,1.41,1.41,0,0,1,.45,1,10.31,10.31,0,0,1-.2,1.56,11.91,11.91,0,0,0-.2,1.93v.44q2.48-3.78,6-3.78a5.74,5.74,0,0,1,5.06,2.71C406.72,346.68,407.33,349.27,407.33,352.66Z"/>
      <path class="cls-5" d="M421.94,345.49a7.34,7.34,0,0,1-2.33,5.18c-.48.45-1,.9-1.44,1.37a9.18,9.18,0,0,0-1.6,2.24,14.88,14.88,0,0,0-.68,3c-.22,1.38-.79,2.07-1.7,2.07s-1.53-.75-1.53-2.25a9.37,9.37,0,0,1,.88-3.84,9,9,0,0,1,2.23-3.18,19.29,19.29,0,0,0,2.15-2.12,3.94,3.94,0,0,0,.82-2.43,3.07,3.07,0,0,0-1-2.34,3.67,3.67,0,0,0-2.6-.93,3.77,3.77,0,0,0-2.29,1,3.83,3.83,0,0,1-1.67,1,1.13,1.13,0,0,1-.91-.5,1.91,1.91,0,0,1-.39-1.21,2.71,2.71,0,0,1,1.52-2.2,7,7,0,0,1,4-1.08,6.57,6.57,0,0,1,4.79,1.72A6,6,0,0,1,421.94,345.49Zm-5.08,18a2.53,2.53,0,0,1-.64,1.77,2.23,2.23,0,0,1-1.7.7,2.19,2.19,0,0,1-1.65-.68,2.47,2.47,0,0,1-.63-1.75,2.57,2.57,0,0,1,.67-1.83,2.15,2.15,0,0,1,1.68-.73,2.08,2.08,0,0,1,1.63.71A2.57,2.57,0,0,1,416.86,363.45Z"/>
    </g>
    <g>
      <ellipse class="cls-6" cx="670.98" cy="308.96" rx="93.83" ry="82.53"/>
      <g>
        <ellipse class="cls-6" cx="576.89" cy="226.44" rx="54.74" ry="57.71" transform="translate(75.88 591.22) rotate(-57.49)"/>
        <ellipse class="cls-7" cx="576.48" cy="226.79" rx="32.88" ry="37.17" transform="translate(-24.56 376.86) rotate(-35.49)"/>
      </g>
      <g>
        <ellipse class="cls-6" cx="765.19" cy="227.09" rx="57.71" ry="54.74" transform="translate(-2.14 446.84) rotate(-32.51)"/>
        <ellipse class="cls-7" cx="765.95" cy="226.33" rx="37.17" ry="32.88" transform="translate(136.95 718.53) rotate(-54.51)"/>
      </g>
      <path d="M678.39,323.44h0A10,10,0,0,0,671,306.7h0a10,10,0,0,0-7.41,16.74h0A10,10,0,0,0,678.39,323.44Z"/>
      <g>
        <path class="cls-8" d="M659.54,313.32c-1.37-7.48-37.9-7.62-77.81-.31"/>
        <path class="cls-8" d="M662.29,317.2c-2.06-7.32-38.43-4.08-77.5,6.9"/>
        <path class="cls-8" d="M664.91,321.67c-2.63-7.13-38.64-1-76.71,13"/>
      </g>
      <g>
        <path class="cls-8" d="M682.42,313.62c1.37-7.47,37.89-7.61,77.81-.3"/>
        <path class="cls-8" d="M679.66,317.5c2.06-7.31,38.44-4.07,77.51,6.91"/>
        <path class="cls-8" d="M677,322c2.63-7.13,38.64-1,76.72,13"/>
      </g>
      <g>
        <ellipse class="cls-9" cx="632.86" cy="279.61" rx="2.01" ry="2.82"/>
        <path d="M635.27,287.25a14,14,0,0,1,9.13,3.22,14.69,14.69,0,0,0,1.26-6c0-6.89-4.51-12.48-10.07-12.48s-10.06,5.59-10.06,12.48a14.94,14.94,0,0,0,1.09,5.63A14.08,14.08,0,0,1,635.27,287.25Zm-2.5-10.45c.89,0,1.61,1.26,1.61,2.82s-.72,2.82-1.61,2.82-1.61-1.26-1.61-2.82S631.88,276.8,632.77,276.8Z"/>
      </g>
      <path class="cls-10" d="M671.17,357.87a121.6,121.6,0,0,1,23.43,2.2,24.18,24.18,0,0,0-47.46.12A121.64,121.64,0,0,1,671.17,357.87Z"/>
      <g>
        <g>
          <ellipse class="cls-9" cx="701.09" cy="279.61" rx="2.01" ry="2.82"/>
          <path d="M703.5,287.25a14,14,0,0,1,9.13,3.22,14.69,14.69,0,0,0,1.25-6c0-6.89-4.5-12.48-10.06-12.48s-10.06,5.59-10.06,12.48a14.75,14.75,0,0,0,1.09,5.63A14.08,14.08,0,0,1,703.5,287.25ZM701,276.8c.89,0,1.61,1.26,1.61,2.82s-.72,2.82-1.61,2.82-1.61-1.26-1.61-2.82S700.11,276.8,701,276.8Z"/>
        </g>
        <path class="cls-11" d="M712.76,290.18l3.1,8.15a5.4,5.4,0,1,1-10-.29l4.17-9.28"/>
      </g>
    </g>
  </g>
</svg>
