<svg id="Layer_1" data-name="Layer 1" xmlns="http://www.w3.org/2000/svg" width="942.39" height="530.1" viewBox="0 0 942.39 530.1">
  <defs>
    <style>
      .cls-1 {
        fill: #bf8d6b;
      }

      .cls-2 {
        fill: #ffc69f;
      }

      .cls-11, .cls-3 {
        fill: #f7d574;
      }

      .cls-11, .cls-3, .cls-4 {
        stroke: #f7d574;
      }

      .cls-10, .cls-11, .cls-3, .cls-4, .cls-7, .cls-8 {
        stroke-miterlimit: 10;
      }

      .cls-3 {
        stroke-width: 8px;
      }

      .cls-10, .cls-4, .cls-7, .cls-8 {
        fill: none;
      }

      .cls-5 {
        fill: #ccc;
      }

      .cls-6 {
        fill: #ff7bac;
        opacity: 0.44;
      }

      .cls-10, .cls-7, .cls-8 {
        stroke: #000;
      }

      .cls-7 {
        stroke-width: 0.5px;
      }

      .cls-8 {
        stroke-width: 2px;
      }

      .cls-9 {
        fill: gray;
      }
    </style>
  </defs>
  <g>
    <rect class="cls-1" width="942.39" height="530.1"/>
    <g>
      <g>
        <path class="cls-2" d="M242.73,105.39q0,12.81-6.9,19v.19Q229.58,129,217,129q-18.59,0-29.31-2.55a11.93,11.93,0,0,1-4.48-1.81,4.42,4.42,0,0,1-1.39-3.53q0-3.61,4.35-3.62a27.57,27.57,0,0,1,5.39.7q-1.23-15.25-1.24-25.93A349,349,0,0,1,192.38,55l-2,.19H190q-3.82,0-3.82-4.18a4.51,4.51,0,0,1,2.38-4.36q2.18-1.15,7.23-1.16,8.14,0,12.79,2.28,4.31,2.13,4.31,5.52a4.89,4.89,0,0,1-1.17,3.24,3.4,3.4,0,0,1-2.65,1.39,9.22,9.22,0,0,1-3.49-1.34A13.8,13.8,0,0,0,201,54.88a279.43,279.43,0,0,0-2.55,37.25q0,8.12,1.61,27.13a133.31,133.31,0,0,0,15.33,1.16q10.23,0,16.23-4.08,1.72-2.46,2.63-9.6a28.25,28.25,0,0,1,1.11-5.89,3.23,3.23,0,0,1,3.25-2Q242.74,98.85,242.73,105.39Z"/>
        <path class="cls-2" d="M288.36,79.09q0,4.83-3,7.15-1.32,1-8.35,2.64a71.93,71.93,0,0,1-15.9,2.18,67.7,67.7,0,0,1-7.24-.46q0,17.49,11.8,17.48a9.25,9.25,0,0,0,5.88-2.08,44.62,44.62,0,0,0,4.72-5,3.5,3.5,0,0,1,2.59-1.43,3.78,3.78,0,0,1,3,1.46,5.3,5.3,0,0,1,1.26,3.59,5.05,5.05,0,0,1-1.2,3.25q-7.06,8.71-16.56,8.72-19.65,0-19.65-25.65,0-13.23,6.25-22.82,7.11-10.9,17.59-10.91a17,17,0,0,1,13.48,6.17Q288.36,69.59,288.36,79.09Zm-8.18.56q-.26-6.45-3-10.21a8.21,8.21,0,0,0-6.85-3.75A12.6,12.6,0,0,0,260.94,70q-4.19,4.36-6.25,12.34a48.91,48.91,0,0,0,6.21.37A75.82,75.82,0,0,0,280.18,79.65Z"/>
        <path class="cls-2" d="M332.21,60.49a62.77,62.77,0,0,1-1.76,11.88q-1.93,8.8-2.92,12.34a162.73,162.73,0,0,1-7.61,21.06q-5.22,12-8.92,12-2.34,0-3.61-5.2Q305.7,105.4,304,98.2q-5.81-20.82-12.37-34.32c-.58-1.08-1.15-2.17-1.71-3.25a6.33,6.33,0,0,1-.84-2.83q0-4.17,3.7-4.17,4.15,0,9.18,12.2,4.75,11.64,11.13,36.54,6.86-15.21,10.51-39c.65-4.17,1.08-6.55,1.27-7.14a3.18,3.18,0,0,1,3.21-2.46Q332.21,53.81,332.21,60.49Z"/>
        <path class="cls-2" d="M380.39,79.09q0,4.83-3,7.15-1.32,1-8.35,2.64a71.93,71.93,0,0,1-15.9,2.18,67.7,67.7,0,0,1-7.24-.46q0,17.49,11.8,17.48a9.25,9.25,0,0,0,5.88-2.08,44.62,44.62,0,0,0,4.72-5,3.5,3.5,0,0,1,2.59-1.43,3.78,3.78,0,0,1,3,1.46,5.3,5.3,0,0,1,1.26,3.59A5.1,5.1,0,0,1,374,107.9q-7.08,8.71-16.57,8.72-19.65,0-19.65-25.65,0-13.23,6.25-22.82,7.11-10.9,17.59-10.91a17,17,0,0,1,13.48,6.17Q380.39,69.59,380.39,79.09Zm-8.18.56q-.25-6.45-3-10.21a8.21,8.21,0,0,0-6.85-3.75A12.6,12.6,0,0,0,353,70q-4.19,4.36-6.25,12.34a48.91,48.91,0,0,0,6.21.37A75.82,75.82,0,0,0,372.21,79.65Z"/>
        <path class="cls-2" d="M398.51,118.15a16.39,16.39,0,0,1-.37,4.31,2.92,2.92,0,0,1-3.07,2.05c-2.59,0-4.11-2.39-4.58-7.15q-1.19-12.06-1.18-33,0-23.41.57-28.8.64-5.89,4.13-5.89,4.1,0,4.09,5.61,0,1.39-.45,11.06t-.45,17.84q0,7.14.66,18.48T398.51,118.15Z"/>
        <path class="cls-2" d="M478.71,99.78q0,4.83-8.68,12.39-6.12,5.28-16.07,5.28t-15.53-7.32q-5.81-7.47-5.8-20.51,0-16.83,6.66-26.23A21.21,21.21,0,0,1,457.58,54q8.63,0,14.14,4.36,5.22,4.08,5.22,9.79,0,4.68-3.87,4.68a2.81,2.81,0,0,1-2.63-1.44,49,49,0,0,0-2.26-5.1q-2.91-3.71-10.6-3.71a13.89,13.89,0,0,0-12.39,6.82q-4.38,6.81-4.38,19.48,0,20,14.14,20a18,18,0,0,0,14-6.54s.88-1.42,2.55-4.18c1-1.67,2.11-2.5,3.37-2.5A3.57,3.57,0,0,1,477.51,97,4,4,0,0,1,478.71,99.78Z"/>
        <path class="cls-2" d="M530,85q0,13.65-7.07,21.74T504,114.81q-9.79,0-15.34-7.54t-5.54-20.94q0-14.1,6.7-21.9t18.25-7.65a19.1,19.1,0,0,1,15.82,7.75Q530,72.27,530,85Zm-8.18.1q0-9.33-4-14.59a13,13,0,0,0-10.95-5.27q-15.49,0-15.5,21,0,9.69,3.37,14.91a10.83,10.83,0,0,0,9.66,5.22q8.14,0,12.79-5.61T521.78,85.08Z"/>
        <path class="cls-2" d="M595.52,86.42Q595.52,122,588,122q-2.88,0-2.88-4.08s.47-3.56,1.4-10.6a160.2,160.2,0,0,0,1.4-21q0-17.49-7.32-17.49-6.4,0-8.42,8.81-1.53,6.78-1.53,26.63a60.08,60.08,0,0,0,.42,6.75c.27,2.46.41,3.9.41,4.33q0,4.61-3.87,4.6-4.64,0-4.64-16.75,0-7.05.47-14.73c.32-5.11.47-7.86.47-8.23q0-6.87-6.41-6.87-6,0-8.71,6.08Q546.19,85.26,546.2,98q0,8.2.41,15.28a59.23,59.23,0,0,0,.41,6,4.05,4.05,0,0,1-1.13,2.93,3.88,3.88,0,0,1-2.9,1.16q-3.66,0-4.52-7.89-.29-2.26-.29-11.78a241.47,241.47,0,0,1,2.88-38A33.51,33.51,0,0,1,543,57.8a3.71,3.71,0,0,1,3.58-2.36q3.86,0,3.86,4.63l-1.85,10.49A11.28,11.28,0,0,1,558.65,65q5.26,0,8.26,4.91,5.22-9.69,14.72-9.69Q595.52,60.17,595.52,86.42Z"/>
        <path class="cls-2" d="M648.38,88.79q0,11.86-6.27,18.95t-16.79,7.07a24.47,24.47,0,0,1-11.47-2.92,129.89,129.89,0,0,1-1.52,13.36c-.68,2.72-1.94,4.08-3.76,4.08a4,4,0,0,1-2.93-1.21,4,4,0,0,1-1.2-3c0,.18.22-1.78.66-5.9q.82-7.23,1.27-15.63.66-12.06.66-26.07,0-2.78-.08-6.38c-.06-2.39-.08-3.84-.08-4.33,0-4.12,1.27-6.17,3.82-6.17s4,1.42,4.11,4.27l.08,2.82a16.57,16.57,0,0,1,12.78-5.38,18.21,18.21,0,0,1,15,7Q648.38,76.64,648.38,88.79Zm-8.18,0q0-8.49-3.49-13.18a11.43,11.43,0,0,0-9.7-4.68q-9.71,0-12,6.91v4.59q0,10.77-.5,21.16a22.46,22.46,0,0,0,10.77,2.87q7.11,0,11-4.59T640.2,88.79Z"/>
        <path class="cls-2" d="M667.16,118.15a16.39,16.39,0,0,1-.37,4.31,2.92,2.92,0,0,1-3.07,2.05c-2.59,0-4.11-2.39-4.58-7.15Q658,105.3,658,84.33q0-23.41.57-28.8c.44-3.93,1.81-5.89,4.13-5.89q4.1,0,4.09,5.61,0,1.39-.45,11.06t-.45,17.84q0,7.14.66,18.48T667.16,118.15Z"/>
        <path class="cls-2" d="M718.67,79.09q0,4.83-3,7.15-1.32,1-8.35,2.64a71.93,71.93,0,0,1-15.9,2.18,67.7,67.7,0,0,1-7.24-.46q0,17.49,11.8,17.48A9.25,9.25,0,0,0,701.9,106a44.62,44.62,0,0,0,4.72-5,3.5,3.5,0,0,1,2.59-1.43,3.78,3.78,0,0,1,3,1.46,5.3,5.3,0,0,1,1.26,3.59,5.05,5.05,0,0,1-1.2,3.25q-7.07,8.71-16.56,8.72Q676,116.62,676,91q0-13.23,6.25-22.82,7.11-10.9,17.59-10.91a17,17,0,0,1,13.48,6.17Q718.67,69.59,718.67,79.09Zm-8.18.56q-.25-6.45-3-10.21a8.2,8.2,0,0,0-6.85-3.75A12.6,12.6,0,0,0,691.25,70q-4.18,4.36-6.25,12.34a48.91,48.91,0,0,0,6.21.37A75.82,75.82,0,0,0,710.49,79.65Z"/>
        <path class="cls-2" d="M759.48,75.47a4.28,4.28,0,0,1-.9,2.76,2.67,2.67,0,0,1-2.14,1.14,24.36,24.36,0,0,1-4.71-1.81,18.35,18.35,0,0,0-10.58-1.62,71,71,0,0,0-1.52,13.87q0,8.11,2.42,12.48c1.62,2.9,3.87,4.36,6.75,4.36a9.32,9.32,0,0,0,3.47-1,9.05,9.05,0,0,1,3.1-1q3.28,0,3.29,4.37A5.3,5.3,0,0,1,756,113.7a13.52,13.52,0,0,1-7.4,1.76q-17.43,0-17.43-26.21a69.53,69.53,0,0,1,1.19-12.15q-1.14.18-5,1.07a19,19,0,0,1-3.7.55q-4.39,0-4.4-3.8,0-5.19,15.17-6.77Q737.53,57,742.05,57a3.07,3.07,0,0,1,2.39,1.13,4.07,4.07,0,0,1,1,2.76,10,10,0,0,1-.62,3q-.62,1.83-1.23,3.69Q759.48,68.19,759.48,75.47Z"/>
        <path class="cls-2" d="M805.31,79.09c0,3.22-1,5.6-3,7.15-.87.68-3.66,1.56-8.34,2.64a71.94,71.94,0,0,1-15.91,2.18,67.53,67.53,0,0,1-7.23-.46q0,17.49,11.79,17.48a9.21,9.21,0,0,0,5.88-2.08,44.38,44.38,0,0,0,4.73-5,3.47,3.47,0,0,1,2.59-1.43,3.8,3.8,0,0,1,3,1.46,5.34,5.34,0,0,1,1.25,3.59,5.1,5.1,0,0,1-1.19,3.25q-7.06,8.71-16.56,8.72-19.65,0-19.65-25.65,0-13.23,6.25-22.82,7.11-10.9,17.59-10.91A17,17,0,0,1,800,63.41Q805.32,69.59,805.31,79.09Zm-8.18.56q-.24-6.45-3-10.21a8.18,8.18,0,0,0-6.84-3.75A12.6,12.6,0,0,0,777.9,70q-4.2,4.36-6.25,12.34a48.68,48.68,0,0,0,6.21.37A75.75,75.75,0,0,0,797.13,79.65Z"/>
        <path class="cls-2" d="M825.7,55.06a77.77,77.77,0,0,1-1.85,9.42,139.12,139.12,0,0,0-3.37,26.3c-.19,4.24-.36,6.7-.49,7.38a2.79,2.79,0,0,1-2.88,2.5q-2.34,0-3.29-3.06-.86-2.88-.86-9.79,0-12.24,4.23-28.2,2.1-8,5.8-8C824.8,51.63,825.7,52.78,825.7,55.06Zm-2.88,58.31a6.06,6.06,0,0,1-1.27,4,4,4,0,0,1-3.21,1.55,4.14,4.14,0,0,1-3.27-1.57,5.92,5.92,0,0,1-1.33-3.95,5.43,5.43,0,0,1,1.31-3.71,4.22,4.22,0,0,1,3.29-1.48,4.09,4.09,0,0,1,3.23,1.44A5.51,5.51,0,0,1,822.82,113.37Z"/>
      </g>
      <g>
        <path class="cls-3" d="M242.73,105.39q0,12.81-6.9,19v.19Q229.58,129,217,129q-18.59,0-29.31-2.55a11.93,11.93,0,0,1-4.48-1.81,4.42,4.42,0,0,1-1.39-3.53q0-3.61,4.35-3.62a27.57,27.57,0,0,1,5.39.7q-1.23-15.25-1.24-25.93A349,349,0,0,1,192.38,55l-2,.19H190q-3.82,0-3.82-4.18a4.51,4.51,0,0,1,2.38-4.36q2.18-1.15,7.23-1.16,8.14,0,12.79,2.28,4.31,2.13,4.31,5.52a4.89,4.89,0,0,1-1.17,3.24,3.4,3.4,0,0,1-2.65,1.39,9.22,9.22,0,0,1-3.49-1.34A13.8,13.8,0,0,0,201,54.88a279.43,279.43,0,0,0-2.55,37.25q0,8.12,1.61,27.13a133.31,133.31,0,0,0,15.33,1.16q10.23,0,16.23-4.08,1.72-2.46,2.63-9.6a28.25,28.25,0,0,1,1.11-5.89,3.23,3.23,0,0,1,3.25-2Q242.74,98.85,242.73,105.39Z"/>
        <path class="cls-3" d="M288.36,79.09q0,4.83-3,7.15-1.32,1-8.35,2.64a71.93,71.93,0,0,1-15.9,2.18,67.7,67.7,0,0,1-7.24-.46q0,17.49,11.8,17.48a9.25,9.25,0,0,0,5.88-2.08,44.62,44.62,0,0,0,4.72-5,3.5,3.5,0,0,1,2.59-1.43,3.78,3.78,0,0,1,3,1.46,5.3,5.3,0,0,1,1.26,3.59,5.05,5.05,0,0,1-1.2,3.25q-7.06,8.71-16.56,8.72-19.65,0-19.65-25.65,0-13.23,6.25-22.82,7.11-10.9,17.59-10.91a17,17,0,0,1,13.48,6.17Q288.36,69.59,288.36,79.09Zm-8.18.56q-.26-6.45-3-10.21a8.21,8.21,0,0,0-6.85-3.75A12.6,12.6,0,0,0,260.94,70q-4.19,4.36-6.25,12.34a48.91,48.91,0,0,0,6.21.37A75.82,75.82,0,0,0,280.18,79.65Z"/>
        <path class="cls-3" d="M332.21,60.49a62.77,62.77,0,0,1-1.76,11.88q-1.93,8.8-2.92,12.34a162.73,162.73,0,0,1-7.61,21.06q-5.22,12-8.92,12-2.34,0-3.61-5.2Q305.7,105.4,304,98.2q-5.81-20.82-12.37-34.32c-.58-1.08-1.15-2.17-1.71-3.25a6.33,6.33,0,0,1-.84-2.83q0-4.17,3.7-4.17,4.15,0,9.18,12.2,4.75,11.64,11.13,36.54,6.86-15.21,10.51-39c.65-4.17,1.08-6.55,1.27-7.14a3.18,3.18,0,0,1,3.21-2.46Q332.21,53.81,332.21,60.49Z"/>
        <path class="cls-3" d="M380.39,79.09q0,4.83-3,7.15-1.32,1-8.35,2.64a71.93,71.93,0,0,1-15.9,2.18,67.7,67.7,0,0,1-7.24-.46q0,17.49,11.8,17.48a9.25,9.25,0,0,0,5.88-2.08,44.62,44.62,0,0,0,4.72-5,3.5,3.5,0,0,1,2.59-1.43,3.78,3.78,0,0,1,3,1.46,5.3,5.3,0,0,1,1.26,3.59A5.1,5.1,0,0,1,374,107.9q-7.08,8.71-16.57,8.72-19.65,0-19.65-25.65,0-13.23,6.25-22.82,7.11-10.9,17.59-10.91a17,17,0,0,1,13.48,6.17Q380.39,69.59,380.39,79.09Zm-8.18.56q-.25-6.45-3-10.21a8.21,8.21,0,0,0-6.85-3.75A12.6,12.6,0,0,0,353,70q-4.19,4.36-6.25,12.34a48.91,48.91,0,0,0,6.21.37A75.82,75.82,0,0,0,372.21,79.65Z"/>
        <path class="cls-3" d="M398.51,118.15a16.39,16.39,0,0,1-.37,4.31,2.92,2.92,0,0,1-3.07,2.05c-2.59,0-4.11-2.39-4.58-7.15q-1.19-12.06-1.18-33,0-23.41.57-28.8.64-5.89,4.13-5.89,4.1,0,4.09,5.61,0,1.39-.45,11.06t-.45,17.84q0,7.14.66,18.48T398.51,118.15Z"/>
        <path class="cls-3" d="M478.71,99.78q0,4.83-8.68,12.39-6.12,5.28-16.07,5.28t-15.53-7.32q-5.81-7.47-5.8-20.51,0-16.83,6.66-26.23A21.21,21.21,0,0,1,457.58,54q8.63,0,14.14,4.36,5.22,4.08,5.22,9.79,0,4.68-3.87,4.68a2.81,2.81,0,0,1-2.63-1.44,49,49,0,0,0-2.26-5.1q-2.91-3.71-10.6-3.71a13.89,13.89,0,0,0-12.39,6.82q-4.38,6.81-4.38,19.48,0,20,14.14,20a18,18,0,0,0,14-6.54s.88-1.42,2.55-4.18c1-1.67,2.11-2.5,3.37-2.5A3.57,3.57,0,0,1,477.51,97,4,4,0,0,1,478.71,99.78Z"/>
        <path class="cls-3" d="M530,85q0,13.65-7.07,21.74T504,114.81q-9.79,0-15.34-7.54t-5.54-20.94q0-14.1,6.7-21.9t18.25-7.65a19.1,19.1,0,0,1,15.82,7.75Q530,72.27,530,85Zm-8.18.1q0-9.33-4-14.59a13,13,0,0,0-10.95-5.27q-15.49,0-15.5,21,0,9.69,3.37,14.91a10.83,10.83,0,0,0,9.66,5.22q8.14,0,12.79-5.61T521.78,85.08Z"/>
        <path class="cls-3" d="M595.52,86.42Q595.52,122,588,122q-2.88,0-2.88-4.08s.47-3.56,1.4-10.6a160.2,160.2,0,0,0,1.4-21q0-17.49-7.32-17.49-6.4,0-8.42,8.81-1.53,6.78-1.53,26.63a60.08,60.08,0,0,0,.42,6.75c.27,2.46.41,3.9.41,4.33q0,4.61-3.87,4.6-4.64,0-4.64-16.75,0-7.05.47-14.73c.32-5.11.47-7.86.47-8.23q0-6.87-6.41-6.87-6,0-8.71,6.08Q546.19,85.26,546.2,98q0,8.2.41,15.28a59.23,59.23,0,0,0,.41,6,4.05,4.05,0,0,1-1.13,2.93,3.88,3.88,0,0,1-2.9,1.16q-3.66,0-4.52-7.89-.29-2.26-.29-11.78a241.47,241.47,0,0,1,2.88-38A33.51,33.51,0,0,1,543,57.8a3.71,3.71,0,0,1,3.58-2.36q3.86,0,3.86,4.63l-1.85,10.49A11.28,11.28,0,0,1,558.65,65q5.26,0,8.26,4.91,5.22-9.69,14.72-9.69Q595.52,60.17,595.52,86.42Z"/>
        <path class="cls-3" d="M648.38,88.79q0,11.86-6.27,18.95t-16.79,7.07a24.47,24.47,0,0,1-11.47-2.92,129.89,129.89,0,0,1-1.52,13.36c-.68,2.72-1.94,4.08-3.76,4.08a4,4,0,0,1-2.93-1.21,4,4,0,0,1-1.2-3c0,.18.22-1.78.66-5.9q.82-7.23,1.27-15.63.66-12.06.66-26.07,0-2.78-.08-6.38c-.06-2.39-.08-3.84-.08-4.33,0-4.12,1.27-6.17,3.82-6.17s4,1.42,4.11,4.27l.08,2.82a16.57,16.57,0,0,1,12.78-5.38,18.21,18.21,0,0,1,15,7Q648.38,76.64,648.38,88.79Zm-8.18,0q0-8.49-3.49-13.18a11.43,11.43,0,0,0-9.7-4.68q-9.71,0-12,6.91v4.59q0,10.77-.5,21.16a22.46,22.46,0,0,0,10.77,2.87q7.11,0,11-4.59T640.2,88.79Z"/>
        <path class="cls-3" d="M667.16,118.15a16.39,16.39,0,0,1-.37,4.31,2.92,2.92,0,0,1-3.07,2.05c-2.59,0-4.11-2.39-4.58-7.15Q658,105.3,658,84.33q0-23.41.57-28.8c.44-3.93,1.81-5.89,4.13-5.89q4.1,0,4.09,5.61,0,1.39-.45,11.06t-.45,17.84q0,7.14.66,18.48T667.16,118.15Z"/>
        <path class="cls-3" d="M718.67,79.09q0,4.83-3,7.15-1.32,1-8.35,2.64a71.93,71.93,0,0,1-15.9,2.18,67.7,67.7,0,0,1-7.24-.46q0,17.49,11.8,17.48A9.25,9.25,0,0,0,701.9,106a44.62,44.62,0,0,0,4.72-5,3.5,3.5,0,0,1,2.59-1.43,3.78,3.78,0,0,1,3,1.46,5.3,5.3,0,0,1,1.26,3.59,5.05,5.05,0,0,1-1.2,3.25q-7.07,8.71-16.56,8.72Q676,116.62,676,91q0-13.23,6.25-22.82,7.11-10.9,17.59-10.91a17,17,0,0,1,13.48,6.17Q718.67,69.59,718.67,79.09Zm-8.18.56q-.25-6.45-3-10.21a8.2,8.2,0,0,0-6.85-3.75A12.6,12.6,0,0,0,691.25,70q-4.18,4.36-6.25,12.34a48.91,48.91,0,0,0,6.21.37A75.82,75.82,0,0,0,710.49,79.65Z"/>
        <path class="cls-3" d="M759.48,75.47a4.28,4.28,0,0,1-.9,2.76,2.67,2.67,0,0,1-2.14,1.14,24.36,24.36,0,0,1-4.71-1.81,18.35,18.35,0,0,0-10.58-1.62,71,71,0,0,0-1.52,13.87q0,8.11,2.42,12.48c1.62,2.9,3.87,4.36,6.75,4.36a9.32,9.32,0,0,0,3.47-1,9.05,9.05,0,0,1,3.1-1q3.28,0,3.29,4.37A5.3,5.3,0,0,1,756,113.7a13.52,13.52,0,0,1-7.4,1.76q-17.43,0-17.43-26.21a69.53,69.53,0,0,1,1.19-12.15q-1.14.18-5,1.07a19,19,0,0,1-3.7.55q-4.39,0-4.4-3.8,0-5.19,15.17-6.77Q737.53,57,742.05,57a3.07,3.07,0,0,1,2.39,1.13,4.07,4.07,0,0,1,1,2.76,10,10,0,0,1-.62,3q-.62,1.83-1.23,3.69Q759.48,68.19,759.48,75.47Z"/>
        <path class="cls-3" d="M805.31,79.09c0,3.22-1,5.6-3,7.15-.87.68-3.66,1.56-8.34,2.64a71.94,71.94,0,0,1-15.91,2.18,67.53,67.53,0,0,1-7.23-.46q0,17.49,11.79,17.48a9.21,9.21,0,0,0,5.88-2.08,44.38,44.38,0,0,0,4.73-5,3.47,3.47,0,0,1,2.59-1.43,3.8,3.8,0,0,1,3,1.46,5.34,5.34,0,0,1,1.25,3.59,5.1,5.1,0,0,1-1.19,3.25q-7.06,8.71-16.56,8.72-19.65,0-19.65-25.65,0-13.23,6.25-22.82,7.11-10.9,17.59-10.91A17,17,0,0,1,800,63.41Q805.32,69.59,805.31,79.09Zm-8.18.56q-.24-6.45-3-10.21a8.18,8.18,0,0,0-6.84-3.75A12.6,12.6,0,0,0,777.9,70q-4.2,4.36-6.25,12.34a48.68,48.68,0,0,0,6.21.37A75.75,75.75,0,0,0,797.13,79.65Z"/>
        <path class="cls-3" d="M825.7,55.06a77.77,77.77,0,0,1-1.85,9.42,139.12,139.12,0,0,0-3.37,26.3c-.19,4.24-.36,6.7-.49,7.38a2.79,2.79,0,0,1-2.88,2.5q-2.34,0-3.29-3.06-.86-2.88-.86-9.79,0-12.24,4.23-28.2,2.1-8,5.8-8C824.8,51.63,825.7,52.78,825.7,55.06Zm-2.88,58.31a6.06,6.06,0,0,1-1.27,4,4,4,0,0,1-3.21,1.55,4.14,4.14,0,0,1-3.27-1.57,5.92,5.92,0,0,1-1.33-3.95,5.43,5.43,0,0,1,1.31-3.71,4.22,4.22,0,0,1,3.29-1.48,4.09,4.09,0,0,1,3.23,1.44A5.51,5.51,0,0,1,822.82,113.37Z"/>
      </g>
      <g>
        <path class="cls-4" d="M242.73,105.39q0,12.81-6.9,19v.19Q229.58,129,217,129q-18.59,0-29.31-2.55a11.93,11.93,0,0,1-4.48-1.81,4.42,4.42,0,0,1-1.39-3.53q0-3.61,4.35-3.62a27.57,27.57,0,0,1,5.39.7q-1.23-15.25-1.24-25.93A349,349,0,0,1,192.38,55l-2,.19H190q-3.82,0-3.82-4.18a4.51,4.51,0,0,1,2.38-4.36q2.18-1.15,7.23-1.16,8.14,0,12.79,2.28,4.31,2.13,4.31,5.52a4.89,4.89,0,0,1-1.17,3.24,3.4,3.4,0,0,1-2.65,1.39,9.22,9.22,0,0,1-3.49-1.34A13.8,13.8,0,0,0,201,54.88a279.43,279.43,0,0,0-2.55,37.25q0,8.12,1.61,27.13a133.31,133.31,0,0,0,15.33,1.16q10.23,0,16.23-4.08,1.72-2.46,2.63-9.6a28.25,28.25,0,0,1,1.11-5.89,3.23,3.23,0,0,1,3.25-2Q242.74,98.85,242.73,105.39Z"/>
        <path class="cls-4" d="M288.36,79.09q0,4.83-3,7.15-1.32,1-8.35,2.64a71.93,71.93,0,0,1-15.9,2.18,67.7,67.7,0,0,1-7.24-.46q0,17.49,11.8,17.48a9.25,9.25,0,0,0,5.88-2.08,44.62,44.62,0,0,0,4.72-5,3.5,3.5,0,0,1,2.59-1.43,3.78,3.78,0,0,1,3,1.46,5.3,5.3,0,0,1,1.26,3.59,5.05,5.05,0,0,1-1.2,3.25q-7.06,8.71-16.56,8.72-19.65,0-19.65-25.65,0-13.23,6.25-22.82,7.11-10.9,17.59-10.91a17,17,0,0,1,13.48,6.17Q288.36,69.59,288.36,79.09Zm-8.18.56q-.26-6.45-3-10.21a8.21,8.21,0,0,0-6.85-3.75A12.6,12.6,0,0,0,260.94,70q-4.19,4.36-6.25,12.34a48.91,48.91,0,0,0,6.21.37A75.82,75.82,0,0,0,280.18,79.65Z"/>
        <path class="cls-4" d="M332.21,60.49a62.77,62.77,0,0,1-1.76,11.88q-1.93,8.8-2.92,12.34a162.73,162.73,0,0,1-7.61,21.06q-5.22,12-8.92,12-2.34,0-3.61-5.2Q305.7,105.4,304,98.2q-5.81-20.82-12.37-34.32c-.58-1.08-1.15-2.17-1.71-3.25a6.33,6.33,0,0,1-.84-2.83q0-4.17,3.7-4.17,4.15,0,9.18,12.2,4.75,11.64,11.13,36.54,6.86-15.21,10.51-39c.65-4.17,1.08-6.55,1.27-7.14a3.18,3.18,0,0,1,3.21-2.46Q332.21,53.81,332.21,60.49Z"/>
        <path class="cls-4" d="M380.39,79.09q0,4.83-3,7.15-1.32,1-8.35,2.64a71.93,71.93,0,0,1-15.9,2.18,67.7,67.7,0,0,1-7.24-.46q0,17.49,11.8,17.48a9.25,9.25,0,0,0,5.88-2.08,44.62,44.62,0,0,0,4.72-5,3.5,3.5,0,0,1,2.59-1.43,3.78,3.78,0,0,1,3,1.46,5.3,5.3,0,0,1,1.26,3.59A5.1,5.1,0,0,1,374,107.9q-7.08,8.71-16.57,8.72-19.65,0-19.65-25.65,0-13.23,6.25-22.82,7.11-10.9,17.59-10.91a17,17,0,0,1,13.48,6.17Q380.39,69.59,380.39,79.09Zm-8.18.56q-.25-6.45-3-10.21a8.21,8.21,0,0,0-6.85-3.75A12.6,12.6,0,0,0,353,70q-4.19,4.36-6.25,12.34a48.91,48.91,0,0,0,6.21.37A75.82,75.82,0,0,0,372.21,79.65Z"/>
        <path class="cls-4" d="M398.51,118.15a16.39,16.39,0,0,1-.37,4.31,2.92,2.92,0,0,1-3.07,2.05c-2.59,0-4.11-2.39-4.58-7.15q-1.19-12.06-1.18-33,0-23.41.57-28.8.64-5.89,4.13-5.89,4.1,0,4.09,5.61,0,1.39-.45,11.06t-.45,17.84q0,7.14.66,18.48T398.51,118.15Z"/>
        <path class="cls-4" d="M478.71,99.78q0,4.83-8.68,12.39-6.12,5.28-16.07,5.28t-15.53-7.32q-5.81-7.47-5.8-20.51,0-16.83,6.66-26.23A21.21,21.21,0,0,1,457.58,54q8.63,0,14.14,4.36,5.22,4.08,5.22,9.79,0,4.68-3.87,4.68a2.81,2.81,0,0,1-2.63-1.44,49,49,0,0,0-2.26-5.1q-2.91-3.71-10.6-3.71a13.89,13.89,0,0,0-12.39,6.82q-4.38,6.81-4.38,19.48,0,20,14.14,20a18,18,0,0,0,14-6.54s.88-1.42,2.55-4.18c1-1.67,2.11-2.5,3.37-2.5A3.57,3.57,0,0,1,477.51,97,4,4,0,0,1,478.71,99.78Z"/>
        <path class="cls-4" d="M530,85q0,13.65-7.07,21.74T504,114.81q-9.79,0-15.34-7.54t-5.54-20.94q0-14.1,6.7-21.9t18.25-7.65a19.1,19.1,0,0,1,15.82,7.75Q530,72.27,530,85Zm-8.18.1q0-9.33-4-14.59a13,13,0,0,0-10.95-5.27q-15.49,0-15.5,21,0,9.69,3.37,14.91a10.83,10.83,0,0,0,9.66,5.22q8.14,0,12.79-5.61T521.78,85.08Z"/>
        <path class="cls-4" d="M595.52,86.42Q595.52,122,588,122q-2.88,0-2.88-4.08s.47-3.56,1.4-10.6a160.2,160.2,0,0,0,1.4-21q0-17.49-7.32-17.49-6.4,0-8.42,8.81-1.53,6.78-1.53,26.63a60.08,60.08,0,0,0,.42,6.75c.27,2.46.41,3.9.41,4.33q0,4.61-3.87,4.6-4.64,0-4.64-16.75,0-7.05.47-14.73c.32-5.11.47-7.86.47-8.23q0-6.87-6.41-6.87-6,0-8.71,6.08Q546.19,85.26,546.2,98q0,8.2.41,15.28a59.23,59.23,0,0,0,.41,6,4.05,4.05,0,0,1-1.13,2.93,3.88,3.88,0,0,1-2.9,1.16q-3.66,0-4.52-7.89-.29-2.26-.29-11.78a241.47,241.47,0,0,1,2.88-38A33.51,33.51,0,0,1,543,57.8a3.71,3.71,0,0,1,3.58-2.36q3.86,0,3.86,4.63l-1.85,10.49A11.28,11.28,0,0,1,558.65,65q5.26,0,8.26,4.91,5.22-9.69,14.72-9.69Q595.52,60.17,595.52,86.42Z"/>
        <path class="cls-4" d="M648.38,88.79q0,11.86-6.27,18.95t-16.79,7.07a24.47,24.47,0,0,1-11.47-2.92,129.89,129.89,0,0,1-1.52,13.36c-.68,2.72-1.94,4.08-3.76,4.08a4,4,0,0,1-2.93-1.21,4,4,0,0,1-1.2-3c0,.18.22-1.78.66-5.9q.82-7.23,1.27-15.63.66-12.06.66-26.07,0-2.78-.08-6.38c-.06-2.39-.08-3.84-.08-4.33,0-4.12,1.27-6.17,3.82-6.17s4,1.42,4.11,4.27l.08,2.82a16.57,16.57,0,0,1,12.78-5.38,18.21,18.21,0,0,1,15,7Q648.38,76.64,648.38,88.79Zm-8.18,0q0-8.49-3.49-13.18a11.43,11.43,0,0,0-9.7-4.68q-9.71,0-12,6.91v4.59q0,10.77-.5,21.16a22.46,22.46,0,0,0,10.77,2.87q7.11,0,11-4.59T640.2,88.79Z"/>
        <path class="cls-4" d="M667.16,118.15a16.39,16.39,0,0,1-.37,4.31,2.92,2.92,0,0,1-3.07,2.05c-2.59,0-4.11-2.39-4.58-7.15Q658,105.3,658,84.33q0-23.41.57-28.8c.44-3.93,1.81-5.89,4.13-5.89q4.1,0,4.09,5.61,0,1.39-.45,11.06t-.45,17.84q0,7.14.66,18.48T667.16,118.15Z"/>
        <path class="cls-4" d="M718.67,79.09q0,4.83-3,7.15-1.32,1-8.35,2.64a71.93,71.93,0,0,1-15.9,2.18,67.7,67.7,0,0,1-7.24-.46q0,17.49,11.8,17.48A9.25,9.25,0,0,0,701.9,106a44.62,44.62,0,0,0,4.72-5,3.5,3.5,0,0,1,2.59-1.43,3.78,3.78,0,0,1,3,1.46,5.3,5.3,0,0,1,1.26,3.59,5.05,5.05,0,0,1-1.2,3.25q-7.07,8.71-16.56,8.72Q676,116.62,676,91q0-13.23,6.25-22.82,7.11-10.9,17.59-10.91a17,17,0,0,1,13.48,6.17Q718.67,69.59,718.67,79.09Zm-8.18.56q-.25-6.45-3-10.21a8.2,8.2,0,0,0-6.85-3.75A12.6,12.6,0,0,0,691.25,70q-4.18,4.36-6.25,12.34a48.91,48.91,0,0,0,6.21.37A75.82,75.82,0,0,0,710.49,79.65Z"/>
        <path class="cls-4" d="M759.48,75.47a4.28,4.28,0,0,1-.9,2.76,2.67,2.67,0,0,1-2.14,1.14,24.36,24.36,0,0,1-4.71-1.81,18.35,18.35,0,0,0-10.58-1.62,71,71,0,0,0-1.52,13.87q0,8.11,2.42,12.48c1.62,2.9,3.87,4.36,6.75,4.36a9.32,9.32,0,0,0,3.47-1,9.05,9.05,0,0,1,3.1-1q3.28,0,3.29,4.37A5.3,5.3,0,0,1,756,113.7a13.52,13.52,0,0,1-7.4,1.76q-17.43,0-17.43-26.21a69.53,69.53,0,0,1,1.19-12.15q-1.14.18-5,1.07a19,19,0,0,1-3.7.55q-4.39,0-4.4-3.8,0-5.19,15.17-6.77Q737.53,57,742.05,57a3.07,3.07,0,0,1,2.39,1.13,4.07,4.07,0,0,1,1,2.76,10,10,0,0,1-.62,3q-.62,1.83-1.23,3.69Q759.48,68.19,759.48,75.47Z"/>
        <path class="cls-4" d="M805.31,79.09c0,3.22-1,5.6-3,7.15-.87.68-3.66,1.56-8.34,2.64a71.94,71.94,0,0,1-15.91,2.18,67.53,67.53,0,0,1-7.23-.46q0,17.49,11.79,17.48a9.21,9.21,0,0,0,5.88-2.08,44.38,44.38,0,0,0,4.73-5,3.47,3.47,0,0,1,2.59-1.43,3.8,3.8,0,0,1,3,1.46,5.34,5.34,0,0,1,1.25,3.59,5.1,5.1,0,0,1-1.19,3.25q-7.06,8.71-16.56,8.72-19.65,0-19.65-25.65,0-13.23,6.25-22.82,7.11-10.9,17.59-10.91A17,17,0,0,1,800,63.41Q805.32,69.59,805.31,79.09Zm-8.18.56q-.24-6.45-3-10.21a8.18,8.18,0,0,0-6.84-3.75A12.6,12.6,0,0,0,777.9,70q-4.2,4.36-6.25,12.34a48.68,48.68,0,0,0,6.21.37A75.75,75.75,0,0,0,797.13,79.65Z"/>
        <path class="cls-4" d="M825.7,55.06a77.77,77.77,0,0,1-1.85,9.42,139.12,139.12,0,0,0-3.37,26.3c-.19,4.24-.36,6.7-.49,7.38a2.79,2.79,0,0,1-2.88,2.5q-2.34,0-3.29-3.06-.86-2.88-.86-9.79,0-12.24,4.23-28.2,2.1-8,5.8-8C824.8,51.63,825.7,52.78,825.7,55.06Zm-2.88,58.31a6.06,6.06,0,0,1-1.27,4,4,4,0,0,1-3.21,1.55,4.14,4.14,0,0,1-3.27-1.57,5.92,5.92,0,0,1-1.33-3.95,5.43,5.43,0,0,1,1.31-3.71,4.22,4.22,0,0,1,3.29-1.48,4.09,4.09,0,0,1,3.23,1.44A5.51,5.51,0,0,1,822.82,113.37Z"/>
      </g>
    </g>
    <g>
      <ellipse class="cls-5" cx="676.29" cy="309.01" rx="93.83" ry="82.48"/>
      <g>
        <ellipse class="cls-5" cx="582.21" cy="226.41" rx="54.72" ry="57.7" transform="translate(80.36 598.39) rotate(-57.8)"/>
        <ellipse class="cls-6" cx="581.81" cy="226.76" rx="32.87" ry="37.16" transform="translate(-23.17 381.41) rotate(-35.63)"/>
      </g>
      <g>
        <ellipse class="cls-5" cx="770.51" cy="227.05" rx="57.7" ry="54.72" transform="translate(-2.47 445.56) rotate(-32.2)"/>
        <ellipse class="cls-6" cx="771.27" cy="226.3" rx="37.16" ry="32.87" transform="translate(138.01 721.32) rotate(-54.37)"/>
      </g>
      <path d="M682.17,325l4.71-5.18A7.92,7.92,0,0,0,681,306.61H671.6a7.92,7.92,0,0,0-5.87,13.25l4.71,5.18A7.93,7.93,0,0,0,682.17,325Z"/>
      <g>
        <path class="cls-7" d="M664.86,313.23c-1.37-7.47-37.89-7.61-77.81-.3"/>
        <path class="cls-7" d="M667.61,317.11c-2.05-7.31-38.43-4.08-77.5,6.9"/>
        <path class="cls-7" d="M670.23,321.58c-2.63-7.13-38.63-1-76.71,13"/>
      </g>
      <g>
        <path class="cls-7" d="M687.74,313.53c1.37-7.47,37.89-7.61,77.81-.3"/>
        <path class="cls-7" d="M685,317.41c2-7.31,38.43-4.07,77.5,6.9"/>
        <path class="cls-7" d="M682.37,321.88c2.63-7.12,38.63-1,76.71,13"/>
      </g>
      <path class="cls-8" d="M633.71,283c6-8.42,20.4-9.41,30.66-2.11"/>
      <path class="cls-8" d="M718.83,283.39c-6-8.43-20.41-9.42-30.66-2.11"/>
      <g>
        <path class="cls-9" d="M689.49,344v0c-6.58,7.25-18.36,7.25-26.35,0,7.71-2.15,13.33-8.86,13.33-16.81h.33A17.92,17.92,0,0,0,689.49,344Z"/>
        <g>
          <path class="cls-10" d="M676.47,327.25c0,7.95-5.62,14.66-13.33,16.81a19.29,19.29,0,0,1-5.31.72"/>
          <path class="cls-10" d="M676.79,326.87c0,.12,0,.25,0,.37a17.92,17.92,0,0,0,18,17.54"/>
          <path class="cls-10" d="M689.49,344c-6.58,7.25-18.36,7.25-26.35,0l0,0"/>
        </g>
      </g>
    </g>
    <g>
      <path class="cls-11" d="M131.64,194.19a1.92,1.92,0,0,1-.47,1.24,1.34,1.34,0,0,1-1,.56,2.09,2.09,0,0,1-.63-.11,4.75,4.75,0,0,1-.54-.21l-.4-.18q-1.08,21.25-5.14,31c-.72,1.69-1.56,2.54-2.54,2.54q-4.12,0-6.15-18.37a97.85,97.85,0,0,1-4.36,12.5q-1.93,4.1-3.82,4.1-1.29,0-2.43-1.77a26.56,26.56,0,0,1-2.35-5.54q-2.52-7.71-2.51-23.15v-1.35a7.84,7.84,0,0,0-.89.16,3.09,3.09,0,0,1-.66.12c-1.11,0-1.67-.65-1.67-1.94q0-2.28,5.33-2.28a9.42,9.42,0,0,1,4,.71c1,.47,1.5,1.06,1.5,1.76,0,1.34-.53,2-1.6,2a4.61,4.61,0,0,1-1.21-.26,7.34,7.34,0,0,0-1.45-.36l-.07,4.7q0,14,4.13,22.83,2.57-4,5.84-16.06.57-2.15,1.16-5.28a22.4,22.4,0,0,1,.77-3.31c.3-.77.74-1.15,1.31-1.15a1.55,1.55,0,0,1,1.59,1.3,18.67,18.67,0,0,1,.25,3.83c0,.32,0,.69,0,1.12s0,.7,0,.8a54.86,54.86,0,0,0,3.32,19.95q3.49-10.08,4.43-29a5.8,5.8,0,0,0-.85.17,3.12,3.12,0,0,1-.78.13c-1.09,0-1.63-.64-1.63-1.92,0-1.46,1.48-2.2,4.46-2.2a7.23,7.23,0,0,1,3.77.9A2.4,2.4,0,0,1,131.64,194.19Z"/>
      <path class="cls-11" d="M148.27,207.35a3.47,3.47,0,0,1-1.2,2.9,12.48,12.48,0,0,1-3.38,1.07,29.06,29.06,0,0,1-6.45.88,26.34,26.34,0,0,1-2.93-.19q0,7.1,4.78,7.09a3.76,3.76,0,0,0,2.38-.84,18.44,18.44,0,0,0,1.92-2,1.42,1.42,0,0,1,1.05-.58,1.54,1.54,0,0,1,1.2.59,2.17,2.17,0,0,1,.51,1.46,2.07,2.07,0,0,1-.48,1.32,8.47,8.47,0,0,1-6.72,3.53q-7.95,0-8-10.4a16.58,16.58,0,0,1,2.53-9.25c1.92-2.94,4.3-4.42,7.13-4.42a6.92,6.92,0,0,1,5.47,2.5A9.44,9.44,0,0,1,148.27,207.35Zm-3.32.23a7.31,7.31,0,0,0-1.21-4.14,3.29,3.29,0,0,0-2.77-1.52,5.13,5.13,0,0,0-3.82,1.74,11.15,11.15,0,0,0-2.53,5,20.09,20.09,0,0,0,2.52.15A31,31,0,0,0,145,207.58Z"/>
      <path class="cls-11" d="M155.62,223.18a6.72,6.72,0,0,1-.15,1.75,1.19,1.19,0,0,1-1.25.83c-1.05,0-1.67-1-1.86-2.9q-.48-4.89-.48-13.39,0-9.5.24-11.67c.17-1.59.73-2.39,1.67-2.39,1.11,0,1.66.76,1.66,2.27,0,.38-.06,1.88-.18,4.49s-.19,5-.19,7.23q0,2.9.27,7.49C155.53,220,155.62,222.05,155.62,223.18Z"/>
      <path class="cls-11" d="M164.76,223.18a6.72,6.72,0,0,1-.15,1.75,1.18,1.18,0,0,1-1.24.83c-1.05,0-1.67-1-1.86-2.9Q161,218,161,209.47q0-9.5.23-11.67c.18-1.59.74-2.39,1.68-2.39,1.1,0,1.66.76,1.66,2.27,0,.38-.06,1.88-.19,4.49s-.18,5-.18,7.23q0,2.9.27,7.49C164.67,220,164.76,222.05,164.76,223.18Z"/>
      <path class="cls-11" d="M197.3,195c0-.08-.06.86-.2,2.82q-.21,3.41-.36,7.24c-.13,3.68-.19,7.61-.19,11.77,0,.85,0,1.73,0,2.62s0,1.37,0,1.42c0,1.87-.53,2.8-1.58,2.8s-1.72-1-1.72-3.16c0-.48,0-.87,0-1.14a9.56,9.56,0,0,1-7.29,3.49,6.65,6.65,0,0,1-5.48-2.52,10.85,10.85,0,0,1-2-7,15.23,15.23,0,0,1,2.93-9.72,9.37,9.37,0,0,1,7.7-3.71,10.4,10.4,0,0,1,4.58,1.15,61.62,61.62,0,0,1,.31-6.24c.25-1.28.86-1.92,1.85-1.92S197.3,193.59,197.3,195Zm-3.73,9.78a7.52,7.52,0,0,0-4.38-1.55,6.29,6.29,0,0,0-5.35,2.65,11.76,11.76,0,0,0-2,7.17,7.74,7.74,0,0,0,1.33,4.82,4.34,4.34,0,0,0,3.65,1.72,5.09,5.09,0,0,0,4.46-2.2c.29-.49.57-1,.85-1.48a1.85,1.85,0,0,1,1.19-.94C193.35,211.41,193.43,208,193.57,204.74Z"/>
      <path class="cls-11" d="M219.51,209.74q0,5.52-2.86,8.81a9.64,9.64,0,0,1-7.65,3.28,7.27,7.27,0,0,1-6.21-3.06q-2.25-3-2.25-8.49,0-5.72,2.71-8.87a9.23,9.23,0,0,1,7.4-3.1,7.72,7.72,0,0,1,6.41,3.14A13,13,0,0,1,219.51,209.74Zm-3.31,0a9.53,9.53,0,0,0-1.63-5.92,5.27,5.27,0,0,0-4.44-2.13q-6.27,0-6.28,8.52a11.14,11.14,0,0,0,1.37,6,4.38,4.38,0,0,0,3.91,2.12,6.35,6.35,0,0,0,5.18-2.28A9.66,9.66,0,0,0,216.2,209.78Z"/>
      <path class="cls-11" d="M238.86,210.62a31.28,31.28,0,0,1-1.3,8.9c-.53,1.83-1.19,2.74-2,2.74a1.5,1.5,0,0,1-1.08-.44,1.44,1.44,0,0,1-.45-1.06c0-.12.27-1.26.8-3.44a27.22,27.22,0,0,0,.8-6.47q0-7.32-4.06-7.32a4.57,4.57,0,0,0-3.79,1.94,8.47,8.47,0,0,0-1.51,5.26,39.67,39.67,0,0,0,.45,5.09,37.82,37.82,0,0,1,.46,4.65c0,2.16-.54,3.24-1.63,3.24a1.38,1.38,0,0,1-1.15-.41A3.24,3.24,0,0,1,224,222q0-1.17-.41-6.73-.69-7.78-.69-11.06,0-5.7,2-5.7a1.46,1.46,0,0,1,1.08.45,1.39,1.39,0,0,1,.46,1,10.46,10.46,0,0,1-.21,1.56,11.86,11.86,0,0,0-.19,1.94v.43q2.46-3.78,6-3.78a5.74,5.74,0,0,1,5.06,2.72Q238.86,205.54,238.86,210.62Z"/>
      <path class="cls-11" d="M259.2,207.35a3.47,3.47,0,0,1-1.2,2.9,12.34,12.34,0,0,1-3.38,1.07,29,29,0,0,1-6.45.88,26.34,26.34,0,0,1-2.93-.19q0,7.1,4.78,7.09a3.74,3.74,0,0,0,2.38-.84,17.5,17.5,0,0,0,1.92-2,1.42,1.42,0,0,1,1.05-.58,1.56,1.56,0,0,1,1.21.59,2.17,2.17,0,0,1,.51,1.46,2,2,0,0,1-.49,1.32,8.47,8.47,0,0,1-6.71,3.53q-8,0-8-10.4a16.59,16.59,0,0,1,2.54-9.25c1.92-2.94,4.3-4.42,7.13-4.42a6.9,6.9,0,0,1,5.46,2.5A9.39,9.39,0,0,1,259.2,207.35Zm-3.31.23a7.39,7.39,0,0,0-1.21-4.14,3.3,3.3,0,0,0-2.78-1.52,5.11,5.11,0,0,0-3.81,1.74,11.05,11.05,0,0,0-2.53,5,19.93,19.93,0,0,0,2.51.15A31.08,31.08,0,0,0,255.89,207.58Z"/>
      <path class="cls-11" d="M267.47,197.61a31.37,31.37,0,0,1-.75,3.82,55.48,55.48,0,0,0-1.37,10.66c-.08,1.72-.14,2.71-.2,3a1.12,1.12,0,0,1-1.17,1c-.63,0-1.07-.41-1.33-1.24a15.62,15.62,0,0,1-.35-4A45.06,45.06,0,0,1,264,199.45c.56-2.15,1.35-3.23,2.35-3.23C267.1,196.22,267.47,196.68,267.47,197.61Zm-1.17,23.64a2.41,2.41,0,0,1-.52,1.6,1.6,1.6,0,0,1-1.3.63,1.66,1.66,0,0,1-1.32-.64,2.36,2.36,0,0,1-.54-1.59,2.21,2.21,0,0,1,.53-1.51,1.71,1.71,0,0,1,1.33-.6,1.65,1.65,0,0,1,1.31.58A2.24,2.24,0,0,1,266.3,221.25Z"/>
      <path class="cls-11" d="M122.16,240.81c0,.94-.8,2.77-2.4,5.47a49,49,0,0,1-10.33,12.64l0,0v2.35c0,1.09,0,2.41,0,4s0,2.56,0,3a26.52,26.52,0,0,1-.3,5q-.4,1.62-1.65,1.62c-1,0-1.54-1-1.54-2.93,0-.1,0-1,.07-2.65s.07-3.29.07-4.86v-4.81a37.11,37.11,0,0,1-5.7-8.82c-2.24-4.48-3.37-7.83-3.37-10,0-1.35.56-2,1.68-2a1.33,1.33,0,0,1,1.37.81,14,14,0,0,1,.58,2.18q.41,1.8.75,2.82a34.65,34.65,0,0,0,6.3,11.39,47.5,47.5,0,0,0,10.06-13.7l1.29-2.56a1.55,1.55,0,0,1,1.29-.94,1.62,1.62,0,0,1,1.24.59A2,2,0,0,1,122.16,240.81Z"/>
      <path class="cls-11" d="M140.55,256c0,3.69-1,6.62-2.86,8.81A9.64,9.64,0,0,1,130,268a7.27,7.27,0,0,1-6.21-3.06q-2.25-3-2.25-8.49c0-3.81.9-6.76,2.71-8.87a9.23,9.23,0,0,1,7.4-3.1,7.72,7.72,0,0,1,6.41,3.14A13,13,0,0,1,140.55,256Zm-3.31,0a9.55,9.55,0,0,0-1.63-5.92,5.27,5.27,0,0,0-4.44-2.13q-6.27,0-6.28,8.52a11.14,11.14,0,0,0,1.37,6,4.38,4.38,0,0,0,3.91,2.12,6.35,6.35,0,0,0,5.18-2.28A9.64,9.64,0,0,0,137.24,256Z"/>
      <path class="cls-11" d="M161.5,267.78a2.35,2.35,0,0,1-.49,1.52,1.45,1.45,0,0,1-1.18.62c-.88,0-1.61-1.52-2.21-4.57-1.88,2.9-4.16,4.34-6.84,4.34q-6.65,0-6.64-12a69.46,69.46,0,0,1,.71-10.7c.29-1.88,1-2.82,2.12-2.82a1.38,1.38,0,0,1,1.05.5,1.75,1.75,0,0,1,.45,1.19c0,.4-.16,2-.49,4.66a64.73,64.73,0,0,0-.48,7.56q0,8.06,3.93,8.05a4.62,4.62,0,0,0,4-2.23,11.18,11.18,0,0,0,1.5-6.29v-1.11a68.4,68.4,0,0,1,.28-8.08c.27-1.71.89-2.56,1.86-2.56s1.4.73,1.4,2.2c0,.26,0,1.22-.14,2.86s-.14,3.14-.14,4.49a57.74,57.74,0,0,0,.63,8.85C161.29,267,161.5,268.15,161.5,267.78Z"/>
      <path class="cls-11" d="M192.92,258.88a32.65,32.65,0,0,1-.91,8.61q-.87,3.09-2.19,3.09a1.68,1.68,0,0,1-1.26-.52,1.6,1.6,0,0,1-.52-1.17,47.83,47.83,0,0,0,1.57-10q0-5.08-1-7.41a3.58,3.58,0,0,0-3.46-2.38,5.56,5.56,0,0,0-2.59.69,5.94,5.94,0,0,0-2,1.69,6.7,6.7,0,0,0-.88,3.82v1.2q0,4.8.32,9.3c.22,3,.33,4.41.33,4.21q0,1.86-1.53,1.86a1.33,1.33,0,0,1-1.25-.62,6.52,6.52,0,0,1-.54-2.13,98.67,98.67,0,0,1,.69-26.25,10.25,10.25,0,0,1,.53-2.33,1.28,1.28,0,0,1,1.25-.79,1.35,1.35,0,0,1,1.07.53,2.1,2.1,0,0,1,.43,1.35s-.28,2.08-.85,6.32a7.1,7.1,0,0,1,5.35-2.31Q192.93,245.63,192.92,258.88Z"/>
      <path class="cls-11" d="M213.6,253.56a3.46,3.46,0,0,1-1.2,2.9,12.48,12.48,0,0,1-3.38,1.07,29.06,29.06,0,0,1-6.45.88,26.34,26.34,0,0,1-2.93-.19q0,7.09,4.78,7.09a3.74,3.74,0,0,0,2.38-.84,19,19,0,0,0,1.92-2,1.4,1.4,0,0,1,1.05-.59,1.54,1.54,0,0,1,1.2.59,2.18,2.18,0,0,1,.51,1.46,2.07,2.07,0,0,1-.48,1.32,8.45,8.45,0,0,1-6.72,3.53q-8,0-8-10.4a16.58,16.58,0,0,1,2.53-9.25c1.92-2.94,4.3-4.42,7.13-4.42a6.9,6.9,0,0,1,5.47,2.51A9.39,9.39,0,0,1,213.6,253.56Zm-3.32.23a7.34,7.34,0,0,0-1.21-4.14,3.29,3.29,0,0,0-2.77-1.52,5.1,5.1,0,0,0-3.82,1.75,11.06,11.06,0,0,0-2.53,5,20.09,20.09,0,0,0,2.52.15A31,31,0,0,0,210.28,253.79Z"/>
      <path class="cls-11" d="M221,269.39a6.67,6.67,0,0,1-.15,1.75,1.19,1.19,0,0,1-1.25.83c-1.05,0-1.67-1-1.86-2.9q-.48-4.89-.48-13.38c0-6.33.08-10.23.24-11.68s.73-2.39,1.67-2.39c1.11,0,1.66.76,1.66,2.28,0,.37-.06,1.87-.18,4.48s-.19,5-.19,7.23q0,2.89.27,7.49T221,269.39Z"/>
      <path class="cls-11" d="M242.71,257.49a11.17,11.17,0,0,1-2.54,7.68,8.67,8.67,0,0,1-6.81,2.87,9.91,9.91,0,0,1-4.65-1.18,50.63,50.63,0,0,1-.62,5.41c-.28,1.1-.78,1.66-1.52,1.66a1.63,1.63,0,0,1-1.19-.49,1.67,1.67,0,0,1-.48-1.21c0,.08.08-.72.26-2.38.22-2,.4-4.07.52-6.34.18-3.26.26-6.78.26-10.57q0-1.12,0-2.58c0-1,0-1.56,0-1.76,0-1.67.52-2.5,1.55-2.5s1.63.57,1.66,1.73l0,1.14a6.71,6.71,0,0,1,5.18-2.18,7.35,7.35,0,0,1,6.06,2.86A12.17,12.17,0,0,1,242.71,257.49Zm-3.32,0a8.83,8.83,0,0,0-1.41-5.34,4.66,4.66,0,0,0-3.94-1.9c-2.62,0-4.23.94-4.85,2.8v1.87c0,2.9-.06,5.76-.2,8.57a9.07,9.07,0,0,0,4.37,1.17,5.53,5.53,0,0,0,4.46-1.87A8,8,0,0,0,239.39,257.49Z"/>
      <path class="cls-11" d="M262.05,253.56a3.46,3.46,0,0,1-1.2,2.9,12.34,12.34,0,0,1-3.38,1.07,29,29,0,0,1-6.45.88,26.34,26.34,0,0,1-2.93-.19q0,7.09,4.78,7.09a3.74,3.74,0,0,0,2.38-.84,18,18,0,0,0,1.92-2,1.4,1.4,0,0,1,1.05-.59,1.56,1.56,0,0,1,1.21.59,2.18,2.18,0,0,1,.51,1.46,2.08,2.08,0,0,1-.49,1.32,8.44,8.44,0,0,1-6.71,3.53q-8,0-8-10.4a16.59,16.59,0,0,1,2.54-9.25c1.92-2.94,4.29-4.42,7.13-4.42a6.88,6.88,0,0,1,5.46,2.51A9.39,9.39,0,0,1,262.05,253.56Zm-3.31.23a7.42,7.42,0,0,0-1.21-4.14,3.32,3.32,0,0,0-2.78-1.52,5.08,5.08,0,0,0-3.81,1.75,11,11,0,0,0-2.53,5,19.81,19.81,0,0,0,2.51.15A31.08,31.08,0,0,0,258.74,253.79Z"/>
      <path class="cls-11" d="M282.56,241.17c0-.08-.06.86-.2,2.82q-.21,3.4-.36,7.24-.19,5.53-.19,11.77c0,.85,0,1.73,0,2.62s0,1.37,0,1.42c0,1.87-.53,2.81-1.58,2.81s-1.72-1.06-1.72-3.16c0-.49,0-.88,0-1.15a9.57,9.57,0,0,1-7.29,3.5,6.65,6.65,0,0,1-5.48-2.53,10.83,10.83,0,0,1-2-6.95q0-6,2.94-9.72a9.37,9.37,0,0,1,7.7-3.71,10.54,10.54,0,0,1,4.58,1.15,58.51,58.51,0,0,1,.31-6.24c.25-1.28.86-1.92,1.84-1.92S282.56,239.8,282.56,241.17ZM278.83,251a7.51,7.51,0,0,0-4.38-1.54,6.3,6.3,0,0,0-5.35,2.64,11.76,11.76,0,0,0-2,7.17,7.68,7.68,0,0,0,1.33,4.82,4.34,4.34,0,0,0,3.65,1.72,5.09,5.09,0,0,0,4.46-2.2c.28-.48.57-1,.85-1.48a1.85,1.85,0,0,1,1.19-.94C278.61,257.62,278.69,254.22,278.83,251Z"/>
      <path class="cls-11" d="M328.11,260.07a96.9,96.9,0,0,1-.58,11.82c-.23,1.8-.85,2.69-1.85,2.69s-1.66-.69-1.66-2.07c0-.06.06-.75.2-2.08.15-1.57.28-3.15.38-4.76.13-2.38.2-4.88.2-7.48a113.43,113.43,0,0,0-1-14.44q-4,4.49-7.1,14l-1.23,4c-.4,1-1,1.47-1.67,1.47a1.62,1.62,0,0,1-1.51-1.15c-.13-.28-.45-1.4-1-3.37a38.58,38.58,0,0,0-7.72-14.66q-1.85,6.76-1.84,18.48,0,1.7.12,4.17c.08,1.66.13,2.76.13,3.3,0,1.9-.57,2.85-1.69,2.85-.87,0-1.44-.6-1.68-1.8a42.36,42.36,0,0,1-.25-6,111.24,111.24,0,0,1,1.63-21,16.73,16.73,0,0,1,1.15-4,1.91,1.91,0,0,1,1.66-1.21c.72,0,1.55.57,2.48,1.7a57.39,57.39,0,0,1,4.52,6.07,42.48,42.48,0,0,1,4.2,9,62.76,62.76,0,0,1,6.52-13.29q2.86-4.47,4.57-4.47a1.18,1.18,0,0,1,1.08.71,9.62,9.62,0,0,1,.65,2.26Q328.11,246.92,328.11,260.07Z"/>
      <path class="cls-11" d="M337.8,248.28a140,140,0,0,1-.72,16.75,11.8,11.8,0,0,1-.63,2.93,1.51,1.51,0,0,1-1.45,1,1.47,1.47,0,0,1-1.14-.5,1.68,1.68,0,0,1-.46-1.19c0,.06.08-.37.26-1.3a36.23,36.23,0,0,0,.52-3.59q.27-2.86.27-6.39c0-1,0-2.12,0-3.26s0-1.76,0-1.86a11.26,11.26,0,0,1,.38-3.53,1.49,1.49,0,0,1,1.5-1.09C337.28,246.25,337.8,246.92,337.8,248.28Zm.71-7.17q0,2.67-2.31,2.67a2,2,0,0,1-1.58-.73,2.59,2.59,0,0,1-.64-1.77,2.79,2.79,0,0,1,.7-1.92,2.24,2.24,0,0,1,1.72-.79,1.92,1.92,0,0,1,1.53.7A2.76,2.76,0,0,1,338.51,241.11Z"/>
      <path class="cls-11" d="M357.34,258.22A46.64,46.64,0,0,1,356,269c-.45,1.88-1.11,2.82-2,2.82s-1.35-.58-1.35-1.73a3.69,3.69,0,0,1,0-.58,6.7,6.7,0,0,1-3.52,1,6.33,6.33,0,0,1-5-2.05,8.36,8.36,0,0,1-1.81-5.73,8.61,8.61,0,0,1,1.95-5.94,6.6,6.6,0,0,1,5.18-2.19,6.16,6.16,0,0,1,4.75,2.13q-.32-7.42-4.88-7.43a4.32,4.32,0,0,0-2.18.69,4.42,4.42,0,0,1-1.5.68,1.32,1.32,0,0,1-1-.52,1.82,1.82,0,0,1-.45-1.21,2.62,2.62,0,0,1,1.45-2.08,6.51,6.51,0,0,1,3.7-1Q357.34,245.85,357.34,258.22ZM354,262.64q0-4.77-4-4.77c-2.92,0-4.37,1.58-4.37,4.74s1.44,4.77,4.33,4.77a3.64,3.64,0,0,0,2.95-1.25A5.2,5.2,0,0,0,354,262.64Z"/>
      <path class="cls-11" d="M117.14,308.16c0,1.3-1.17,3-3.51,5a9.63,9.63,0,0,1-6.52,2.14,7.52,7.52,0,0,1-6.29-3q-2.35-3-2.35-8.31,0-6.82,2.7-10.63a8.6,8.6,0,0,1,7.41-3.81,9,9,0,0,1,5.73,1.77,4.9,4.9,0,0,1,2.12,4c0,1.27-.52,1.9-1.57,1.9a1.12,1.12,0,0,1-1.06-.58,21.61,21.61,0,0,0-.92-2.07c-.79-1-2.22-1.5-4.3-1.5a5.63,5.63,0,0,0-5,2.76c-1.19,1.84-1.78,4.48-1.78,7.9q0,8.13,5.73,8.12a7.31,7.31,0,0,0,5.67-2.65l1-1.69c.4-.68.86-1,1.37-1a1.47,1.47,0,0,1,1.08.52A1.64,1.64,0,0,1,117.14,308.16Z"/>
      <path class="cls-11" d="M134.41,304.44a46.66,46.66,0,0,1-1.34,10.77q-.66,2.82-2,2.82c-.9,0-1.35-.58-1.35-1.73a4,4,0,0,1,0-.58,6.64,6.64,0,0,1-3.51,1,6.35,6.35,0,0,1-5-2.05,8.39,8.39,0,0,1-1.8-5.73,8.61,8.61,0,0,1,1.95-5.94,6.59,6.59,0,0,1,5.18-2.19,6.16,6.16,0,0,1,4.75,2.13q-.31-7.43-4.88-7.43a4.29,4.29,0,0,0-2.18.69,4.16,4.16,0,0,1-1.51.68,1.3,1.3,0,0,1-1-.52,1.8,1.8,0,0,1-.45-1.21,2.62,2.62,0,0,1,1.45-2.08,6.49,6.49,0,0,1,3.7-1Q134.41,292.06,134.41,304.44ZM131,308.85c0-3.18-1.32-4.77-4-4.77q-4.37,0-4.36,4.74t4.33,4.77a3.66,3.66,0,0,0,3-1.25A5.2,5.2,0,0,0,131,308.85Z"/>
      <path class="cls-11" d="M152.52,298.31a1.69,1.69,0,0,1-.37,1.11,1.08,1.08,0,0,1-.87.47,10.23,10.23,0,0,1-1.9-.74,8,8,0,0,0-3.24-.73,7.61,7.61,0,0,0-1,.07,28.87,28.87,0,0,0-.62,5.63,10.58,10.58,0,0,0,1,5.05,3,3,0,0,0,2.74,1.77,3.82,3.82,0,0,0,1.4-.38,3.75,3.75,0,0,1,1.26-.39c.89,0,1.33.59,1.33,1.77a2.14,2.14,0,0,1-1.1,1.86,5.4,5.4,0,0,1-3,.71q-7.07,0-7.07-10.62a28.33,28.33,0,0,1,.48-4.93c-.31.05-1,.2-2,.44a7.71,7.71,0,0,1-1.5.22c-1.19,0-1.78-.51-1.78-1.54,0-1.4,2-2.32,6.14-2.75q1.28-4.53,3.1-4.53a1.27,1.27,0,0,1,1,.46,1.64,1.64,0,0,1,.4,1.12,3.87,3.87,0,0,1-.25,1.23c-.17.5-.33,1-.5,1.5Q152.52,295.35,152.52,298.31Z"/>
      <path class="cls-11" d="M172.49,308.16c0,1.3-1.17,3-3.51,5a9.63,9.63,0,0,1-6.52,2.14,7.52,7.52,0,0,1-6.29-3q-2.35-3-2.35-8.31,0-6.82,2.7-10.63a8.59,8.59,0,0,1,7.41-3.81,9,9,0,0,1,5.73,1.77,4.9,4.9,0,0,1,2.12,4c0,1.27-.52,1.9-1.57,1.9a1.12,1.12,0,0,1-1.06-.58,21.61,21.61,0,0,0-.92-2.07c-.79-1-2.22-1.5-4.3-1.5a5.63,5.63,0,0,0-5,2.76c-1.19,1.84-1.78,4.48-1.78,7.9q0,8.13,5.73,8.12a7.31,7.31,0,0,0,5.67-2.65l1-1.69c.4-.68.86-1,1.37-1A1.47,1.47,0,0,1,172,307,1.64,1.64,0,0,1,172.49,308.16Z"/>
      <path class="cls-11" d="M192.46,305.09a32.72,32.72,0,0,1-.92,8.62c-.58,2.05-1.31,3.08-2.18,3.08a1.7,1.7,0,0,1-1.27-.52,1.62,1.62,0,0,1-.52-1.17,47.16,47.16,0,0,0,1.57-10q0-5.08-1-7.41a3.59,3.59,0,0,0-3.47-2.38,5.55,5.55,0,0,0-2.58.69,5.76,5.76,0,0,0-2,1.69,6.71,6.71,0,0,0-.89,3.82v1.21q0,4.79.33,9.29c.21,3,.32,4.41.32,4.21q0,1.86-1.53,1.86a1.33,1.33,0,0,1-1.25-.62,6.33,6.33,0,0,1-.53-2.13,94.42,94.42,0,0,1-.57-11.66,98.7,98.7,0,0,1,1.25-14.59,11.7,11.7,0,0,1,.53-2.33,1.31,1.31,0,0,1,1.25-.79,1.35,1.35,0,0,1,1.07.53,2,2,0,0,1,.43,1.35s-.28,2.08-.85,6.32a7.12,7.12,0,0,1,5.35-2.31Q192.46,291.84,192.46,305.09Z"/>
      <path class="cls-11" d="M223.36,299.77a3.46,3.46,0,0,1-1.2,2.9,12.34,12.34,0,0,1-3.38,1.07,29,29,0,0,1-6.45.88,28.66,28.66,0,0,1-2.93-.18q0,7.08,4.78,7.08a3.74,3.74,0,0,0,2.38-.84,18,18,0,0,0,1.92-2,1.4,1.4,0,0,1,1.05-.59,1.54,1.54,0,0,1,1.21.6,2.14,2.14,0,0,1,.51,1.45,2,2,0,0,1-.49,1.32,8.44,8.44,0,0,1-6.71,3.53q-8,0-8-10.39a16.6,16.6,0,0,1,2.54-9.26q2.88-4.41,7.13-4.41a6.87,6.87,0,0,1,5.46,2.5A9.34,9.34,0,0,1,223.36,299.77Zm-3.31.23a7.44,7.44,0,0,0-1.21-4.14,3.33,3.33,0,0,0-2.78-1.52,5.08,5.08,0,0,0-3.81,1.75,11,11,0,0,0-2.53,5,19.93,19.93,0,0,0,2.51.15A31.08,31.08,0,0,0,220.05,300Z"/>
      <path class="cls-11" d="M242.47,303a31.62,31.62,0,0,1-1.29,8.9c-.53,1.83-1.19,2.74-2,2.74a1.46,1.46,0,0,1-1.08-.44,1.42,1.42,0,0,1-.44-1.06c0-.11.26-1.26.8-3.43a27.34,27.34,0,0,0,.79-6.48c0-4.88-1.35-7.31-4.05-7.31a4.55,4.55,0,0,0-3.79,1.93,8.5,8.5,0,0,0-1.52,5.27,38.26,38.26,0,0,0,.46,5.08,39.89,39.89,0,0,1,.46,4.66c0,2.15-.55,3.23-1.64,3.23a1.41,1.41,0,0,1-1.15-.41,3.37,3.37,0,0,1-.41-1.32q0-1.17-.42-6.73-.68-7.79-.68-11.06c0-3.8.65-5.69,1.95-5.69a1.46,1.46,0,0,1,1.08.44,1.37,1.37,0,0,1,.45,1,11.49,11.49,0,0,1-.2,1.56,12,12,0,0,0-.2,1.94v.43q2.46-3.78,6-3.78a5.76,5.76,0,0,1,5.06,2.72Q242.47,298,242.47,303Z"/>
      <path class="cls-11" d="M264.45,302.16a12.92,12.92,0,0,1-2.87,8.81,9.63,9.63,0,0,1-7.64,3.28,7.3,7.3,0,0,1-6.22-3.05q-2.25-3.06-2.25-8.49c0-3.82.91-6.77,2.72-8.88a9.23,9.23,0,0,1,7.4-3.1,7.72,7.72,0,0,1,6.41,3.14A13.12,13.12,0,0,1,264.45,302.16Zm-3.32,0a9.62,9.62,0,0,0-1.62-5.92,5.27,5.27,0,0,0-4.44-2.13q-6.28,0-6.28,8.52a11.14,11.14,0,0,0,1.36,6,4.4,4.4,0,0,0,3.92,2.12,6.35,6.35,0,0,0,5.18-2.28A9.64,9.64,0,0,0,261.13,302.2Z"/>
      <path class="cls-11" d="M285.39,314a2.4,2.4,0,0,1-.48,1.52,1.46,1.46,0,0,1-1.18.62q-1.32,0-2.22-4.57c-1.88,2.9-4.15,4.35-6.83,4.35q-6.65,0-6.65-12a69.35,69.35,0,0,1,.72-10.7c.29-1.88,1-2.82,2.11-2.82a1.35,1.35,0,0,1,1.05.51,1.71,1.71,0,0,1,.45,1.18c0,.4-.16,2-.48,4.66a64.73,64.73,0,0,0-.48,7.56q0,8.06,3.93,8.05a4.62,4.62,0,0,0,4-2.23,11.27,11.27,0,0,0,1.49-6.29v-1.11a67.56,67.56,0,0,1,.29-8.08c.26-1.71.88-2.56,1.86-2.56s1.4.73,1.4,2.2c0,.26-.05,1.22-.14,2.86s-.14,3.14-.14,4.49a57.74,57.74,0,0,0,.63,8.85C285.18,313.2,285.39,314.36,285.39,314Z"/>
      <path class="cls-11" d="M305.67,290.84a1.3,1.3,0,0,1-1.46,1.47c-.14,0-.42,0-.85-.08L302,292.1a9.15,9.15,0,0,1,2,5.94,7.58,7.58,0,0,1-2.09,5.5,7.25,7.25,0,0,1-5.44,2.16c-.5,0-1.3-.07-2.4-.19a8.82,8.82,0,0,0-2.25,2.86,41.88,41.88,0,0,1,4.3-.44q6.83,0,6.83,5.32a5.85,5.85,0,0,1-2.58,5.05,12.14,12.14,0,0,1-7.18,1.84,7.73,7.73,0,0,1-4.64-1.26,3.57,3.57,0,0,1-1.61-3,1.49,1.49,0,0,1,.48-1.11,1.54,1.54,0,0,1,1.13-.47,1.25,1.25,0,0,1,.87.43l.83,1a4.1,4.1,0,0,0,3.1.92,9.85,9.85,0,0,0,4.57-.87,2.53,2.53,0,0,0,1.58-2.29q0-2.13-4.37-2.13a23.67,23.67,0,0,0-2.72.22,22.52,22.52,0,0,1-2.36.21c-1.07,0-1.61-.42-1.61-1.27q0-1.79,3.11-6.08a7.09,7.09,0,0,1-2.56-5.9,8.85,8.85,0,0,1,2.26-6.11,7.16,7.16,0,0,1,5.55-2.54,7.59,7.59,0,0,1,1.6.19c.37-.62,1.55-.92,3.55-.92C304.43,289.19,305.67,289.74,305.67,290.84Zm-4.85,6.84a4.91,4.91,0,0,0-1.1-3.34,3.72,3.72,0,0,0-2.93-1.26,4.08,4.08,0,0,0-3.27,1.51,6,6,0,0,0-1.26,3.94q0,3.93,4.16,3.93a4.2,4.2,0,0,0,3.25-1.25A5,5,0,0,0,300.82,297.68Z"/>
      <path class="cls-11" d="M324.57,305.09a32.72,32.72,0,0,1-.92,8.62c-.58,2.05-1.31,3.08-2.18,3.08a1.7,1.7,0,0,1-1.27-.52,1.62,1.62,0,0,1-.52-1.17,47.16,47.16,0,0,0,1.57-10q0-5.08-1-7.41a3.59,3.59,0,0,0-3.47-2.38,5.55,5.55,0,0,0-2.58.69,5.76,5.76,0,0,0-2,1.69,6.71,6.71,0,0,0-.89,3.82v1.21q0,4.79.33,9.29c.21,3,.32,4.41.32,4.21q0,1.86-1.53,1.86a1.33,1.33,0,0,1-1.25-.62,6.33,6.33,0,0,1-.53-2.13,94.42,94.42,0,0,1-.57-11.66,98.7,98.7,0,0,1,1.25-14.59,11.7,11.7,0,0,1,.53-2.33,1.32,1.32,0,0,1,1.25-.79,1.33,1.33,0,0,1,1.07.53,2,2,0,0,1,.43,1.35s-.28,2.08-.85,6.32a7.12,7.12,0,0,1,5.35-2.31Q324.57,291.84,324.57,305.09Z"/>
      <path class="cls-11" d="M356.87,308.16c0,1.3-1.17,3-3.51,5a9.63,9.63,0,0,1-6.52,2.14,7.55,7.55,0,0,1-6.3-3c-1.56-2-2.35-4.79-2.35-8.31q0-6.82,2.7-10.63a8.6,8.6,0,0,1,7.42-3.81,9,9,0,0,1,5.73,1.77,4.9,4.9,0,0,1,2.12,4c0,1.27-.53,1.9-1.57,1.9a1.14,1.14,0,0,1-1.07-.58,21.16,21.16,0,0,0-.91-2.07c-.79-1-2.22-1.5-4.3-1.5a5.65,5.65,0,0,0-5,2.76c-1.18,1.84-1.77,4.48-1.77,7.9q0,8.13,5.73,8.12a7.31,7.31,0,0,0,5.67-2.65l1-1.69c.4-.68.86-1,1.37-1a1.47,1.47,0,0,1,1.08.52A1.64,1.64,0,0,1,356.87,308.16Z"/>
      <path class="cls-11" d="M376.83,305.09a32.78,32.78,0,0,1-.91,8.62c-.58,2.05-1.31,3.08-2.19,3.08a1.68,1.68,0,0,1-1.26-.52,1.58,1.58,0,0,1-.52-1.17,47.16,47.16,0,0,0,1.57-10q0-5.08-1-7.41A3.58,3.58,0,0,0,369,295.3a5.52,5.52,0,0,0-2.58.69,5.89,5.89,0,0,0-2,1.69,6.72,6.72,0,0,0-.88,3.82v1.21q0,4.79.33,9.29c.21,3,.32,4.41.32,4.21q0,1.86-1.53,1.86a1.33,1.33,0,0,1-1.25-.62,6.52,6.52,0,0,1-.54-2.13,98.67,98.67,0,0,1,.69-26.25,11,11,0,0,1,.53-2.33,1.31,1.31,0,0,1,1.25-.79,1.35,1.35,0,0,1,1.07.53,2,2,0,0,1,.43,1.35s-.28,2.08-.85,6.32a7.12,7.12,0,0,1,5.35-2.31Q376.84,291.84,376.83,305.09Z"/>
      <path class="cls-11" d="M397.51,299.77a3.46,3.46,0,0,1-1.2,2.9,12.34,12.34,0,0,1-3.38,1.07,29,29,0,0,1-6.45.88,28.66,28.66,0,0,1-2.93-.18q0,7.08,4.78,7.08a3.74,3.74,0,0,0,2.38-.84,18,18,0,0,0,1.92-2,1.4,1.4,0,0,1,1.05-.59,1.54,1.54,0,0,1,1.21.6,2.14,2.14,0,0,1,.51,1.45,2.08,2.08,0,0,1-.49,1.32A8.44,8.44,0,0,1,388.2,315q-8,0-8-10.39a16.6,16.6,0,0,1,2.54-9.26c1.92-2.94,4.29-4.41,7.13-4.41a6.87,6.87,0,0,1,5.46,2.5A9.39,9.39,0,0,1,397.51,299.77Zm-3.32.23a7.36,7.36,0,0,0-1.2-4.14,3.34,3.34,0,0,0-2.78-1.52,5.08,5.08,0,0,0-3.81,1.75,11,11,0,0,0-2.54,5,20.09,20.09,0,0,0,2.52.15A30.94,30.94,0,0,0,394.19,300Z"/>
      <path class="cls-11" d="M416.59,299.77a3.46,3.46,0,0,1-1.2,2.9,12.48,12.48,0,0,1-3.38,1.07,29.06,29.06,0,0,1-6.45.88,28.66,28.66,0,0,1-2.93-.18q0,7.08,4.78,7.08a3.76,3.76,0,0,0,2.38-.84,19,19,0,0,0,1.92-2,1.4,1.4,0,0,1,1.05-.59,1.52,1.52,0,0,1,1.2.6,2.14,2.14,0,0,1,.51,1.45,2.07,2.07,0,0,1-.48,1.32,8.45,8.45,0,0,1-6.72,3.53q-7.95,0-8-10.39a16.59,16.59,0,0,1,2.53-9.26q2.88-4.41,7.13-4.41a6.89,6.89,0,0,1,5.47,2.5A9.39,9.39,0,0,1,416.59,299.77Zm-3.32.23a7.36,7.36,0,0,0-1.21-4.14,3.31,3.31,0,0,0-2.77-1.52,5.07,5.07,0,0,0-3.81,1.75,11,11,0,0,0-2.54,5,20.09,20.09,0,0,0,2.52.15A31,31,0,0,0,413.27,300Z"/>
      <path class="cls-11" d="M432.12,295.47c0,1.25-.56,1.88-1.69,1.88a1.07,1.07,0,0,1-.91-.47L429,296a3.17,3.17,0,0,0-2.74-1.5q-3,0-3,3.78a4.41,4.41,0,0,0,.53,2.25,7.39,7.39,0,0,0,1.62,1.83,28.23,28.23,0,0,1,3.28,3.14,6.46,6.46,0,0,1,1.36,4.06,6.94,6.94,0,0,1-1.73,4.9,5.83,5.83,0,0,1-4.51,1.89,6.17,6.17,0,0,1-4.35-1.56,4.93,4.93,0,0,1-1.65-3.8q0-2.31,1.77-2.31c1,0,1.51.86,1.54,2.57a3.38,3.38,0,0,0,2.7,1.62,2.64,2.64,0,0,0,2-.86,3,3,0,0,0,.79-2.13,3.16,3.16,0,0,0-1-2.2s-.83-.76-2.45-2.2a9.21,9.21,0,0,1-3.36-7.05,7.7,7.7,0,0,1,1.79-5.32,5.93,5.93,0,0,1,4.69-2,6.17,6.17,0,0,1,4.08,1.41A3.84,3.84,0,0,1,432.12,295.47Z"/>
      <path class="cls-11" d="M451.19,299.77a3.45,3.45,0,0,1-1.19,2.9,12.61,12.61,0,0,1-3.39,1.07,24,24,0,0,1-9.38.7c0,4.72,1.6,7.08,4.78,7.08a3.77,3.77,0,0,0,2.39-.84,19.29,19.29,0,0,0,1.91-2,1.43,1.43,0,0,1,1.05-.59,1.54,1.54,0,0,1,1.21.6,2.14,2.14,0,0,1,.51,1.45,2.07,2.07,0,0,1-.48,1.32,8.45,8.45,0,0,1-6.72,3.53q-8,0-8-10.39a16.59,16.59,0,0,1,2.53-9.26q2.88-4.41,7.13-4.41a6.9,6.9,0,0,1,5.47,2.5A9.39,9.39,0,0,1,451.19,299.77Zm-3.31.23a7.44,7.44,0,0,0-1.21-4.14,3.32,3.32,0,0,0-2.77-1.52,5.09,5.09,0,0,0-3.82,1.75,11,11,0,0,0-2.53,5,20,20,0,0,0,2.51.15A31.08,31.08,0,0,0,447.88,300Z"/>
      <path class="cls-11" d="M113.86,350.65a46.62,46.62,0,0,1-1.33,10.77q-.68,2.82-2,2.82c-.9,0-1.35-.58-1.35-1.73a4,4,0,0,1,0-.58,6.65,6.65,0,0,1-3.52,1,6.34,6.34,0,0,1-5-2,8.38,8.38,0,0,1-1.81-5.73,8.58,8.58,0,0,1,2-5.93,6.6,6.6,0,0,1,5.18-2.19,6.16,6.16,0,0,1,4.75,2.12q-.32-7.43-4.88-7.43a4.26,4.26,0,0,0-2.17.69,4.41,4.41,0,0,1-1.51.69,1.33,1.33,0,0,1-1-.53,1.79,1.79,0,0,1-.45-1.2,2.64,2.64,0,0,1,1.45-2.09,6.53,6.53,0,0,1,3.7-1Q113.86,338.27,113.86,350.65Zm-3.38,4.42q0-4.79-4-4.78-4.36,0-4.37,4.74c0,3.18,1.45,4.77,4.33,4.77a3.64,3.64,0,0,0,3-1.25A5.19,5.19,0,0,0,110.48,355.07Z"/>
      <path class="cls-11" d="M134.54,349.26a31.26,31.26,0,0,1-1.3,8.89c-.53,1.83-1.19,2.74-2,2.74a1.46,1.46,0,0,1-1.08-.44,1.43,1.43,0,0,1-.45-1.06c0-.11.27-1.26.8-3.43a27.36,27.36,0,0,0,.8-6.48c0-4.88-1.35-7.31-4.06-7.31a4.56,4.56,0,0,0-3.79,1.93,8.5,8.5,0,0,0-1.51,5.27,39.69,39.69,0,0,0,.45,5.08,37.76,37.76,0,0,1,.46,4.66c0,2.15-.54,3.23-1.63,3.23a1.38,1.38,0,0,1-1.15-.41,3.13,3.13,0,0,1-.42-1.32c0-.77-.15-3-.41-6.73-.46-5.19-.69-8.87-.69-11.06q0-5.69,2-5.69a1.47,1.47,0,0,1,1.09.44,1.39,1.39,0,0,1,.45,1,11.49,11.49,0,0,1-.2,1.56,11,11,0,0,0-.2,1.94v.43q2.46-3.78,6-3.78a5.74,5.74,0,0,1,5.06,2.72Q134.55,344.17,134.54,349.26Z"/>
      <path class="cls-11" d="M156.32,333.59c0-.07-.07.87-.2,2.82-.15,2.27-.27,4.69-.37,7.24q-.18,5.53-.18,11.77c0,.86,0,1.73,0,2.63s0,1.37,0,1.42c0,1.86-.53,2.8-1.58,2.8s-1.72-1.06-1.72-3.16c0-.49,0-.87,0-1.15a9.54,9.54,0,0,1-7.29,3.5,6.64,6.64,0,0,1-5.48-2.53,10.83,10.83,0,0,1-2-6.95q0-6,2.94-9.72a9.33,9.33,0,0,1,7.69-3.7,10.52,10.52,0,0,1,4.58,1.14,57.25,57.25,0,0,1,.32-6.24c.24-1.28.86-1.92,1.84-1.92S156.32,332.23,156.32,333.59Zm-3.74,9.78a7.5,7.5,0,0,0-4.37-1.54,6.32,6.32,0,0,0-5.36,2.64,11.76,11.76,0,0,0-2,7.17,7.79,7.79,0,0,0,1.32,4.83,4.37,4.37,0,0,0,3.65,1.72,5.11,5.11,0,0,0,4.46-2.2c.29-.49.57-1,.85-1.49a1.85,1.85,0,0,1,1.2-.94Q152.37,348.28,152.58,343.37Z"/>
      <path class="cls-11" d="M188.49,350q0,5.79-2.6,9.09a8.55,8.55,0,0,1-7.1,3.3,6,6,0,0,1-4.4-1.81,8.17,8.17,0,0,1-.23,2.26,1.45,1.45,0,0,1-1.48,1.16c-1.05,0-1.57-.73-1.57-2.21,0,0,0-.66.08-2,.07-1.56.12-3.22.16-5q.08-3.78.08-8.07a94.86,94.86,0,0,0-.35-9.51c-.08-.77-.21-1.64-.4-2.63a12,12,0,0,1-.22-1.53,1.41,1.41,0,0,1,.48-1,1.55,1.55,0,0,1,1.1-.46c.92,0,1.53.77,1.85,2.31a58.33,58.33,0,0,1,.64,7.35,8.77,8.77,0,0,1,5.66-2.2,7.26,7.26,0,0,1,6.07,2.9Q188.5,344.88,188.49,350Zm-3.32.11a9.74,9.74,0,0,0-1.46-5.7,4.58,4.58,0,0,0-3.93-2.09,5.5,5.5,0,0,0-5.19,3v2.9c0,1.36,0,2.83,0,4.41s0,2.45,0,2.64v0q1.37,3.53,4.47,3.53a5.22,5.22,0,0,0,4.42-2.41A10.7,10.7,0,0,0,185.17,350.14Z"/>
      <path class="cls-11" d="M207.9,346a3.46,3.46,0,0,1-1.2,2.9,12,12,0,0,1-3.38,1.07,29,29,0,0,1-6.45.88,28.66,28.66,0,0,1-2.93-.18c0,4.72,1.59,7.09,4.78,7.09a3.75,3.75,0,0,0,2.38-.85,18,18,0,0,0,1.92-2,1.4,1.4,0,0,1,1-.59,1.55,1.55,0,0,1,1.21.6,2.18,2.18,0,0,1,.5,1.45,2.07,2.07,0,0,1-.48,1.32,8.45,8.45,0,0,1-6.71,3.54q-8,0-8-10.4a16.62,16.62,0,0,1,2.53-9.25c1.93-2.95,4.3-4.42,7.14-4.42a6.87,6.87,0,0,1,5.46,2.5A9.41,9.41,0,0,1,207.9,346Zm-3.32.23a7.36,7.36,0,0,0-1.2-4.14,3.34,3.34,0,0,0-2.78-1.52,5.08,5.08,0,0,0-3.81,1.75,11,11,0,0,0-2.54,5,20.09,20.09,0,0,0,2.52.15A30.5,30.5,0,0,0,204.58,346.21Z"/>
      <path class="cls-11" d="M225.1,350.65a46.66,46.66,0,0,1-1.34,10.77q-.66,2.82-2,2.82c-.9,0-1.35-.58-1.35-1.73a4,4,0,0,1,0-.58,6.64,6.64,0,0,1-3.51,1,6.35,6.35,0,0,1-5-2,8.37,8.37,0,0,1-1.8-5.73,8.58,8.58,0,0,1,1.95-5.93,6.59,6.59,0,0,1,5.18-2.19,6.17,6.17,0,0,1,4.75,2.12c-.22-4.95-1.84-7.43-4.89-7.43a4.29,4.29,0,0,0-2.17.69,4.25,4.25,0,0,1-1.51.69,1.31,1.31,0,0,1-1-.53,1.79,1.79,0,0,1-.45-1.2,2.62,2.62,0,0,1,1.45-2.09,6.48,6.48,0,0,1,3.69-1Q225.11,338.27,225.1,350.65Zm-3.39,4.42c0-3.19-1.32-4.78-4-4.78q-4.36,0-4.36,4.74t4.33,4.77a3.66,3.66,0,0,0,3-1.25A5.19,5.19,0,0,0,221.71,355.07Z"/>
      <path class="cls-11" d="M243.21,344.52a1.78,1.78,0,0,1-.37,1.12,1.09,1.09,0,0,1-.87.46,10.23,10.23,0,0,1-1.9-.74,8,8,0,0,0-3.24-.73,9.57,9.57,0,0,0-1.05.07,28.12,28.12,0,0,0-.62,5.63,10.66,10.66,0,0,0,1,5.06,3,3,0,0,0,2.73,1.76,3.82,3.82,0,0,0,1.41-.38,3.69,3.69,0,0,1,1.26-.39c.89,0,1.33.59,1.33,1.77a2.14,2.14,0,0,1-1.1,1.86,5.41,5.41,0,0,1-3,.72q-7.07,0-7.06-10.63a28.13,28.13,0,0,1,.48-4.92c-.31.05-1,.19-2,.43a7.71,7.71,0,0,1-1.5.22c-1.19,0-1.78-.51-1.78-1.54,0-1.4,2-2.32,6.14-2.74.85-3,1.88-4.54,3.1-4.54a1.27,1.27,0,0,1,1,.46,1.66,1.66,0,0,1,.4,1.12,4,4,0,0,1-.25,1.24c-.17.49-.33,1-.5,1.49Q243.21,341.56,243.21,344.52Z"/>
      <path class="cls-11" d="M272.83,351.3a32.31,32.31,0,0,1-.92,8.62c-.57,2.05-1.3,3.08-2.18,3.08a1.68,1.68,0,0,1-1.26-.52,1.58,1.58,0,0,1-.52-1.17,47.83,47.83,0,0,0,1.57-10q0-5.08-1-7.4a3.57,3.57,0,0,0-3.46-2.39,5.56,5.56,0,0,0-2.59.69,5.85,5.85,0,0,0-2,1.7,6.66,6.66,0,0,0-.88,3.81v1.21q0,4.79.32,9.3t.33,4.2q0,1.86-1.53,1.86a1.33,1.33,0,0,1-1.25-.62,6.27,6.27,0,0,1-.54-2.13,98.69,98.69,0,0,1,.69-26.25,10.39,10.39,0,0,1,.53-2.33,1.3,1.3,0,0,1,1.25-.79,1.35,1.35,0,0,1,1.07.53,2.1,2.1,0,0,1,.43,1.35s-.29,2.08-.85,6.32a7.1,7.1,0,0,1,5.35-2.31Q272.83,338.05,272.83,351.3Z"/>
      <path class="cls-11" d="M293.51,346a3.46,3.46,0,0,1-1.2,2.9,12.11,12.11,0,0,1-3.38,1.07,29.06,29.06,0,0,1-6.45.88,28.66,28.66,0,0,1-2.93-.18c0,4.72,1.59,7.09,4.78,7.09a3.77,3.77,0,0,0,2.38-.85,19,19,0,0,0,1.92-2,1.4,1.4,0,0,1,1.05-.59,1.52,1.52,0,0,1,1.2.6,2.14,2.14,0,0,1,.51,1.45,2.07,2.07,0,0,1-.48,1.32,8.46,8.46,0,0,1-6.72,3.54q-7.95,0-8-10.4a16.54,16.54,0,0,1,2.53-9.25q2.88-4.43,7.13-4.42a6.89,6.89,0,0,1,5.47,2.5A9.41,9.41,0,0,1,293.51,346Zm-3.32.23a7.36,7.36,0,0,0-1.21-4.14,3.31,3.31,0,0,0-2.77-1.52,5.07,5.07,0,0,0-3.81,1.75,11,11,0,0,0-2.54,5,20.09,20.09,0,0,0,2.52.15A30.56,30.56,0,0,0,290.19,346.21Z"/>
      <path class="cls-11" d="M309,343.29a1.94,1.94,0,0,1-.38,1.21,1.16,1.16,0,0,1-.92.49,2.25,2.25,0,0,1-1.18-.66,2.32,2.32,0,0,0-1.42-.66,2.92,2.92,0,0,0-2.56,1.57,7.9,7.9,0,0,0-1,4.24v2.46a22.55,22.55,0,0,1-.76,6.55c-.48,1.51-1.1,2.27-1.85,2.27-1,0-1.52-.56-1.52-1.69a23.08,23.08,0,0,1,.47-2.49,19.27,19.27,0,0,0,.46-4.05A22.07,22.07,0,0,0,297,344.1c0-.06-.33-.69-.92-1.9a3.6,3.6,0,0,1-.45-1.46,1.62,1.62,0,0,1,.52-1.13,1.56,1.56,0,0,1,1.12-.53q1.75,0,2.93,4.89,1.74-3.77,5.05-3.76a4,4,0,0,1,2.7.88A2.76,2.76,0,0,1,309,343.29Z"/>
      <path class="cls-11" d="M338.88,351.3a32.72,32.72,0,0,1-.92,8.62c-.58,2.05-1.3,3.08-2.18,3.08a1.72,1.72,0,0,1-1.27-.52,1.61,1.61,0,0,1-.51-1.17,47.66,47.66,0,0,0,1.56-10q0-5.08-1-7.4a3.59,3.59,0,0,0-3.47-2.39,5.55,5.55,0,0,0-2.58.69,5.76,5.76,0,0,0-2,1.7,6.65,6.65,0,0,0-.89,3.81v1.21q0,4.79.33,9.3t.33,4.2c0,1.24-.52,1.86-1.54,1.86a1.34,1.34,0,0,1-1.25-.62,6.33,6.33,0,0,1-.53-2.13,94.35,94.35,0,0,1-.57-11.65,98.83,98.83,0,0,1,1.25-14.6,10.82,10.82,0,0,1,.54-2.33,1.3,1.3,0,0,1,1.25-.79,1.33,1.33,0,0,1,1.06.53,2,2,0,0,1,.43,1.35s-.28,2.08-.84,6.32a7.08,7.08,0,0,1,5.34-2.31Q338.88,338.05,338.88,351.3Z"/>
      <path class="cls-11" d="M361.19,360.2a2.35,2.35,0,0,1-.49,1.52,1.42,1.42,0,0,1-1.18.62c-.88,0-1.61-1.52-2.21-4.57q-2.82,4.35-6.84,4.35-6.64,0-6.64-12a69.46,69.46,0,0,1,.71-10.7c.29-1.88,1-2.82,2.12-2.82a1.36,1.36,0,0,1,1,.51,1.72,1.72,0,0,1,.45,1.18c0,.4-.16,2-.48,4.66a62.74,62.74,0,0,0-.49,7.56q0,8.06,3.93,8.05a4.62,4.62,0,0,0,4-2.23,11.18,11.18,0,0,0,1.5-6.29V349a68.52,68.52,0,0,1,.28-8.08c.27-1.71.89-2.56,1.87-2.56s1.39.74,1.39,2.2c0,.27,0,1.22-.14,2.86s-.14,3.14-.14,4.49a56.44,56.44,0,0,0,.64,8.85C361,359.41,361.19,360.57,361.19,360.2Z"/>
      <path class="cls-11" d="M381.6,349.26a31.26,31.26,0,0,1-1.3,8.89c-.53,1.83-1.19,2.74-2,2.74a1.46,1.46,0,0,1-1.08-.44,1.43,1.43,0,0,1-.45-1.06c0-.11.27-1.26.8-3.43a27.36,27.36,0,0,0,.8-6.48c0-4.88-1.35-7.31-4.06-7.31a4.56,4.56,0,0,0-3.79,1.93,8.5,8.5,0,0,0-1.51,5.27,39.69,39.69,0,0,0,.45,5.08,37.76,37.76,0,0,1,.46,4.66c0,2.15-.54,3.23-1.63,3.23a1.38,1.38,0,0,1-1.15-.41,3.13,3.13,0,0,1-.42-1.32c0-.77-.15-3-.41-6.73-.46-5.19-.69-8.87-.69-11.06q0-5.69,2-5.69a1.49,1.49,0,0,1,1.09.44,1.39,1.39,0,0,1,.45,1,11.49,11.49,0,0,1-.2,1.56,11,11,0,0,0-.2,1.94v.43q2.46-3.78,6-3.78a5.74,5.74,0,0,1,5.06,2.72Q381.61,344.17,381.6,349.26Z"/>
      <path class="cls-11" d="M401.84,337.05a1.3,1.3,0,0,1-1.46,1.47c-.14,0-.42,0-.85-.08l-1.39-.13a9.15,9.15,0,0,1,2,5.94,7.56,7.56,0,0,1-2.09,5.5,7.23,7.23,0,0,1-5.44,2.16c-.5,0-1.3-.07-2.4-.19a9.09,9.09,0,0,0-2.25,2.86,41.88,41.88,0,0,1,4.3-.44q6.83,0,6.83,5.33a5.86,5.86,0,0,1-2.57,5,12.2,12.2,0,0,1-7.19,1.84,7.73,7.73,0,0,1-4.64-1.26,3.57,3.57,0,0,1-1.61-3,1.49,1.49,0,0,1,.48-1.11,1.54,1.54,0,0,1,1.13-.47,1.25,1.25,0,0,1,.87.43l.83,1a4.1,4.1,0,0,0,3.1.92,9.85,9.85,0,0,0,4.57-.87,2.53,2.53,0,0,0,1.58-2.29q0-2.13-4.36-2.13a23.65,23.65,0,0,0-2.73.22,23.4,23.4,0,0,1-2.36.22c-1.07,0-1.61-.43-1.61-1.28q0-1.78,3.11-6.08a7.09,7.09,0,0,1-2.56-5.9,8.85,8.85,0,0,1,2.26-6.11,7.16,7.16,0,0,1,5.55-2.54,7.59,7.59,0,0,1,1.6.19c.37-.62,1.55-.92,3.55-.92C400.6,335.4,401.84,336,401.84,337.05ZM397,343.9a4.93,4.93,0,0,0-1.1-3.35,3.72,3.72,0,0,0-2.93-1.26,4,4,0,0,0-3.26,1.51,5.92,5.92,0,0,0-1.27,3.94q0,3.93,4.17,3.93a4.14,4.14,0,0,0,3.24-1.25A5,5,0,0,0,397,343.9Z"/>
      <path class="cls-11" d="M419.92,346a3.46,3.46,0,0,1-1.2,2.9,12,12,0,0,1-3.38,1.07,29,29,0,0,1-6.45.88,28.66,28.66,0,0,1-2.93-.18c0,4.72,1.59,7.09,4.78,7.09a3.75,3.75,0,0,0,2.38-.85,18,18,0,0,0,1.92-2,1.4,1.4,0,0,1,1-.59,1.54,1.54,0,0,1,1.21.6,2.14,2.14,0,0,1,.51,1.45,2.08,2.08,0,0,1-.49,1.32,8.45,8.45,0,0,1-6.71,3.54q-8,0-8-10.4a16.54,16.54,0,0,1,2.54-9.25c1.92-2.95,4.29-4.42,7.13-4.42a6.87,6.87,0,0,1,5.46,2.5A9.41,9.41,0,0,1,419.92,346Zm-3.32.23a7.36,7.36,0,0,0-1.2-4.14,3.34,3.34,0,0,0-2.78-1.52,5.08,5.08,0,0,0-3.81,1.75,11,11,0,0,0-2.54,5,20.09,20.09,0,0,0,2.52.15A30.5,30.5,0,0,0,416.6,346.21Z"/>
      <path class="cls-11" d="M435.38,343.29a1.88,1.88,0,0,1-.38,1.21,1.16,1.16,0,0,1-.92.49,2.28,2.28,0,0,1-1.18-.66,2.3,2.3,0,0,0-1.42-.66,2.92,2.92,0,0,0-2.56,1.57,7.9,7.9,0,0,0-1,4.24v2.46a22.5,22.5,0,0,1-.77,6.55c-.48,1.51-1.1,2.27-1.85,2.27-1,0-1.52-.56-1.52-1.69a23.08,23.08,0,0,1,.47-2.49,19.32,19.32,0,0,0,.47-4.05,22.05,22.05,0,0,0-1.34-8.43c0-.06-.32-.69-.91-1.9a3.6,3.6,0,0,1-.45-1.46,1.61,1.61,0,0,1,.51-1.13,1.57,1.57,0,0,1,1.12-.53c1.18,0,2.15,1.63,2.93,4.89q1.74-3.77,5-3.76a4,4,0,0,1,2.7.88A2.76,2.76,0,0,1,435.38,343.29Z"/>
      <path class="cls-11" d="M443.56,357.19a3.26,3.26,0,0,1-.74,2.24,2.47,2.47,0,0,1-2,.84,2.19,2.19,0,0,1-1.75-.81,3.13,3.13,0,0,1-.7-2.08,2.89,2.89,0,0,1,.76-2,2.45,2.45,0,0,1,1.86-.83C442.72,354.54,443.56,355.42,443.56,357.19Z"/>
    </g>
  </g>
</svg>
